<svg xmlns="http://www.w3.org/2000/svg" xmlns:xlink="http://www.w3.org/1999/xlink" viewBox="0 0 4900 2751">
  <defs>
    <style>
      .cls-1, .cls-11, .cls-16, .cls-26, .cls-9 {
        fill: none;
      }

      .cls-2 {
        fill: #10162f;
      }

      .cls-3, .cls-8 {
        fill: #fff;
      }

      .cls-10, .cls-11, .cls-12, .cls-13, .cls-14, .cls-15, .cls-16, .cls-17, .cls-18, .cls-19, .cls-20, .cls-21, .cls-23, .cls-24, .cls-25, .cls-26, .cls-27, .cls-28, .cls-3, .cls-4, .cls-5, .cls-6, .cls-7 {
        stroke: #000;
      }

      .cls-10, .cls-11, .cls-12, .cls-13, .cls-14, .cls-15, .cls-17, .cls-18, .cls-25, .cls-26, .cls-27, .cls-3, .cls-4, .cls-5, .cls-6, .cls-9 {
        stroke-linecap: round;
      }

      .cls-10, .cls-11, .cls-12, .cls-13, .cls-14, .cls-15, .cls-17, .cls-18, .cls-23, .cls-25, .cls-26, .cls-27, .cls-3, .cls-4, .cls-5, .cls-6, .cls-9 {
        stroke-linejoin: round;
      }

      .cls-10, .cls-11, .cls-12, .cls-13, .cls-14, .cls-15, .cls-16, .cls-17, .cls-18, .cls-19, .cls-21, .cls-3, .cls-4, .cls-5, .cls-6, .cls-7 {
        stroke-width: 6px;
      }

      .cls-4 {
        fill: #c9c9c9;
      }

      .cls-5 {
        fill: #ffd400;
      }

      .cls-19, .cls-20, .cls-28, .cls-6 {
        fill: #00feb9;
      }

      .cls-7 {
        fill: #ff0a28;
      }

      .cls-16, .cls-19, .cls-21, .cls-24, .cls-7 {
        stroke-miterlimit: 10;
      }

      .cls-9 {
        stroke: #fff;
        stroke-width: 7px;
      }

      .cls-10 {
        fill: #005aff;
      }

      .cls-12 {
        fill: #ff8400;
      }

      .cls-13 {
        fill: #9d0fab;
      }

      .cls-14 {
        fill: #b2b2b2;
      }

      .cls-15 {
        fill: #666;
      }

      .cls-17 {
        fill: #00f39e;
      }

      .cls-18 {
        fill: #e6e6e6;
      }

      .cls-20 {
        stroke-miterlimit: 10;
        stroke-width: 6px;
      }

      .cls-21 {
        fill: #ff71f5;
      }

      .cls-22 {
        clip-path: url(#clip-path);
      }

      .cls-23, .cls-24, .cls-25, .cls-26 {
        stroke-width: 4px;
      }

      .cls-27 {
        stroke-width: 3px;
      }

      .cls-28 {
        stroke-miterlimit: 10;
        stroke-width: 6px;
      }
    </style>
    <clipPath id="clip-path">
      <circle class="cls-1" cx="4045.32" cy="1052.26" r="49"/>
    </clipPath>
  </defs>
  <g id="Layer_2" data-name="Layer 2">
    <rect class="cls-2" width="4900" height="2751"/>
  </g>
  <g id="Layer_4" data-name="Layer 4">
    <rect class="cls-3" x="232.95" y="868.09" width="1028.47" height="595.71"/>
    <rect class="cls-4" x="232.71" y="863.3" width="1028.72" height="103"/>
    <ellipse class="cls-5" cx="358.58" cy="913" rx="22.71" ry="23.23"/>
    <ellipse class="cls-6" cx="421.75" cy="913" rx="22.71" ry="23.23"/>
    <ellipse class="cls-7" cx="291.59" cy="913" rx="22.71" ry="23.23"/>
    <rect class="cls-5" x="319.52" y="996.77" width="697.67" height="101.66"/>
    <rect class="cls-4" x="651.06" y="1129.05" width="470.83" height="101.66"/>
    <rect class="cls-4" x="651.06" y="1273.85" width="515.89" height="139.37"/>
    <path class="cls-8" d="M233.07,1949.26h15.15v48.35h10.27v4.13H233.15v-4.13h10.34v-44.24H233.07Z"/>
    <path class="cls-8" d="M272.57,1993.61a4.54,4.54,0,1,1-4.5,4.58A4.54,4.54,0,0,1,272.57,1993.61Z"/>
    <path class="cls-8" d="M307.84,1983.23l-6.15,18.53h-4.8l18.08-52.5h5.77l18.15,52.5h-5l-6.3-18.53Zm1.28-4h17.1l-8.4-25.35h-.25Z"/>
    <path class="cls-8" d="M351.65,1954.74v14h8.17v3.82h-8.17v22.42c0,3.08,2.17,3.23,4.72,3.23a23.43,23.43,0,0,0,3.45-.23v3.83a48.29,48.29,0,0,1-5.1.3c-3.45,0-7.65-.9-7.65-7v-22.5h-5.7v-3.82h5.7v-14Z"/>
    <path class="cls-8" d="M373.24,1954.74v14h8.18v3.82h-8.18v22.42c0,3.08,2.18,3.23,4.73,3.23a23.43,23.43,0,0,0,3.45-.23v3.83a48.29,48.29,0,0,1-5.1.3c-3.45,0-7.65-.9-7.65-7v-22.5H363v-3.82h5.7v-14Z"/>
    <path class="cls-8" d="M408,1978.88c0-5-3.9-7-8.33-7a17.93,17.93,0,0,0-10.2,3.6l-2.17-3.46a21.64,21.64,0,0,1,12.67-4.19c7.88,0,12.6,4.42,12.6,11.24v22.73H408v-4.19c-1.88,3.3-6.38,5-10.35,5-7.2,0-12-4.2-12-10.13s4.35-9.67,11.17-9.67h7.95c2.33,0,3.23-1.2,3.23-3Zm0,11.1v-4.57c-.83,1-2.55,1.27-4.28,1.27h-6.12c-4.87,0-7.12,2.4-7.12,5.85,0,2.85,2.17,6.23,7.72,6.23C403.17,1998.76,408,1996,408,1990Z"/>
    <path class="cls-8" d="M437.57,1998.68a11.81,11.81,0,0,0,10.87-6.67l3.9,2.25a16.74,16.74,0,0,1-14.77,8.4c-9.53,0-17.1-7.28-17.1-17.4s7.57-17.47,17.1-17.47a16.72,16.72,0,0,1,14.77,8.4l-3.9,2.25a11.86,11.86,0,0,0-10.87-6.6c-7.35,0-12.45,5.85-12.45,13.42S430.17,1998.68,437.57,1998.68Z"/>
    <path class="cls-8" d="M464.74,1981.51H469l12.75-12.82h6.15l-15.23,14.77,16.05,18.3h-6.07l-13.88-16.28h-4.05v16.28h-4.57v-52.5h4.57Z"/>
    <path class="cls-8" d="M495.49,1986.61c.6,6.82,5.18,12,12.08,12a11.38,11.38,0,0,0,10.27-5.7h5.33a17,17,0,0,1-15.6,9.75c-9.53,0-16.8-7.28-16.8-17.4s7.27-17.47,16.72-17.47c8.63,0,16.65,6.07,16.65,18.67v.15Zm.15-3.75H519c-.52-6-5-11-11.55-11S496.47,1976.61,495.64,1982.86Z"/>
    <path class="cls-8" d="M548.74,1972.73h-2.25c-5.85,0-10,2.71-10,10.5v18.53H532v-33.07h4.35v5.62c1.88-4.42,6-6.22,10-6.22.75,0,1.57.07,2.47.14Z"/>
    <path class="cls-8" d="M583.84,1998.68a11.84,11.84,0,0,0,10.88-6.67l3.9,2.25a16.78,16.78,0,0,1-14.78,8.4c-9.52,0-17.1-7.28-17.1-17.4s7.58-17.47,17.1-17.47a16.76,16.76,0,0,1,14.78,8.4l-3.9,2.25a11.89,11.89,0,0,0-10.88-6.6c-7.35,0-12.45,5.85-12.45,13.42S576.49,1998.68,583.84,1998.68Z"/>
    <path class="cls-8" d="M623.29,1972.73H621c-5.85,0-10,2.71-10,10.5v18.53h-4.5v-33.07h4.35v5.62c1.88-4.42,6-6.22,10-6.22.75,0,1.57.07,2.47.14Z"/>
    <path class="cls-8" d="M631.69,1986.61c.6,6.82,5.18,12,12.08,12a11.38,11.38,0,0,0,10.27-5.7h5.33a17,17,0,0,1-15.6,9.75c-9.53,0-16.8-7.28-16.8-17.4s7.27-17.47,16.72-17.47c8.63,0,16.65,6.07,16.65,18.67v.15Zm.15-3.75h23.4c-.52-6-5-11-11.55-11S632.67,1976.61,631.84,1982.86Z"/>
    <path class="cls-8" d="M687.71,1978.88c0-5-3.89-7-8.32-7a17.93,17.93,0,0,0-10.2,3.6L667,1972a21.64,21.64,0,0,1,12.67-4.19c7.87,0,12.6,4.42,12.6,11.24v22.73h-4.58v-4.19c-1.87,3.3-6.37,5-10.34,5-7.2,0-12-4.2-12-10.13s4.35-9.67,11.17-9.67h8c2.32,0,3.22-1.2,3.22-3Zm0,11.1v-4.57c-.82,1-2.54,1.27-4.27,1.27h-6.15c-4.87,0-7.12,2.4-7.12,5.85,0,2.85,2.17,6.23,7.72,6.23C682.92,1998.76,687.71,1996,687.71,1990Z"/>
    <path class="cls-8" d="M709,1954.74v14h8.17v3.82H709v22.42c0,3.08,2.17,3.23,4.72,3.23a23.43,23.43,0,0,0,3.45-.23v3.83a48.29,48.29,0,0,1-5.1.3c-3.45,0-7.65-.9-7.65-7v-22.5h-5.7v-3.82h5.7v-14Z"/>
    <path class="cls-8" d="M726.27,1986.61c.6,6.82,5.17,12,12.07,12a11.38,11.38,0,0,0,10.27-5.7h5.33a17,17,0,0,1-15.6,9.75c-9.52,0-16.8-7.28-16.8-17.4s7.28-17.47,16.72-17.47c8.63,0,16.65,6.07,16.65,18.67v.15Zm.15-3.75h23.39c-.52-6-5-11-11.55-11S727.24,1976.61,726.42,1982.86Z"/>
    <path class="cls-8" d="M778.76,1993c0-3.3-2.7-4.72-7.42-6.45l-1.88-.67c-5-1.8-8.4-4.35-8.4-9.15,0-5.48,4.88-8.92,11.33-8.92a16.82,16.82,0,0,1,10.72,3.82l-2.47,3.45a15,15,0,0,0-8.4-3.3c-3.68,0-6.45,1.88-6.45,4.72,0,2.1,1.5,3.75,4.87,5l3.83,1.42c6.37,2.48,9,5.25,9,10.13,0,4.27-3.68,9.6-12.15,9.6a19.79,19.79,0,0,1-11.63-4.13l2.4-3.45a15.83,15.83,0,0,0,9.38,3.53C776,1998.61,778.76,1996.06,778.76,1993Z"/>
    <path class="cls-8" d="M821.36,1998.68a11.84,11.84,0,0,0,10.88-6.67l3.9,2.25a16.78,16.78,0,0,1-14.78,8.4c-9.52,0-17.1-7.28-17.1-17.4s7.58-17.47,17.1-17.47a16.76,16.76,0,0,1,14.78,8.4l-3.9,2.25a11.89,11.89,0,0,0-10.88-6.6c-7.35,0-12.45,5.85-12.45,13.42S814,1998.68,821.36,1998.68Z"/>
    <path class="cls-8" d="M858.34,1967.79a17.44,17.44,0,1,1-17.1,17.78v-.31C841.24,1975.13,848.89,1967.79,858.34,1967.79Zm0,4c-7.35,0-12.45,5.85-12.45,13.42s5.1,13.42,12.45,13.42,12.52-5.85,12.52-13.42-5.1-13.37-12.52-13.37Z"/>
    <path class="cls-8" d="M911.36,1981.06v20.7h-4.57v-22c0-5.09-3.15-7.94-7.88-7.94-3.9,0-7.42,2.17-10.57,5.85v24.07h-4.58v-33.07h4.5v4.72c2.85-3.45,6.45-5.62,11.25-5.62,5.55,0,9.23,2.47,10.8,6.37,3.6-4.35,7.5-6.37,12.3-6.37,7.8,0,11.77,4.72,11.77,12v22h-4.57v-22c0-5.09-3.15-7.94-7.8-7.94-4,0-7.57,2.25-10.8,6C911.29,1978.88,911.36,1980,911.36,1981.06Z"/>
    <path class="cls-8" d="M972.26,1981.06v20.7h-4.57v-22c0-5.09-3.15-7.94-7.88-7.94-3.9,0-7.42,2.17-10.57,5.85v24.07h-4.58v-33.07h4.5v4.72c2.85-3.45,6.45-5.62,11.25-5.62,5.55,0,9.23,2.47,10.8,6.37,3.6-4.35,7.5-6.37,12.3-6.37,7.8,0,11.77,4.72,11.77,12v22h-4.57v-22c0-5.09-3.15-7.94-7.8-7.94-4,0-7.57,2.25-10.8,6C972.19,1978.88,972.26,1980,972.26,1981.06Z"/>
    <path class="cls-8" d="M1008,1986.61c.6,6.82,5.18,12,12.08,12a11.38,11.38,0,0,0,10.27-5.7h5.32a16.94,16.94,0,0,1-15.59,9.75c-9.53,0-16.8-7.28-16.8-17.4s7.27-17.47,16.72-17.47c8.63,0,16.65,6.07,16.65,18.67v.15Zm.15-3.75h23.4c-.52-6-5-11-11.55-11s-11,4.75-11.85,11Z"/>
    <path class="cls-8" d="M1068.18,1980c0-5.32-3.45-8.17-8.17-8.17-4,0-7.87,2.17-11,5.85v24.07h-4.58v-33.07h4.5v4.72a15,15,0,0,1,11.85-5.62c7.72,0,12,4.72,12,12v22h-4.58Z"/>
    <path class="cls-8" d="M1089.49,1954.74v14h8.17v3.82h-8.17v22.42c0,3.08,2.17,3.23,4.72,3.23a23.43,23.43,0,0,0,3.45-.23v3.83a48.29,48.29,0,0,1-5.1.3c-3.45,0-7.65-.9-7.65-7v-22.5h-5.7v-3.82h5.7v-14Z"/>
    <path class="cls-8" d="M1158.71,1968.69h5l-9.6,33.07h-6.23l-8.4-28.42-8.47,28.42h-6.23l-9.29-33.07h5.1l7.34,29.32,8.93-29.32h5.4l8.85,29.32Z"/>
    <path class="cls-8" d="M1177.23,2001.76h-4.57v-29.25h-5.25v-3.82h9.82Zm-2.66-49a4,4,0,1,1-4,4A4,4,0,0,1,1174.57,1952.71Z"/>
    <path class="cls-8" d="M1194.33,1954.74v14h8.18v3.82h-8.18v22.42c0,3.08,2.18,3.23,4.73,3.23a23.43,23.43,0,0,0,3.45-.23v3.83a48.29,48.29,0,0,1-5.1.3c-3.45,0-7.65-.9-7.65-7v-22.5h-5.7v-3.82h5.7v-14Z"/>
    <path class="cls-8" d="M1233.26,1980c0-5.32-3.45-8.17-8.18-8.17-4,0-7.87,2.17-11,5.85v24.07h-4.58v-52.5h4.5v24.15a15,15,0,0,1,11.85-5.62c7.73,0,12,4.72,12,12v22h-4.57Z"/>
    <path class="cls-8" d="M1277.81,1998.68a11.81,11.81,0,0,0,10.87-6.67l3.9,2.25a16.74,16.74,0,0,1-14.77,8.4c-9.53,0-17.1-7.28-17.1-17.4s7.57-17.47,17.1-17.47a16.72,16.72,0,0,1,14.77,8.4l-3.9,2.25a11.86,11.86,0,0,0-10.87-6.6c-7.35,0-12.45,5.85-12.45,13.42S1270.46,1998.68,1277.81,1998.68Z"/>
    <path class="cls-8" d="M1314.78,1967.79a17.44,17.44,0,1,1-17.1,17.78v-.31C1297.68,1975.13,1305.33,1967.79,1314.78,1967.79Zm0,4c-7.35,0-12.45,5.85-12.45,13.42s5.1,13.42,12.45,13.42,12.53-5.85,12.53-13.42-5.1-13.37-12.53-13.37Z"/>
    <path class="cls-8" d="M1367.28,1975.13v-25.87h4.58v52.5h-4.58v-6.3c-2,4.12-7,7.2-12.6,7.2-9.52,0-16.8-7.28-16.8-17.4s7.2-17.47,16.65-17.47C1360.23,1967.79,1365.33,1971,1367.28,1975.13Zm-12.3,23.55c7.35,0,12.53-5.85,12.53-13.42s-5.18-13.42-12.53-13.42-12.45,5.85-12.45,13.42S1347.63,1998.68,1355,1998.68Z"/>
    <path class="cls-8" d="M1384.91,1986.61c.6,6.82,5.17,12,12.07,12a11.41,11.41,0,0,0,10.28-5.7h5.31a17,17,0,0,1-15.6,9.75c-9.52,0-16.8-7.28-16.8-17.4s7.28-17.47,16.73-17.47c8.62,0,16.65,6.07,16.65,18.67v.15Zm.15-3.75h23.4c-.53-6-5-11-11.55-11S1385.88,1976.61,1385.06,1982.86Z"/>
    <path class="cls-8" d="M1645.3,1997.78s6.9-7.12,15.9-17.32c6.82-7.73,9.15-12.68,9.15-17.92,0-6-4.13-10.2-10.58-10.2-5.55,0-10.2,3.3-10.2,9.14a13.09,13.09,0,0,0,1.58,6l-4.35,1a16.64,16.64,0,0,1-1.73-7.12c0-8,6.75-13,14.85-13,8.7,0,15,5.48,15,14.1,0,5.25-2,11.25-11.62,21.75l-12.3,13.42h25.2v4.13h-30.9Z"/>
    <path class="cls-8" d="M1688.12,1993.61a4.54,4.54,0,1,1-4.5,4.58A4.54,4.54,0,0,1,1688.12,1993.61Z"/>
    <path class="cls-8" d="M1743.7,1957.06c-2.63-2.25-7.28-4.65-11.63-4.65-5.47,0-10.8,2.93-10.8,8.78,0,3.45,2.25,6.59,7.65,9.37l5.48,2.85c8.17,4.27,12.15,8.77,12.15,15.15,0,7-5.78,14.1-16.35,14.1a22.9,22.9,0,0,1-15.63-6.05l2.63-3.52a18.84,18.84,0,0,0,13.35,5.55c7,0,11.32-4.88,11.32-9.75,0-5.4-3.37-8.18-10.27-11.78l-4.43-2.32c-6.82-3.6-10.5-7.42-10.5-13.42,0-8.18,7.13-13,15.38-13a23.47,23.47,0,0,1,14.25,5.1Z"/>
    <path class="cls-8" d="M1757.5,1986.61c.6,6.82,5.17,12,12.07,12a11.41,11.41,0,0,0,10.28-5.7h5.32a17,17,0,0,1-15.6,9.75c-9.52,0-16.8-7.28-16.8-17.4s7.28-17.48,16.73-17.48c8.62,0,16.65,6.08,16.65,18.68v.15Zm.15-3.75h23.4c-.53-6-5-11-11.55-11S1758.47,1976.61,1757.65,1982.86Z"/>
    <path class="cls-8" d="M1810.75,1972.73h-2.25c-5.85,0-10,2.7-10,10.5v18.53H1794v-33.07h4.35v5.62c1.87-4.43,6-6.22,10-6.22.75,0,1.58.07,2.48.14Z"/>
    <path class="cls-8" d="M1840.57,1968.69h5l-12.52,33.07h-6.15l-12.3-33.07h5.17l10.28,29.32Z"/>
    <path class="cls-8" d="M1854,1986.61c.6,6.82,5.18,12,12.08,12a11.38,11.38,0,0,0,10.27-5.7h5.33a17,17,0,0,1-15.6,9.75c-9.53,0-16.8-7.28-16.8-17.4s7.27-17.48,16.72-17.48c8.63,0,16.65,6.08,16.65,18.68v.15Zm.15-3.75h23.4c-.52-6-5-11-11.55-11S1855,1976.61,1854.17,1982.86Z"/>
    <path class="cls-8" d="M1907.27,1972.73H1905c-5.85,0-10,2.7-10,10.5v18.53h-4.5v-33.07h4.35v5.62c1.88-4.43,6-6.22,10-6.22.75,0,1.57.07,2.47.14Z"/>
    <path class="cls-8" d="M1943.72,1993c0-3.3-2.7-4.72-7.42-6.45l-1.88-.67c-5-1.8-8.4-4.35-8.4-9.15,0-5.48,4.88-8.93,11.33-8.93a16.83,16.83,0,0,1,10.72,3.83l-2.47,3.45a15,15,0,0,0-8.4-3.3c-3.68,0-6.45,1.87-6.45,4.72,0,2.1,1.5,3.75,4.87,5l3.83,1.42c6.37,2.48,9,5.25,9,10.13,0,4.27-3.68,9.6-12.15,9.6a19.79,19.79,0,0,1-11.63-4.13l2.4-3.45a15.83,15.83,0,0,0,9.38,3.53C1941,1998.61,1943.72,1996.06,1943.72,1993Z"/>
    <path class="cls-8" d="M1976.2,1978.88c0-5-3.9-7-8.33-7-4.12,0-7.42,1.73-10.2,3.6l-2.17-3.45a21.65,21.65,0,0,1,12.67-4.2c7.87,0,12.6,4.43,12.6,11.25v22.73h-4.57v-4.2c-1.88,3.3-6.38,5-10.35,5-7.2,0-12-4.2-12-10.13s4.35-9.67,11.17-9.67h8c2.32,0,3.23-1.2,3.23-3Zm0,11.1v-4.57c-.83,1-2.56,1.27-4.28,1.27h-6.15c-4.87,0-7.12,2.4-7.12,5.85,0,2.85,2.17,6.23,7.72,6.23C1971.4,1998.76,1976.2,1996,1976.2,1990Z"/>
    <path class="cls-8" d="M2013.25,1968.69h5l-12.53,33.07h-6.15l-12.3-33.07h5.18l10.27,29.32Z"/>
    <path class="cls-8" d="M2026.75,1986.61c.6,6.82,5.17,12,12.07,12a11.41,11.41,0,0,0,10.28-5.7h5.32a17,17,0,0,1-15.6,9.75c-9.52,0-16.8-7.28-16.8-17.4s7.28-17.48,16.73-17.48c8.62,0,16.65,6.08,16.65,18.68v.15Zm.15-3.75h23.4c-.53-6-5-11-11.55-11S2027.72,1976.61,2026.9,1982.86Z"/>
    <path class="cls-8" d="M2079.25,1993c0-3.3-2.7-4.72-7.43-6.45l-1.87-.67c-5-1.8-8.4-4.35-8.4-9.15,0-5.48,4.87-8.93,11.32-8.93a16.85,16.85,0,0,1,10.7,3.83l-2.48,3.45a15,15,0,0,0-8.4-3.3c-3.67,0-6.45,1.87-6.45,4.72,0,2.1,1.5,3.75,4.88,5l3.82,1.42c6.38,2.48,9,5.25,9,10.13,0,4.27-3.67,9.6-12.15,9.6a19.73,19.73,0,0,1-11.62-4.13l2.4-3.45a15.82,15.82,0,0,0,9.37,3.53C2076.47,1998.61,2079.25,1996.06,2079.25,1993Z"/>
    <path class="cls-8" d="M2112.47,1954.74v14h8.17v3.82h-8.17v22.42c0,3.08,2.17,3.23,4.72,3.23a23.43,23.43,0,0,0,3.45-.23v3.83a48.29,48.29,0,0,1-5.1.3c-3.45,0-7.65-.9-7.65-7v-22.5h-5.69v-3.82h5.69v-14Z"/>
    <path class="cls-8" d="M2151.39,1980c0-5.33-3.45-8.18-8.17-8.18-4,0-7.88,2.18-11,5.85v24.08h-4.57v-52.5h4.5v24.15a15,15,0,0,1,11.85-5.63c7.72,0,12,4.73,12,12v22h-4.58Z"/>
    <path class="cls-8" d="M2168.64,1986.61c.6,6.82,5.18,12,12.08,12a11.38,11.38,0,0,0,10.27-5.7h5.33a17,17,0,0,1-15.6,9.75c-9.53,0-16.8-7.28-16.8-17.4s7.27-17.48,16.72-17.48c8.63,0,16.65,6.08,16.65,18.68v.15Zm.15-3.75h23.4c-.52-6-5-11-11.55-11S2169.62,1976.61,2168.79,1982.86Z"/>
    <path class="cls-8" d="M2234.79,1998.68a11.84,11.84,0,0,0,10.88-6.67l3.9,2.25a16.78,16.78,0,0,1-14.78,8.4c-9.52,0-17.1-7.28-17.1-17.4s7.58-17.48,17.1-17.48a16.76,16.76,0,0,1,14.78,8.4l-3.9,2.25a11.89,11.89,0,0,0-10.88-6.6c-7.35,0-12.45,5.85-12.45,13.43S2227.44,1998.68,2234.79,1998.68Z"/>
    <path class="cls-8" d="M2271.77,1967.78a17.44,17.44,0,1,1-17.1,17.78v-.3C2254.67,1975.13,2262.32,1967.78,2271.77,1967.78Zm0,4c-7.35,0-12.45,5.85-12.45,13.43s5.1,13.42,12.45,13.42,12.52-5.85,12.52-13.42-5.1-13.38-12.52-13.38Z"/>
    <path class="cls-8" d="M2324.79,1981.06v20.7h-4.57v-22c0-5.1-3.15-8-7.88-8-3.9,0-7.42,2.18-10.57,5.85v24.08h-4.58v-33.07h4.5v4.72c2.85-3.45,6.45-5.63,11.25-5.63,5.55,0,9.23,2.48,10.8,6.38,3.6-4.35,7.5-6.38,12.3-6.38,7.8,0,11.78,4.73,11.78,12v22h-4.58v-22c0-5.1-3.15-8-7.8-8-4,0-7.57,2.25-10.8,6C2324.72,1978.88,2324.79,1980,2324.79,1981.06Z"/>
    <path class="cls-8" d="M2385.69,1981.06v20.7h-4.57v-22c0-5.1-3.15-8-7.88-8-3.9,0-7.42,2.18-10.57,5.85v24.08h-4.58v-33.07h4.5v4.72c2.85-3.45,6.45-5.63,11.25-5.63,5.55,0,9.23,2.48,10.8,6.38,3.6-4.35,7.5-6.38,12.3-6.38,7.8,0,11.77,4.73,11.77,12v22h-4.57v-22c0-5.1-3.15-8-7.8-8-4,0-7.57,2.25-10.8,6C2385.62,1978.88,2385.69,1980,2385.69,1981.06Z"/>
    <path class="cls-8" d="M2421.39,1986.61c.6,6.82,5.18,12,12.08,12a11.38,11.38,0,0,0,10.27-5.7h5.33a17,17,0,0,1-15.6,9.75c-9.53,0-16.8-7.28-16.8-17.4s7.27-17.48,16.72-17.48c8.63,0,16.65,6.08,16.65,18.68v.15Zm.15-3.75h23.4c-.52-6-5-11-11.55-11s-11,4.75-11.82,11Z"/>
    <path class="cls-8" d="M2481.57,1980c0-5.33-3.45-8.18-8.17-8.18-4,0-7.87,2.18-11,5.85v24.08h-4.58v-33.07h4.5v4.72a15,15,0,0,1,11.85-5.63c7.72,0,12,4.73,12,12v22h-4.6Z"/>
    <path class="cls-8" d="M2502.92,1954.74v14h8.17v3.82h-8.17v22.42c0,3.08,2.17,3.23,4.72,3.23a23.43,23.43,0,0,0,3.45-.23v3.83a48.29,48.29,0,0,1-5.1.3c-3.45,0-7.65-.9-7.65-7v-22.5h-5.7v-3.82h5.7v-14Z"/>
    <path class="cls-8" d="M3779.07,2143.06c-4,0-6.38,1.27-8.1,2.92h-4.13v-26H3793v4.12h-22v17.18h.22a15.08,15.08,0,0,1,8.33-2.4c9.9,0,15.07,7,15.07,16.87-.07,11.4-7.2,17.63-15.22,17.63-7.65,0-14.4-4.88-14.4-14.1V2156h4.5l.07,2.85c.15,7.12,4.35,10.57,9.75,10.57,6.23,0,10.5-5,10.58-13.5C3789.87,2148.23,3786.42,2143.06,3779.07,2143.06Z"/>
    <path class="cls-8" d="M3807.19,2164.28a4.54,4.54,0,1,1-4.5,4.58A4.54,4.54,0,0,1,3807.19,2164.28Z"/>
    <path class="cls-8" d="M3830.74,2120h5.18l15.9,47.77h.15l16-47.77h4.72l-18.07,52.5h-5.78Z"/>
    <path class="cls-8" d="M3885.19,2172.46h-4.57v-29.25h-5.25v-3.83h9.82Zm-2.62-49a2.83,2.83,0,1,1-.05-.05h.05Z"/>
    <path class="cls-8" d="M3910.57,2169.38a11.84,11.84,0,0,0,10.88-6.67l3.9,2.25a16.78,16.78,0,0,1-14.78,8.4c-9.52,0-17.1-7.28-17.1-17.4s7.58-17.48,17.1-17.48a16.76,16.76,0,0,1,14.78,8.4l-3.9,2.25a11.89,11.89,0,0,0-10.88-6.6c-7.35,0-12.45,5.85-12.45,13.43S3903.19,2169.38,3910.57,2169.38Z"/>
    <path class="cls-8" d="M3939.64,2125.43v14h8.18v3.83h-8.18v22.35c0,3.08,2.18,3.23,4.73,3.23a23.43,23.43,0,0,0,3.45-.23v3.83a48.29,48.29,0,0,1-5.1.3c-3.45,0-7.65-.9-7.65-7v-22.5h-5.7v-3.83h5.7v-14Z"/>
    <path class="cls-8" d="M3960.57,2172.46H3956v-29.25h-5.25v-3.83h9.82Zm-2.62-49a2.83,2.83,0,1,1,0-.05h0Z"/>
    <path class="cls-8" d="M3998.81,2151.76v20.7h-4.57v-22c0-5.1-3.15-7.95-7.88-7.95-3.9,0-7.42,2.18-10.57,5.85v24.08h-4.57v-33.08h4.49v4.73c2.85-3.45,6.45-5.63,11.25-5.63,5.55,0,9.23,2.48,10.8,6.38,3.6-4.35,7.5-6.38,12.3-6.38,7.8,0,11.78,4.73,11.78,12v22h-4.58v-22c0-5.1-3.15-7.95-7.8-7.95-4,0-7.57,2.25-10.8,6C3998.74,2149.61,3998.81,2150.71,3998.81,2151.76Z"/>
    <path class="cls-8" d="M4035.87,2119.06a4.61,4.61,0,0,1,4.57,4.65h0a7.27,7.27,0,0,1-.75,2.85l-5,9.07h-4l3.45-7.65a4.48,4.48,0,0,1-2.85-4.27,4.61,4.61,0,0,1,4.57-4.65h0Z"/>
    <path class="cls-8" d="M4064.36,2163.68c0-3.3-2.7-4.72-7.42-6.45l-1.88-.67c-5-1.8-8.39-4.35-8.39-9.15,0-5.48,4.87-8.93,11.32-8.93a16.83,16.83,0,0,1,10.72,3.83l-2.47,3.45a15,15,0,0,0-8.4-3.3c-3.68,0-6.45,1.87-6.45,4.72,0,2.1,1.5,3.75,4.87,5l3.83,1.42c6.37,2.48,9,5.25,9,10.13,0,4.27-3.68,9.6-12.15,9.6a19.79,19.79,0,0,1-11.63-4.13l2.41-3.45a15.82,15.82,0,0,0,9.37,3.53C4061.57,2169.31,4064.36,2166.76,4064.36,2163.68Z"/>
    <path class="cls-8" d="M4096.84,2166.23v6.23h-4.58V2120h4.58v25.87c1.95-4.12,7.05-7.35,12.75-7.35,9.45,0,16.65,7.35,16.65,17.48s-7.28,17.4-16.8,17.4C4103.81,2173.36,4098.86,2170.28,4096.84,2166.23Zm12.3-23.7c-7.35,0-12.53,5.85-12.53,13.43s5.18,13.42,12.53,13.42,12.45-5.85,12.45-13.42S4116.49,2142.53,4109.14,2142.53Z"/>
    <path class="cls-8" d="M4151.36,2143.43h-2.25c-5.85,0-10,2.7-10,10.5v18.53h-4.49v-33.08h4.35V2145c1.88-4.43,6-6.23,10-6.23.75,0,1.57.08,2.47.15Z"/>
    <path class="cls-8" d="M4172.06,2138.48a17.44,17.44,0,1,1-17.1,17.77v-.3C4155,2145.83,4162.57,2138.48,4172.06,2138.48Zm0,4.05c-7.35,0-12.45,5.85-12.45,13.43s5.1,13.42,12.45,13.42,12.53-5.85,12.53-13.42S4179.49,2142.53,4172.06,2142.53Z"/>
    <path class="cls-8" d="M4237.31,2139.38h4.95l-9.6,33.08h-6.22L4218,2144l-8.48,28.43h-6.22l-9.3-33.08h5.1l7.35,29.33,8.92-29.33h5.4l8.85,29.33Z"/>
    <path class="cls-8" d="M4265.57,2163.68c0-3.3-2.7-4.72-7.43-6.45l-1.87-.67c-5-1.8-8.4-4.35-8.4-9.15,0-5.48,4.87-8.93,11.32-8.93a16.88,16.88,0,0,1,10.73,3.83l-2.48,3.45a14.88,14.88,0,0,0-8.4-3.3c-3.67,0-6.45,1.87-6.45,4.72,0,2.1,1.5,3.75,4.88,5l3.82,1.42c6.38,2.48,9,5.25,9,10.13,0,4.27-3.67,9.6-12.15,9.6a19.73,19.73,0,0,1-11.62-4.13l2.4-3.45a15.8,15.8,0,0,0,9.37,3.53C4262.81,2169.31,4265.57,2166.76,4265.57,2163.68Z"/>
    <path class="cls-8" d="M4280.89,2157.31c.6,6.82,5.17,12,12.07,12a11.41,11.41,0,0,0,10.28-5.7h5.33a17,17,0,0,1-15.6,9.75c-9.52,0-16.8-7.28-16.8-17.4s7.28-17.48,16.73-17.48c8.62,0,16.65,6.08,16.65,18.68v.15Zm.15-3.75h23.4c-.53-6-5-11-11.55-11s-11,4.7-11.85,11.05Z"/>
    <path class="cls-8" d="M4334.14,2143.43h-2.25c-5.85,0-10,2.7-10,10.5v18.53h-4.5v-33.08h4.35V2145c1.87-4.43,6-6.23,10-6.23.75,0,1.58.08,2.48.15Z"/>
    <path class="cls-8" d="M4356.94,2157.31c.6,6.82,5.17,12,12.07,12a11.41,11.41,0,0,0,10.28-5.7h5.28a17,17,0,0,1-15.6,9.75c-9.52,0-16.8-7.28-16.8-17.4s7.28-17.48,16.73-17.48c8.62,0,16.65,6.08,16.65,18.68v.15Zm.15-3.75h23.4c-.53-6-5-11-11.55-11s-11,4.7-11.85,11.05Z"/>
    <path class="cls-8" d="M4401.34,2156.11l-12.6-16.73h5.47l9.75,13.43,10-13.43h5.17l-12.6,16.58,12.6,16.5h-5.56l-9.67-13.2-9.68,13.2h-5.47Z"/>
    <path class="cls-8" d="M4427.06,2157.31c.6,6.82,5.18,12,12.08,12a11.38,11.38,0,0,0,10.27-5.7h5.33a17,17,0,0,1-15.6,9.75c-9.53,0-16.8-7.28-16.8-17.4s7.27-17.48,16.72-17.48c8.63,0,16.65,6.08,16.65,18.68v.15Zm.15-3.75h23.36c-.52-6-5-11-11.55-11s-11,4.7-11.81,11.05Z"/>
    <path class="cls-8" d="M4478.21,2169.38a11.84,11.84,0,0,0,10.88-6.67l3.9,2.25a16.78,16.78,0,0,1-14.78,8.4c-9.52,0-17.1-7.28-17.1-17.4s7.58-17.48,17.1-17.48a16.76,16.76,0,0,1,14.78,8.4l-3.9,2.25a11.89,11.89,0,0,0-10.88-6.6c-7.35,0-12.45,5.85-12.45,13.43S4470.86,2169.38,4478.21,2169.38Z"/>
    <path class="cls-8" d="M4500.41,2160.68v-21.3H4505v20.85c0,6,4.12,9.08,9.59,9.08s9.6-3.08,9.6-9.08v-20.85h4.58v21.3c0,7-4.95,12.68-14.18,12.68S4500.41,2167.66,4500.41,2160.68Z"/>
    <path class="cls-8" d="M4545.41,2125.43v14h8.16v3.83h-8.17v22.35c0,3.08,2.17,3.23,4.72,3.23a23.43,23.43,0,0,0,3.45-.23v3.83a48.29,48.29,0,0,1-5.1.3c-3.45,0-7.65-.9-7.65-7v-22.5h-5.69v-3.83h5.69v-14Z"/>
    <path class="cls-8" d="M4562.66,2157.31c.6,6.82,5.17,12,12.07,12a11.41,11.41,0,0,0,10.28-5.7h5.32a17,17,0,0,1-15.6,9.75c-9.52,0-16.79-7.28-16.79-17.4s7.27-17.48,16.72-17.48c8.62,0,16.65,6.08,16.65,18.68v.15Zm.15-3.75h23.4c-.53-6-5-11-11.55-11s-11,4.7-11.85,11.05Z"/>
    <path class="cls-8" d="M4615.16,2163.68c0-3.3-2.7-4.72-7.43-6.45l-1.87-.67c-5-1.8-8.4-4.35-8.4-9.15,0-5.48,4.87-8.93,11.32-8.93a16.88,16.88,0,0,1,10.73,3.83l-2.48,3.45a14.88,14.88,0,0,0-8.4-3.3c-3.67,0-6.45,1.87-6.45,4.72,0,2.1,1.5,3.75,4.88,5l3.82,1.42c6.38,2.48,9,5.25,9,10.13,0,4.27-3.67,9.6-12.15,9.6a19.73,19.73,0,0,1-11.62-4.13l2.4-3.45a15.78,15.78,0,0,0,9.37,3.53C4612.38,2169.31,4615.16,2166.76,4615.16,2163.68Z"/>
    <path class="cls-8" d="M4657.76,2169.38a11.81,11.81,0,0,0,10.87-6.67l3.9,2.25a16.74,16.74,0,0,1-14.77,8.4c-9.53,0-17.1-7.28-17.1-17.4s7.57-17.48,17.1-17.48a16.72,16.72,0,0,1,14.77,8.4l-3.9,2.25a11.87,11.87,0,0,0-10.87-6.6c-7.35,0-12.45,5.85-12.45,13.43S4650.41,2169.38,4657.76,2169.38Z"/>
    <path class="cls-8" d="M4694.73,2138.48a17.44,17.44,0,1,1-17.1,17.77v-.3C4677.63,2145.83,4685.28,2138.48,4694.73,2138.48Zm0,4.05c-7.35,0-12.45,5.85-12.45,13.43s5.1,13.42,12.45,13.42,12.53-5.85,12.53-13.42S4702.16,2142.53,4694.73,2142.53Z"/>
    <path class="cls-8" d="M4747.23,2145.83V2120h4.58v52.5h-4.58v-6.3c-2,4.12-7,7.2-12.6,7.2-9.52,0-16.8-7.28-16.8-17.4s7.2-17.48,16.65-17.48C4740.18,2138.48,4745.28,2141.71,4747.23,2145.83Zm-12.3,23.55c7.35,0,12.53-5.85,12.53-13.42s-5.18-13.43-12.53-13.43-12.45,5.85-12.45,13.43S4727.57,2169.38,4734.93,2169.38Z"/>
    <path class="cls-8" d="M4764.86,2157.31c.6,6.82,5.17,12,12.07,12a11.41,11.41,0,0,0,10.28-5.7h5.36a17,17,0,0,1-15.6,9.75c-9.52,0-16.8-7.28-16.8-17.4s7.28-17.48,16.73-17.48c8.62,0,16.64,6.08,16.64,18.68v.15Zm.15-3.75h23.39c-.52-6-5-11-11.54-11s-11,4.7-11.85,11.05Z"/>
    <g>
      <path class="cls-8" d="M2222.7,210.52c-5-4.88-11.48-8.36-17.17-8.36-5.33,0-10.2,2.79-10.2,7.66,0,3.71,2.32,6.61,8.81,9.63l6.73,3.13c12.88,6,20.65,12.76,20.65,24.94s-10.33,24-28.19,24c-12.3,0-21.46-4.76-29.12-12.18l8.94-12.06c6,6.14,13.68,9.62,19.83,9.62,7,0,11.25-3.82,11.25-8.81,0-5.57-5-8.7-12.76-12.3l-5.68-2.66C2184.89,228,2178,220.6,2178,210.39c0-14.27,12.76-22.85,27.15-22.85,9.39,0,19,4.64,26.79,11.37Z"/>
      <path class="cls-8" d="M2260.05,196.83V217h11.49v12.76h-11.49v24c0,3.37,2.67,3.83,5,3.83,3.83,0,7-.35,7-.35v12.88s-7.31.69-11.71.69c-7.54,0-15.31-1.27-15.31-11.94V229.77h-8.36V217H2245V196.83Z"/>
      <path class="cls-8" d="M2278.61,243.58c0-16.24,12.65-28,28.42-28s28.42,11.72,28.42,28-12.64,27.95-28.42,27.95S2278.61,259.81,2278.61,243.58Zm15.08,0c0,8.23,5.46,14.49,13.34,14.49s13.23-6.26,13.23-14.49-5.45-14.5-13.23-14.5S2293.69,235.22,2293.69,243.58Z"/>
      <path class="cls-8" d="M2377.68,231.86h-6.42c-7.66,0-11.14,3.59-11.14,12.88v25.4H2345V217h14.62v8.47c2.09-5.68,7.19-9.16,13.8-9.16a17.28,17.28,0,0,1,4.18.46Z"/>
      <path class="cls-8" d="M2437.65,248h-39.56a12,12,0,0,0,12.17,10.67c4.41,0,8.59-1.85,10.67-5.45l15.66,1.63c-4.75,11.36-14.73,16.7-26.56,16.7-15.89,0-27.84-11.72-27.84-27.95s11.72-28,27.61-28c14.61,0,27.84,9.51,27.84,31.78Zm-39.9-10.09h23.77a11.52,11.52,0,0,0-11.71-9.74A11.85,11.85,0,0,0,2397.75,237.89Z"/>
      <path class="cls-8" d="M2485.67,263.41c-2.67,4.41-8.93,8.12-16.59,8.12-14.61,0-25.75-11.72-25.75-27.95s11-28,25.64-28c8.12,0,14.27,3.71,16.93,8.24,0-1.74-.23-6.15-.23-10.1V188.94h15.08v81.2h-15.08Zm-26.79-19.83c0,8.11,5.56,14.61,13.57,14.61s13.57-6.5,13.57-14.61-5.57-14.5-13.57-14.5S2458.88,235.33,2458.88,243.58Z"/>
      <path class="cls-8" d="M2576.38,229.77l26.8,40.37h-18.92l-18-28.81-17.4,28.77H2530.3L2556.75,229l-25.29-40.14h18.8l17,28.43,16.93-28.42h18.33Z"/>
      <path class="cls-8" d="M2653.41,210.52c-5-4.88-11.49-8.36-17.17-8.36-5.34,0-10.21,2.79-10.21,7.66,0,3.71,2.32,6.61,8.82,9.63l6.72,3.13c12.88,6,20.65,12.76,20.65,24.94s-10.32,24-28.19,24c-12.29,0-21.46-4.76-29.11-12.18l8.93-12.06c6,6.14,13.69,9.62,19.84,9.62,7,0,11.25-3.82,11.25-8.81,0-5.57-5-8.7-12.76-12.3l-5.69-2.66c-10.9-5.11-17.74-12.53-17.74-22.74,0-14.27,12.76-22.85,27.14-22.85,9.4,0,19,4.64,26.8,11.37Z"/>
      <path class="cls-8" d="M2716.51,210.52c-5-4.88-11.48-8.36-17.17-8.36-5.33,0-10.21,2.79-10.21,7.66,0,3.71,2.32,6.61,8.82,9.63l6.73,3.13c12.87,6,20.64,12.76,20.64,24.94s-10.32,24-28.18,24c-12.3,0-21.46-4.76-29.12-12.18l8.93-12.06c6,6.14,13.69,9.62,19.84,9.62,7,0,11.25-3.82,11.25-8.81,0-5.57-5-8.7-12.76-12.3l-5.68-2.66c-10.91-5.11-17.75-12.53-17.75-22.74,0-14.27,12.76-22.85,27.14-22.85,9.4,0,19,4.64,26.8,11.37Z"/>
    </g>
    <polyline class="cls-9" points="3747.16 1118.79 3784.71 1156.24 3747.25 1193.79"/>
    <line class="cls-9" x1="3783.17" y1="1156.25" x2="3518.2" y2="1156.52"/>
    <polyline class="cls-9" points="1762.76 1118.79 1800.31 1156.24 1762.85 1193.79"/>
    <line class="cls-9" x1="1798.78" y1="1156.25" x2="1533.81" y2="1156.52"/>
    <polyline class="cls-9" points="2629.46 1118.79 2667.01 1156.24 2629.55 1193.79"/>
    <line class="cls-9" x1="2665.48" y1="1156.25" x2="2400.51" y2="1156.52"/>
    <path class="cls-8" d="M748.69,1602.33l10,37.58h.07l8.4-37.58h10.65L765,1654.83H753l-9.9-37.72-9.67,37.72H721.32l-13-52.5h11.25l8.1,37.58h.08l10-37.58Z"/>
    <path class="cls-8" d="M814.09,1640.51H788.57a8.15,8.15,0,0,0,14.77,3.37l10.13,1c-3.08,7.35-9.53,10.8-17.18,10.8-10.27,0-18-7.57-18-18.07s7.58-18.08,17.85-18.08c9.45,0,18,6.15,18,20.55Zm-25.8-6.53h15.38a7.45,7.45,0,0,0-7.58-6.3,7.66,7.66,0,0,0-7.8,6.3Z"/>
    <path class="cls-8" d="M829.62,1654.83h-9.75v-52.5h9.75v17c0,2.25-.15,4.65-.15,5.63,1.65-2.93,5.69-5.33,10.87-5.33,9.45,0,16.65,7.58,16.65,18.08s-7.28,18.07-16.73,18.07c-4.87,0-8.92-2.32-10.64-5.25Zm-.23-17.17c0,5.25,3.6,9.45,8.77,9.45s8.78-4.2,8.78-9.45-3.6-9.38-8.78-9.38S829.39,1632.33,829.39,1637.66Z"/>
    <path class="cls-8" d="M883.57,1631a12.51,12.51,0,0,0-8.48-3.52c-2.55,0-3.45,1.27-3.45,2.32s.75,2,2.55,2.63l5.7,1.8c7.05,2.32,9.45,6.15,9.45,10.65,0,5-4.27,10.87-13.65,10.87a22.14,22.14,0,0,1-15.14-5.4l5.17-6.75a17,17,0,0,0,10.12,4.28c2.33,0,3.75-1.2,3.75-2.55,0-1.73-1.12-2.48-3.9-3.3l-5.85-1.73c-5.55-1.8-7.94-5.55-7.94-10,0-5.62,5.1-10.65,13.34-10.65a20.47,20.47,0,0,1,13.88,5.1Z"/>
    <path class="cls-8" d="M907.31,1654.83h-9.74v-26.1h-4.8v-8.25h14.55Zm-5.32-52.5a6.29,6.29,0,0,1,6.3,6.28h0v0a6.27,6.27,0,1,1-6.3-6.3Z"/>
    <path class="cls-8" d="M928,1607.43v13h7.43v8.25H928v15.53c0,2.17,1.73,2.47,3.23,2.47,2.47,0,4.5-.22,4.5-.22v8.32s-4.73.45-7.58.45c-4.87,0-9.9-.82-9.9-7.72v-18.83h-5.4v-8.25h5.4v-13Z"/>
    <path class="cls-8" d="M975.86,1640.51H950.29a8.15,8.15,0,0,0,14.77,3.37l10.13,1c-3.08,7.35-9.53,10.8-17.18,10.8-10.27,0-18-7.57-18-18.07s7.56-18,17.85-18c9.45,0,18,6.15,18,20.55Zm-25.8-6.53h15.38a7.45,7.45,0,0,0-7.58-6.3A7.66,7.66,0,0,0,950.06,1634Z"/>
    <path class="cls-8" d="M1951.63,1602.33l10,37.58h.08l8.4-37.58h10.65l-12.83,52.5h-12.07l-9.9-37.72-9.68,37.72h-12.07l-13-52.5h11.36l8.1,37.58h.08l10-37.58Z"/>
    <path class="cls-8" d="M2017,1640.51h-25.57a8.15,8.15,0,0,0,14.77,3.37l10.13,1c-3.08,7.35-9.53,10.8-17.18,10.8-10.27,0-18-7.57-18-18.07s7.58-18.08,17.85-18.08c9.45,0,18,6.15,18,20.55Zm-25.8-6.53h15.34a7.45,7.45,0,0,0-7.58-6.3,7.67,7.67,0,0,0-7.76,6.3Z"/>
    <path class="cls-8" d="M2032.57,1654.83h-9.75v-52.5h9.75v17c0,2.25-.15,4.65-.15,5.63,1.65-2.93,5.7-5.33,10.87-5.33,9.45,0,16.65,7.58,16.65,18.08s-7.27,18.07-16.72,18.07c-4.88,0-8.93-2.32-10.65-5.25Zm-.23-17.17c0,5.25,3.6,9.45,8.78,9.45s8.77-4.2,8.77-9.45-3.6-9.38-8.77-9.38-8.79,4-8.79,9.38Z"/>
    <path class="cls-8" d="M2109.51,1616.28c-3.23-3.15-7.43-5.4-11.1-5.4-3.45,0-6.6,1.8-6.6,5,0,2.4,1.5,4.28,5.7,6.23l4.35,2c8.32,3.9,13.35,8.25,13.35,16.13s-6.68,15.52-18.23,15.52c-7.95,0-13.87-3.07-18.82-7.87l5.77-7.8c3.9,4,8.85,6.22,12.83,6.22,4.5,0,7.27-2.47,7.27-5.7,0-3.6-3.22-5.62-8.25-8l-3.67-1.72c-7.05-3.3-11.48-8.1-11.48-14.7,0-9.23,8.25-14.78,17.55-14.78,6.08,0,12.3,3,17.33,7.35Z"/>
    <path class="cls-8" d="M2155.25,1640.51h-25.57a8.16,8.16,0,0,0,14.78,3.37l10.12,1c-3.08,7.35-9.52,10.8-17.17,10.8-10.28,0-18-7.57-18-18.07s7.57-18.08,17.85-18.08c9.45,0,18,6.15,18,20.55Zm-25.79-6.53h15.37a7.44,7.44,0,0,0-7.57-6.3A7.66,7.66,0,0,0,2129.46,1634Z"/>
    <path class="cls-8" d="M2182.1,1630.08H2178c-4.95,0-7.2,2.33-7.2,8.33v16.42H2161v-34.35h9.45V1626a9,9,0,0,1,8.92-5.93,11.12,11.12,0,0,1,2.7.3Z"/>
    <path class="cls-8" d="M2202.2,1644.33l7.8-23.85h10.28l-12.23,34.35H2196l-11.7-34.35h10.57Z"/>
    <path class="cls-8" d="M2257.7,1640.51h-25.57a8.15,8.15,0,0,0,14.77,3.37l10.13,1c-3.08,7.35-9.53,10.8-17.18,10.8-10.27,0-18-7.57-18-18.07s7.58-18.08,17.85-18.08c9.45,0,18,6.15,18,20.55Zm-25.8-6.53h15.38a7.45,7.45,0,0,0-7.58-6.3,7.66,7.66,0,0,0-7.8,6.3Z"/>
    <path class="cls-8" d="M2284.57,1630.08h-4.12c-5,0-7.2,2.33-7.2,8.33v16.42h-9.75v-34.35H2273V1626a9,9,0,0,1,8.92-5.93,11.12,11.12,0,0,1,2.7.3Z"/>
    <path class="cls-8" d="M2997.57,1602.33h11.55l11.93,38.93h.07l12.53-38.93h10.92l-17.77,52.5h-11.33Z"/>
    <path class="cls-8" d="M3060.28,1654.83h-9.71v-26.1h-4.8v-8.25h14.55Zm-5.32-52.5a6.29,6.29,0,0,1,6.3,6.28h0v0a6.27,6.27,0,1,1-6.3-6.3Z"/>
    <path class="cls-8" d="M3076.26,1637.66c0,5.4,3.52,9.37,8.62,9.37a7.85,7.85,0,0,0,7.57-5.25l9.12,2.83c-2.25,6.83-9,11.1-16.79,11.1-10.2,0-18.3-7.57-18.3-18.07s8.1-18.08,18.3-18.08c7.8,0,14.54,4.35,16.79,11.18l-9.15,2.77a8,8,0,0,0-7.57-5.25C3079.78,1628.28,3076.26,1632.26,3076.26,1637.66Z"/>
    <path class="cls-8" d="M3119.68,1607.43v13h7.42v8.25h-7.42v15.53c0,2.17,1.73,2.47,3.22,2.47,2.48,0,4.5-.22,4.5-.22v8.32s-4.72.45-7.57.45c-4.88,0-9.9-.82-9.9-7.72v-18.83h-5.36v-8.25h5.4v-13Z"/>
    <path class="cls-8" d="M3145.63,1654.83h-9.75v-26.1h-4.8v-8.25h14.55Zm-5.32-52.5a6.28,6.28,0,0,1,6.29,6.27h0v0a6.26,6.26,0,1,1-6.29-6.3Z"/>
    <path class="cls-8" d="M3199.18,1634.66c0-4.2-2.7-6-5.7-6-2.78,0-5.25,1.57-7.13,3.9v22.27h-9.78v-20.17c0-4.13-2.62-6-5.7-6a9.31,9.31,0,0,0-7.12,3.9v22.27H3154v-34.35h9.57v1.35c0,1.2-.15,2.7-.15,2.7a13.29,13.29,0,0,1,10.28-5c5.1,0,9.07,2.18,11,6.23a13.79,13.79,0,0,1,11.55-6.23c7.43,0,12.68,4.73,12.68,12.75v22.5h-9.75Z"/>
    <path class="cls-8" d="M4142,1602.33h11.57l11.93,38.93h.07l12.53-38.93H4189l-17.77,52.5h-11.33Z"/>
    <path class="cls-8" d="M4204.7,1654.83H4195v-26.1h-4.8v-8.25h14.55Zm-5.32-52.5a6.29,6.29,0,0,1,6.3,6.28v0a6.27,6.27,0,1,1-6.3-6.3Z"/>
    <path class="cls-8" d="M4220.68,1637.66c0,5.4,3.52,9.37,8.62,9.37a7.87,7.87,0,0,0,7.58-5.25l9.15,2.85c-2.25,6.83-9,11.1-16.8,11.1-10.2,0-18.3-7.57-18.3-18.07s8.1-18.08,18.3-18.08c7.8,0,14.55,4.35,16.8,11.18l-9.15,2.77a8,8,0,0,0-7.58-5.25C4224.2,1628.28,4220.68,1632.26,4220.68,1637.66Z"/>
    <path class="cls-8" d="M4264.1,1607.43v13h7.47v8.25h-7.42v15.53c0,2.17,1.73,2.47,3.23,2.47,2.47,0,4.5-.22,4.5-.22v8.32s-4.73.45-7.58.45c-4.87,0-9.9-.82-9.9-7.72v-18.83H4249v-8.25h5.4v-13Z"/>
    <path class="cls-8" d="M4290.05,1654.83h-9.75v-26.1h-4.8v-8.25h14.55Zm-5.32-52.5a6.28,6.28,0,0,1,6.29,6.27h0v0a6.26,6.26,0,1,1-6.29-6.3Z"/>
    <path class="cls-8" d="M4343.57,1634.66c0-4.2-2.7-6-5.7-6-2.78,0-5.25,1.57-7.13,3.9v22.27H4321v-20.17c0-4.13-2.62-6-5.7-6-2.77,0-5.24,1.57-7.12,3.9v22.27h-9.75v-34.35H4308v1.35c0,1.2-.15,2.7-.15,2.7a13.26,13.26,0,0,1,10.27-5c5.1,0,9.07,2.18,11,6.23a13.78,13.78,0,0,1,11.55-6.23c7.43,0,12.68,4.73,12.68,12.75v22.5h-9.73Z"/>
    <line class="cls-9" x1="4849.69" y1="1784.16" x2="66.11" y2="1784.16"/>
    <rect class="cls-10" x="319.69" y="1128.7" width="290.09" height="288.87"/>
    <line class="cls-11" x1="463.02" y1="1297.57" x2="463.02" y2="1150.58"/>
    <polygon class="cls-12" points="462.56 1149.4 462.56 1266.09 558.21 1266.09 462.56 1149.4"/>
    <polygon class="cls-5" points="462.77 1149.4 462.77 1266.09 367.11 1266.09 462.77 1149.4"/>
    <polygon class="cls-13" points="364.61 1280.88 391.33 1336.8 538.52 1336.8 558.21 1280.88 364.61 1280.88"/>
    <path class="cls-6" d="M609.78,1417.61H319.69v-76.46h0A53.49,53.49,0,0,0,350.76,1324l3.51-4,18.41,11.62a27.69,27.69,0,0,0,30.81-1.14l13.36-10,14.14,9.72a30.93,30.93,0,0,0,34.69-.15l15.89-11.17,14,9.5a33.21,33.21,0,0,0,38.43-1.14l10.72-8.36,14.16,10.44a30.8,30.8,0,0,0,35.19.47l15.76-10.91Z"/>
    <path class="cls-3" d="M408.82,1193.89s-2.78-12.07-12.06-13.13c0,0,3.71-21.3-15-17.22,0,0-16.86-14-19.33,5.15,0,0-14.23-4.62-13.3,12.42,0,0-10.36,3.38-10.36,14Z"/>
    <path class="cls-3" d="M571.76,1171.17s-3.92-16.86-16.93-16.86a15.38,15.38,0,0,0-10.67,4.49,12.94,12.94,0,0,0-19.59,11.07,12.72,12.72,0,0,0,1.15,5.29c-5.63,3.26-11.37,9-11.37,18.74h80.22S592.44,1171.17,571.76,1171.17Z"/>
    <rect class="cls-14" x="2795.38" y="864.16" width="630" height="442"/>
    <polygon class="cls-14" points="3499.38 1424.98 2711.38 1424.98 2795.38 1306.16 3425.38 1306.16 3499.38 1424.98"/>
    <rect class="cls-6" x="2828.38" y="894.33" width="565" height="381.66"/>
    <rect class="cls-14" x="2711.38" y="1424.98" width="788" height="34.18"/>
    <polygon class="cls-15" points="3412.38 1386.16 2807.38 1386.16 2845.38 1321.16 3376.38 1321.16 3412.38 1386.16"/>
    <line class="cls-11" x1="3109.38" y1="1321.16" x2="3109.38" y2="1386.16"/>
    <line class="cls-11" x1="3277.38" y1="1321.16" x2="3292.38" y2="1386.16"/>
    <line class="cls-11" x1="3228.38" y1="1321.16" x2="3236.38" y2="1386.16"/>
    <line class="cls-11" x1="3169.38" y1="1321.16" x2="3173.38" y2="1386.16"/>
    <line class="cls-11" x1="3326.38" y1="1321.16" x2="3351.38" y2="1386.16"/>
    <line class="cls-11" x1="2943.38" y1="1321.16" x2="2928.38" y2="1386.16"/>
    <line class="cls-11" x1="2992.38" y1="1321.16" x2="2984.38" y2="1386.16"/>
    <line class="cls-11" x1="3051.38" y1="1321.16" x2="3047.38" y2="1386.16"/>
    <line class="cls-11" x1="2894.38" y1="1321.16" x2="2869.38" y2="1386.16"/>
    <line class="cls-11" x1="2840.38" y1="1333.16" x2="3380.38" y2="1333.16"/>
    <line class="cls-11" x1="2830.38" y1="1348.16" x2="3390.38" y2="1348.16"/>
    <line class="cls-11" x1="2820.38" y1="1365.16" x2="3399.38" y2="1365.16"/>
    <polygon class="cls-11" points="3300.38 1415.22 2921.38 1415.22 2926.38 1395.11 3295.32 1395.11 3300.38 1415.22"/>
    <path class="cls-11" d="M3015,1147.61a142.1,142.1,0,0,0,201,.13h0l.13-.13"/>
    <circle class="cls-16" cx="3027.24" cy="1013.84" r="18.36"/>
    <circle class="cls-16" cx="3202.95" cy="1013.84" r="18.36"/>
    <rect class="cls-14" x="3921.11" y="864.16" width="630" height="442"/>
    <polygon class="cls-14" points="4625.1 1424.98 3837.1 1424.98 3921.1 1306.16 4551.1 1306.16 4625.1 1424.98"/>
    <rect class="cls-3" x="3954.11" y="894.33" width="565" height="381.66"/>
    <rect class="cls-14" x="3837.11" y="1424.98" width="788" height="34.18"/>
    <polygon class="cls-15" points="4538.1 1386.16 3933.1 1386.16 3971.1 1321.16 4502.1 1321.16 4538.1 1386.16"/>
    <line class="cls-11" x1="4235.11" y1="1321.16" x2="4235.11" y2="1386.16"/>
    <line class="cls-11" x1="4403.11" y1="1321.16" x2="4418.11" y2="1386.16"/>
    <line class="cls-11" x1="4354.11" y1="1321.16" x2="4362.11" y2="1386.16"/>
    <line class="cls-11" x1="4295.11" y1="1321.16" x2="4299.11" y2="1386.16"/>
    <line class="cls-11" x1="4452.11" y1="1321.16" x2="4477.11" y2="1386.16"/>
    <line class="cls-11" x1="4069.11" y1="1321.16" x2="4054.11" y2="1386.16"/>
    <line class="cls-11" x1="4118.11" y1="1321.16" x2="4110.11" y2="1386.16"/>
    <line class="cls-11" x1="4177.11" y1="1321.16" x2="4173.11" y2="1386.16"/>
    <line class="cls-11" x1="4020.11" y1="1321.16" x2="3995.11" y2="1386.16"/>
    <line class="cls-11" x1="3966.11" y1="1333.16" x2="4506.11" y2="1333.16"/>
    <line class="cls-11" x1="3956.11" y1="1348.16" x2="4516.11" y2="1348.16"/>
    <line class="cls-11" x1="3946.11" y1="1365.16" x2="4525.11" y2="1365.16"/>
    <polygon class="cls-11" points="4426.1 1415.22 4047.1 1415.22 4052.1 1395.11 4421.04 1395.11 4426.1 1415.22"/>
    <rect class="cls-14" x="1892.67" y="940.84" width="410.71" height="173.24"/>
    <rect class="cls-14" x="1892.67" y="1114.08" width="410.71" height="173.24"/>
    <rect class="cls-14" x="1892.67" y="1287.32" width="410.71" height="173.24"/>
    <circle class="cls-17" cx="1950.55" cy="1029.65" r="18.01"/>
    <circle class="cls-17" cx="2004.84" cy="1029.65" r="18.01"/>
    <circle class="cls-17" cx="2057.6" cy="1029.65" r="18.01"/>
    <line class="cls-11" x1="2097.51" y1="1030.78" x2="2278.53" y2="1030.78"/>
    <circle class="cls-17" cx="1950.55" cy="1204.83" r="18.01"/>
    <circle class="cls-17" cx="2004.84" cy="1204.83" r="18.01"/>
    <circle class="cls-17" cx="2057.6" cy="1204.83" r="18.01"/>
    <line class="cls-11" x1="2097.51" y1="1205.97" x2="2278.53" y2="1205.97"/>
    <circle class="cls-17" cx="1950.55" cy="1375.15" r="18.01"/>
    <circle class="cls-17" cx="2004.84" cy="1375.15" r="18.01"/>
    <circle class="cls-17" cx="2057.6" cy="1375.15" r="18.01"/>
    <line class="cls-11" x1="2097.51" y1="1376.29" x2="2278.53" y2="1376.29"/>
    <polygon class="cls-18" points="2303.39 940.84 1892.67 940.84 1939.9 860.72 2246.48 860.72 2303.39 940.84"/>
    <path d="M373.45,1057.4l-8.69-21.73v31.19h-8.51v-44.11h12.32l9.64,25,9.83-25h11.78v44.11h-8.7v-31.19l-8.44,21.73Z"/>
    <path d="M416.67,1066.86h-2.1L404.68,1038h9.13l6.11,20.54L426.1,1038H435l-11.51,33.39c-1.45,4.22-3.71,6.49-9,6.49H408.8V1071h4a3,3,0,0,0,3.21-2.26Z"/>
    <path d="M473.43,1043.17v.12c5.11,2.08,8.19,5.8,8.19,10.9,0,7.06-5.23,12.67-14.55,12.67H451.38v-44.11h14.24c9.07,0,13.61,5.61,13.61,11.28A9.75,9.75,0,0,1,473.43,1043.17Zm-13.29-13V1040h4.43c3.15,0,5.74-1.58,5.74-5s-2.71-4.85-5.74-4.85Zm0,29.29h4.54c5.29,0,7.81-2.45,7.81-6s-3.09-5.61-7.37-5.61h-5Z"/>
    <path d="M494.85,1066.86h-8.13v-44.11h8.13Z"/>
    <path d="M500.08,1052.43c0-8.82,6.87-15.19,15.44-15.19s15.43,6.37,15.43,15.19a15,15,0,0,1-14.81,15.18h-.57C507.06,1067.61,500.08,1061.25,500.08,1052.43Zm8.19,0c0,4.47,3,7.87,7.25,7.87s7.18-3.4,7.18-7.87-3-7.88-7.18-7.88S508.27,1047.89,508.27,1052.43Z"/>
    <path d="M565.41,1038v31c0,4.53-2.27,8.88-9.26,8.88H543.57V1071h10.52c1.45,0,3.09-.38,3.09-2.58v-5.55c-1.38,2.33-4.85,4.35-8.94,4.35-7.82,0-13.87-5.92-13.87-14.93s6-15,13.8-15c4.35,0,7.69,2,9.14,4.48,0-.32-.13-.89-.13-2.4V1038Zm-15.31,22.11c4.35,0,7.31-3.21,7.31-7.87s-3-7.94-7.31-7.94-7.24,3.21-7.24,7.94S545.82,1060.11,550.1,1060.11Z"/>
    <path d="M590.67,1038a5.51,5.51,0,1,1-5.48,5.54,5.51,5.51,0,0,1,5.48-5.54Zm0,18.65a5.5,5.5,0,1,1-5.5,5.5,5.5,5.5,0,0,1,5.5-5.5Z"/>
    <path d="M608.31,1076.49h-7.37v-.94a43.43,43.43,0,0,0,9.63-26.46,40.19,40.19,0,0,0-9.58-25.33v-1h7.37c6.37,7.88,10.71,16.32,10.71,26.34S614.68,1068.75,608.31,1076.49Z"/>
    <polygon class="cls-3" points="849.63 910.73 849.63 1179.83 723.4 1372.4 849.63 1273.8 849.63 1356.2 1402.97 1356.2 1402.97 910.73 849.63 910.73"/>
    <path d="M1009.76,971.71c5.86,0,10.34-3.15,12-8.38h9.64c-2.58,10.4-11.65,16.45-21.61,16.45-13,0-23-9.52-23-22.81s10-22.81,23-22.81c10,0,19,6.05,21.61,16.45h-9.64c-1.63-5.23-6.11-8.38-12-8.38-8.31,0-13.86,6.3-13.86,14.74S1001.45,971.71,1009.76,971.71Z"/>
    <path d="M1034.57,964.61c0-8.82,6.87-15.18,15.44-15.18s15.44,6.36,15.44,15.18-6.87,15.19-15.44,15.19S1034.57,973.41,1034.57,964.61Zm8.19,0c0,4.48,3,7.88,7.25,7.88s7.18-3.4,7.18-7.88-3-7.87-7.18-7.87-7.24,3.32-7.24,7.87Z"/>
    <path d="M1108.57,962.07c0-3.53-2.27-5-4.79-5a7.85,7.85,0,0,0-6,3.28v18.71h-8.19v-17c0-3.46-2.21-5-4.79-5a7.88,7.88,0,0,0-6,3.28v18.71h-8.19v-28.9h8v1.14c0,1-.12,2.27-.12,2.27a11.13,11.13,0,0,1,8.63-4.16c4.28,0,7.62,1.83,9.26,5.23a11.56,11.56,0,0,1,9.7-5.23c6.24,0,10.65,4,10.65,10.71V979h-8.16Z"/>
    <path d="M1161.47,962.07c0-3.53-2.27-5-4.79-5a7.88,7.88,0,0,0-6,3.28v18.71h-8.19v-17c0-3.46-2.2-5-4.79-5a7.85,7.85,0,0,0-6,3.28v18.71h-8.13v-28.9h8v1.14c0,1-.13,2.27-.13,2.27a11.2,11.2,0,0,1,8.64-4.16c4.28,0,7.62,1.83,9.26,5.23a11.56,11.56,0,0,1,9.7-5.23c6.24,0,10.65,4,10.65,10.71V979h-8.19Z"/>
    <path d="M1204.68,967H1183.2a6.85,6.85,0,0,0,12.41,2.83l8.51.88c-2.59,6.18-8,9.08-14.43,9.08a14.72,14.72,0,0,1-15.12-14.31h0c0-.29,0-.57,0-.86,0-8.82,6.36-15.18,15-15.18,7.94,0,15.12,5.16,15.12,17.26ZM1183,961.51h12.92a6.27,6.27,0,0,0-6.37-5.3A6.43,6.43,0,0,0,1183,961.51Z"/>
    <path d="M1226.23,949.41c6.24,0,10.71,4,10.71,10.71V979h-8.19V962.2c0-3.66-2.33-5.17-4.92-5.17a8,8,0,0,0-6.11,3.28V979h-8.15V950.16h8v1.14c0,1-.12,2.27-.12,2.27A11.32,11.32,0,0,1,1226.23,949.41Z"/>
    <path d="M1254,939.2v11h6.24v6.93H1254v13c0,1.82,1.45,2.08,2.71,2.08,2.08,0,3.78-.19,3.78-.19v7s-4,.38-6.36.38c-4.1,0-8.32-.69-8.32-6.49V957.09h-4.54v-6.93h4.54v-11Z"/>
    <path d="M926.57,1092.81l18.25,8.42a5.38,5.38,0,0,1,1.57,1,1.76,1.76,0,0,1,0,2.35,1.63,1.63,0,0,1-1.21.45,2.54,2.54,0,0,1-.77-.13,8.94,8.94,0,0,1-1.2-.5l-19.8-9.23-.25-.1c-1.52-.7-2.29-1.46-2.29-2.3s.75-1.57,2.24-2.24l.3-.15,19.8-9.08a8.16,8.16,0,0,1,1.15-.47,2.87,2.87,0,0,1,.82-.13,1.72,1.72,0,0,1,1.21.42,1.48,1.48,0,0,1,.43,1.15,1.72,1.72,0,0,1-.47,1.18,5,5,0,0,1-1.57,1Z"/>
    <path d="M954.26,1106.79v-4.44a2.36,2.36,0,0,1,.41-1.57,1.68,1.68,0,0,1,1.33-.47c.68,0,1.22.47,1.62,1.4a8,8,0,0,0,.72,1.27,7.19,7.19,0,0,0,3.09,2.15,12.2,12.2,0,0,0,4.51.81,7.47,7.47,0,0,0,4.23-1.07,3.26,3.26,0,0,0,1.59-2.82,2.66,2.66,0,0,0-1.28-2.51,9.32,9.32,0,0,0-4.39-.75h-1.37q-5.09,0-7.75-1.77a6.28,6.28,0,0,1-.06-10.23c1.73-1.21,4.17-1.81,7.31-1.82a14.76,14.76,0,0,1,3.91.54c1.33.35,2,.53,2.09.53a2.87,2.87,0,0,0,1-.48,2.72,2.72,0,0,1,1.51-.49,1.41,1.41,0,0,1,1.26.62,3.38,3.38,0,0,1,.41,1.87v2.91a3.53,3.53,0,0,1-.4,1.91,1.42,1.42,0,0,1-1.27.58c-.49,0-1.11-.42-1.84-1.27a17.55,17.55,0,0,0-1.27-1.32,8.31,8.31,0,0,0-2.81-1.75,10.47,10.47,0,0,0-3.51-.54,6.39,6.39,0,0,0-3.78,1,3.11,3.11,0,0,0-1.43,2.62,2.31,2.31,0,0,0,1.47,2.25c1,.44,3.09.69,6.33.77,3.45.08,6,.68,7.57,1.8a5.91,5.91,0,0,1,2.39,5.19,6.41,6.41,0,0,1-2.64,5.38,11.42,11.42,0,0,1-7.12,2,22.46,22.46,0,0,1-3.17-.26c-1.16-.18-2.62-.47-4.38-.88a12.18,12.18,0,0,1-1.49.85,2.68,2.68,0,0,1-1,.29,1.56,1.56,0,0,1-1.33-.61A2.92,2.92,0,0,1,954.26,1106.79Z"/>
    <path d="M1003.22,1087.06v-.1a1.45,1.45,0,0,1,.47-1.21,2.31,2.31,0,0,1,1.47-.38,1.51,1.51,0,0,1,1.4.6,5.05,5.05,0,0,1,.39,2.46v4.63a1.86,1.86,0,0,1-.47,1.39,2,2,0,0,1-1.42.46,1.81,1.81,0,0,1-1.16-.39,6,6,0,0,1-1.18-1.61,8.67,8.67,0,0,0-2.9-3,7.5,7.5,0,0,0-3.93-1,8.8,8.8,0,0,0-6.31,2.29,7.78,7.78,0,0,0-2.43,5.93,8.29,8.29,0,0,0,2.33,6.06,8.05,8.05,0,0,0,6,2.36,11,11,0,0,0,3.18-.47,10.3,10.3,0,0,0,2.85-1.38c.31-.2.74-.5,1.27-.92a4.64,4.64,0,0,1,2.54-1.32,1.67,1.67,0,0,1,1.74,1.62h0v.12q0,2-3.72,4a16.11,16.11,0,0,1-7.91,2,12.48,12.48,0,0,1-9-3.46,12.19,12.19,0,0,1,0-17.25l0,0a12.35,12.35,0,0,1,9-3.47,14.38,14.38,0,0,1,3.8.51A21.9,21.9,0,0,1,1003.22,1087.06Z"/>
    <path d="M1023.88,1105.07h8.27a2,2,0,0,1,1.43.41,1.64,1.64,0,0,1,.46,1.31,1.8,1.8,0,0,1-.43,1.4,2.47,2.47,0,0,1-1.61.39h-16.28a2.11,2.11,0,0,1-1.47-.45,1.68,1.68,0,0,1-.5-1.34,1.59,1.59,0,0,1,.51-1.3,2.45,2.45,0,0,1,1.58-.42h4.33v-16h-1.69a7.1,7.1,0,0,1-3-.38,1.55,1.55,0,0,1-.6-1.4,1.62,1.62,0,0,1,.49-1.3,2.12,2.12,0,0,1,1.48-.43h5.67a1.69,1.69,0,0,1,1,.26.89.89,0,0,1,.34.76v4.23a17.31,17.31,0,0,1,4.94-4.4,11,11,0,0,1,5.52-1.45,6.47,6.47,0,0,1,3.59.89,2.65,2.65,0,0,1,1.37,2.3,2.29,2.29,0,0,1-.69,1.63,2,2,0,0,1-1.5.71,4.82,4.82,0,0,1-1.93-.76,5,5,0,0,0-2.43-.76,7.66,7.66,0,0,0-4.1,1.38,24.19,24.19,0,0,0-4.77,4.38Z"/>
    <path d="M1059.25,1105.07h8a2,2,0,0,1,1.43.41,1.64,1.64,0,0,1,.46,1.31,1.8,1.8,0,0,1-.43,1.4,2.47,2.47,0,0,1-1.61.39h-19.3a2.15,2.15,0,0,1-1.49-.45,1.68,1.68,0,0,1-.5-1.34,1.57,1.57,0,0,1,.52-1.3,2.49,2.49,0,0,1,1.57-.42h7.6v-16h-4.93a2.3,2.3,0,0,1-1.56-.46,1.64,1.64,0,0,1-.54-1.32,1.66,1.66,0,0,1,.5-1.3,2.23,2.23,0,0,1,1.5-.43h7.29a1.81,1.81,0,0,1,1.06.27.86.86,0,0,1,.39.75Zm-4.61-26.67a7.26,7.26,0,0,1,.48-3.39,2.43,2.43,0,0,1,2.08-.7,2.66,2.66,0,0,1,2,.59,4.91,4.91,0,0,1,.49,2.77,4.7,4.7,0,0,1-.46,2.66,2.9,2.9,0,0,1-2.08.51,3.12,3.12,0,0,1-2.08-.48A2.79,2.79,0,0,1,1054.64,1078.4Z"/>
    <path d="M1081.11,1115h6a2,2,0,0,1,1.42.45,1.76,1.76,0,0,1,.47,1.35,1.73,1.73,0,0,1-.46,1.37,2.59,2.59,0,0,1-1.63.39h-11a2.26,2.26,0,0,1-1.51-.44,1.68,1.68,0,0,1-.51-1.32,1.51,1.51,0,0,1,.63-1.4,4.89,4.89,0,0,1,2.36-.4h.47V1089.1h-.47a5,5,0,0,1-2.36-.39,1.52,1.52,0,0,1-.63-1.4,1.62,1.62,0,0,1,.51-1.31,2.27,2.27,0,0,1,1.51-.43h3.78a1.7,1.7,0,0,1,1.08.25.85.85,0,0,1,.34.77V1089a11.52,11.52,0,0,1,3.75-2.61,11.17,11.17,0,0,1,4.42-.87,11.33,11.33,0,0,1,8.37,3.39,11.52,11.52,0,0,1,3.36,8.49,10.92,10.92,0,0,1-3.19,8.07,11.12,11.12,0,0,1-8.14,3.16,12.27,12.27,0,0,1-4.86-.94,9.86,9.86,0,0,1-3.71-2.67Zm7.72-10a7.79,7.79,0,0,0,5.68-2.18,8.21,8.21,0,0,0,0-11.23,7.88,7.88,0,1,0-5.68,13.41Z"/>
    <path d="M1124.94,1087a2.94,2.94,0,0,1,1.78.43,1.6,1.6,0,0,1,.56,1.34,1.66,1.66,0,0,1-.52,1.31,2.43,2.43,0,0,1-1.57.43H1115.1v8.32c0,2.72.35,4.52,1.06,5.38a4.44,4.44,0,0,0,3.62,1.3,14.78,14.78,0,0,0,5.43-1.32,16,16,0,0,1,3.91-1.32,1.59,1.59,0,0,1,1.18.49,1.67,1.67,0,0,1,.49,1.22,2,2,0,0,1-.61,1.44,6.41,6.41,0,0,1-2.08,1.18,30.78,30.78,0,0,1-4.39,1.42,16.32,16.32,0,0,1-3.68.45,11.41,11.41,0,0,1-4.89-.94,6.26,6.26,0,0,1-3-2.77,6.69,6.69,0,0,1-.71-2.07,22.78,22.78,0,0,1-.21-3.69v-9.09H1107a2.28,2.28,0,0,1-1.52-.41,1.68,1.68,0,0,1-.47-1.33,1.47,1.47,0,0,1,.65-1.39,6.32,6.32,0,0,1,2.76-.38h2.82v-6.42a2.29,2.29,0,0,1,.46-1.58,1.81,1.81,0,0,1,1.43-.51,1.67,1.67,0,0,1,1.52.62,6,6,0,0,1,.42,2.84v5Z"/>
    <path d="M1155.39,1092.81l-18.2-8.31a5.22,5.22,0,0,1-1.62-1,1.65,1.65,0,0,1-.47-1.15,1.52,1.52,0,0,1,.43-1.15,1.68,1.68,0,0,1,1.19-.42,2.93,2.93,0,0,1,.83.13,9.71,9.71,0,0,1,1.16.47l19.8,9.08.3.15c1.49.67,2.24,1.41,2.24,2.24s-.73,1.57-2.19,2.25a2.17,2.17,0,0,0-.35.15l-19.8,9.23h-.1a5.26,5.26,0,0,1-1.89.58,1.59,1.59,0,0,1-1.15-.45,1.76,1.76,0,0,1,0-2.35,5.22,5.22,0,0,1,1.62-1Z"/>
    <path d="M978,1156.06v-.1a1.45,1.45,0,0,1,.47-1.21,2.31,2.31,0,0,1,1.47-.38,1.51,1.51,0,0,1,1.4.6,5.05,5.05,0,0,1,.39,2.46v4.63a1.86,1.86,0,0,1-.47,1.39,2,2,0,0,1-1.42.46,1.81,1.81,0,0,1-1.16-.39,6,6,0,0,1-1.18-1.61,8.67,8.67,0,0,0-2.9-3,7.5,7.5,0,0,0-3.93-1,8.8,8.8,0,0,0-6.31,2.29,7.78,7.78,0,0,0-2.43,5.93,8.29,8.29,0,0,0,2.33,6.06,8.05,8.05,0,0,0,6,2.36,11,11,0,0,0,3.18-.47,10.3,10.3,0,0,0,2.85-1.38c.31-.2.74-.5,1.27-.92a4.64,4.64,0,0,1,2.54-1.32,1.67,1.67,0,0,1,1.74,1.62h0v.12q0,2-3.72,4a16.11,16.11,0,0,1-7.91,2,12.48,12.48,0,0,1-9-3.46,12.19,12.19,0,0,1-.05-17.25l.05,0a12.35,12.35,0,0,1,9-3.47,14.38,14.38,0,0,1,3.8.51A21.9,21.9,0,0,1,978,1156.06Z"/>
    <path d="M1014.19,1166.1a11.34,11.34,0,0,1-3.62,8.71,14.8,14.8,0,0,1-18.85,0,12.26,12.26,0,0,1-.08-17.34l.08-.08a14.81,14.81,0,0,1,18.84,0A11.35,11.35,0,0,1,1014.19,1166.1Zm-13.08,8.59a8.57,8.57,0,0,0,6.29-2.43,8.25,8.25,0,0,0,2.46-6.17,8.4,8.4,0,0,0-2.47-6.21,9.24,9.24,0,0,0-12.54,0,9.08,9.08,0,0,0,0,12.4A8.55,8.55,0,0,0,1001.11,1174.69Z"/>
    <path d="M1039.22,1177.61a.93.93,0,0,1-.74-.26,1.74,1.74,0,0,1-.21-1v-2a10.22,10.22,0,0,1-3.74,2.9,11.55,11.55,0,0,1-4.85,1,10.43,10.43,0,0,1-7.88-3.35A12.52,12.52,0,0,1,1022,1158a11.42,11.42,0,0,1,8.44-3.42,11.07,11.07,0,0,1,4.61.91,9.58,9.58,0,0,1,3.51,2.67v-9.54h-1.32a6.36,6.36,0,0,1-2.8-.39,1.51,1.51,0,0,1-.64-1.41,1.68,1.68,0,0,1,.51-1.34,2.14,2.14,0,0,1,1.48-.45h5.11a1.77,1.77,0,0,1,1.08.25.85.85,0,0,1,.34.77v28.07h1.12a3,3,0,0,1,1.77.41,1.55,1.55,0,0,1,.54,1.31,1.8,1.8,0,0,1-.47,1.32,1.75,1.75,0,0,1-1.27.47Zm-16.32-11.18a7.57,7.57,0,0,0,2.22,5.62,7.66,7.66,0,0,0,5.63,2.2,7.54,7.54,0,0,0,5.65-2.28,8,8,0,0,0,2.22-5.79,7.89,7.89,0,0,0-13.32-5.94,7.89,7.89,0,0,0-2.4,6.16Z"/>
    <path d="M1053.91,1167.17a7.58,7.58,0,0,0,2.43,5.56,8.88,8.88,0,0,0,6.08,2,15.4,15.4,0,0,0,6.35-1.56,17.67,17.67,0,0,1,4.16-1.55,1.72,1.72,0,0,1,1.25.47,1.57,1.57,0,0,1,.5,1.17,2,2,0,0,1-.53,1.32,5.47,5.47,0,0,1-1.66,1.16,26.18,26.18,0,0,1-5.15,1.86,22.21,22.21,0,0,1-5.26.64A12.58,12.58,0,0,1,1053,1175a11.47,11.47,0,0,1-3.42-8.68,11.7,11.7,0,0,1,3.62-8.92,13.11,13.11,0,0,1,9.41-3.41,12.32,12.32,0,0,1,8.71,3.19,10.1,10.1,0,0,1,3.47,7.72,2.37,2.37,0,0,1-.59,1.87c-.39.31-1.45.47-3.17.47h-17.11Zm.12-3.26h16.21a7.2,7.2,0,0,0-2.47-4.77,7.63,7.63,0,0,0-5.17-1.81,8.83,8.83,0,0,0-5.58,1.75A8.18,8.18,0,0,0,1054,1163.91Z"/>
    <path d="M1098,1148.29a7.34,7.34,0,0,1-.84,2.26c-.56,1.15-1,2.07-1.26,2.75a39.91,39.91,0,0,0-2.4,7.24,32.79,32.79,0,0,0,1.71,19.23c.41,1.1,1,2.39,1.7,3.87a10.39,10.39,0,0,1,1.09,2.75,1.39,1.39,0,0,1-.24.86.77.77,0,0,1-.64.31,2.78,2.78,0,0,1-1.71-.81,13.66,13.66,0,0,1-2.2-2.6,29.69,29.69,0,0,1-4-8,29.13,29.13,0,0,1-1.32-8.79,28.48,28.48,0,0,1,4.38-15.44,18.2,18.2,0,0,1,2.67-3.56,3.34,3.34,0,0,1,2.16-1.2.77.77,0,0,1,.64.31A1.26,1.26,0,0,1,1098,1148.29Z"/>
    <path d="M1118.45,1186.39a7.18,7.18,0,0,1,.85-2.2c.57-1.14,1-2,1.3-2.73a43.36,43.36,0,0,0,2.39-7.28,32.5,32.5,0,0,0,.11-13.07,34.82,34.82,0,0,0-1.86-6.17c-.43-1.1-1-2.38-1.71-3.87a10,10,0,0,1-1.08-2.78,1.3,1.3,0,0,1,.25-.81.83.83,0,0,1,.65-.31,2.8,2.8,0,0,1,1.76.81,15,15,0,0,1,2.18,2.58,28.84,28.84,0,0,1,4,8,29.28,29.28,0,0,1,1.32,8.82,28.88,28.88,0,0,1-1.11,8,30.14,30.14,0,0,1-3.32,7.42,21.48,21.48,0,0,1-2.7,3.59,3.29,3.29,0,0,1-2.11,1.14.76.76,0,0,1-.65-.32A1.44,1.44,0,0,1,1118.45,1186.39Z"/>
    <path d="M1151,1171.5a1.9,1.9,0,0,1,.52-1,1.67,1.67,0,0,1,1-.23h5.16a.84.84,0,0,1,.53.15.44.44,0,0,1,.21.37.92.92,0,0,1,0,.28,1.31,1.31,0,0,1-.15.37l-6.42,13.37a1.66,1.66,0,0,1-.44.58,1.06,1.06,0,0,1-.58.17h-.43l-1.64-.6a1.34,1.34,0,0,1-.56-.37.78.78,0,0,1-.19-.5v-.22a2.59,2.59,0,0,1,.09-.4Zm-1.92-11.78a4.09,4.09,0,0,1,1.36-3.18,5,5,0,0,1,3.52-1.25,5.17,5.17,0,0,1,3.59,1.23,4.42,4.42,0,0,1,.15,6.25h0l-.15.15a5.23,5.23,0,0,1-3.59,1.24,5.09,5.09,0,0,1-3.54-1.22,4.14,4.14,0,0,1-1.34-3.22Z"/>
    <path d="M926.57,1230.81l18.25,8.42a5.38,5.38,0,0,1,1.57,1,1.76,1.76,0,0,1,0,2.35,1.63,1.63,0,0,1-1.21.45,2.54,2.54,0,0,1-.77-.13,8.94,8.94,0,0,1-1.2-.5l-19.8-9.23-.25-.1c-1.52-.7-2.29-1.46-2.29-2.3s.75-1.57,2.24-2.24l.3-.15,19.8-9.08a8.16,8.16,0,0,1,1.15-.47,2.87,2.87,0,0,1,.82-.13,1.72,1.72,0,0,1,1.21.42,1.48,1.48,0,0,1,.43,1.15,1.72,1.72,0,0,1-.47,1.18,5,5,0,0,1-1.57,1Z"/>
    <path d="M959.51,1247.25a5.18,5.18,0,0,1-1,1.69,1.72,1.72,0,0,1-2.38-.06,1.67,1.67,0,0,1-.45-1.69,5.31,5.31,0,0,1,.2-.56l15.54-33.5a6.38,6.38,0,0,1,1.1-1.75,1.52,1.52,0,0,1,1.14-.46,1.77,1.77,0,0,1,1.27.5,1.55,1.55,0,0,1,.52,1.19,1.74,1.74,0,0,1-.06.45,2.07,2.07,0,0,1-.18.47Z"/>
    <path d="M984.86,1244.79v-4.44a2.42,2.42,0,0,1,.41-1.57,1.71,1.71,0,0,1,1.34-.47c.68,0,1.22.47,1.61,1.4A8,8,0,0,0,989,1241a7.16,7.16,0,0,0,3.08,2.15,12.2,12.2,0,0,0,4.51.81,7.47,7.47,0,0,0,4.23-1.07,3.24,3.24,0,0,0,1.6-2.82,2.69,2.69,0,0,0-1.28-2.51,9.34,9.34,0,0,0-4.4-.75h-1.37q-5.09,0-7.74-1.77a5.79,5.79,0,0,1-2.67-5.13,5.86,5.86,0,0,1,2.6-5.1,12.7,12.7,0,0,1,7.31-1.82,14.76,14.76,0,0,1,3.91.54c1.33.35,2,.53,2.09.53a2.72,2.72,0,0,0,1-.48,2.77,2.77,0,0,1,1.52-.49,1.43,1.43,0,0,1,1.26.62,3.47,3.47,0,0,1,.41,1.87v2.91a3.53,3.53,0,0,1-.4,1.91,1.42,1.42,0,0,1-1.27.58c-.5,0-1.11-.42-1.84-1.27-.52-.58-.94-1-1.27-1.32a8.25,8.25,0,0,0-2.82-1.75,10.22,10.22,0,0,0-3.51-.54,6.22,6.22,0,0,0-3.77,1,3.11,3.11,0,0,0-1.43,2.62,2.31,2.31,0,0,0,1.47,2.25c1,.44,3.08.7,6.32.77,3.45.08,6,.68,7.57,1.8a5.89,5.89,0,0,1,2.39,5.19,6.41,6.41,0,0,1-2.64,5.38,11.42,11.42,0,0,1-7.12,2,22.32,22.32,0,0,1-3.16-.26c-1.16-.18-2.62-.47-4.38-.88a12.3,12.3,0,0,1-1.5.85,2.51,2.51,0,0,1-1,.29,1.59,1.59,0,0,1-1.34-.61A2.91,2.91,0,0,1,984.86,1244.79Z"/>
    <path d="M1033.82,1225.06v-.1a1.51,1.51,0,0,1,.47-1.21,2.33,2.33,0,0,1,1.47-.38,1.54,1.54,0,0,1,1.41.6,5.05,5.05,0,0,1,.39,2.46v4.63a1.83,1.83,0,0,1-.48,1.39,2,2,0,0,1-1.42.46,1.78,1.78,0,0,1-1.15-.39,5.85,5.85,0,0,1-1.19-1.61,8.42,8.42,0,0,0-2.9-3,7.49,7.49,0,0,0-3.92-1,8.8,8.8,0,0,0-6.31,2.29,7.78,7.78,0,0,0-2.43,5.93,8.21,8.21,0,0,0,2.33,6.06,8.05,8.05,0,0,0,6,2.36,11,11,0,0,0,3.17-.47,10,10,0,0,0,2.85-1.38c.44-.29.86-.59,1.27-.92a4.77,4.77,0,0,1,2.54-1.32,1.68,1.68,0,0,1,1.75,1.74c0,1.32-1.25,2.66-3.73,4a16,16,0,0,1-7.9,2,12.48,12.48,0,0,1-9-3.46,12.23,12.23,0,0,1,0-17.3h0a12.35,12.35,0,0,1,9-3.47,14.31,14.31,0,0,1,3.79.51A21.9,21.9,0,0,1,1033.82,1225.06Z"/>
    <path d="M1054.49,1243.07h8.27a2.09,2.09,0,0,1,1.43.41,1.64,1.64,0,0,1,.46,1.31,1.79,1.79,0,0,1-.44,1.4,2.45,2.45,0,0,1-1.6.39h-16.29a2.11,2.11,0,0,1-1.47-.45,1.76,1.76,0,0,1-.5-1.34,1.59,1.59,0,0,1,.51-1.3,2.44,2.44,0,0,1,1.59-.42h4.33v-16h-1.69a7.1,7.1,0,0,1-3-.38,1.55,1.55,0,0,1-.6-1.4,1.69,1.69,0,0,1,.49-1.3,2.12,2.12,0,0,1,1.48-.43h5.68a1.69,1.69,0,0,1,1,.26.89.89,0,0,1,.35.76v4.23a17.43,17.43,0,0,1,4.93-4.4A11,11,0,0,1,1065,1223a6.43,6.43,0,0,1,3.58.89,2.65,2.65,0,0,1,1.37,2.3,2.28,2.28,0,0,1-.68,1.63,2.08,2.08,0,0,1-1.51.71,4.82,4.82,0,0,1-1.93-.76,5,5,0,0,0-2.43-.76,7.6,7.6,0,0,0-4.09,1.38,23.91,23.91,0,0,0-4.77,4.38Z"/>
    <path d="M1089.85,1243.07h8a2.07,2.07,0,0,1,1.44.41,1.71,1.71,0,0,1,.46,1.31,1.79,1.79,0,0,1-.44,1.4,2.45,2.45,0,0,1-1.6.39h-19.3a2.19,2.19,0,0,1-1.5-.45,1.76,1.76,0,0,1-.5-1.34,1.56,1.56,0,0,1,.53-1.3,2.49,2.49,0,0,1,1.57-.42h7.59v-16h-4.87a2.3,2.3,0,0,1-1.56-.46,1.92,1.92,0,0,1,0-2.62,2.22,2.22,0,0,1,1.49-.43h7.3a1.76,1.76,0,0,1,1,.27.86.86,0,0,1,.39.75Zm-4.61-26.67a7.27,7.27,0,0,1,.49-3.39c.32-.47,1-.7,2.08-.7a2.64,2.64,0,0,1,2,.59,4.83,4.83,0,0,1,.5,2.77,4.7,4.7,0,0,1-.46,2.66,2.9,2.9,0,0,1-2.08.51,3.12,3.12,0,0,1-2.08-.48,2.9,2.9,0,0,1-.45-2Z"/>
    <path d="M1111.72,1253h6a2,2,0,0,1,1.42.45,1.76,1.76,0,0,1,.47,1.35,1.73,1.73,0,0,1-.46,1.37,2.53,2.53,0,0,1-1.63.39h-11a2.33,2.33,0,0,1-1.51-.44,1.68,1.68,0,0,1-.51-1.32,1.54,1.54,0,0,1,.64-1.4,4.87,4.87,0,0,1,2.35-.4h.47V1227.1h-.47a5,5,0,0,1-2.35-.39,1.54,1.54,0,0,1-.64-1.4,1.62,1.62,0,0,1,.51-1.31,2.27,2.27,0,0,1,1.51-.43h3.79a1.86,1.86,0,0,1,1.08.25.9.9,0,0,1,.34.77V1227a11.66,11.66,0,0,1,16.49-.13l0,0a11.52,11.52,0,0,1,3.36,8.49,10.88,10.88,0,0,1-3.19,8.07,11.12,11.12,0,0,1-8.14,3.16,12.25,12.25,0,0,1-4.85-.94,9.86,9.86,0,0,1-3.71-2.67Zm7.71-10a7.79,7.79,0,0,0,5.68-2.18,8.19,8.19,0,0,0,0-11.23,7.74,7.74,0,0,0-5.67-2.21,7.81,7.81,0,1,0,0,15.62Z"/>
    <path d="M1155.57,1225a2.87,2.87,0,0,1,1.78.43,1.53,1.53,0,0,1,.56,1.34,1.6,1.6,0,0,1-.52,1.31,2.43,2.43,0,0,1-1.57.43h-10.08v8.32c0,2.72.35,4.52,1.06,5.38a4.44,4.44,0,0,0,3.62,1.3,14.78,14.78,0,0,0,5.43-1.32,16,16,0,0,1,3.91-1.32,1.6,1.6,0,0,1,1.18.49,1.67,1.67,0,0,1,.49,1.22,2,2,0,0,1-.61,1.44,6.41,6.41,0,0,1-2.08,1.18,30.91,30.91,0,0,1-4.4,1.42,16.17,16.17,0,0,1-3.67.45,11.48,11.48,0,0,1-4.9-.94,6.26,6.26,0,0,1-3-2.77,6.69,6.69,0,0,1-.71-2.07,22.78,22.78,0,0,1-.21-3.69v-9.09h-4.23a2.28,2.28,0,0,1-1.52-.41,1.64,1.64,0,0,1-.47-1.33,1.44,1.44,0,0,1,.64-1.39,6.39,6.39,0,0,1,2.77-.38h2.81v-6.42a2.34,2.34,0,0,1,.46-1.58,1.84,1.84,0,0,1,1.43-.51,1.67,1.67,0,0,1,1.52.62,5.74,5.74,0,0,1,.43,2.84v5Z"/>
    <path d="M1186,1230.81l-18.2-8.31a5.11,5.11,0,0,1-1.62-1,1.62,1.62,0,0,1-.48-1.15,1.53,1.53,0,0,1,.44-1.15,1.61,1.61,0,0,1,1.18-.42,3,3,0,0,1,.84.13,9.56,9.56,0,0,1,1.15.47l19.8,9.08.3.15c1.49.67,2.24,1.41,2.24,2.24s-.73,1.57-2.19,2.25a2.17,2.17,0,0,0-.35.15l-19.8,9.23h-.1a5.26,5.26,0,0,1-1.89.58,1.57,1.57,0,0,1-1.18-.45,1.67,1.67,0,0,1-.44-1.2,1.6,1.6,0,0,1,.48-1.15,5.11,5.11,0,0,1,1.62-1Z"/>
    <line class="cls-11" x1="851.2" y1="1016.52" x2="1400.41" y2="1016.52"/>
    <path class="cls-19" d="M1326.25,1227.31v-31a4.67,4.67,0,1,0-9.33-.43,3.08,3.08,0,0,0,0,.43v33.34"/>
    <path class="cls-19" d="M1317.87,1225h-31a4.67,4.67,0,1,0-.43,9.33h33.78"/>
    <ellipse class="cls-20" cx="1329.46" cy="1243.45" rx="28.05" ry="27.41" transform="translate(-489.86 1304.27) rotate(-45)"/>
    <path class="cls-19" d="M1402.85,1251.52a6,6,0,0,1-1.69-5.21l7.11-44.4-28.19-28.19a6,6,0,0,1,8.5-8.5h0l30.35,30.39a6,6,0,0,1,1.69,5.2l-7.59,47.43a6,6,0,0,1-10.18,3.31Z"/>
    <path class="cls-19" d="M1418.5,1273.81l-.06-.06a6,6,0,0,1,.1-8.49h0l34.63-33.64a6,6,0,0,1,8.44.06l54.07,54.08a6,6,0,1,1-8.43,8.55l-.06,0-49.89-49.89-30.38,29.55A6,6,0,0,1,1418.5,1273.81Z"/>
    <path class="cls-19" d="M1506.73,1372.48a6,6,0,0,1-1.5-6c3.74-12.27,3.29-25.77-1.34-40.12a88.07,88.07,0,0,0-7.08-16.24L1455,1303a6,6,0,0,1,1.9-11.87l.1,0h0l44.59,7.59a6,6,0,0,1,4,2.61,94.87,94.87,0,0,1,9.65,21c5.43,16.62,6,33.11,1.52,47.68a6,6,0,0,1-7.48,4,5.88,5.88,0,0,1-2.52-1.51Z"/>
    <path class="cls-19" d="M1335.92,1318.44a6,6,0,0,0-5.2-1.69l-44.41,7.11-28.19-28.19a6,6,0,0,0-8.55,8.44l.06.06h0l30.35,30.36a6,6,0,0,0,5.2,1.68l47.44-7.59a6,6,0,0,0,5-6.85v0A5.89,5.89,0,0,0,1335.92,1318.44Z"/>
    <path class="cls-19" d="M1358.22,1334.09l-.06,0a6,6,0,0,0-8.48.09h0l0,0L1316,1368.78a6,6,0,0,0,.06,8.44l54.07,54.08a6,6,0,0,0,8.5-8.5l-49.88-49.89,29.54-30.38A6,6,0,0,0,1358.22,1334.09Z"/>
    <path class="cls-19" d="M1456.89,1422.33a6,6,0,0,0-6-1.5c-12.27,3.73-25.76,3.28-40.11-1.34a89.77,89.77,0,0,1-16.21-7.08l-7.13-41.87a6,6,0,1,0-11.87,1.9s0,.06,0,.1l7.59,44.59a6,6,0,0,0,2.61,4,94.45,94.45,0,0,0,21,9.66c16.62,5.42,33.1,6,47.67,1.51a6,6,0,0,0,4-7.48h0A5.94,5.94,0,0,0,1456.89,1422.33Z"/>
    <path class="cls-19" d="M1387.07,1387.89a61.7,61.7,0,1,0,87.82-86.7l-.59-.58-62.55-62.56c-24.09-24.09-67.08-28-91.17-3.93s-20.16,67.08,3.93,91.17Z"/>
    <line class="cls-16" x1="1407.1" y1="1233.98" x2="1319.34" y2="1321.74"/>
    <line class="cls-16" x1="1474.45" y1="1386.73" x2="1364.34" y2="1276.62"/>
    <path class="cls-8" d="M3762.78,1977.76l18.6-32h7.35v32h8v4h-8v16.57h-4.57v-16.57h-21.38Zm4.5,0h16.88V1949h-.3Z"/>
    <path class="cls-8" d="M3807.41,1990.14a4.54,4.54,0,1,1-4.5,4.58h0A4.53,4.53,0,0,1,3807.41,1990.14Z"/>
    <path class="cls-8" d="M2680.45,1983.1c0-8.18-4.87-11.7-12-11.7a32.23,32.23,0,0,0-4,.22v-3.37l15.45-17.85h-22.5v-4.13h27.07v4.65l-14.54,16.69c8.7,0,15.29,5.92,15.29,15.45,0,11.4-7,16.57-15,16.57-7.65,0-14.4-4.87-14.4-14.1v-3.3h4.5l.07,2.85c.15,7.13,4.28,10.58,9.75,10.58C2676.33,1995.7,2680.45,1991.61,2680.45,1983.1Z"/>
    <path class="cls-8" d="M2698.23,1990.61a4.54,4.54,0,1,1-4.5,4.58h0A4.53,4.53,0,0,1,2698.23,1990.61Z"/>
    <path class="cls-8" d="M2728.68,1982.35v-36.08h4.64v36c0,7.5,3.75,13.43,12.75,13.43,8.85,0,12.75-5.93,12.75-13.43v-36h4.5v36c0,9.9-5.32,17.4-17.32,17.4S2728.68,1992.25,2728.68,1982.35Z"/>
    <path class="cls-8" d="M2789.72,1990c0-3.3-2.7-4.73-7.42-6.45l-1.87-.68c-5-1.8-8.4-4.35-8.4-9.15,0-5.47,4.87-8.92,11.32-8.92a16.82,16.82,0,0,1,10.72,3.82l-2.47,3.45a15,15,0,0,0-8.4-3.3c-3.67,0-6.45,1.88-6.45,4.73,0,2.1,1.5,3.75,4.88,5l3.82,1.43c6.37,2.47,9,5.25,9,10.12,0,4.28-3.68,9.6-12.15,9.6a19.84,19.84,0,0,1-11.62-4.12l2.4-3.45a15.88,15.88,0,0,0,9.37,3.52C2787,1995.61,2789.72,1993.07,2789.72,1990Z"/>
    <path class="cls-8" d="M2805,1983.61c.6,6.83,5.18,12,12.08,12a11.38,11.38,0,0,0,10.27-5.7h5.33a17,17,0,0,1-15.6,9.75c-9.53,0-16.8-7.27-16.8-17.4s7.27-17.47,16.72-17.47c8.63,0,16.65,6.07,16.65,18.67v.15Zm.15-3.75h23.4c-.52-6-5-11-11.55-11s-11,4.75-11.85,11Z"/>
    <path class="cls-8" d="M2858.27,1969.75H2856c-5.85,0-10,2.7-10,10.5v18.52h-4.5V1965.7h4.35v5.62c1.88-4.42,6-6.22,10-6.22.75,0,1.57.07,2.47.15Z"/>
    <path class="cls-8" d="M2895.47,1969.75h-2.25c-5.85,0-10,2.7-10,10.5v18.52h-4.5V1965.7H2883v5.62c1.88-4.42,6-6.22,10-6.22.75,0,1.57.07,2.47.15Z"/>
    <path class="cls-8" d="M2903.87,1983.61c.6,6.83,5.18,12,12.08,12a11.38,11.38,0,0,0,10.27-5.7h5.35a17,17,0,0,1-15.6,9.75c-9.53,0-16.8-7.27-16.8-17.4s7.27-17.47,16.72-17.47c8.63,0,16.65,6.07,16.65,18.67v.15Zm.15-3.75h23.4c-.52-6-5-11-11.55-11s-11,4.75-11.85,11Z"/>
    <path class="cls-8" d="M2938,1982.27c0-10.12,7.2-17.47,16.65-17.47,5.7,0,10.8,3.22,12.75,7.35v-6.45H2972v46.2h-4.57v-19.35c-2,4-7,7.12-12.6,7.12C2945.27,1999.67,2938,1992.4,2938,1982.27Zm17.1,13.43c7.35,0,12.52-5.85,12.52-13.43s-5.17-13.42-12.52-13.42-12.45,5.85-12.45,13.42S2947.75,1995.7,2955.1,1995.7Z"/>
    <path class="cls-8" d="M2982.17,1987v-21.3h4.58v20.85c0,6,4.12,9.07,9.6,9.07s9.6-3.07,9.6-9.07V1965.7h4.62V1987c0,7-5,12.67-14.17,12.67S2982.17,1994,2982.17,1987Z"/>
    <path class="cls-8" d="M3023.12,1983.61c.6,6.83,5.18,12,12.08,12a11.38,11.38,0,0,0,10.27-5.7h5.33a17,17,0,0,1-15.6,9.75c-9.53,0-16.8-7.27-16.8-17.4s7.27-17.47,16.72-17.47c8.63,0,16.65,6.07,16.65,18.67v.15Zm.15-3.75h23.4c-.52-6-5-11-11.55-11s-11,4.75-11.85,11Z"/>
    <path class="cls-8" d="M3075.62,1990c0-3.3-2.7-4.73-7.42-6.45l-1.88-.68c-5-1.8-8.4-4.35-8.4-9.15,0-5.47,4.88-8.92,11.33-8.92a16.82,16.82,0,0,1,10.72,3.82l-2.47,3.45a15,15,0,0,0-8.4-3.3c-3.68,0-6.45,1.88-6.45,4.73,0,2.1,1.5,3.75,4.87,5l3.83,1.43c6.37,2.47,9,5.25,9,10.12,0,4.28-3.68,9.6-12.15,9.6a19.78,19.78,0,0,1-11.63-4.12l2.4-3.45a15.91,15.91,0,0,0,9.38,3.52C3072.85,1995.61,3075.62,1993.07,3075.62,1990Z"/>
    <path class="cls-8" d="M3095,1951.75v14h8.18v3.82H3095V1992c0,3.07,2.18,3.22,4.73,3.22a23.42,23.42,0,0,0,3.45-.22v3.82a48.29,48.29,0,0,1-5.1.3c-3.45,0-7.65-.9-7.65-7v-22.5h-5.7v-3.82h5.7v-14Z"/>
    <path class="cls-8" d="M3126.17,1990c0-3.3-2.7-4.73-7.43-6.45l-1.87-.68c-5-1.8-8.4-4.35-8.4-9.15,0-5.47,4.88-8.92,11.32-8.92a16.86,16.86,0,0,1,10.78,3.81l-2.48,3.45a15,15,0,0,0-8.4-3.3c-3.67,0-6.44,1.88-6.44,4.73,0,2.1,1.5,3.75,4.87,5l3.82,1.43c6.38,2.47,9,5.25,9,10.12,0,4.28-3.67,9.6-12.15,9.6a19.84,19.84,0,0,1-11.62-4.12l2.4-3.45a15.88,15.88,0,0,0,9.37,3.52C3123.39,1995.61,3126.17,1993.07,3126.17,1990Z"/>
    <path class="cls-8" d="M3159.39,1951.75v14h8.18v3.82h-8.18V1992c0,3.07,2.18,3.22,4.73,3.22a23.42,23.42,0,0,0,3.45-.22v3.82a48.29,48.29,0,0,1-5.1.3c-3.45,0-7.65-.9-7.65-7v-22.5h-5.7v-3.82h5.7v-14Z"/>
    <path class="cls-8" d="M3188.94,1964.8a17.44,17.44,0,1,1-17.1,17.78v-.31C3171.84,1972.15,3179.49,1964.8,3188.94,1964.8Zm0,4c-7.35,0-12.45,5.85-12.45,13.42s5.1,13.43,12.45,13.43,12.53-5.85,12.53-13.43-5.1-13.37-12.53-13.37Z"/>
    <path class="cls-8" d="M3245.42,1990c0-3.3-2.7-4.73-7.43-6.45l-1.87-.68c-5-1.8-8.4-4.35-8.4-9.15,0-5.47,4.87-8.92,11.32-8.92a16.87,16.87,0,0,1,10.73,3.82l-2.48,3.45a15,15,0,0,0-8.4-3.3c-3.67,0-6.45,1.88-6.45,4.73,0,2.1,1.5,3.75,4.88,5l3.82,1.43c6.38,2.47,9,5.25,9,10.12,0,4.28-3.67,9.6-12.15,9.6a19.84,19.84,0,0,1-11.62-4.12l2.4-3.45a15.88,15.88,0,0,0,9.37,3.52C3242.64,1995.61,3245.42,1993.07,3245.42,1990Z"/>
    <path class="cls-8" d="M3260.72,1983.61c.6,6.83,5.17,12,12.07,12a11.41,11.41,0,0,0,10.28-5.7h5.32a17,17,0,0,1-15.6,9.75c-9.52,0-16.8-7.27-16.8-17.4s7.28-17.47,16.73-17.47c8.62,0,16.65,6.07,16.65,18.67v.15Zm.15-3.75h23.4c-.53-6-5-11-11.55-11s-11,4.75-11.85,11Z"/>
    <path class="cls-8" d="M3299.57,1983.61c.6,6.83,5.17,12,12.07,12a11.38,11.38,0,0,0,10.27-5.7h5.33a17,17,0,0,1-15.6,9.75c-9.52,0-16.8-7.27-16.8-17.4s7.28-17.47,16.72-17.47c8.63,0,16.65,6.07,16.65,18.67v.15Zm.15-3.75h23.39c-.52-6-5-11-11.55-11s-11,4.75-11.84,11Z"/>
    <path class="cls-8" d="M3365.71,1995.7a11.83,11.83,0,0,0,10.88-6.68l3.9,2.25a16.78,16.78,0,0,1-14.78,8.4c-9.52,0-17.1-7.27-17.1-17.4s7.58-17.47,17.1-17.47a16.76,16.76,0,0,1,14.78,8.4l-3.9,2.25a11.89,11.89,0,0,0-10.88-6.6c-7.35,0-12.45,5.85-12.45,13.42S3358.36,1995.7,3365.71,1995.7Z"/>
    <path class="cls-8" d="M3402.69,1964.8a17.44,17.44,0,1,1-17.1,17.78v-.31a17,17,0,0,1,16.48-17.47Zm0,4c-7.35,0-12.45,5.85-12.45,13.42s5.1,13.43,12.45,13.43,12.52-5.85,12.52-13.43-5.1-13.37-12.52-13.37Z"/>
    <path class="cls-8" d="M3455.71,1978.07v20.7h-4.57v-22c0-5.1-3.15-8-7.88-8-3.9,0-7.42,2.17-10.57,5.85v24.07h-4.58v-33.07h4.5v4.72c2.85-3.45,6.45-5.62,11.25-5.62,5.55,0,9.23,2.47,10.8,6.37,3.6-4.35,7.5-6.37,12.3-6.37,7.8,0,11.78,4.72,11.78,12v22h-4.58v-22c0-5.1-3.15-8-7.8-8-4,0-7.57,2.25-10.8,6C3455.64,1975.9,3455.71,1977,3455.71,1978.07Z"/>
    <path class="cls-8" d="M3516.57,1978.07v20.7H3512v-22c0-5.1-3.15-8-7.88-8-3.9,0-7.42,2.17-10.57,5.85v24.07H3489v-33.07h4.5v4.72c2.85-3.45,6.45-5.62,11.25-5.62,5.55,0,9.23,2.47,10.8,6.37,3.6-4.35,7.5-6.37,12.3-6.37,7.8,0,11.78,4.72,11.78,12v22H3535v-22c0-5.1-3.15-8-7.8-8-4,0-7.57,2.25-10.8,6A26.74,26.74,0,0,1,3516.57,1978.07Z"/>
    <path class="cls-8" d="M3552.31,1983.61c.6,6.83,5.18,12,12.08,12a11.38,11.38,0,0,0,10.27-5.7H3580a17,17,0,0,1-15.6,9.75c-9.53,0-16.8-7.27-16.8-17.4s7.27-17.47,16.72-17.47c8.63,0,16.65,6.07,16.65,18.67v.15Zm.15-3.75h23.4c-.52-6-5-11-11.55-11s-11,4.75-11.85,11Z"/>
    <path class="cls-8" d="M3612.57,1977c0-5.32-3.45-8.17-8.18-8.17-4,0-7.87,2.17-11,5.85v24.07h-4.58V1965.7h4.5v4.72a15,15,0,0,1,11.85-5.62c7.73,0,12,4.72,12,12v22h-4.59Z"/>
    <path class="cls-8" d="M3633.84,1951.75v14H3642v3.82h-8.17V1992c0,3.07,2.17,3.22,4.72,3.22a23.42,23.42,0,0,0,3.45-.22v3.82a48.29,48.29,0,0,1-5.1.3c-3.45,0-7.65-.9-7.65-7v-22.5h-5.69v-3.82h5.7v-14Z"/>
    <path class="cls-8" d="M3855.78,1954.07c-2.62-2.25-7.27-4.65-11.62-4.65-5.48,0-10.8,2.93-10.8,8.78,0,3.45,2.25,6.6,7.65,9.37l5.47,2.85c8.18,4.28,12.15,8.78,12.15,15.15,0,7-5.77,14.1-16.35,14.1a23,23,0,0,1-15.71-6.06l2.62-3.53a18.76,18.76,0,0,0,13.38,5.53c7,0,11.33-4.87,11.33-9.75,0-5.4-3.38-8.17-10.28-11.77l-4.42-2.33c-6.83-3.6-10.5-7.42-10.5-13.42,0-8.18,7.12-13,15.37-13a23.47,23.47,0,0,1,14.25,5.1Z"/>
    <path class="cls-8" d="M3869.57,1983.61c.6,6.83,5.18,12,12.08,12a11.38,11.38,0,0,0,10.27-5.7h5.33a17,17,0,0,1-15.6,9.75c-9.53,0-16.8-7.27-16.8-17.4s7.27-17.47,16.72-17.47c8.63,0,16.65,6.07,16.65,18.67v.15Zm.15-3.75h23.4c-.52-6-5-11-11.55-11s-11,4.75-11.84,11Z"/>
    <path class="cls-8" d="M3922.83,1969.75h-2.26c-5.85,0-10.05,2.7-10.05,10.5v18.52H3906V1965.7h4.35v5.62c1.88-4.42,6-6.22,10-6.22.75,0,1.57.07,2.47.15Z"/>
    <path class="cls-8" d="M3952.57,1965.7h5L3945,1998.77h-6.15l-12.3-33.07h5.18L3942,1995Z"/>
    <path class="cls-8" d="M3966.11,1983.61c.6,6.83,5.17,12,12.07,12a11.41,11.41,0,0,0,10.28-5.7h5.32a17,17,0,0,1-15.6,9.75c-9.52,0-16.8-7.27-16.8-17.4s7.28-17.47,16.73-17.47c8.62,0,16.65,6.07,16.65,18.67v.15Zm.15-3.75h23.4c-.53-6-5-11-11.55-11s-11,4.75-11.85,11Z"/>
    <path class="cls-8" d="M4019.36,1969.75h-2.25c-5.85,0-10.05,2.7-10.05,10.5v18.52h-4.49V1965.7h4.35v5.62c1.87-4.42,6-6.22,10-6.22.75,0,1.58.07,2.48.15Z"/>
    <path class="cls-8" d="M4055.81,1990c0-3.3-2.7-4.73-7.43-6.45l-1.87-.68c-5-1.8-8.4-4.35-8.4-9.15,0-5.47,4.87-8.92,11.32-8.92a16.87,16.87,0,0,1,10.73,3.82l-2.48,3.45a15,15,0,0,0-8.4-3.3c-3.67,0-6.45,1.88-6.45,4.73,0,2.1,1.5,3.75,4.88,5l3.82,1.43c6.38,2.47,9,5.25,9,10.12,0,4.28-3.67,9.6-12.15,9.6a19.84,19.84,0,0,1-11.62-4.12l2.4-3.45a15.85,15.85,0,0,0,9.41,3.53C4053,1995.61,4055.81,1993.07,4055.81,1990Z"/>
    <path class="cls-8" d="M4071.11,1983.61c.6,6.83,5.17,12,12.07,12a11.38,11.38,0,0,0,10.27-5.7h5.33a17,17,0,0,1-15.6,9.75c-9.52,0-16.8-7.27-16.8-17.4s7.28-17.47,16.73-17.47c8.62,0,16.64,6.07,16.64,18.67v.15Zm.15-3.75h23.39c-.52-6-5-11-11.54-11s-11,4.75-11.85,11Z"/>
    <path class="cls-8" d="M4131.33,1977c0-5.32-3.45-8.17-8.18-8.17-4,0-7.87,2.17-11,5.85v24.07h-4.58V1965.7h4.5v4.72a15,15,0,0,1,11.84-5.62c7.73,0,12,4.72,12,12v22h-4.57Z"/>
    <path class="cls-8" d="M4173.25,1972.15v-25.88h4.58v52.5h-4.58v-6.3c-2,4.13-7,7.2-12.6,7.2-9.52,0-16.79-7.27-16.79-17.4s7.19-17.47,16.64-17.47C4166.2,1964.8,4171.3,1968,4173.25,1972.15ZM4161,1995.7c7.35,0,12.53-5.85,12.53-13.43s-5.18-13.42-12.53-13.42-12.45,5.85-12.45,13.42S4153.57,1995.7,4161,1995.7Z"/>
    <path class="cls-8" d="M4204.57,1990c0-3.3-2.7-4.73-7.43-6.45l-1.87-.68c-5-1.8-8.4-4.35-8.4-9.15,0-5.47,4.87-8.92,11.32-8.92a16.87,16.87,0,0,1,10.73,3.82l-2.48,3.45a15,15,0,0,0-8.4-3.3c-3.67,0-6.45,1.88-6.45,4.73,0,2.1,1.5,3.75,4.88,5l3.82,1.43c6.38,2.47,9,5.25,9,10.12,0,4.28-3.67,9.6-12.15,9.6a19.81,19.81,0,0,1-11.62-4.12l2.4-3.45a15.88,15.88,0,0,0,9.37,3.52C4201.75,1995.61,4204.57,1993.07,4204.57,1990Z"/>
    <path class="cls-8" d="M4247.13,1995.7A11.81,11.81,0,0,0,4258,1989l3.9,2.25a16.73,16.73,0,0,1-14.77,8.4c-9.53,0-17.1-7.27-17.1-17.4s7.57-17.47,17.1-17.47a16.71,16.71,0,0,1,14.77,8.4l-3.9,2.25a11.86,11.86,0,0,0-10.87-6.6c-7.35,0-12.45,5.85-12.45,13.42S4239.78,1995.7,4247.13,1995.7Z"/>
    <path class="cls-8" d="M4284.1,1964.8a17.44,17.44,0,1,1-17.1,17.78v-.31C4267,1972.15,4274.65,1964.8,4284.1,1964.8Zm0,4c-7.35,0-12.45,5.85-12.45,13.42s5.1,13.43,12.45,13.43,12.53-5.85,12.53-13.43-5.06-13.37-12.53-13.37Z"/>
    <path class="cls-8" d="M4337.13,1978.07v20.7h-4.56v-22c0-5.1-3.15-8-7.87-8-3.9,0-7.43,2.17-10.58,5.85v24.07h-4.55v-33.07h4.5v4.72c2.85-3.45,6.45-5.62,11.25-5.62,5.55,0,9.22,2.47,10.8,6.37,3.6-4.35,7.5-6.37,12.3-6.37,7.8,0,11.77,4.72,11.77,12v22h-4.62v-22c0-5.1-3.15-8-7.8-8-4,0-7.58,2.25-10.8,6C4337.05,1975.9,4337.13,1977,4337.13,1978.07Z"/>
    <path class="cls-8" d="M4398,1978.07v20.7h-4.58v-22c0-5.1-3.15-8-7.87-8-3.9,0-7.43,2.17-10.58,5.85v24.07h-4.57v-33.07h4.5v4.72c2.85-3.45,6.45-5.62,11.25-5.62,5.55,0,9.22,2.47,10.8,6.37,3.6-4.35,7.5-6.37,12.29-6.37,7.8,0,11.78,4.72,11.78,12v22h-4.58v-22c0-5.1-3.14-8-7.79-8-4,0-7.58,2.25-10.8,6C4398,1975.9,4398,1977,4398,1978.07Z"/>
    <path class="cls-8" d="M4433.73,1983.61c.6,6.83,5.17,12,12.07,12a11.41,11.41,0,0,0,10.28-5.7h5.32a17,17,0,0,1-15.6,9.75c-9.52,0-16.8-7.27-16.8-17.4s7.28-17.47,16.73-17.47c8.62,0,16.65,6.07,16.65,18.67v.15Zm.15-3.75h23.4c-.53-6-5-11-11.55-11s-11,4.75-11.85,11Z"/>
    <path class="cls-8" d="M4494,1977c0-5.32-3.45-8.17-8.18-8.17-4,0-7.87,2.17-11,5.85v24.07h-4.57V1965.7h4.5v4.72a15,15,0,0,1,11.84-5.62c7.73,0,12,4.72,12,12v22H4494Z"/>
    <path class="cls-8" d="M4515.25,1951.75v14h8.18v3.82h-8.18V1992c0,3.07,2.18,3.22,4.73,3.22a23.42,23.42,0,0,0,3.45-.22v3.82a48.29,48.29,0,0,1-5.1.3c-3.45,0-7.65-.9-7.65-7v-22.5H4505v-3.82h5.7v-14Z"/>
    <path class="cls-8" d="M4550.72,1951.75v14h8.18v3.82h-8.18V1992c0,3.07,2.18,3.22,4.73,3.22a23.42,23.42,0,0,0,3.45-.22v3.82a48.29,48.29,0,0,1-5.1.3c-3.45,0-7.65-.9-7.65-7v-22.5h-5.7v-3.82h5.7v-14Z"/>
    <path class="cls-8" d="M4580.27,1964.8a17.44,17.44,0,1,1-17.1,17.78v-.31C4563.17,1972.15,4570.82,1964.8,4580.27,1964.8Zm0,4c-7.35,0-12.45,5.85-12.45,13.42s5.1,13.43,12.45,13.43,12.53-5.85,12.53-13.43-5.1-13.37-12.53-13.37Z"/>
    <path class="cls-8" d="M4641.77,1965.7h4.95l-12.52,33.07h-6.15l-12.3-33.07h5.17L4631.2,1995Z"/>
    <path class="cls-8" d="M4659.85,1998.77h-4.58v-29.25H4650v-3.82h9.83Zm-2.63-49a4,4,0,1,1-4,4A4,4,0,0,1,4657.22,1949.72Z"/>
    <path class="cls-8" d="M4685.2,1995.7a11.81,11.81,0,0,0,10.87-6.68l3.9,2.25a16.74,16.74,0,0,1-14.77,8.4c-9.53,0-17.1-7.27-17.1-17.4s7.57-17.47,17.1-17.47a16.72,16.72,0,0,1,14.77,8.4l-3.9,2.25a11.86,11.86,0,0,0-10.87-6.6c-7.35,0-12.45,5.85-12.45,13.42S4677.85,1995.7,4685.2,1995.7Z"/>
    <path class="cls-8" d="M4714.3,1951.75v14h8.17v3.82h-8.17V1992c0,3.07,2.17,3.22,4.72,3.22a23.42,23.42,0,0,0,3.45-.22v3.82a48.29,48.29,0,0,1-5.1.3c-3.45,0-7.65-.9-7.65-7v-22.5H4704v-3.82h5.7v-14Z"/>
    <path class="cls-8" d="M4735.22,1998.77h-4.57v-29.25h-5.25v-3.82h9.82Zm-2.62-49a4,4,0,1,1-4,4,4,4,0,0,1,4-4Z"/>
    <path class="cls-8" d="M4773.47,1978.07v20.7h-4.57v-22c0-5.1-3.15-8-7.88-8-3.9,0-7.42,2.17-10.57,5.85v24.07h-4.58v-33.07h4.5v4.72c2.85-3.45,6.45-5.62,11.25-5.62,5.55,0,9.23,2.47,10.8,6.37,3.6-4.35,7.5-6.37,12.3-6.37,7.8,0,11.77,4.72,11.77,12v22h-4.57v-22c0-5.1-3.15-8-7.8-8-4,0-7.57,2.25-10.8,6C4773.4,1975.9,4773.47,1977,4773.47,1978.07Z"/>
    <rect class="cls-14" x="3954.11" y="894.33" width="565" height="57.47"/>
    <ellipse class="cls-5" cx="4029.13" cy="923" rx="12.99" ry="13.29"/>
    <ellipse class="cls-6" cx="4065.28" cy="923" rx="12.99" ry="13.29"/>
    <ellipse class="cls-7" cx="3990.8" cy="923" rx="12.99" ry="13.29"/>
    <rect class="cls-3" x="4127.14" y="1000.23" width="349.94" height="228.04"/>
    <circle class="cls-21" cx="4045.32" cy="1052.26" r="49"/>
    <g class="cls-22">
      <g>
        <polygon class="cls-23" points="4057.55 1085.41 4034.35 1085.01 4035.18 1075.97 4036.03 1068.5 4055.48 1068.24 4056.66 1076.04 4057.55 1085.41"/>
        <path class="cls-24" d="M4062.51,1126.29h-30.69v-46.78a51.47,51.47,0,0,0,14.61,2.55,59.66,59.66,0,0,0,16.08-2.55Z"/>
        <path class="cls-24" d="M4062.51,1127.85h-30.69v-44.5a48.28,48.28,0,0,0,14.61,2.77,55.61,55.61,0,0,0,16.08-2.77Z"/>
        <path class="cls-23" d="M4063.33,1040.39a5.37,5.37,0,0,1,5.57-.6c2.2,1.07,2.46,3.45,1.4,6.12,0,0,2.44,7.63-3.62,7.63-5.8,0-4.65-3.54-4.65-3.54"/>
        <path class="cls-25" d="M4064.44,1050.93s-.22-1.55,1-1.71a1.55,1.55,0,0,1,1.65,1.29s2-.19,1.49-3.16"/>
        <path class="cls-25" d="M4064.77,1042s4.51-1.42,3.75,3"/>
        <line class="cls-26" x1="4066.74" y1="1044.29" x2="4065.11" y2="1047.85"/>
        <path class="cls-23" d="M4028.89,1039.69a5.36,5.36,0,0,0-5.55-.8c-2.24,1-2.58,3.35-1.63,6.06,0,0-2.71,7.53,3.33,7.75,5.8.22,4.79-3.35,4.79-3.35"/>
        <path class="cls-25" d="M4027.38,1050.18s.28-1.54-1-1.75a1.56,1.56,0,0,0-1.7,1.23s-2-.27-1.37-3.21"/>
        <path class="cls-25" d="M4027.39,1041.26s-4.46-1.6-3.87,2.9"/>
        <line class="cls-26" x1="4025.33" y1="1043.46" x2="4026.83" y2="1047.08"/>
        <path class="cls-23" d="M4065.84,1039.75c-.79-1.1-.32-2.55.43-6.14a12.85,12.85,0,0,0-.29-7.76c-1.49-4.59-7.9-10.63-19.1-10.77-13.21-.17-19.71,8.51-20.43,12.53-.48,2.69-.15,3.48,0,5.85.15,2,.88,4.84.12,5.71a10,10,0,0,0-2,6.55,17.87,17.87,0,0,0,3.34,10.25l.59,6.79s0,8.07,7.43,9.74c.63,1.18,2.37,2.71,7.17,2.8l5,.1c4.91.09,6.68-1.45,7.32-2.62,7-1.48,7.54-9.58,7.54-9.58l.71-6.56a18.09,18.09,0,0,0,3.69-9.3C4067.57,1045,4067.62,1042.22,4065.84,1039.75Z"/>
        <path class="cls-25" d="M4044.57,1046.53s-6.89,6.75-4.38,10.49c1.07,1.6,3.72,0,3.72,0a3.09,3.09,0,0,0,4,.07,2.76,2.76,0,0,0,3.17-.23"/>
        <path class="cls-25" d="M4039.1,1063.28a9.61,9.61,0,0,0,13.59.27h0"/>
        <path class="cls-23" d="M4026.57,1039.17c.76-.87,0-3.71-.12-5.71-.18-2.37-.51-3.16,0-5.85.72-4,7.22-12.7,20.43-12.53,11.2.14,17.61,6.18,19.1,10.77a12.85,12.85,0,0,1,.29,7.76l-.79,4.38s-7.47-4.38-7.4-11.42l-22.94.14s-.36,4.91-1.94,7.54C4031.74,1036.68,4026.57,1039.17,4026.57,1039.17Z"/>
        <path class="cls-25" d="M4060.79,1045.93a5.86,5.86,0,1,0-11.72,0h0v0"/>
        <circle class="cls-27" cx="4054.76" cy="1045.32" r="1.57"/>
        <path class="cls-25" d="M4042.57,1045.93a5.87,5.87,0,0,0-11.73,0"/>
        <circle class="cls-27" cx="4036.56" cy="1045.32" r="1.57"/>
        <path class="cls-25" d="M4031.57,1036.34a15.47,15.47,0,0,1,5.1-.72,19.56,19.56,0,0,1,5.1.72"/>
        <path class="cls-25" d="M4049.57,1036.34a15.16,15.16,0,0,1,5.09-.72,19.56,19.56,0,0,1,5.1.72"/>
        <path class="cls-23" d="M4029.36,1076.12c-15.8,0-21.68,4.42-23.79,10.53-2.71,7.81-5,15.56-5,15.56l-6.4,24.47,106.2-.59-6.8-25.16s-3.21-9.7-4.67-13c-2.43-5.48-5-11.82-20.81-11.82H4056.7l-1.7,50h-15l-4.76-50Z"/>
        <polyline class="cls-23" points="4061.34 1075.97 4068.55 1088.95 4062.91 1098.51 4068.68 1107.29 4059.77 1126.03"/>
        <polyline class="cls-23" points="4031.07 1075.97 4023.87 1088.95 4029.5 1098.51 4023.73 1107.29 4032.64 1126.03"/>
      </g>
    </g>
    <circle class="cls-16" cx="4045.32" cy="1052.26" r="49"/>
    <line class="cls-11" x1="4167.06" y1="1041.55" x2="4433.15" y2="1041.55"/>
    <line class="cls-11" x1="4167.06" y1="1081.6" x2="4433.15" y2="1081.6"/>
    <line class="cls-11" x1="4167.06" y1="1119.02" x2="4433.15" y2="1119.02"/>
    <line class="cls-11" x1="4167.06" y1="1155.84" x2="4433.15" y2="1155.84"/>
    <line class="cls-11" x1="4167.06" y1="1193.26" x2="4433.15" y2="1193.26"/>
    <polygon class="cls-3" points="4345.23 739.07 4345.23 890.57 4267 1022.73 4345.23 949.89 4345.23 981.27 4629.77 981.27 4629.77 739.07 4345.23 739.07"/>
    <path class="cls-19" d="M4420.82,819.61l-8-22.93a3.66,3.66,0,1,0-6.92,2.4l8.61,24.7"/>
    <path class="cls-19" d="M4414,820.09l-22.93,8a3.66,3.66,0,0,0,2.41,6.91l24.7-8.6"/>
    <ellipse class="cls-28" cx="4427.16" cy="830.66" rx="22" ry="21.5" transform="translate(1753.1 4455.46) rotate(-64.21)"/>
    <path class="cls-19" d="M4483.8,817.81a4.69,4.69,0,0,1-2.59-3.41l-6.2-34.73-28.15-13.61a4.71,4.71,0,0,1,3.94-8.56l.05,0,.11.05,30.32,14.65a4.73,4.73,0,0,1,2.59,3.42l6.62,37.09a4.72,4.72,0,0,1-3.81,5.47,4.77,4.77,0,0,1-2.88-.4Z"/>
    <path class="cls-19" d="M4501.15,830.29h-.06A4.72,4.72,0,0,1,4499,824l17-33.88a4.72,4.72,0,0,1,6.27-2.13l54,26.1a4.72,4.72,0,0,1-4.11,8.49l-49.82-24.08-14.88,29.72A4.71,4.71,0,0,1,4501.15,830.29Z"/>
    <path class="cls-19" d="M4592,880.61a4.72,4.72,0,0,1-2.66-4.06c-.4-10.06-4.22-19.94-11.34-29.37a69.63,69.63,0,0,0-9.44-10.2l-32.85,5.52a4.71,4.71,0,0,1-1.56-9.29l35-5.89a4.68,4.68,0,0,1,3.63.9,74,74,0,0,1,12.56,13c8.31,10.91,12.95,23,13.43,34.92a4.72,4.72,0,0,1-4.52,4.9A4.84,4.84,0,0,1,4592,880.61Z"/>
    <path class="cls-19" d="M4451.5,884.66a4.68,4.68,0,0,0-4.29.09l-31.06,16.72L4388,887.86a4.72,4.72,0,0,0-4.11,8.49L4414.21,911a4.77,4.77,0,0,0,4.29-.1l33.18-17.86a4.71,4.71,0,0,0-.18-8.39Z"/>
    <path class="cls-19" d="M4472.05,890.5H4472a4.72,4.72,0,0,0-6.27,2.28l-16,34.34a4.72,4.72,0,0,0,2.22,6.24l54,26.1a4.72,4.72,0,0,0,4.11-8.49l-49.83-24.08,14.05-30.13A4.7,4.7,0,0,0,4472.05,890.5Z"/>
    <path class="cls-19" d="M4567.9,930.39a4.7,4.7,0,0,0-4.83.44c-8.13,5.93-18.24,9.08-30.06,9.36a70,70,0,0,1-13.86-1.06L4503.07,910a4.71,4.71,0,0,0-8.3,4.46l0,.09,17.12,31.1a4.79,4.79,0,0,0,3,2.29,73.61,73.61,0,0,0,18,1.75c13.71-.27,26.06-4.14,35.71-11.18a4.73,4.73,0,0,0,1-6.6,4.61,4.61,0,0,0-1.74-1.45Z"/>
    <path class="cls-19" d="M4507.3,922.9a48.39,48.39,0,0,0,42.11-87.13l-62.48-30.16c-24.06-11.62-56.92-3.44-68.54,20.62s2.37,54.89,26.43,66.51Z"/>
    <line class="cls-16" x1="4482.42" y1="803.73" x2="4440.06" y2="891.38"/>
    <line class="cls-16" x1="4571.73" y1="899.49" x2="4461.75" y2="846.34"/>
  </g>
</svg>
