<svg xmlns="http://www.w3.org/2000/svg" xmlns:xlink="http://www.w3.org/1999/xlink" viewBox="0 0 4900 2751">
  <defs>
    <style>
      .cls-1, .cls-10, .cls-14, .cls-16, .cls-29, .cls-9 {
        fill: none;
      }

      .cls-2 {
        fill: #10162f;
      }

      .cls-23, .cls-3, .cls-4 {
        fill: #fff;
      }

      .cls-10, .cls-11, .cls-12, .cls-13, .cls-14, .cls-15, .cls-20, .cls-21, .cls-22, .cls-23, .cls-24, .cls-26, .cls-27, .cls-28, .cls-29, .cls-30, .cls-4, .cls-5, .cls-6, .cls-7, .cls-8 {
        stroke: #000;
      }

      .cls-10, .cls-11, .cls-12, .cls-13, .cls-15, .cls-16, .cls-21, .cls-28, .cls-29, .cls-30, .cls-4, .cls-5, .cls-6, .cls-7, .cls-9 {
        stroke-linecap: round;
      }

      .cls-10, .cls-11, .cls-12, .cls-13, .cls-15, .cls-16, .cls-21, .cls-26, .cls-28, .cls-29, .cls-30, .cls-4, .cls-5, .cls-6, .cls-7, .cls-9 {
        stroke-linejoin: round;
      }

      .cls-10, .cls-11, .cls-12, .cls-13, .cls-14, .cls-16, .cls-20, .cls-21, .cls-22, .cls-23, .cls-24, .cls-4, .cls-5, .cls-6, .cls-7, .cls-8 {
        stroke-width: 6px;
      }

      .cls-5 {
        fill: #c9c9c9;
      }

      .cls-6 {
        fill: #ffd400;
      }

      .cls-15, .cls-20, .cls-7 {
        fill: #00feb9;
      }

      .cls-12, .cls-8 {
        fill: #ff0a28;
      }

      .cls-14, .cls-20, .cls-22, .cls-23, .cls-24, .cls-27, .cls-8 {
        stroke-miterlimit: 10;
      }

      .cls-9 {
        stroke: #fff;
        stroke-width: 7px;
      }

      .cls-11 {
        fill: #b2b2b2;
      }

      .cls-13 {
        fill: #666;
      }

      .cls-15 {
        stroke-width: 6px;
      }

      .cls-16 {
        stroke: #005aff;
      }

      .cls-17 {
        fill: #005aff;
      }

      .cls-18 {
        clip-path: url(#clip-path);
      }

      .cls-19 {
        fill: #141c3b;
      }

      .cls-21 {
        fill: #7100ed;
      }

      .cls-22 {
        fill: #ff7eee;
      }

      .cls-24 {
        fill: #ff71f5;
      }

      .cls-25 {
        clip-path: url(#clip-path-2);
      }

      .cls-26, .cls-27, .cls-28, .cls-29 {
        stroke-width: 4px;
      }

      .cls-30 {
        stroke-width: 3px;
      }

      .cls-31 {
        clip-path: url(#clip-path-3);
      }
    </style>
    <clipPath id="clip-path">
      <rect class="cls-1" x="3980.54" y="1374.11" width="600.23" height="126.23"/>
    </clipPath>
    <clipPath id="clip-path-2">
      <circle class="cls-1" cx="3429.07" cy="1317.05" r="72.27"/>
    </clipPath>
    <clipPath id="clip-path-3">
      <circle class="cls-1" cx="1547.78" cy="687.35" r="99.73"/>
    </clipPath>
  </defs>
  <g id="Layer_2" data-name="Layer 2">
    <rect class="cls-2" width="4900" height="2751"/>
  </g>
  <g id="REflected">
    <path class="cls-3" d="M198.37,2313.7h15.15v48.37h10.27v4.13H198.45v-4.13H208.8v-44.24H198.37Z"/>
    <path class="cls-3" d="M237.82,2358a4.54,4.54,0,1,1-4.5,4.58A4.53,4.53,0,0,1,237.82,2358Z"/>
    <path class="cls-3" d="M1312.24,2362.22s6.9-7.12,15.9-17.32c6.83-7.73,9.15-12.67,9.15-17.92,0-6-4.12-10.2-10.57-10.2-5.55,0-10.2,3.3-10.2,9.15a13,13,0,0,0,1.57,6l-4.35,1.05a16.53,16.53,0,0,1-1.72-7.13c0-7.95,6.75-13,14.85-13,8.7,0,15,5.48,15,14.1,0,5.25-2,11.25-11.63,21.75l-12.3,13.42h25.2v4.13h-30.9Z"/>
    <path class="cls-3" d="M1355.07,2358a4.54,4.54,0,1,1-4.5,4.58A4.53,4.53,0,0,1,1355.07,2358Z"/>
    <path class="cls-3" d="M3070.38,2350.52c0-8.17-4.88-11.69-12-11.69a31.34,31.34,0,0,0-4,.22v-3.37l15.44-17.85h-22.5v-4.13h27.09v4.65l-14.56,16.73c8.7,0,15.31,5.92,15.31,15.44,0,11.4-7,16.58-15,16.58-7.65,0-14.4-4.88-14.4-14.1v-3.3h4.5l.07,2.85c.15,7.12,4.28,10.57,9.75,10.57C3066.26,2363.12,3070.38,2359.07,3070.38,2350.52Z"/>
    <path class="cls-3" d="M3088.16,2358a4.54,4.54,0,1,1-4.5,4.58A4.53,4.53,0,0,1,3088.16,2358Z"/>
    <rect class="cls-4" x="1395.22" y="1233.25" width="729.62" height="595.71"/>
    <rect class="cls-5" x="1395.04" y="1228.46" width="729.79" height="103"/>
    <ellipse class="cls-6" cx="1520.92" cy="1278.16" rx="22.71" ry="23.23"/>
    <ellipse class="cls-7" cx="1584.09" cy="1278.16" rx="22.71" ry="23.23"/>
    <ellipse class="cls-8" cx="1453.93" cy="1278.16" rx="22.71" ry="23.23"/>
    <path class="cls-3" d="M266.81,2348.39l-6.15,18.53h-4.8l18.07-52.5h5.78l18.15,52.5h-5l-6.3-18.53Zm1.27-4h17.1l-8.4-25.34h-.22Z"/>
    <path class="cls-3" d="M310.61,2319.9v13.95h8.18v3.82h-8.18v22.42c0,3.08,2.18,3.23,4.73,3.23a23.53,23.53,0,0,0,3.45-.23v3.83a48.45,48.45,0,0,1-5.1.3c-3.45,0-7.65-.9-7.65-7v-22.5h-5.7v-3.82H306v-14Z"/>
    <path class="cls-3" d="M332.21,2319.9v13.95h8.17v3.82h-8.17v22.42c0,3.08,2.18,3.23,4.72,3.23a23.53,23.53,0,0,0,3.45-.23v3.83a48.1,48.1,0,0,1-5.09.3c-3.45,0-7.65-.9-7.65-7v-22.5H322v-3.82h5.7v-14Z"/>
    <path class="cls-3" d="M367,2344c0-5-3.9-7.05-8.32-7.05a18,18,0,0,0-10.2,3.6l-2.17-3.44a21.61,21.61,0,0,1,12.67-4.2c7.87,0,12.6,4.42,12.6,11.24v22.73H367v-4.13c-1.87,3.3-6.37,5-10.35,5-7.19,0-12-4.2-12-10.13S349,2348,355.76,2348h7.95c2.32,0,3.22-1.2,3.22-3Zm0,11.1v-4.57c-.82,1-2.55,1.27-4.27,1.27h-6.15c-4.88,0-7.12,2.4-7.12,5.85,0,2.85,2.17,6.23,7.72,6.23,5,0,9.82-2.74,9.82-8.74Z"/>
    <path class="cls-3" d="M396.48,2363.84a11.84,11.84,0,0,0,10.88-6.67l3.9,2.25a16.77,16.77,0,0,1-14.78,8.4c-9.52,0-17.09-7.28-17.09-17.4S387,2333,396.48,2333a16.76,16.76,0,0,1,14.78,8.39l-3.9,2.25a11.92,11.92,0,0,0-10.88-6.6c-7.35,0-12.45,5.85-12.45,13.43S389.13,2363.84,396.48,2363.84Z"/>
    <path class="cls-3" d="M423.71,2346.67H428l12.75-12.82h6.15l-15.22,14.77,16.05,18.3h-6.08l-13.87-16.28H423.7v16.28h-4.58v-52.5h4.58Z"/>
    <path class="cls-3" d="M454.46,2351.77c.6,6.82,5.17,12,12.07,12a11.42,11.42,0,0,0,10.28-5.7h5.32a17,17,0,0,1-15.6,9.75c-9.52,0-16.8-7.28-16.8-17.4S457,2333,466.46,2333c8.62,0,16.65,6.07,16.65,18.67v.15Zm.15-3.75H478c-.53-6-5-11-11.55-11s-11,4.7-11.81,11Z"/>
    <path class="cls-3" d="M507.71,2337.89h-2.25c-5.85,0-10,2.7-10,10.5v18.53h-4.5v-33.07h4.35v5.62c1.87-4.42,6-6.22,10-6.22.75,0,1.58.07,2.48.15Z"/>
    <path class="cls-3" d="M544.16,2358.14c0-3.3-2.7-4.72-7.43-6.45l-1.87-.67c-5-1.8-8.4-4.35-8.4-9.15,0-5.47,4.87-8.92,11.32-8.92a16.87,16.87,0,0,1,10.73,3.82l-2.48,3.45a15,15,0,0,0-8.4-3.3c-3.67,0-6.45,1.88-6.45,4.72,0,2.1,1.5,3.75,4.88,5l3.82,1.42c6.38,2.48,9,5.25,9,10.13,0,4.27-3.67,9.6-12.15,9.6a19.73,19.73,0,0,1-11.62-4.13l2.4-3.45a15.78,15.78,0,0,0,9.37,3.53C541.38,2363.77,544.16,2361.22,544.16,2358.14Z"/>
    <path class="cls-3" d="M559.46,2351.77c.6,6.82,5.17,12,12.07,12a11.42,11.42,0,0,0,10.28-5.7h5.32a17,17,0,0,1-15.6,9.75c-9.52,0-16.8-7.28-16.8-17.4S562,2333,571.46,2333c8.62,0,16.65,6.07,16.65,18.67v.15Zm.15-3.75H583c-.53-6-5-11-11.55-11s-11,4.7-11.81,11Z"/>
    <path class="cls-3" d="M619.68,2345.17c0-5.33-3.45-8.18-8.17-8.18-4,0-7.88,2.18-11,5.85v24.08h-4.57v-33.07h4.5v4.72a15,15,0,0,1,11.85-5.62c7.72,0,12,4.72,12,12v22h-4.58Z"/>
    <path class="cls-3" d="M661.61,2340.29v-25.87h4.57v52.5h-4.57v-6.3c-2,4.12-7,7.2-12.6,7.2-9.53,0-16.8-7.28-16.8-17.4s7.2-17.47,16.65-17.47C654.56,2333,659.66,2336.17,661.61,2340.29Zm-12.3,23.55c7.35,0,12.52-5.85,12.52-13.42S656.66,2337,649.31,2337s-12.45,5.85-12.45,13.43S642,2363.84,649.31,2363.84Z"/>
    <path class="cls-3" d="M692.88,2358.14c0-3.3-2.7-4.72-7.42-6.45l-1.88-.67c-5-1.8-8.4-4.35-8.4-9.15,0-5.47,4.88-8.92,11.33-8.92a16.86,16.86,0,0,1,10.72,3.82l-2.47,3.45a15,15,0,0,0-8.4-3.3c-3.68,0-6.45,1.88-6.45,4.72,0,2.1,1.5,3.75,4.87,5l3.83,1.42c6.37,2.48,9,5.25,9,10.13,0,4.27-3.68,9.6-12.15,9.6a19.76,19.76,0,0,1-11.63-4.13l2.4-3.45a15.83,15.83,0,0,0,9.38,3.53C690.11,2363.77,692.88,2361.22,692.88,2358.14Z"/>
    <path class="cls-3" d="M736.83,2358.14c0-3.3-2.7-4.72-7.43-6.45l-1.87-.67c-5-1.8-8.4-4.35-8.4-9.15,0-5.47,4.87-8.92,11.32-8.92a16.87,16.87,0,0,1,10.73,3.82l-2.48,3.45a15,15,0,0,0-8.4-3.3c-3.67,0-6.45,1.88-6.45,4.72,0,2.1,1.5,3.75,4.88,5l3.82,1.42c6.38,2.48,9,5.25,9,10.13,0,4.27-3.67,9.6-12.15,9.6a19.73,19.73,0,0,1-11.62-4.13l2.4-3.45a15.78,15.78,0,0,0,9.37,3.53C734.05,2363.77,736.83,2361.22,736.83,2358.14Z"/>
    <path class="cls-3" d="M764.43,2363.84a11.82,11.82,0,0,0,10.87-6.67l3.9,2.25a16.72,16.72,0,0,1-14.77,8.4c-9.53,0-17.1-7.28-17.1-17.4s7.57-17.47,17.1-17.47a16.71,16.71,0,0,1,14.77,8.39l-3.9,2.25a11.89,11.89,0,0,0-10.87-6.6c-7.35,0-12.45,5.85-12.45,13.43S757.08,2363.84,764.43,2363.84Z"/>
    <path class="cls-3" d="M803.88,2337.89h-2.25c-5.85,0-10,2.7-10,10.5v18.53h-4.5v-33.07h4.35v5.62c1.87-4.42,6-6.22,10-6.22.75,0,1.58.07,2.48.15Z"/>
    <path class="cls-3" d="M816.55,2366.92H812v-29.25h-5.25v-3.82h9.82ZM814,2317.87a4,4,0,1,1-4,4A4,4,0,0,1,814,2317.87Z"/>
    <path class="cls-3" d="M831.78,2360.69V2380H827.2v-46.19h4.58v6.44c2-4.12,7.05-7.34,12.75-7.34,9.45,0,16.65,7.34,16.65,17.47s-7.28,17.4-16.8,17.4C838.75,2367.82,833.8,2364.74,831.78,2360.69Zm12.3-23.7c-7.35,0-12.53,5.85-12.53,13.43s5.18,13.42,12.53,13.42,12.45-5.85,12.45-13.42-5.1-13.42-12.45-13.42Z"/>
    <path class="cls-3" d="M876,2319.9v13.95h8.18v3.82H876v22.42c0,3.08,2.18,3.23,4.73,3.23a23.53,23.53,0,0,0,3.45-.23v3.83a48.45,48.45,0,0,1-5.1.3c-3.45,0-7.65-.9-7.65-7v-22.5h-5.7v-3.82h5.7v-14Z"/>
    <path class="cls-3" d="M887.28,2344.19H903V2348H887.28Z"/>
    <path class="cls-3" d="M915.63,2366.92h-4.58v-29.25H905.8v-3.82h9.83ZM913,2317.87a4,4,0,1,1-4,4A4,4,0,0,1,913,2317.87Z"/>
    <path class="cls-3" d="M950.05,2345.17c0-5.33-3.45-8.18-8.18-8.18-4,0-7.87,2.18-11,5.85v24.08H926.3v-33.07h4.5v4.72a15,15,0,0,1,11.84-5.62c7.73,0,12,4.72,12,12v22h-4.57Z"/>
    <path class="cls-3" d="M966.1,2337.67h-5.25v-3.82h9.83v39.59c0,5.4-3.68,6.6-7.5,6.6h-3.83v-3.82h3c2.25,0,3.75-.6,3.75-3.15Zm2-19.8a4,4,0,1,1-.05,0Z"/>
    <path class="cls-3" d="M983.73,2351.77c.6,6.82,5.17,12,12.07,12a11.39,11.39,0,0,0,10.27-5.7h5.33a17,17,0,0,1-15.6,9.75c-9.52,0-16.8-7.28-16.8-17.4s7.28-17.47,16.72-17.47c8.63,0,16.65,6.07,16.65,18.67v.15Zm.15-3.75h23.39c-.52-6-5-11-11.55-11s-11,4.7-11.84,11Z"/>
    <path class="cls-3" d="M1034.87,2363.84a11.84,11.84,0,0,0,10.88-6.67l3.9,2.25a16.77,16.77,0,0,1-14.78,8.4c-9.52,0-17.1-7.28-17.1-17.4s7.58-17.47,17.1-17.47a16.76,16.76,0,0,1,14.78,8.39l-3.9,2.25a11.92,11.92,0,0,0-10.88-6.6c-7.35,0-12.45,5.85-12.45,13.43S1027.52,2363.84,1034.87,2363.84Z"/>
    <path class="cls-3" d="M1064,2319.9v13.95h8.18v3.82H1064v22.42c0,3.08,2.18,3.23,4.73,3.23a23.53,23.53,0,0,0,3.45-.23v3.83a48.45,48.45,0,0,1-5.1.3c-3.45,0-7.65-.9-7.65-7v-22.5h-5.7v-3.82h5.7v-14Z"/>
    <path class="cls-3" d="M1081.22,2351.77c.6,6.82,5.18,12,12.08,12a11.39,11.39,0,0,0,10.27-5.7h5.33a17,17,0,0,1-15.6,9.75c-9.53,0-16.8-7.28-16.8-17.4s7.27-17.47,16.72-17.47c8.62,0,16.64,6.07,16.64,18.67v.15Zm.15-3.75h23.4c-.52-6-5-11-11.55-11s-11,4.7-11.85,11Z"/>
    <path class="cls-3" d="M1144.75,2340.29v-25.87h4.57v52.5h-4.57v-6.3c-2,4.12-7,7.2-12.6,7.2-9.53,0-16.8-7.28-16.8-17.4s7.2-17.47,16.65-17.47C1137.7,2333,1142.8,2336.17,1144.75,2340.29Zm-12.3,23.55c7.35,0,12.52-5.85,12.52-13.42s-5.17-13.43-12.52-13.43-12.45,5.85-12.45,13.43S1125.1,2363.84,1132.45,2363.84Z"/>
    <path class="cls-3" d="M260.41,2457.09h-4.58v-52.5h4.58Z"/>
    <path class="cls-3" d="M276.83,2457.09h-4.57v-29.25H267V2424h9.82ZM274.21,2408a4,4,0,1,1-4,4A4,4,0,0,1,274.21,2408Z"/>
    <path class="cls-3" d="M311.25,2435.34c0-5.33-3.45-8.18-8.17-8.18-4,0-7.87,2.18-11,5.85v24.08H287.5V2424H292v4.73a15,15,0,0,1,11.85-5.63c7.72,0,12,4.73,12,12v22h-4.58Z"/>
    <path class="cls-3" d="M330.68,2436.84H335L347.7,2424h6.15l-15.22,14.78,16,18.3h-6.08l-13.87-16.28h-4.05v16.28h-4.57v-52.5h4.57Z"/>
    <path class="cls-3" d="M389.39,2409.9v13.95h8.17v3.82h-8.17v22.42c0,3.08,2.17,3.23,4.72,3.23a23.53,23.53,0,0,0,3.45-.23v3.83a48.45,48.45,0,0,1-5.1.3c-3.45,0-7.65-.9-7.65-7v-22.5h-5.7v-3.82h5.7v-14Z"/>
    <path class="cls-3" d="M419,2423a17.44,17.44,0,1,1-17.1,17.78v-.31C401.84,2430.29,409.49,2423,419,2423Zm0,4c-7.35,0-12.45,5.85-12.45,13.43s5.1,13.42,12.45,13.42,12.52-5.85,12.52-13.42S426.36,2427,419,2427Z"/>
    <path class="cls-3" d="M480.44,2423.85h4.94l-12.52,33.07h-6.15l-12.3-33.07h5.18l10.27,29.32Z"/>
    <path class="cls-3" d="M498.51,2456.92H494v-29.25h-5.25v-3.82h9.82Zm-2.62-49.05a4,4,0,1,1-4,4A4,4,0,0,1,495.89,2407.87Z"/>
    <path class="cls-3" d="M523.86,2453.84a11.82,11.82,0,0,0,10.87-6.67l3.9,2.25a16.72,16.72,0,0,1-14.77,8.4c-9.53,0-17.1-7.28-17.1-17.4s7.57-17.47,17.1-17.47a16.71,16.71,0,0,1,14.77,8.39l-3.9,2.25a11.89,11.89,0,0,0-10.87-6.6c-7.35,0-12.45,5.85-12.45,13.43S516.51,2453.84,523.86,2453.84Z"/>
    <path class="cls-3" d="M553,2409.9v13.95h8.17v3.82H553v22.42c0,3.08,2.17,3.23,4.72,3.23a23.53,23.53,0,0,0,3.45-.23v3.83a48.45,48.45,0,0,1-5.1.3c-3.45,0-7.65-.9-7.65-7v-22.5h-5.7v-3.82h5.7v-14Z"/>
    <path class="cls-3" d="M573.88,2456.92h-4.57v-29.25h-5.25v-3.82h9.82Zm-2.62-49.05a4,4,0,1,1-4,4A4,4,0,0,1,571.26,2407.87Z"/>
    <path class="cls-3" d="M612.13,2436.22v20.7h-4.57v-22c0-5.1-3.15-8-7.88-8-3.9,0-7.42,2.18-10.57,5.85v24.08h-4.58v-33.07H589v4.72c2.85-3.45,6.45-5.62,11.25-5.62,5.55,0,9.23,2.47,10.8,6.37,3.59-4.35,7.5-6.37,12.3-6.37,7.79,0,11.78,4.72,11.78,12v22h-4.58v-22c0-5.1-3.16-8-7.8-8-4,0-7.57,2.25-10.8,6C612.06,2434,612.13,2435.17,612.13,2436.22Z"/>
    <path class="cls-3" d="M671.38,2404.42H676v1.13c-7.65,8.4-12.83,18.75-12.83,30.37s5.18,23,12.83,31.35v1.12h-4.58c-7.72-9.45-13-19.95-13-32.47S663.66,2414,671.38,2404.42Z"/>
    <path class="cls-3" d="M682.78,2441.77c.6,6.82,5.18,12,12.08,12a11.39,11.39,0,0,0,10.27-5.7h5.33a17,17,0,0,1-15.6,9.75c-9.53,0-16.8-7.28-16.8-17.4s7.27-17.47,16.72-17.47c8.63,0,16.65,6.07,16.65,18.67v.15ZM683,2438h23.4c-.52-6-5-11-11.55-11S683.76,2431.72,683,2438Z"/>
    <path class="cls-3" d="M723.06,2448.74a4.54,4.54,0,1,1-4.5,4.58A4.53,4.53,0,0,1,723.06,2448.74Z"/>
    <path class="cls-3" d="M769.26,2460.37c0,5.4-2.48,9.67-9.75,9.67H747v-3.82h12c3.15,0,5.7-1,5.7-4.8v-10.8c-2,4.12-7,7.2-12.6,7.2-9.52,0-16.8-7.28-16.8-17.4S742.48,2423,752,2423c5.7,0,10.8,3.22,12.75,7.34v-6.44h4.58Zm-4.43-19.95c0-7.58-5.1-13.43-12.45-13.43s-12.52,5.85-12.52,13.43,5.17,13.42,12.52,13.42S764.83,2448,764.83,2440.42Z"/>
    <path class="cls-3" d="M783.73,2448.74a4.54,4.54,0,1,1-4.5,4.58A4.53,4.53,0,0,1,783.73,2448.74Z"/>
    <path class="cls-3" d="M815.68,2441.77c.6,6.82,5.18,12,12.08,12a11.39,11.39,0,0,0,10.27-5.7h5.33a17,17,0,0,1-15.6,9.75c-9.53,0-16.8-7.28-16.8-17.4s7.27-17.47,16.72-17.47c8.63,0,16.65,6.07,16.65,18.67v.15Zm.15-3.75h23.4c-.52-6-5-11-11.55-11s-11,4.7-11.85,11Z"/>
    <path class="cls-3" d="M879.73,2436.22v20.7h-4.58v-22c0-5.1-3.15-8-7.87-8-3.9,0-7.42,2.18-10.57,5.85v24.08h-4.58v-33.07h4.5v4.72c2.85-3.45,6.45-5.62,11.25-5.62,5.55,0,9.22,2.47,10.8,6.37,3.6-4.35,7.5-6.37,12.3-6.37,7.8,0,11.77,4.72,11.77,12v22h-4.57v-22c0-5.1-3.15-8-7.8-8-4,0-7.58,2.25-10.8,6C879.65,2434,879.73,2435.17,879.73,2436.22Z"/>
    <path class="cls-3" d="M932.6,2434c0-5-3.9-7.05-8.32-7.05-4.13,0-7.42,1.73-10.2,3.6l-2.17-3.44a21.61,21.61,0,0,1,12.67-4.2c7.87,0,12.6,4.42,12.6,11.24v22.73H932.6v-4.13c-1.87,3.3-6.37,5-10.35,5-7.19,0-12-4.2-12-10.13s4.35-9.67,11.17-9.67h8c2.32,0,3.22-1.2,3.22-3Zm0,11.1v-4.57c-.82,1-2.55,1.27-4.27,1.27h-6.15c-4.87,0-7.12,2.4-7.12,5.85,0,2.85,2.17,6.23,7.72,6.23,5,0,9.82-2.74,9.82-8.74Z"/>
    <path class="cls-3" d="M953.23,2456.92h-4.57v-29.25h-5.25v-3.82h9.82Zm-2.62-49.05a4,4,0,1,1-4,4A4,4,0,0,1,950.61,2407.87Z"/>
    <path class="cls-3" d="M968.45,2456.92h-4.57v-52.5h4.57Z"/>
    <path class="cls-3" d="M1010.15,2448.14c0-3.3-2.7-4.72-7.42-6.45l-1.88-.67c-5-1.8-8.4-4.35-8.4-9.15,0-5.47,4.88-8.92,11.33-8.92a16.86,16.86,0,0,1,10.72,3.82l-2.47,3.45a15,15,0,0,0-8.4-3.3c-3.68,0-6.45,1.88-6.45,4.72,0,2.1,1.5,3.75,4.87,5l3.83,1.42c6.37,2.48,9,5.25,9,10.13,0,4.27-3.68,9.6-12.15,9.6a19.76,19.76,0,0,1-11.63-4.13l2.4-3.45a15.83,15.83,0,0,0,9.38,3.53C1007.38,2453.77,1010.15,2451.22,1010.15,2448.14Z"/>
    <path class="cls-3" d="M1037.75,2453.84a11.84,11.84,0,0,0,10.88-6.67l3.9,2.25a16.77,16.77,0,0,1-14.78,8.4c-9.52,0-17.1-7.28-17.1-17.4s7.58-17.47,17.1-17.47a16.76,16.76,0,0,1,14.78,8.39l-3.9,2.25a11.92,11.92,0,0,0-10.88-6.6c-7.35,0-12.45,5.85-12.45,13.43S1030.4,2453.84,1037.75,2453.84Z"/>
    <path class="cls-3" d="M1080,2434c0-5-3.9-7.05-8.33-7.05-4.12,0-7.42,1.73-10.2,3.6l-2.17-3.44A21.58,21.58,0,0,1,1072,2423c7.88,0,12.6,4.42,12.6,11.24V2457H1080v-4.13c-1.88,3.3-6.38,5-10.35,5-7.2,0-12-4.2-12-10.13s4.35-9.71,11.18-9.71h8c2.33,0,3.23-1.2,3.23-3Zm0,11.1v-4.57c-.83,1-2.55,1.27-4.28,1.27h-6.15c-4.87,0-7.12,2.4-7.12,5.85,0,2.85,2.17,6.23,7.72,6.23,5,0,9.83-2.74,9.83-8.74Z"/>
    <path class="cls-3" d="M1122.43,2436.22v20.7h-4.58v-22c0-5.1-3.15-8-7.87-8-3.9,0-7.43,2.18-10.58,5.85v24.08h-4.57v-33.07h4.5v4.72c2.85-3.45,6.45-5.62,11.25-5.62,5.55,0,9.22,2.47,10.8,6.37,3.6-4.35,7.5-6.37,12.29-6.37,7.8,0,11.78,4.72,11.78,12v22h-4.58v-22c0-5.1-3.15-8-7.8-8-4,0-7.57,2.25-10.79,6C1122.35,2434,1122.43,2435.17,1122.43,2436.22Z"/>
    <path class="cls-3" d="M1155.05,2468.39h-4.57v-1.12c7.65-8.33,12.9-19.73,12.9-31.35s-5.25-22-12.9-30.37v-1.13h4.57c7.73,9.53,13,18.9,13,31.5S1162.78,2458.94,1155.05,2468.39Z"/>
    <path class="cls-3" d="M1377.52,2314.42h5.18l15.9,47.77h.15l16-47.77h4.72l-18.07,52.5h-5.78Z"/>
    <path class="cls-3" d="M1432,2366.92h-4.57v-29.25h-5.25v-3.82H1432Zm-2.62-49.05a4,4,0,1,1-4,4A4,4,0,0,1,1429.35,2317.87Z"/>
    <path class="cls-3" d="M1457.32,2363.84a11.84,11.84,0,0,0,10.88-6.67l3.9,2.25a16.77,16.77,0,0,1-14.78,8.4c-9.52,0-17.1-7.28-17.1-17.4s7.58-17.47,17.1-17.47a16.76,16.76,0,0,1,14.78,8.39l-3.9,2.25a11.92,11.92,0,0,0-10.88-6.6c-7.35,0-12.45,5.85-12.45,13.43S1450,2363.84,1457.32,2363.84Z"/>
    <path class="cls-3" d="M1486.42,2319.9v13.95h8.18v3.82h-8.18v22.42c0,3.08,2.18,3.23,4.73,3.23a23.3,23.3,0,0,0,3.44-.23v3.83a48.14,48.14,0,0,1-5.1.3c-3.44,0-7.65-.9-7.65-7v-22.5h-5.69v-3.82h5.69v-14Z"/>
    <path class="cls-3" d="M1507.35,2366.92h-4.58v-29.25h-5.25v-3.82h9.83Zm-2.63-49.05a4,4,0,1,1-4,4A4,4,0,0,1,1504.72,2317.87Z"/>
    <path class="cls-3" d="M1545.59,2346.22v20.7H1541v-22c0-5.1-3.15-8-7.88-8-3.9,0-7.42,2.18-10.57,5.85v24.08H1518v-33.07h4.5v4.72c2.85-3.45,6.45-5.62,11.25-5.62,5.55,0,9.23,2.47,10.8,6.37,3.6-4.35,7.5-6.37,12.3-6.37,7.8,0,11.78,4.72,11.78,12v22H1564v-22c0-5.1-3.15-8-7.8-8-4,0-7.57,2.25-10.8,6C1545.52,2344,1545.59,2345.17,1545.59,2346.22Z"/>
    <path class="cls-3" d="M1608.59,2363.84a11.84,11.84,0,0,0,10.88-6.67l3.9,2.25a16.77,16.77,0,0,1-14.78,8.4c-9.52,0-17.1-7.28-17.1-17.4s7.58-17.47,17.1-17.47a16.76,16.76,0,0,1,14.78,8.39l-3.9,2.25a11.92,11.92,0,0,0-10.88-6.6c-7.35,0-12.45,5.85-12.45,13.43S1601.24,2363.84,1608.59,2363.84Z"/>
    <path class="cls-3" d="M1635.82,2366.92h-4.58v-52.5h4.58Z"/>
    <path class="cls-3" d="M1652.24,2366.92h-4.57v-29.25h-5.25v-3.82h9.82Zm-2.62-49.05a4,4,0,1,1-4,4A4,4,0,0,1,1649.62,2317.87Z"/>
    <path class="cls-3" d="M1677.59,2363.84a11.84,11.84,0,0,0,10.88-6.67l3.9,2.25a16.77,16.77,0,0,1-14.78,8.4c-9.52,0-17.1-7.28-17.1-17.4s7.58-17.47,17.1-17.47a16.76,16.76,0,0,1,14.78,8.39l-3.9,2.25a11.92,11.92,0,0,0-10.88-6.6c-7.35,0-12.45,5.85-12.45,13.43S1670.24,2363.84,1677.59,2363.84Z"/>
    <path class="cls-3" d="M1704.82,2346.67h4.27l12.75-12.82H1728l-15.22,14.77,16,18.3h-6.08l-13.87-16.28h-4v16.28h-4.58v-52.5h4.58Z"/>
    <path class="cls-3" d="M1751.09,2358.14c0-3.3-2.7-4.72-7.43-6.45l-1.87-.67c-5-1.8-8.4-4.35-8.4-9.15,0-5.47,4.88-8.92,11.31-8.92a16.83,16.83,0,0,1,10.73,3.82l-2.48,3.45a14.93,14.93,0,0,0-8.4-3.3c-3.67,0-6.44,1.88-6.44,4.72,0,2.1,1.5,3.75,4.87,5l3.82,1.42c6.38,2.48,9,5.25,9,10.13,0,4.27-3.67,9.6-12.15,9.6a19.78,19.78,0,0,1-11.62-4.13l2.4-3.45a15.88,15.88,0,0,0,9.38,3.53C1748.31,2363.77,1751.09,2361.22,1751.09,2358.14Z"/>
    <path class="cls-3" d="M1793.69,2333a17.44,17.44,0,1,1-17.1,17.78v-.31C1776.59,2340.29,1784.24,2333,1793.69,2333Zm0,4c-7.35,0-12.45,5.85-12.45,13.43s5.1,13.42,12.45,13.42,12.52-5.85,12.52-13.42S1801.11,2337,1793.69,2337Z"/>
    <path class="cls-3" d="M1842.89,2345.17c0-5.33-3.45-8.18-8.18-8.18-4,0-7.87,2.18-11,5.85v24.08h-4.58v-33.07h4.5v4.72a15,15,0,0,1,11.85-5.62c7.73,0,12,4.72,12,12v22h-4.57Z"/>
    <path class="cls-3" d="M1877.31,2366.92h-4.57v-52.5h4.57Z"/>
    <path class="cls-3" d="M1893.74,2366.92h-4.58v-29.25h-5.25v-3.82h9.83Zm-2.63-49.05a4,4,0,1,1-4,4A4,4,0,0,1,1891.11,2317.87Z"/>
    <path class="cls-3" d="M1928.16,2345.17c0-5.33-3.45-8.18-8.18-8.18-4,0-7.88,2.18-11,5.85v24.08h-4.56v-33.07h4.5v4.72a15,15,0,0,1,11.85-5.62c7.71,0,12,4.72,12,12v22h-4.58Z"/>
    <path class="cls-3" d="M1947.59,2346.67h4.27l12.75-12.82h6.15l-15.22,14.77,16,18.3h-6.08l-13.87-16.28h-4v16.28H1943v-52.5h4.58Z"/>
    <path class="cls-3" d="M2012.38,2344c0-5-3.9-7.05-8.32-7.05-4.12,0-7.42,1.73-10.2,3.6l-2.17-3.44a21.61,21.61,0,0,1,12.67-4.2c7.87,0,12.6,4.42,12.6,11.24v22.73h-4.58v-4.13c-1.87,3.3-6.37,5-10.34,5-7.2,0-12-4.2-12-10.13s4.35-9.67,11.17-9.67h8c2.32,0,3.22-1.2,3.22-3Zm0,11.1v-4.57c-.82,1-2.55,1.27-4.27,1.27H2002c-4.87,0-7.12,2.4-7.12,5.85,0,2.85,2.17,6.23,7.72,6.23,5,0,9.81-2.74,9.81-8.74Z"/>
    <path class="cls-3" d="M2051,2345.17c0-5.33-3.45-8.18-8.18-8.18-4,0-7.87,2.18-11,5.85v24.08h-4.57v-33.07h4.5v4.72a15,15,0,0,1,11.84-5.62c7.73,0,12,4.72,12,12v22H2051Z"/>
    <path class="cls-3" d="M2093,2340.29v-25.87h4.58v52.5H2093v-6.3c-2,4.12-7,7.2-12.6,7.2-9.52,0-16.79-7.28-16.79-17.4s7.2-17.47,16.64-17.47C2085.88,2333,2091,2336.17,2093,2340.29Zm-12.3,23.55c7.35,0,12.53-5.85,12.53-13.42S2088,2337,2080.63,2337s-12.44,5.85-12.44,13.43,5.1,13.41,12.44,13.41Z"/>
    <path class="cls-3" d="M2140,2337.89h-2.25c-5.86,0-10,2.7-10,10.5v18.53h-4.5v-33.07h4.35v5.62c1.87-4.42,6-6.22,10-6.22.75,0,1.58.07,2.48.15Z"/>
    <path class="cls-3" d="M2148.35,2351.77c.61,6.82,5.17,12,12.08,12a11.42,11.42,0,0,0,10.28-5.7H2176a17,17,0,0,1-15.6,9.75c-9.52,0-16.79-7.28-16.79-17.4s7.27-17.47,16.71-17.47c8.63,0,16.65,6.07,16.65,18.67v.15Zm.15-3.75h23.4c-.53-6-5-11-11.55-11s-11,4.7-11.85,11Z"/>
    <path class="cls-3" d="M2182.48,2350.42c0-10.13,7.2-17.47,16.64-17.47,5.7,0,10.81,3.22,12.76,7.34v-6.44h4.58V2380h-4.58v-19.35c-2,4-7,7.13-12.61,7.13C2189.76,2367.82,2182.48,2360.54,2182.48,2350.42Zm17.1,13.42c7.35,0,12.53-5.85,12.53-13.42S2207,2337,2199.58,2337s-12.45,5.85-12.45,13.43S2192.23,2363.84,2199.58,2363.84Z"/>
    <path class="cls-3" d="M2226.66,2355.14v-21.29h4.57v20.84c0,6,4.12,9.08,9.6,9.08s9.6-3.08,9.6-9.08v-20.84H2255v21.29c0,7-4.95,12.68-14.18,12.68S2226.66,2362.12,2226.66,2355.14Z"/>
    <path class="cls-3" d="M2267.6,2351.77c.61,6.82,5.17,12,12.08,12a11.42,11.42,0,0,0,10.28-5.7h5.32a17,17,0,0,1-15.6,9.75c-9.52,0-16.8-7.28-16.8-17.4s7.28-17.47,16.72-17.47c8.63,0,16.65,6.07,16.65,18.67v.15Zm.15-3.75h23.4c-.53-6-5-11-11.55-11s-11,4.7-11.85,11Z"/>
    <path class="cls-3" d="M2320.1,2358.14c0-3.3-2.69-4.72-7.42-6.45l-1.88-.67c-5-1.8-8.39-4.35-8.39-9.15,0-5.47,4.87-8.92,11.32-8.92a16.87,16.87,0,0,1,10.73,3.82l-2.48,3.45a15,15,0,0,0-8.4-3.3c-3.67,0-6.45,1.88-6.45,4.72,0,2.1,1.5,3.75,4.88,5l3.82,1.42c6.38,2.48,9,5.25,9,10.13,0,4.27-3.67,9.6-12.15,9.6a19.73,19.73,0,0,1-11.62-4.13l2.4-3.45a15.78,15.78,0,0,0,9.37,3.53C2317.33,2363.77,2320.1,2361.22,2320.1,2358.14Z"/>
    <path class="cls-3" d="M2339.46,2319.9v13.95h8.16v3.82h-8.16v22.42c0,3.08,2.16,3.23,4.72,3.23a23.3,23.3,0,0,0,3.44-.23v3.83a48.14,48.14,0,0,1-5.1.3c-3.45,0-7.64-.9-7.64-7v-22.5h-5.7v-3.82h5.7v-14Z"/>
    <path class="cls-3" d="M2370.66,2358.14c0-3.3-2.7-4.72-7.43-6.45l-1.88-.67c-5-1.8-8.39-4.35-8.39-9.15,0-5.47,4.87-8.92,11.32-8.92a16.87,16.87,0,0,1,10.73,3.82l-2.48,3.45a15,15,0,0,0-8.4-3.3c-3.67,0-6.45,1.88-6.45,4.72,0,2.1,1.5,3.75,4.88,5l3.82,1.42c6.38,2.48,9,5.25,9,10.13,0,4.27-3.67,9.6-12.15,9.6a19.73,19.73,0,0,1-11.62-4.13l2.4-3.45a15.78,15.78,0,0,0,9.37,3.53C2367.88,2363.77,2370.66,2361.22,2370.66,2358.14Z"/>
    <path class="cls-3" d="M1385.55,2456.92H1381v-52.5h4.58Z"/>
    <path class="cls-3" d="M1398.6,2441.77c.6,6.82,5.17,12,12.07,12a11.42,11.42,0,0,0,10.28-5.7h5.32a17,17,0,0,1-15.6,9.75c-9.52,0-16.81-7.28-16.81-17.4s7.29-17.47,16.73-17.47c8.62,0,16.65,6.07,16.65,18.67v.15Zm.15-3.75h23.4c-.53-6-5-11-11.55-11s-11,4.7-11.85,11Z"/>
    <path class="cls-3" d="M1466.69,2460.37c0,5.4-2.47,9.67-9.74,9.67h-12.53v-3.82h12c3.15,0,5.69-1,5.69-4.8v-10.8c-2,4.12-7,7.2-12.59,7.2-9.53,0-16.81-7.28-16.81-17.4S1440,2423,1449.37,2423c5.7,0,10.8,3.22,12.75,7.34v-6.44h4.57Zm-4.42-19.95c0-7.58-5.1-13.43-12.45-13.43s-12.52,5.85-12.52,13.43,5.17,13.42,12.52,13.42S1462.27,2448,1462.27,2440.42Z"/>
    <path class="cls-3" d="M1483.12,2456.92h-4.57v-29.25h-5.25v-3.82h9.82Zm-2.62-49.05a4,4,0,1,1-4,4A4,4,0,0,1,1480.5,2407.87Z"/>
    <path class="cls-3" d="M1500.22,2409.9v13.95h8.17v3.82h-8.17v22.42c0,3.08,2.17,3.23,4.72,3.23a23.53,23.53,0,0,0,3.45-.23v3.83a48.45,48.45,0,0,1-5.1.3c-3.44,0-7.64-.9-7.64-7v-22.5H1490v-3.82h5.7v-14Z"/>
    <path class="cls-3" d="M1521.14,2456.92h-4.57v-29.25h-5.25v-3.82h9.82Zm-2.62-49.05a4,4,0,1,1-4,4A4,4,0,0,1,1518.52,2407.87Z"/>
    <path class="cls-3" d="M1559.39,2436.22v20.7h-4.57v-22c0-5.1-3.15-8-7.88-8-3.9,0-7.42,2.18-10.57,5.85v24.08h-4.58v-33.07h4.5v4.72c2.85-3.45,6.45-5.62,11.25-5.62,5.55,0,9.23,2.47,10.8,6.37,3.6-4.35,7.5-6.37,12.3-6.37,7.8,0,11.78,4.72,11.78,12v22h-4.58v-22c0-5.1-3.15-8-7.8-8-4,0-7.57,2.25-10.8,6C1559.32,2434,1559.39,2435.17,1559.39,2436.22Z"/>
    <path class="cls-3" d="M1612.27,2434c0-5-3.9-7.05-8.33-7.05-4.12,0-7.42,1.73-10.2,3.6l-2.17-3.44a21.61,21.61,0,0,1,12.67-4.2c7.88,0,12.6,4.42,12.6,11.24v22.73h-4.57v-4.13c-1.88,3.3-6.38,5-10.35,5-7.2,0-12-4.2-12-10.13s4.35-9.67,11.17-9.67h8c2.33,0,3.23-1.2,3.23-3Zm0,11.1v-4.57c-.83,1-2.55,1.27-4.28,1.27h-6.15c-4.87,0-7.12,2.4-7.12,5.85,0,2.85,2.17,6.23,7.72,6.23,5,0,9.83-2.74,9.83-8.74Z"/>
    <path class="cls-3" d="M1633.57,2409.9v13.95h8.17v3.82h-8.17v22.42c0,3.08,2.17,3.23,4.72,3.23a23.3,23.3,0,0,0,3.44-.23v3.83a48.1,48.1,0,0,1-5.09.3c-3.45,0-7.66-.9-7.66-7v-22.5h-5.69v-3.82H1629v-14Z"/>
    <path class="cls-3" d="M1650.82,2441.77c.6,6.82,5.17,12,12.07,12a11.42,11.42,0,0,0,10.28-5.7h5.31a16.92,16.92,0,0,1-15.59,9.75c-9.53,0-16.81-7.28-16.81-17.4s7.28-17.47,16.73-17.47c8.62,0,16.65,6.07,16.65,18.67v.15Zm.15-3.75h23.4c-.53-6-5-11-11.55-11s-11,4.7-11.85,11Z"/>
    <path class="cls-3" d="M1741.34,2423.85h5l-9.6,33.07h-6.22l-8.4-28.43-8.48,28.43h-6.22l-9.3-33.07h5.1l7.35,29.32,8.92-29.32h5.4l8.85,29.32Z"/>
    <path class="cls-3" d="M1755.74,2441.77c.6,6.82,5.18,12,12.08,12a11.39,11.39,0,0,0,10.27-5.7h5.33a17,17,0,0,1-15.6,9.75c-9.53,0-16.8-7.28-16.8-17.4s7.27-17.47,16.71-17.47c8.63,0,16.66,6.07,16.66,18.67v.15Zm.15-3.75h23.4c-.52-6-5-11-11.55-11s-11,4.7-11.85,11Z"/>
    <path class="cls-3" d="M1796.77,2450.69v6.23h-4.58v-52.5h4.58v25.87c2-4.12,7-7.34,12.75-7.34,9.45,0,16.65,7.34,16.65,17.47s-7.28,17.4-16.8,17.4C1803.74,2457.82,1798.79,2454.74,1796.77,2450.69Zm12.3-23.7c-7.35,0-12.53,5.85-12.53,13.43s5.18,13.42,12.53,13.42,12.45-5.85,12.45-13.42-5.1-13.42-12.45-13.42Z"/>
    <path class="cls-3" d="M1850.54,2448.14c0-3.3-2.7-4.72-7.43-6.45l-1.88-.67c-5-1.8-8.4-4.35-8.4-9.15,0-5.47,4.88-8.92,11.33-8.92a16.82,16.82,0,0,1,10.72,3.82l-2.47,3.45a14.93,14.93,0,0,0-8.4-3.3c-3.68,0-6.45,1.88-6.45,4.72,0,2.1,1.5,3.75,4.87,5l3.83,1.42c6.37,2.48,9,5.25,9,10.13,0,4.27-3.68,9.6-12.15,9.6a19.81,19.81,0,0,1-11.63-4.13l2.4-3.45a15.88,15.88,0,0,0,9.38,3.53C1847.77,2453.77,1850.54,2451.22,1850.54,2448.14Z"/>
    <path class="cls-3" d="M1869.22,2456.92h-4.58v-29.25h-5.25v-3.82h9.83Zm-2.63-49.05a4,4,0,1,1-4,4A4,4,0,0,1,1866.59,2407.87Z"/>
    <path class="cls-3" d="M1886.32,2409.9v13.95h8.17v3.82h-8.17v22.42c0,3.08,2.17,3.23,4.72,3.23a23.3,23.3,0,0,0,3.44-.23v3.83a48.1,48.1,0,0,1-5.09.3c-3.45,0-7.66-.9-7.66-7v-22.5H1876v-3.82h5.69v-14Z"/>
    <path class="cls-3" d="M1903.57,2441.77c.59,6.82,5.17,12,12.07,12a11.39,11.39,0,0,0,10.27-5.7h5.32a17,17,0,0,1-15.59,9.75c-9.54,0-16.81-7.28-16.81-17.4s7.27-17.47,16.72-17.47c8.63,0,16.65,6.07,16.65,18.67v.15Zm.14-3.75h23.4c-.52-6-5-11-11.55-11s-11,4.7-11.85,11Z"/>
    <path class="cls-3" d="M3114.33,2314.42h5.17l15.9,47.77h.14l16.05-47.77h4.73l-18.08,52.5h-5.77Z"/>
    <path class="cls-3" d="M3168.78,2366.92h-4.58v-29.25H3159v-3.82h9.83Zm-2.63-49.05a4,4,0,1,1-4,4A4,4,0,0,1,3166.15,2317.87Z"/>
    <path class="cls-3" d="M3194.12,2363.84a11.82,11.82,0,0,0,10.88-6.67l3.9,2.25a16.73,16.73,0,0,1-14.78,8.4c-9.53,0-17.1-7.28-17.1-17.4s7.57-17.47,17.1-17.47a16.73,16.73,0,0,1,14.78,8.39l-3.9,2.25a11.89,11.89,0,0,0-10.88-6.6c-7.35,0-12.44,5.85-12.44,13.43S3186.78,2363.84,3194.12,2363.84Z"/>
    <path class="cls-3" d="M3223.23,2319.9v13.95h8.17v3.82h-8.17v22.42c0,3.08,2.17,3.23,4.72,3.23a23.53,23.53,0,0,0,3.45-.23v3.83a48.48,48.48,0,0,1-5.11.3c-3.45,0-7.64-.9-7.64-7v-22.5H3213v-3.82h5.7v-14Z"/>
    <path class="cls-3" d="M3244.15,2366.92h-4.58v-29.25h-5.25v-3.82h9.83Zm-2.63-49.05a4,4,0,1,1-4,4A4,4,0,0,1,3241.52,2317.87Z"/>
    <path class="cls-3" d="M3282.4,2346.22v20.7h-4.59v-22c0-5.1-3.14-8-7.87-8-3.9,0-7.43,2.18-10.58,5.85v24.08h-4.57v-33.07h4.5v4.72c2.85-3.45,6.45-5.62,11.25-5.62,5.55,0,9.22,2.47,10.8,6.37,3.6-4.35,7.5-6.37,12.3-6.37,7.8,0,11.77,4.72,11.77,12v22h-4.57v-22c0-5.1-3.15-8-7.8-8-4,0-7.58,2.25-10.8,6C3282.32,2344,3282.4,2345.17,3282.4,2346.22Z"/>
    <path class="cls-3" d="M3319.45,2313.52a4.62,4.62,0,0,1,4.58,4.64h0a7.63,7.63,0,0,1-.75,2.85l-5,9.08h-4l3.45-7.65a4.46,4.46,0,0,1-2.85-4.28,4.6,4.6,0,0,1,4.56-4.65Z"/>
    <path class="cls-3" d="M3348,2358.14c0-3.3-2.7-4.72-7.43-6.45l-1.87-.67c-5-1.8-8.4-4.35-8.4-9.15,0-5.47,4.87-8.92,11.32-8.92a16.87,16.87,0,0,1,10.73,3.82l-2.48,3.45a15,15,0,0,0-8.4-3.3c-3.67,0-6.45,1.88-6.45,4.72,0,2.1,1.5,3.75,4.88,5l3.82,1.42c6.38,2.48,9,5.25,9,10.13,0,4.27-3.67,9.6-12.15,9.6a19.73,19.73,0,0,1-11.62-4.13l2.4-3.45a15.78,15.78,0,0,0,9.37,3.53C3345.17,2363.77,3348,2361.22,3348,2358.14Z"/>
    <path class="cls-3" d="M3380.42,2360.69v6.23h-4.58v-52.5h4.58v25.87c2-4.12,7-7.34,12.75-7.34,9.44,0,16.64,7.34,16.64,17.47s-7.27,17.4-16.8,17.4C3387.4,2367.82,3382.45,2364.74,3380.42,2360.69Zm12.3-23.7c-7.36,0-12.52,5.85-12.52,13.43s5.16,13.42,12.52,13.42,12.45-5.85,12.45-13.42-5.11-13.42-12.45-13.42Z"/>
    <path class="cls-3" d="M3435,2337.89h-2.25c-5.86,0-10,2.7-10,10.5v18.53h-4.5v-33.07h4.35v5.62c1.87-4.42,6-6.22,10-6.22.75,0,1.58.07,2.48.15Z"/>
    <path class="cls-3" d="M3455.65,2333a17.44,17.44,0,1,1-17.11,17.78v-.31C3438.55,2340.29,3446.2,2333,3455.65,2333Zm0,4c-7.36,0-12.45,5.85-12.45,13.43s5.1,13.42,12.45,13.42,12.52-5.85,12.52-13.42S3463.07,2337,3455.65,2337Z"/>
    <path class="cls-3" d="M3520.9,2333.85h5l-9.61,33.07h-6.23l-8.39-28.43-8.47,28.43H3487l-9.3-33.07h5.1l7.35,29.32,8.93-29.32h5.4l8.85,29.32Z"/>
    <path class="cls-3" d="M3549.17,2358.14c0-3.3-2.7-4.72-7.42-6.45l-1.88-.67c-5-1.8-8.4-4.35-8.4-9.15,0-5.47,4.88-8.92,11.33-8.92a16.86,16.86,0,0,1,10.72,3.82l-2.47,3.45a15,15,0,0,0-8.4-3.3c-3.68,0-6.45,1.88-6.45,4.72,0,2.1,1.5,3.75,4.87,5l3.83,1.42c6.37,2.48,9,5.25,9,10.13,0,4.27-3.68,9.6-12.15,9.6a19.76,19.76,0,0,1-11.63-4.13l2.4-3.45a15.83,15.83,0,0,0,9.38,3.53C3546.4,2363.77,3549.17,2361.22,3549.17,2358.14Z"/>
    <path class="cls-3" d="M3564.47,2351.77c.6,6.82,5.18,12,12.08,12a11.39,11.39,0,0,0,10.27-5.7h5.33a17,17,0,0,1-15.6,9.75c-9.53,0-16.8-7.28-16.8-17.4S3567,2333,3576.47,2333c8.62,0,16.64,6.07,16.64,18.67v.15Zm.14-3.75H3588c-.52-6-5-11-11.55-11s-11,4.7-11.85,11Z"/>
    <path class="cls-3" d="M3617.72,2337.89h-2.25c-5.86,0-10,2.7-10,10.5v18.53H3601v-33.07h4.35v5.62c1.88-4.42,6-6.22,10-6.22.75,0,1.57.07,2.47.15Z"/>
    <path class="cls-3" d="M3642.7,2366.92h-4.59v-52.5h4.59Z"/>
    <path class="cls-3" d="M3668.05,2333a17.44,17.44,0,1,1-17.1,17.78v-.31C3651,2340.29,3658.59,2333,3668.05,2333Zm0,4c-7.35,0-12.45,5.85-12.45,13.43s5.1,13.42,12.45,13.42,12.52-5.85,12.52-13.42S3675.47,2337,3668.05,2337Z"/>
    <path class="cls-3" d="M3713,2344c0-5-3.9-7.05-8.32-7.05-4.13,0-7.42,1.73-10.2,3.6l-2.17-3.44a21.61,21.61,0,0,1,12.67-4.2c7.87,0,12.6,4.42,12.6,11.24v22.73H3713v-4.13c-1.87,3.3-6.37,5-10.34,5-7.2,0-12-4.2-12-10.13s4.35-9.67,11.16-9.67h7.95c2.33,0,3.22-1.2,3.22-3Zm0,11.1v-4.57c-.82,1-2.55,1.27-4.27,1.27h-6.15c-4.87,0-7.12,2.4-7.12,5.85,0,2.85,2.17,6.23,7.72,6.23,5,0,9.82-2.74,9.82-8.74Z"/>
    <path class="cls-3" d="M3755,2340.29v-25.87h4.57v52.5H3755v-6.3c-2,4.12-7,7.2-12.61,7.2-9.52,0-16.8-7.28-16.8-17.4s7.2-17.47,16.65-17.47C3748,2333,3753,2336.17,3755,2340.29Zm-12.3,23.55c7.35,0,12.52-5.85,12.52-13.42S3750,2337,3742.67,2337s-12.45,5.85-12.45,13.43S3735.32,2363.84,3742.67,2363.84Z"/>
    <path class="cls-3" d="M3786.24,2358.14c0-3.3-2.7-4.72-7.42-6.45L3777,2351c-5-1.8-8.39-4.35-8.39-9.15,0-5.47,4.87-8.92,11.32-8.92a16.86,16.86,0,0,1,10.72,3.82l-2.47,3.45a15,15,0,0,0-8.4-3.3c-3.67,0-6.45,1.88-6.45,4.72,0,2.1,1.5,3.75,4.87,5L3782,2348c6.37,2.48,9,5.25,9,10.13,0,4.27-3.68,9.6-12.15,9.6a19.73,19.73,0,0,1-11.62-4.13l2.4-3.45a15.78,15.78,0,0,0,9.37,3.53C3783.47,2363.77,3786.24,2361.22,3786.24,2358.14Z"/>
    <path class="cls-3" d="M3818.72,2366.92h-4.58v-52.5h4.58Z"/>
    <path class="cls-3" d="M3831.77,2351.77c.6,6.82,5.17,12,12.07,12a11.42,11.42,0,0,0,10.28-5.7h5.32a17,17,0,0,1-15.6,9.75c-9.52,0-16.8-7.28-16.8-17.4s7.28-17.47,16.73-17.47c8.62,0,16.65,6.07,16.65,18.67v.15Zm.15-3.75h23.39c-.53-6-5-11-11.55-11s-11,4.7-11.8,11Z"/>
    <path class="cls-3" d="M3899.86,2370.37c0,5.4-2.47,9.67-9.75,9.67h-12.53v-3.82h12c3.15,0,5.7-1,5.7-4.8v-10.8c-2,4.12-7,7.2-12.6,7.2-9.52,0-16.8-7.28-16.8-17.4s7.2-17.47,16.65-17.47c5.7,0,10.8,3.22,12.75,7.34v-6.44h4.58Zm-4.42-19.95c0-7.58-5.11-13.43-12.45-13.43s-12.52,5.85-12.52,13.43,5.17,13.42,12.52,13.42S3895.44,2358,3895.44,2350.42Z"/>
    <path class="cls-3" d="M3916.29,2366.92h-4.57v-29.25h-5.25v-3.82h9.82Zm-2.62-49.05a4,4,0,1,1-4,4A4,4,0,0,1,3913.67,2317.87Z"/>
    <path class="cls-3" d="M3933.39,2319.9v13.95h8.17v3.82h-8.17v22.42c0,3.08,2.17,3.23,4.72,3.23a23.34,23.34,0,0,0,3.45-.23v3.83a48.14,48.14,0,0,1-5.1.3c-3.45,0-7.65-.9-7.65-7v-22.5h-5.7v-3.82h5.7v-14Z"/>
    <path class="cls-3" d="M3954.32,2366.92h-4.58v-29.25h-5.25v-3.82h9.83Zm-2.63-49.05a4,4,0,1,1-4,4A4,4,0,0,1,3951.69,2317.87Z"/>
    <path class="cls-3" d="M3992.56,2346.22v20.7H3988v-22c0-5.1-3.15-8-7.88-8-3.89,0-7.42,2.18-10.58,5.85v24.08H3965v-33.07h4.5v4.72c2.85-3.45,6.45-5.62,11.25-5.62,5.54,0,9.22,2.47,10.79,6.37,3.6-4.35,7.5-6.37,12.3-6.37,7.8,0,11.78,4.72,11.78,12v22H4011v-22c0-5.1-3.15-8-7.8-8-4,0-7.58,2.25-10.81,6A31,31,0,0,1,3992.56,2346.22Z"/>
    <path class="cls-3" d="M4045.44,2344c0-5-3.9-7.05-8.34-7.05a17.94,17.94,0,0,0-10.18,3.6l-2.18-3.44a21.61,21.61,0,0,1,12.67-4.2c7.87,0,12.6,4.42,12.6,11.24v22.73h-4.57v-4.13c-1.88,3.3-6.38,5-10.36,5-7.19,0-12-4.2-12-10.13s4.36-9.67,11.17-9.67h7.95c2.33,0,3.23-1.2,3.23-3Zm0,11.1v-4.57c-.84,1-2.55,1.27-4.28,1.27H4035c-4.88,0-7.13,2.4-7.13,5.85,0,2.85,2.18,6.23,7.73,6.23,5.07,0,9.87-2.74,9.87-8.74Z"/>
    <path class="cls-3" d="M4066.74,2319.9v13.95h8.17v3.82h-8.17v22.42c0,3.08,2.18,3.23,4.73,3.23a23.3,23.3,0,0,0,3.44-.23v3.83a48.48,48.48,0,0,1-5.11.3c-3.44,0-7.63-.9-7.63-7v-22.5h-5.7v-3.82h5.7v-14Z"/>
    <path class="cls-3" d="M4084,2351.77c.6,6.82,5.17,12,12.07,12a11.42,11.42,0,0,0,10.28-5.7h5.32a17,17,0,0,1-15.6,9.75c-9.52,0-16.8-7.28-16.8-17.4s7.3-17.42,16.73-17.42c8.62,0,16.64,6.07,16.64,18.67v.15Zm.14-3.75h23.4c-.53-6-5-11-11.55-11s-11,4.7-11.83,11Z"/>
    <path class="cls-3" d="M4151.49,2358.14c0-3.3-2.7-4.72-7.43-6.45l-1.87-.67c-5-1.8-8.4-4.35-8.4-9.15,0-5.47,4.87-8.92,11.32-8.92a16.87,16.87,0,0,1,10.73,3.82l-2.48,3.45a15,15,0,0,0-8.4-3.3c-3.67,0-6.45,1.88-6.45,4.72,0,2.1,1.5,3.75,4.88,5l3.82,1.42c6.38,2.48,9,5.25,9,10.13,0,4.27-3.67,9.6-12.15,9.6a19.73,19.73,0,0,1-11.62-4.13l2.4-3.45a15.78,15.78,0,0,0,9.37,3.53C4148.71,2363.77,4151.49,2361.22,4151.49,2358.14Z"/>
    <path class="cls-3" d="M4170.16,2366.92h-4.58v-29.25h-5.25v-3.82h9.83Zm-2.63-49.05a4,4,0,1,1-4,4A4,4,0,0,1,4167.53,2317.87Z"/>
    <path class="cls-3" d="M4187.26,2319.9v13.95h8.18v3.82h-8.18v22.42c0,3.08,2.18,3.23,4.73,3.23a23.53,23.53,0,0,0,3.45-.23v3.83a48.45,48.45,0,0,1-5.1.3c-3.45,0-7.65-.9-7.65-7v-22.5H4177v-3.82h5.7v-14Z"/>
    <path class="cls-3" d="M4204.51,2351.77c.6,6.82,5.18,12,12.08,12a11.39,11.39,0,0,0,10.27-5.7h5.33a17,17,0,0,1-15.6,9.75c-9.53,0-16.8-7.28-16.8-17.4s7.27-17.47,16.72-17.47c8.63,0,16.65,6.07,16.65,18.67v.15Zm.15-3.75h23.39c-.52-6-5-11-11.54-11s-11,4.7-11.85,11Z"/>
    <path class="cls-3" d="M4244.78,2358.82a4.46,4.46,0,0,1,4.5,4.44h0v.06a6.61,6.61,0,0,1-.75,2.85l-4.87,9h-4l3.45-7.58a4.57,4.57,0,0,1,1.65-8.77Z"/>
    <path class="cls-3" d="M3122.34,2450.69v6.23h-4.57v-52.5h4.57v25.87c1.95-4.12,7-7.34,12.75-7.34,9.45,0,16.65,7.34,16.65,17.47s-7.27,17.4-16.8,17.4C3129.33,2457.82,3124.38,2454.74,3122.34,2450.69Zm12.31-23.7c-7.36,0-12.53,5.85-12.53,13.43s5.17,13.42,12.53,13.42,12.44-5.85,12.44-13.42S3142,2427,3134.65,2427Z"/>
    <path class="cls-3" d="M3159.62,2445.14v-21.29h4.58v20.84c0,6,4.12,9.08,9.6,9.08s9.6-3.08,9.6-9.08v-20.84H3188v21.29c0,7-5,12.68-14.18,12.68S3159.62,2452.12,3159.62,2445.14Z"/>
    <path class="cls-3" d="M3204.62,2409.9v13.95h8.17v3.82h-8.17v22.42c0,3.08,2.17,3.23,4.72,3.23a23.34,23.34,0,0,0,3.45-.23v3.83a48.14,48.14,0,0,1-5.1.3c-3.45,0-7.65-.9-7.65-7v-22.5h-5.7v-3.82h5.7v-14Z"/>
    <path class="cls-3" d="M3254.34,2434c0-5-3.89-7.05-8.32-7.05a18.06,18.06,0,0,0-10.2,3.6l-2.17-3.44a21.63,21.63,0,0,1,12.67-4.2c7.88,0,12.61,4.42,12.61,11.24v22.73h-4.59v-4.13c-1.87,3.3-6.37,5-10.35,5-7.2,0-12-4.2-12-10.13s4.35-9.67,11.18-9.67h7.95c2.32,0,3.22-1.2,3.22-3Zm0,11.1v-4.57c-.82,1-2.55,1.27-4.27,1.27H3244c-4.88,0-7.13,2.4-7.13,5.85,0,2.85,2.18,6.23,7.73,6.23,5,0,9.78-2.74,9.78-8.74Z"/>
    <path class="cls-3" d="M3273.78,2456.92h-4.58v-52.5h4.58Z"/>
    <path class="cls-3" d="M3300.47,2448.14c0-3.3-2.7-4.72-7.42-6.45l-1.87-.67c-5-1.8-8.4-4.35-8.4-9.15,0-5.47,4.87-8.92,11.32-8.92a16.86,16.86,0,0,1,10.72,3.82l-2.47,3.45a15,15,0,0,0-8.4-3.3c-3.67,0-6.45,1.88-6.45,4.72,0,2.1,1.5,3.75,4.87,5l3.83,1.42c6.37,2.48,9,5.25,9,10.13,0,4.27-3.68,9.6-12.15,9.6a19.73,19.73,0,0,1-11.62-4.13l2.4-3.45a15.78,15.78,0,0,0,9.37,3.53C3297.7,2453.77,3300.47,2451.22,3300.47,2448.14Z"/>
    <path class="cls-3" d="M3328.07,2423a17.44,17.44,0,1,1-17.1,17.78v-.31C3311,2430.29,3318.61,2423,3328.07,2423Zm0,4c-7.35,0-12.45,5.85-12.45,13.43s5.1,13.42,12.45,13.42,12.53-5.85,12.53-13.42S3335.5,2427,3328.07,2427Z"/>
    <path class="cls-3" d="M3370.9,2441.77c.6,6.82,5.16,12,12.07,12a11.42,11.42,0,0,0,10.28-5.7h5.32a17,17,0,0,1-15.6,9.75c-9.52,0-16.8-7.28-16.8-17.4s7.28-17.47,16.73-17.47c8.62,0,16.64,6.07,16.64,18.67v.15Zm.14-3.75h23.4c-.53-6-5-11-11.55-11s-11,4.7-11.85,11Z"/>
    <path class="cls-3" d="M3415.3,2440.57l-12.6-16.72h5.47l9.75,13.42,10-13.42h5.16l-12.6,16.57,12.6,16.5h-5.55l-9.67-13.2-9.67,13.2h-5.47Z"/>
    <path class="cls-3" d="M3441,2441.77c.6,6.82,5.18,12,12.08,12a11.39,11.39,0,0,0,10.27-5.7h5.33a17,17,0,0,1-15.6,9.75c-9.53,0-16.8-7.28-16.8-17.4S3443.57,2423,3453,2423c8.63,0,16.65,6.07,16.65,18.67v.15Zm.15-3.75h23.39c-.52-6-5-11-11.55-11s-11.05,4.7-11.85,11Z"/>
    <path class="cls-3" d="M3492.17,2453.84a11.82,11.82,0,0,0,10.87-6.67l3.9,2.25a16.75,16.75,0,0,1-14.78,8.4c-9.52,0-17.1-7.28-17.1-17.4s7.58-17.47,17.1-17.47a16.74,16.74,0,0,1,14.78,8.39l-3.9,2.25a11.89,11.89,0,0,0-10.87-6.6c-7.36,0-12.45,5.85-12.45,13.43S3484.82,2453.84,3492.17,2453.84Z"/>
    <path class="cls-3" d="M3514.36,2445.14v-21.29H3519v20.84c0,6,4.12,9.08,9.6,9.08s9.6-3.08,9.6-9.08v-20.84h4.57v21.29c0,7-4.95,12.68-14.17,12.68S3514.36,2452.12,3514.36,2445.14Z"/>
    <path class="cls-3" d="M3559.36,2409.9v13.95h8.18v3.82h-8.18v22.42c0,3.08,2.18,3.23,4.73,3.23a23.34,23.34,0,0,0,3.45-.23v3.83a48.14,48.14,0,0,1-5.1.3c-3.45,0-7.65-.9-7.65-7v-22.5h-5.7v-3.82h5.7v-14Z"/>
    <path class="cls-3" d="M3576.61,2441.77c.61,6.82,5.18,12,12.09,12a11.41,11.41,0,0,0,10.27-5.7h5.32a17,17,0,0,1-15.59,9.75c-9.53,0-16.8-7.28-16.8-17.4s7.27-17.47,16.71-17.47c8.63,0,16.65,6.07,16.65,18.67v.15Zm.15-3.75h23.4c-.53-6-5-11-11.55-11s-11,4.7-11.85,11Z"/>
    <path class="cls-3" d="M3629.11,2448.14c0-3.3-2.69-4.72-7.42-6.45l-1.88-.67c-5-1.8-8.39-4.35-8.39-9.15,0-5.47,4.87-8.92,11.32-8.92a16.87,16.87,0,0,1,10.73,3.82l-2.48,3.45a15,15,0,0,0-8.4-3.3c-3.67,0-6.45,1.88-6.45,4.72,0,2.1,1.5,3.75,4.88,5l3.82,1.42c6.38,2.48,9,5.25,9,10.13,0,4.27-3.67,9.6-12.15,9.6a19.73,19.73,0,0,1-11.62-4.13l2.4-3.45a15.78,15.78,0,0,0,9.37,3.53C3626.34,2453.77,3629.11,2451.22,3629.11,2448.14Z"/>
    <path class="cls-3" d="M3684.61,2436.22v20.7H3680v-22c0-5.1-3.14-8-7.87-8-3.9,0-7.43,2.18-10.58,5.85v24.08H3657v-33.07h4.5v4.72c2.85-3.45,6.45-5.62,11.25-5.62,5.55,0,9.22,2.47,10.8,6.37,3.6-4.35,7.5-6.37,12.3-6.37,7.8,0,11.77,4.72,11.77,12v22h-4.57v-22c0-5.1-3.15-8-7.8-8-4,0-7.58,2.25-10.8,6C3684.54,2434,3684.61,2435.17,3684.61,2436.22Z"/>
    <path class="cls-3" d="M3737.49,2434c0-5-3.9-7.05-8.32-7.05a18,18,0,0,0-10.2,3.6l-2.18-3.44a21.64,21.64,0,0,1,12.68-4.2c7.87,0,12.6,4.42,12.6,11.24v22.73h-4.58v-4.13c-1.88,3.3-6.38,5-10.35,5-7.2,0-12-4.2-12-10.13s4.35-9.67,11.17-9.67h8c2.33,0,3.22-1.2,3.22-3Zm0,11.1v-4.57c-.82,1-2.55,1.27-4.27,1.27h-6.15c-4.88,0-7.13,2.4-7.13,5.85,0,2.85,2.18,6.23,7.73,6.23,5,0,9.82-2.74,9.82-8.74Z"/>
    <path class="cls-3" d="M3757,2456.92h-4.58v-52.5H3757Z"/>
    <path class="cls-3" d="M3773.34,2456.92h-4.57v-29.25h-5.25v-3.82h9.82Zm-2.62-49.05a4,4,0,1,1-4,4A4,4,0,0,1,3770.72,2407.87Z"/>
    <path class="cls-3" d="M3798.69,2453.84a11.82,11.82,0,0,0,10.87-6.67l3.9,2.25a16.75,16.75,0,0,1-14.78,8.4c-9.52,0-17.1-7.28-17.1-17.4s7.58-17.47,17.1-17.47a16.74,16.74,0,0,1,14.78,8.39l-3.9,2.25a11.89,11.89,0,0,0-10.87-6.6c-7.36,0-12.45,5.85-12.45,13.43S3791.34,2453.84,3798.69,2453.84Z"/>
    <path class="cls-3" d="M3827.11,2456.92h-4.58v-29.25h-5.25v-3.82h9.83Zm-2.62-49.05a4,4,0,1,1-4,4A4,4,0,0,1,3824.49,2407.87Z"/>
    <path class="cls-3" d="M3852.47,2423a17.44,17.44,0,1,1-17.11,17.78v-.31C3835.36,2430.29,3843,2423,3852.47,2423Zm0,4c-7.36,0-12.45,5.85-12.45,13.43s5.1,13.42,12.45,13.42,12.5-5.85,12.5-13.43S3859.89,2427,3852.47,2427Z"/>
    <path class="cls-3" d="M3877.44,2445.14v-21.29H3882v20.84c0,6,4.12,9.08,9.6,9.08s9.6-3.08,9.6-9.08v-20.84h4.58v21.29c0,7-5,12.68-14.18,12.68S3877.44,2452.12,3877.44,2445.14Z"/>
    <path class="cls-3" d="M3932,2448.14c0-3.3-2.7-4.72-7.43-6.45l-1.87-.67c-5-1.8-8.4-4.35-8.4-9.15,0-5.47,4.87-8.92,11.32-8.92a16.87,16.87,0,0,1,10.73,3.82l-2.48,3.45a15,15,0,0,0-8.4-3.3c-3.67,0-6.45,1.88-6.45,4.72,0,2.1,1.5,3.75,4.88,5l3.82,1.42c6.38,2.48,9,5.25,9,10.13,0,4.27-3.67,9.6-12.15,9.6a19.73,19.73,0,0,1-11.62-4.13l2.4-3.45a15.78,15.78,0,0,0,9.37,3.53C3929.26,2453.77,3932,2451.22,3932,2448.14Z"/>
    <path class="cls-3" d="M3976,2448.14c0-3.3-2.7-4.72-7.43-6.45l-1.87-.67c-5-1.8-8.4-4.35-8.4-9.15,0-5.47,4.87-8.92,11.32-8.92a16.87,16.87,0,0,1,10.73,3.82l-2.48,3.45a15,15,0,0,0-8.4-3.3c-3.67,0-6.45,1.88-6.45,4.72,0,2.1,1.5,3.75,4.88,5l3.82,1.42c6.38,2.48,9,5.25,9,10.13,0,4.27-3.67,9.6-12.15,9.6a19.73,19.73,0,0,1-11.62-4.13l2.4-3.45a15.78,15.78,0,0,0,9.37,3.53C3973.21,2453.77,3976,2451.22,3976,2448.14Z"/>
    <path class="cls-3" d="M4003.59,2453.84a11.82,11.82,0,0,0,10.87-6.67l3.9,2.25a16.72,16.72,0,0,1-14.77,8.4c-9.53,0-17.1-7.28-17.1-17.4s7.57-17.47,17.1-17.47a16.71,16.71,0,0,1,14.77,8.39l-3.9,2.25a11.89,11.89,0,0,0-10.87-6.6c-7.35,0-12.45,5.85-12.45,13.43S3996.24,2453.84,4003.59,2453.84Z"/>
    <path class="cls-3" d="M4043,2427.89h-2.24c-5.85,0-10.05,2.7-10.05,10.5v18.53h-4.5v-33.07h4.35v5.62c1.87-4.42,6-6.22,10-6.22.75,0,1.58.07,2.47.15Z"/>
    <path class="cls-3" d="M4055.71,2456.92h-4.57v-29.25h-5.25v-3.82h9.82Zm-2.63-49.05a4,4,0,1,1-4,4A4,4,0,0,1,4053.08,2407.87Z"/>
    <path class="cls-3" d="M4071,2450.69V2470h-4.57v-46.19H4071v6.44c2-4.12,7.05-7.34,12.75-7.34,9.45,0,16.64,7.34,16.64,17.47s-7.27,17.4-16.8,17.4C4077.91,2457.82,4073,2454.74,4071,2450.69Zm12.3-23.7c-7.35,0-12.52,5.85-12.52,13.43s5.17,13.42,12.52,13.42,12.45-5.85,12.45-13.42-5.14-13.42-12.49-13.42Z"/>
    <path class="cls-3" d="M4115.1,2409.9v13.95h8.17v3.82h-8.17v22.42c0,3.08,2.17,3.23,4.72,3.23a23.34,23.34,0,0,0,3.45-.23v3.83a48.14,48.14,0,0,1-5.1.3c-3.45,0-7.65-.9-7.65-7v-22.5h-5.7v-3.82h5.7v-14Z"/>
    <path class="cls-3" d="M1264.54,974.37l18.6-32h7.34v32h8v4h-8V995h-4.57V978.34h-21.37Zm4.5,0h16.87v-28.8h-.31Z"/>
    <path class="cls-3" d="M1309.16,986.74a4.54,4.54,0,1,1-4.5,4.58A4.53,4.53,0,0,1,1309.16,986.74Z"/>
    <path class="cls-3" d="M1381.53,941.83h7v52.5h-4.65v-47l-17.17,37h-4.87l-17.18-37v47h-4.43v-52.5h7l17.25,37.2Z"/>
    <path class="cls-3" d="M1419.41,971.45c0-5-3.9-7.05-8.33-7.05-4.12,0-7.42,1.73-10.2,3.6l-2.17-3.45a21.63,21.63,0,0,1,12.67-4.2c7.88,0,12.6,4.43,12.6,11.25v22.73h-4.57V990.2c-1.88,3.3-6.38,5-10.35,5-7.2,0-12-4.2-12-10.13s4.35-9.67,11.17-9.67h8c2.33,0,3.23-1.2,3.23-3Zm0,11.1V978c-.83,1-2.56,1.27-4.29,1.27H1409c-4.87,0-7.12,2.4-7.12,5.85,0,2.85,2.17,6.23,7.72,6.23C1414.61,991.33,1419.41,988.55,1419.41,982.55Z"/>
    <path class="cls-3" d="M1438.83,994.33h-4.57v-52.5h4.57Z"/>
    <path class="cls-3" d="M1455.25,994.33h-4.57V965.08h-5.25v-3.83h9.82Zm-2.62-49.05a4,4,0,1,1-4,4A4,4,0,0,1,1452.63,945.28Z"/>
    <path class="cls-3" d="M1480.6,991.25a11.84,11.84,0,0,0,10.88-6.67l3.9,2.25a16.77,16.77,0,0,1-14.78,8.4c-9.52,0-17.1-7.28-17.1-17.4s7.58-17.48,17.1-17.48a16.77,16.77,0,0,1,14.78,8.4l-3.9,2.25a11.92,11.92,0,0,0-10.88-6.6c-7.35,0-12.45,5.85-12.45,13.43S1473.25,991.25,1480.6,991.25Z"/>
    <path class="cls-3" d="M1509,994.33h-4.58V965.08h-5.25v-3.83H1509Zm-2.63-49.05a4,4,0,1,1-4,4A4,4,0,0,1,1506.4,945.28Z"/>
    <path class="cls-3" d="M1534.38,960.35a17.44,17.44,0,1,1-17.1,17.78v-.3C1517.28,967.7,1525,960.35,1534.38,960.35Zm0,4c-7.35,0-12.45,5.85-12.45,13.43s5.1,13.42,12.45,13.42,12.52-5.85,12.52-13.42-5.1-13.38-12.52-13.38Z"/>
    <path class="cls-3" d="M1559.35,982.55v-21.3H1564V982.1c0,6,4.12,9.08,9.6,9.08s9.6-3.08,9.6-9.08V961.25h4.56v21.3c0,7-5,12.68-14.17,12.68S1559.35,989.53,1559.35,982.55Z"/>
    <path class="cls-3" d="M1614,985.55c0-3.3-2.7-4.72-7.42-6.45l-1.88-.67c-5-1.8-8.4-4.35-8.4-9.15,0-5.48,4.88-8.93,11.32-8.93a16.83,16.83,0,0,1,10.72,3.83l-2.47,3.45a14.93,14.93,0,0,0-8.4-3.3c-3.68,0-6.45,1.87-6.45,4.72,0,2.1,1.5,3.75,4.87,5l3.83,1.42c6.37,2.48,9,5.25,9,10.13,0,4.27-3.68,9.6-12.15,9.6a19.81,19.81,0,0,1-11.63-4.13l2.4-3.45a15.88,15.88,0,0,0,9.38,3.53C1611.18,991.18,1614,988.63,1614,985.55Z"/>
    <path class="cls-3" d="M1657.9,985.55c0-3.3-2.7-4.72-7.42-6.45l-1.88-.67c-5-1.8-8.4-4.35-8.4-9.15,0-5.48,4.88-8.93,11.33-8.93a16.82,16.82,0,0,1,10.71,3.83l-2.47,3.45a14.92,14.92,0,0,0-8.39-3.3c-3.69,0-6.45,1.87-6.45,4.72,0,2.1,1.5,3.75,4.87,5l3.82,1.42c6.37,2.48,9,5.25,9,10.13,0,4.27-3.68,9.6-12.15,9.6a19.81,19.81,0,0,1-11.63-4.13l2.4-3.45a15.88,15.88,0,0,0,9.38,3.53C1655.13,991.18,1657.9,988.63,1657.9,985.55Z"/>
    <path class="cls-3" d="M1685.5,991.25a11.82,11.82,0,0,0,10.87-6.67l3.9,2.25a16.72,16.72,0,0,1-14.77,8.4c-9.53,0-17.1-7.28-17.1-17.4s7.57-17.48,17.1-17.48a16.74,16.74,0,0,1,14.77,8.4l-3.9,2.25a11.89,11.89,0,0,0-10.87-6.6c-7.35,0-12.45,5.85-12.45,13.43S1678.15,991.25,1685.5,991.25Z"/>
    <path class="cls-3" d="M1725,965.3h-2.25c-5.85,0-10,2.7-10,10.5v18.53h-4.5V961.25h4.35v5.63c1.87-4.43,6-6.23,10-6.23.75,0,1.58.08,2.48.15Z"/>
    <path class="cls-3" d="M1737.62,994.33h-4.57V965.08h-5.25v-3.83h9.82ZM1735,945.28a4,4,0,1,1-4,4A4,4,0,0,1,1735,945.28Z"/>
    <path class="cls-3" d="M1752.85,988.1v19.35h-4.58v-46.2h4.58v6.45c2-4.12,7-7.35,12.75-7.35,9.45,0,16.65,7.35,16.65,17.48s-7.28,17.4-16.8,17.4C1759.82,995.23,1754.87,992.15,1752.85,988.1Zm12.3-23.7c-7.35,0-12.53,5.85-12.53,13.43s5.18,13.42,12.53,13.42,12.45-5.85,12.45-13.42S1772.5,964.4,1765.15,964.4Z"/>
    <path class="cls-3" d="M1797,947.3v14h8.18v3.83H1797V987.5c0,3.08,2.18,3.23,4.73,3.23a23.53,23.53,0,0,0,3.45-.23v3.83a48.45,48.45,0,0,1-5.1.3c-3.45,0-7.65-.9-7.65-7v-22.5h-5.7V961.3h5.7v-14Z"/>
    <path class="cls-3" d="M1843.22,985.55c0-3.3-2.7-4.72-7.42-6.45l-1.88-.67c-5-1.8-8.4-4.35-8.4-9.15,0-5.48,4.88-8.93,11.32-8.93a16.83,16.83,0,0,1,10.72,3.83l-2.47,3.45a14.93,14.93,0,0,0-8.4-3.3c-3.68,0-6.45,1.87-6.45,4.72,0,2.1,1.5,3.75,4.87,5l3.83,1.42c6.37,2.48,9,5.25,9,10.13,0,4.27-3.68,9.6-12.15,9.6a19.81,19.81,0,0,1-11.63-4.13l2.4-3.45a15.88,15.88,0,0,0,9.38,3.53C1840.45,991.18,1843.22,988.63,1843.22,985.55Z"/>
    <path class="cls-3" d="M1858.52,979.18c.6,6.82,5.18,12,12.08,12a11.39,11.39,0,0,0,10.27-5.7h5.32a17,17,0,0,1-15.59,9.75c-9.53,0-16.8-7.28-16.8-17.4s7.27-17.48,16.72-17.48c8.63,0,16.65,6.08,16.65,18.68v.15Zm.15-3.75h23.4c-.52-6-5-11-11.55-11S1859.5,969.13,1858.67,975.43Z"/>
    <path class="cls-3" d="M1918.74,972.58c0-5.33-3.45-8.18-8.17-8.18-4,0-7.88,2.18-11,5.85v24.08H1895V961.25h4.5V966a15,15,0,0,1,11.85-5.63c7.72,0,12,4.73,12,12v22h-4.58Z"/>
    <path class="cls-3" d="M1960.67,967.7V941.83h4.56v52.5h-4.56V988c-2,4.12-7,7.2-12.6,7.2-9.52,0-16.8-7.28-16.8-17.4s7.19-17.48,16.65-17.48C1953.62,960.35,1958.72,963.58,1960.67,967.7Zm-12.31,23.55c7.35,0,12.53-5.85,12.53-13.42s-5.18-13.43-12.53-13.43-12.4,5.85-12.4,13.43S1941,991.25,1948.36,991.25Z"/>
    <path class="cls-3" d="M1992,985.55c0-3.3-2.7-4.72-7.42-6.45l-1.88-.67c-5-1.8-8.4-4.35-8.4-9.15,0-5.48,4.88-8.93,11.32-8.93a16.83,16.83,0,0,1,10.72,3.83l-2.47,3.45a14.93,14.93,0,0,0-8.4-3.3c-3.68,0-6.45,1.87-6.45,4.72,0,2.1,1.5,3.75,4.87,5l3.83,1.42c6.37,2.48,9,5.25,9,10.13,0,4.27-3.68,9.6-12.15,9.6a19.78,19.78,0,0,1-11.62-4.13l2.4-3.45a15.76,15.76,0,0,0,9.37,3.53C1989.17,991.18,1992,988.63,1992,985.55Z"/>
    <path class="cls-3" d="M2041,961.25h5l-12.53,33.08h-6.15L2015,961.25h5.19l10.27,29.33Z"/>
    <path class="cls-3" d="M2059,994.33h-4.57V965.08h-5.25v-3.83H2059Zm-2.62-49.05a4,4,0,1,1-4,4,4,4,0,0,1,4-4Z"/>
    <path class="cls-3" d="M2084.34,991.25a11.84,11.84,0,0,0,10.88-6.67l3.9,2.25a16.77,16.77,0,0,1-14.78,8.4c-9.52,0-17.1-7.28-17.1-17.4s7.58-17.48,17.1-17.48a16.77,16.77,0,0,1,14.78,8.4l-3.9,2.25a11.92,11.92,0,0,0-10.88-6.6c-7.35,0-12.45,5.85-12.45,13.43S2077,991.25,2084.34,991.25Z"/>
    <path class="cls-3" d="M2113.44,947.3v14h8.18v3.83h-8.18V987.5c0,3.08,2.18,3.23,4.73,3.23a23.3,23.3,0,0,0,3.44-.23v3.83a48.1,48.1,0,0,1-5.09.3c-3.45,0-7.66-.9-7.66-7v-22.5h-5.69V961.3h5.69v-14Z"/>
    <path class="cls-3" d="M2134.36,994.33h-4.58V965.08h-5.25v-3.83h9.83Zm-2.62-49.05a4,4,0,1,1-4,4A4,4,0,0,1,2131.74,945.28Z"/>
    <path class="cls-3" d="M2172.61,973.63v20.7H2168v-22c0-5.1-3.14-8-7.87-8-3.9,0-7.43,2.18-10.58,5.85v24.08H2145v-33h4.5V966c2.85-3.45,6.45-5.63,11.25-5.63,5.55,0,9.22,2.48,10.8,6.38,3.6-4.35,7.5-6.38,12.29-6.38,7.8,0,11.78,4.73,11.78,12v22h-4.57v-22c0-5.1-3.15-8-7.8-8-4,0-7.58,2.25-10.8,6C2172.54,971.45,2172.61,972.58,2172.61,973.63Z"/>
    <path class="cls-3" d="M2209.67,940.93a4.61,4.61,0,0,1,4.57,4.65h0a7.44,7.44,0,0,1-.75,2.85l-4.95,9.07h-4.05l3.45-7.65a4.48,4.48,0,0,1-2.86-4.27,4.61,4.61,0,0,1,4.57-4.65h0Z"/>
    <path class="cls-3" d="M2238.17,985.55c0-3.3-2.7-4.72-7.43-6.45l-1.88-.67c-5-1.8-8.39-4.35-8.39-9.15,0-5.48,4.87-8.93,11.32-8.93a16.94,16.94,0,0,1,10.73,3.83l-2.48,3.45a15,15,0,0,0-8.4-3.3c-3.67,0-6.45,1.87-6.45,4.72,0,2.1,1.5,3.75,4.88,5l3.82,1.42c6.38,2.48,9,5.25,9,10.13,0,4.27-3.67,9.6-12.15,9.6a19.73,19.73,0,0,1-11.62-4.13l2.4-3.45a15.78,15.78,0,0,0,9.37,3.53C2235.39,991.18,2238.17,988.63,2238.17,985.55Z"/>
    <path class="cls-3" d="M1342.84,1077.61V1097h-4.57v-46.2h4.57v6.45c2-4.13,7.05-7.35,12.75-7.35,9.45,0,16.65,7.35,16.65,17.47s-7.27,17.4-16.8,17.4C1349.82,1084.73,1344.87,1081.66,1342.84,1077.61Zm12.3-23.7c-7.35,0-12.52,5.85-12.52,13.42s5.17,13.43,12.52,13.43,12.45-5.85,12.45-13.43S1362.49,1053.91,1355.14,1053.91Z"/>
    <path class="cls-3" d="M1397.37,1054.81h-2.25c-5.85,0-10,2.7-10,10.5v18.52h-4.5v-33.07h4.4v5.62c1.87-4.42,6-6.22,10-6.22.75,0,1.58.07,2.48.15Z"/>
    <path class="cls-3" d="M1410,1083.83h-4.57v-29.25h-5.25v-3.82H1410Zm-2.62-49a3.13,3.13,0,1,1-.06,0h.06Z"/>
    <path class="cls-3" d="M1443.57,1050.76h5l-12.6,33.07h-6.15l-12.3-33.07h5.18l10.27,29.32Z"/>
    <path class="cls-3" d="M1474.54,1061c0-5-3.9-7-8.32-7a17.91,17.91,0,0,0-10.2,3.6l-2.18-3.45a21.64,21.64,0,0,1,12.68-4.2c7.87,0,12.6,4.42,12.6,11.25v22.72h-4.58v-4.12c-1.87,3.3-6.37,5-10.35,5-7.2,0-12-4.2-12-10.12,0-6.08,4.35-9.68,11.18-9.68h8c2.32,0,3.22-1.2,3.22-3Zm0,11.1v-4.58c-.82,1-2.56,1.28-4.27,1.28h-6.16c-4.88,0-7.13,2.4-7.13,5.85,0,2.85,2.19,6.22,7.73,6.22,5,0,9.82-2.81,9.82-8.81Z"/>
    <path class="cls-3" d="M1495.84,1036.81v14H1504v3.82h-8.18V1077c0,3.07,2.18,3.22,4.73,3.22a23.51,23.51,0,0,0,3.45-.22v3.82a48.45,48.45,0,0,1-5.1.3c-3.45,0-7.65-.9-7.65-7v-22.5h-5.7v-3.82h5.7v-14Z"/>
    <path class="cls-3" d="M1513.09,1068.68c.6,6.83,5.18,12,12.08,12a11.39,11.39,0,0,0,10.27-5.7h5.33a17,17,0,0,1-15.6,9.75c-9.53,0-16.81-7.27-16.81-17.4s7.28-17.47,16.72-17.47c8.63,0,16.65,6.07,16.65,18.67v.15Zm.15-3.75h23.4c-.52-6-5-11-11.55-11S1514.07,1058.63,1513.24,1064.93Z"/>
    <path class="cls-3" d="M1591.08,1057.7v-25.87h4.57v52.5h-4.57V1078c-2,4.12-7,7.2-12.6,7.2-9.53,0-16.8-7.28-16.8-17.4s7.2-17.48,16.65-17.48C1584,1050.35,1589.13,1053.58,1591.08,1057.7Zm-12.3,23.55c7.34,0,12.52-5.85,12.52-13.42s-5.18-13.43-12.52-13.43-12.45,5.85-12.45,13.43S1571.43,1081.25,1578.78,1081.25Z"/>
    <path class="cls-3" d="M1625.88,1061.45c0-5-3.9-7-8.33-7-4.12,0-7.42,1.73-10.2,3.6l-2.17-3.45a21.63,21.63,0,0,1,12.67-4.2c7.88,0,12.6,4.43,12.6,11.25v22.73h-4.57v-4.13c-1.88,3.3-6.38,5-10.35,5-7.2,0-12-4.2-12-10.13s4.35-9.67,11.17-9.67h8c2.33,0,3.23-1.2,3.23-3Zm0,11.1V1068c-.83,1-2.55,1.27-4.28,1.27h-6.15c-4.87,0-7.12,2.4-7.12,5.85,0,2.85,2.17,6.23,7.72,6.23,5,0,9.83-2.8,9.83-8.8Z"/>
    <path class="cls-3" d="M1647.18,1037.3v14h8.17v3.83h-8.17v22.42c0,3.08,2.17,3.23,4.72,3.23a23.3,23.3,0,0,0,3.44-.23v3.83a48.14,48.14,0,0,1-5.1.3c-3.44,0-7.65-.9-7.65-7v-22.5h-5.69v-3.83h5.69v-14Z"/>
    <path class="cls-3" d="M1681.9,1061.45c0-5-3.9-7-8.32-7a18,18,0,0,0-10.2,3.6l-2.18-3.45a21.64,21.64,0,0,1,12.68-4.2c7.87,0,12.6,4.43,12.6,11.25v22.73h-4.58v-4.13c-1.87,3.3-6.37,5-10.35,5-7.2,0-12-4.2-12-10.13s4.35-9.67,11.18-9.67h8c2.32,0,3.22-1.2,3.22-3Zm0,11.1V1068c-.82,1-2.55,1.27-4.27,1.27h-6.15c-4.88,0-7.13,2.4-7.13,5.85,0,2.85,2.18,6.23,7.73,6.23,5,0,9.82-2.8,9.82-8.8Z"/>
    <path class="cls-3" d="M1717.08,1037.3v14h8.17v3.83h-8.17v22.42c0,3.08,2.17,3.23,4.72,3.23a23.3,23.3,0,0,0,3.44-.23v3.83a48.1,48.1,0,0,1-5.09.3c-3.45,0-7.66-.9-7.66-7v-22.5h-5.69v-3.83h5.69v-14Z"/>
    <path class="cls-3" d="M1746.63,1050.35a17.44,17.44,0,1,1-17.1,17.78v-.3C1729.53,1057.7,1737.18,1050.35,1746.63,1050.35Zm0,4.05c-7.35,0-12.45,5.85-12.45,13.43s5.1,13.42,12.45,13.42,12.52-5.85,12.52-13.42S1754.05,1054.4,1746.63,1054.4Z"/>
    <path class="cls-3" d="M1806.63,1061.45c0-5-3.9-7-8.33-7-4.12,0-7.42,1.73-10.2,3.6l-2.17-3.45a21.63,21.63,0,0,1,12.67-4.2c7.88,0,12.6,4.43,12.6,11.25v22.73h-4.57v-4.13c-1.88,3.3-6.38,5-10.35,5-7.2,0-12-4.2-12-10.13s4.35-9.67,11.17-9.67h8c2.33,0,3.23-1.2,3.23-3Zm0,11.1V1068c-.83,1-2.55,1.27-4.28,1.27h-6.15c-4.87,0-7.12,2.4-7.12,5.85,0,2.85,2.17,6.23,7.72,6.23,5,0,9.82-2.8,9.82-8.8Z"/>
    <path class="cls-3" d="M1828,1037.3v14h8.17v3.83H1828v22.42c0,3.08,2.17,3.23,4.72,3.23a23.53,23.53,0,0,0,3.45-.23v3.83a48.45,48.45,0,0,1-5.1.3c-3.45,0-7.65-.9-7.65-7v-22.5h-5.7v-3.83h5.7v-14Z"/>
    <path class="cls-3" d="M1849.53,1037.3v14h8.17v3.83h-8.17v22.42c0,3.08,2.17,3.23,4.72,3.23a23.53,23.53,0,0,0,3.45-.23v3.83a48.45,48.45,0,0,1-5.1.3c-3.45,0-7.65-.9-7.65-7v-22.5h-5.7v-3.83h5.7v-14Z"/>
    <path class="cls-3" d="M1884.25,1061.45c0-5-3.9-7-8.32-7a18,18,0,0,0-10.2,3.6l-2.18-3.45a21.64,21.64,0,0,1,12.68-4.2c7.87,0,12.6,4.43,12.6,11.25v22.73h-4.58v-4.13c-1.87,3.3-6.37,5-10.35,5-7.2,0-12-4.2-12-10.13s4.35-9.67,11.18-9.67h8c2.32,0,3.22-1.2,3.22-3Zm0,11.1V1068c-.82,1-2.55,1.27-4.27,1.27h-6.15c-4.88,0-7.13,2.4-7.13,5.85,0,2.85,2.18,6.23,7.73,6.23,5,0,9.81-2.8,9.81-8.8Z"/>
    <path class="cls-3" d="M1913.8,1081.25a11.84,11.84,0,0,0,10.88-6.67l3.9,2.25a16.77,16.77,0,0,1-14.78,8.4c-9.52,0-17.1-7.28-17.1-17.4s7.58-17.48,17.1-17.48a16.77,16.77,0,0,1,14.78,8.4l-3.9,2.25a11.92,11.92,0,0,0-10.88-6.6c-7.35,0-12.45,5.85-12.45,13.43S1906.45,1081.25,1913.8,1081.25Z"/>
    <path class="cls-3" d="M1941,1064.08h4.27l12.75-12.83h6.15L1949,1066l16,18.3h-6L1945.1,1068h-4v16.28h-4.58v-52.5h4.58Z"/>
    <path class="cls-3" d="M1971.77,1069.18c.61,6.82,5.18,12,12.08,12a11.39,11.39,0,0,0,10.27-5.7h5.33a17,17,0,0,1-15.6,9.75c-9.53,0-16.8-7.28-16.8-17.4s7.27-17.48,16.72-17.48c8.63,0,16.65,6.08,16.65,18.68v.15Zm.15-3.75h23.4c-.52-6-5-11-11.55-11s-11,4.7-11.8,11Z"/>
    <path class="cls-3" d="M2025,1055.3h-2.25c-5.85,0-10,2.7-10,10.5v18.53h-4.5v-33.08h4.35v5.63c1.88-4.43,6-6.23,10-6.23.75,0,1.57.08,2.47.15Z"/>
    <g>
      <path class="cls-3" d="M2129,237.37h-11.37v31.2h-16.12V187.38H2132c17.75,0,28.19,10.55,28.19,24.7,0,7.66-3.13,17.4-15.43,22.27l20.77,34.22H2147Zm.92-36.07h-12.29v22H2130c8.94,0,14.16-4.17,14.16-11.13C2144.1,205,2138.89,201.3,2130,201.3Z"/>
      <path class="cls-3" d="M2222.18,246.42h-39.56a12,12,0,0,0,12.18,10.67c4.41,0,8.59-1.86,10.67-5.45l15.66,1.62c-4.76,11.37-14.73,16.71-26.56,16.71-15.89,0-27.84-11.72-27.84-28s11.71-28,27.61-28c14.61,0,27.83,9.52,27.83,31.79Zm-39.9-10.09h23.82a11.52,11.52,0,0,0-11.7-9.75,11.86,11.86,0,0,0-12.13,9.75Z"/>
      <path class="cls-3" d="M2234.71,200.37c0-10.44,7-14,15.08-14,4.06,0,11,.7,11,.7v13.8s-4.64-.58-6.26-.58c-2.9,0-4.76.7-4.76,4.41v10.79H2260v12.76h-10.21v40.36h-15.06v-40.4h-8.36V215.45h8.36Z"/>
      <path class="cls-3" d="M2283.43,268.57h-15V187.38h15Z"/>
      <path class="cls-3" d="M2348.5,246.42h-39.56a12,12,0,0,0,12.16,10.67c4.41,0,8.59-1.86,10.67-5.45l15.66,1.62c-4.75,11.37-14.73,16.71-26.56,16.71C2305,270,2293,258.25,2293,242s11.71-28,27.61-28c14.61,0,27.84,9.52,27.84,31.79Zm-39.91-10.09h23.79a11.52,11.52,0,0,0-11.71-9.75A11.87,11.87,0,0,0,2308.59,236.33Z"/>
      <path class="cls-3" d="M2369.1,242c0,8.35,5.45,14.5,13.35,14.5a12.19,12.19,0,0,0,11.72-8.12l14.14,4.41c-3.48,10.55-13.91,17.17-26,17.17-15.78,0-28.31-11.72-28.31-28s12.53-28,28.31-28c12.07,0,22.5,6.73,26,17.29l-14.14,4.29a12.33,12.33,0,0,0-11.72-8.12C2374.59,227.51,2369.1,233.66,2369.1,242Z"/>
      <path class="cls-3" d="M2436.31,195.26v20.19h11.48v12.76h-11.48v24c0,3.36,2.66,3.83,5,3.83,3.84,0,7-.35,7-.35v12.87s-7.3.7-11.71.7c-7.54,0-15.31-1.28-15.31-11.95v-29.1h-8.36V215.45h8.36V195.26Z"/>
      <path class="cls-3" d="M2510.31,246.42h-39.55a12,12,0,0,0,12.18,10.67c4.4,0,8.58-1.86,10.67-5.45l15.66,1.62c-4.76,11.37-14.73,16.71-26.57,16.71-15.89,0-27.83-11.72-27.83-28s11.71-28,27.6-28c14.62,0,27.84,9.52,27.84,31.79Zm-39.89-10.09h23.78a11.53,11.53,0,0,0-11.72-9.75A11.83,11.83,0,0,0,2470.42,236.33Z"/>
      <path class="cls-3" d="M2558.33,261.85c-2.65,4.4-8.92,8.12-16.58,8.12-14.62,0-25.75-11.72-25.75-28s11-28,25.63-28c8.12,0,14.27,3.72,16.94,8.24,0-1.74-.24-6.15-.24-10.09V187.38h15.08v81.19h-15.08ZM2531.54,242c0,8.12,5.57,14.62,13.57,14.62s13.58-6.5,13.58-14.62-5.57-14.5-13.58-14.5S2531.54,233.77,2531.54,242Z"/>
      <path class="cls-3" d="M2649.1,228.21l26.8,40.36H2657l-18-28.76-17.4,28.76H2603l26.44-41.06-25.29-40.13H2623l16.93,28.41,16.94-28.41h18.33Z"/>
      <path class="cls-3" d="M2726.1,209c-5-4.87-11.48-8.35-17.16-8.35-5.34,0-10.21,2.78-10.21,7.66,0,3.71,2.32,6.61,8.82,9.62l6.73,3.13c12.87,6,20.65,12.76,20.65,24.94s-10.34,24-28.19,24c-12.3,0-21.46-4.76-29.13-12.18l8.93-12.07c6,6.15,13.69,9.63,19.85,9.63,7,0,11.25-3.83,11.25-8.82,0-5.56-5-8.7-12.76-12.29l-5.68-2.67c-10.91-5.1-17.75-12.53-17.75-22.73,0-14.27,12.76-22.86,27.13-22.86,9.4,0,19,4.64,26.81,11.37Z"/>
      <path class="cls-3" d="M2789.18,209c-5-4.87-11.48-8.35-17.16-8.35-5.34,0-10.21,2.78-10.21,7.66,0,3.71,2.32,6.61,8.81,9.62l6.73,3.13c12.88,6,20.65,12.76,20.65,24.94s-10.33,24-28.19,24c-12.29,0-21.46-4.76-29.11-12.18l8.92-12.07c6,6.15,13.69,9.63,19.84,9.63,7,0,11.25-3.83,11.25-8.82,0-5.56-5-8.7-12.75-12.29l-5.69-2.67c-10.9-5.1-17.75-12.53-17.75-22.73,0-14.27,12.76-22.86,27.15-22.86,9.38,0,19,4.64,26.79,11.37Z"/>
    </g>
    <polyline class="cls-9" points="1279.94 1483.95 1317.49 1521.4 1280.04 1558.95"/>
    <line class="cls-9" x1="1315.97" y1="1521.41" x2="1051" y2="1521.68"/>
    <polyline class="cls-10" points="1905.35 1254.82 1931.15 1279.47 1905.4 1304.18"/>
    <line class="cls-10" x1="1930.11" y1="1279.47" x2="1873.4" y2="1279.65"/>
    <polyline class="cls-10" points="1816.33 1304.18 1790.51 1279.53 1816.27 1254.82"/>
    <line class="cls-10" x1="1791.57" y1="1279.53" x2="1848.28" y2="1279.35"/>
    <polyline class="cls-9" points="2448.76 1483.95 2486.3 1521.4 2448.84 1558.95"/>
    <line class="cls-9" x1="2484.77" y1="1521.41" x2="2219.8" y2="1521.68"/>
    <polyline class="cls-9" points="3752.28 1483.95 3789.84 1521.4 3752.38 1558.95"/>
    <line class="cls-9" x1="3788.31" y1="1521.41" x2="3346.82" y2="1521.68"/>
    <path class="cls-3" d="M548.39,2020H537.14l-4.5-14.32H516.82l-4.2,14.32H501.67l16.95-52.5h12.45Zm-23.62-41.25h-.15l-5.33,18H530Z"/>
    <path class="cls-3" d="M564.44,1972.59v13.05h7.43v8.25h-7.43v15.53c0,2.17,1.73,2.47,3.23,2.47,2.47,0,4.5-.22,4.5-.22V2020s-4.73.45-7.58.45c-4.87,0-9.9-.82-9.9-7.72V1993.9h-5.4v-8.25h5.4V1972.6Z"/>
    <path class="cls-3" d="M591,1972.59v13.05h7.42v8.25H591v15.53c0,2.17,1.72,2.47,3.22,2.47,2.48,0,4.5-.22,4.5-.22V2020s-4.72.45-7.57.45c-4.88,0-9.9-.82-9.9-7.72V1993.9h-5.4v-8.25h5.4V1972.6Z"/>
    <path class="cls-3" d="M624.14,1997.12c0-2.48-1.95-4-5.7-4-3.45,0-7.8,1.72-10.35,3.22l-3.82-7.35a29.4,29.4,0,0,1,14.7-4.2c7.8,0,14.92,3.6,14.92,12.68V2020h-9.75v-3.22c-1.8,2.7-5.7,4.12-9.6,4.12-7.27,0-12-5.17-12-10.8,0-6.52,4.8-10.57,12.45-10.57h6.75c1.65,0,2.4-.75,2.4-2Zm0,10.57v-2.47a4.23,4.23,0,0,1-3,.75h-3.67c-3.08,0-4.88,1.35-4.88,3.75s1.88,4,4.88,4C621,2013.77,624.14,2012,624.14,2007.69Z"/>
    <path class="cls-3" d="M649.49,2002.82c0,5.4,3.53,9.37,8.63,9.37a7.86,7.86,0,0,0,7.57-5.25l9.15,2.85c-2.25,6.83-9,11.1-16.8,11.1-10.2,0-18.3-7.57-18.3-18.07s8.1-18.08,18.3-18.08c7.8,0,14.55,4.35,16.8,11.18l-9.15,2.77a8,8,0,0,0-7.57-5.25C653,1993.44,649.49,1997.42,649.49,2002.82Z"/>
    <path class="cls-3" d="M690.29,1997.57h2.33l9.44-11.93h11.78l-13.28,15.75,13.65,18.6h-11.7l-9.89-14.17h-2.33V2020h-9.67v-52.5h9.67Z"/>
    <path class="cls-3" d="M750.59,2005.67H725a8.16,8.16,0,0,0,14.78,3.37l10.12,1c-3.07,7.35-9.52,10.8-17.17,10.8-10.27,0-18-7.57-18-18.07s7.57-18.08,17.85-18.08c9.45,0,18,6.15,18,20.55Zm-25.8-6.53h15.37a7.45,7.45,0,0,0-7.57-6.3A7.65,7.65,0,0,0,724.79,1999.14Z"/>
    <path class="cls-3" d="M777.44,1995.24h-4.13c-5,0-7.2,2.33-7.2,8.33V2020h-9.75v-34.35h9.45v5.48a9,9,0,0,1,8.93-5.93,11.24,11.24,0,0,1,2.7.3Z"/>
    <path class="cls-3" d="M1481.76,1981.44c-3.22-3.15-7.42-5.4-11.1-5.4-3.45,0-6.6,1.8-6.6,5,0,2.4,1.5,4.28,5.7,6.23l4.35,2c8.33,3.9,13.35,8.25,13.35,16.13s-6.67,15.52-18.22,15.52a25.87,25.87,0,0,1-18.83-7.87l5.78-7.8c3.9,4,8.85,6.22,12.82,6.22,4.5,0,7.28-2.47,7.28-5.7,0-3.6-3.23-5.62-8.25-8l-3.68-1.72c-7-3.3-11.47-8.1-11.47-14.7,0-9.23,8.25-14.78,17.55-14.78,6.07,0,12.3,3,17.32,7.35Z"/>
    <path class="cls-3" d="M1501.41,2002.82c0,5.4,3.53,9.37,8.63,9.37a7.84,7.84,0,0,0,7.56-5.25l9.16,2.85c-2.25,6.83-9,11.1-16.81,11.1-10.19,0-18.3-7.57-18.3-18.07s8.1-18.08,18.3-18.08c7.81,0,14.56,4.35,16.81,11.18l-9.16,2.77a8,8,0,0,0-7.56-5.25C1505,1993.44,1501.41,1997.42,1501.41,2002.82Z"/>
    <path class="cls-3" d="M1553.61,1995.24h-4.12c-5,0-7.2,2.33-7.2,8.33V2020h-9.75v-34.35H1542v5.48a9,9,0,0,1,8.92-5.93,11.24,11.24,0,0,1,2.7.3Z"/>
    <path class="cls-3" d="M1570.86,2020h-9.75v-26.1h-4.8v-8.25h14.55Zm-5.32-52.5a6.29,6.29,0,0,1,6.3,6.28h0v0a6.27,6.27,0,1,1-6.3-6.31Z"/>
    <path class="cls-3" d="M1589,2033.12h-9.75v-47.48H1589v1.65c0,1.65-.15,2.4-.15,2.78,1.65-2.93,5.7-5.33,10.88-5.33,9.44,0,16.64,7.58,16.64,18.08s-7.27,18.07-16.72,18.07c-4.87,0-8.92-2.32-10.65-5.25Zm-.22-30.3c0,5.25,3.6,9.45,8.77,9.45s8.77-4.2,8.77-9.45-3.6-9.38-8.77-9.38-8.73,4-8.73,9.38Z"/>
    <path class="cls-3" d="M1635,1972.59v13.05h7.43v8.25H1635v15.53c0,2.17,1.73,2.47,3.23,2.47,2.47,0,4.5-.22,4.5-.22V2020s-4.73.45-7.57.45c-4.88,0-9.9-.82-9.9-7.72V1993.9h-5.4v-8.25h5.4V1972.6Z"/>
    <path class="cls-3" d="M1646.46,1995.77h15.75V2004h-15.75Z"/>
    <path class="cls-3" d="M1669.19,1967.49h10.42V2020h-10.42Z"/>
    <path class="cls-3" d="M1709.16,1984.74c7.42,0,12.75,4.73,12.75,12.75V2020h-9.75v-20c0-4.35-2.78-6.15-5.85-6.15a9.48,9.48,0,0,0-7.28,3.9V2020h-9.75v-34.35h9.53V1987c0,1.2-.15,2.7-.15,2.7A13.51,13.51,0,0,1,1709.16,1984.74Z"/>
    <path class="cls-3" d="M1732,1993.89h-4.8v-8.25h14.55v39.23c0,7.5-6,8.32-10.88,8.32h-5.17v-8.25H1729c2,0,2.93-.45,2.93-2.17Zm4.42-26.4a6.29,6.29,0,0,1,6.3,6.28h0v0a6.26,6.26,0,1,1-6.31-6.3Z"/>
    <path class="cls-3" d="M1783.78,2005.67h-25.57A8.15,8.15,0,0,0,1773,2009l10.13,1c-3.08,7.35-9.53,10.8-17.18,10.8-10.27,0-18-7.57-18-18.07s7.57-18.08,17.85-18.08c9.44,0,18,6.15,18,20.55Zm-25.8-6.53h15.38a7.46,7.46,0,0,0-7.58-6.3,7.66,7.66,0,0,0-7.81,6.3Z"/>
    <path class="cls-3" d="M1797.13,2002.82c0,5.4,3.53,9.37,8.63,9.37a7.86,7.86,0,0,0,7.57-5.25l9.15,2.85c-2.25,6.83-9,11.1-16.8,11.1-10.2,0-18.3-7.57-18.3-18.07s8.09-18.08,18.3-18.08c7.8,0,14.55,4.35,16.8,11.18l-9.15,2.77a8,8,0,0,0-7.57-5.25C1800.66,1993.44,1797.13,1997.42,1797.13,2002.82Z"/>
    <path class="cls-3" d="M1840.56,1972.59v13.05H1848v8.25h-7.42v15.53c0,2.17,1.72,2.47,3.22,2.47,2.47,0,4.5-.22,4.5-.22V2020s-4.72.45-7.57.45c-4.88,0-9.9-.82-9.9-7.72V1993.9h-5.4v-8.25h5.4V1972.6Z"/>
    <path class="cls-3" d="M1888.41,2005.67h-25.58a8.16,8.16,0,0,0,14.78,3.37l10.12,1c-3.07,7.35-9.52,10.8-17.17,10.8-10.28,0-18-7.57-18-18.07s7.56-18.08,17.85-18.08c9.44,0,18,6.15,18,20.55Zm-25.81-6.53H1878a7.45,7.45,0,0,0-7.57-6.3,7.66,7.66,0,0,0-7.79,6.3Z"/>
    <path class="cls-3" d="M1919.45,2015.64c-1.72,2.85-5.77,5.25-10.72,5.25-9.45,0-16.65-7.57-16.65-18.07s7.13-18.08,16.58-18.08c5.25,0,9.22,2.4,10.93,5.33,0-1.13-.15-4-.15-6.53v-16h9.75V2020h-9.75Zm-17.32-12.82c0,5.25,3.6,9.45,8.78,9.45s8.77-4.2,8.77-9.45-3.6-9.38-8.77-9.38S1902.13,1997.49,1902.13,2002.82Z"/>
    <path class="cls-3" d="M1953.88,2020v-52.5h10.42v43.58h22.28V2020Z"/>
    <path class="cls-3" d="M2002.7,2020H1993v-26.1h-4.8v-8.25h14.54Zm-5.32-52.5a6.29,6.29,0,0,1,6.3,6.28h0v0a6.26,6.26,0,0,1-12.52,0h0a6.27,6.27,0,0,1,6.22-6.31Z"/>
    <path class="cls-3" d="M2031,1984.74c7.42,0,12.75,4.73,12.75,12.75V2020H2034v-20c0-4.35-2.78-6.15-5.85-6.15a9.48,9.48,0,0,0-7.28,3.9V2020h-9.74v-34.35h9.52V1987c0,1.2-.15,2.7-.15,2.7A13.51,13.51,0,0,1,2031,1984.74Z"/>
    <path class="cls-3" d="M2061.43,1997.57h2.31l9.45-11.93H2085l-13.28,15.75,13.65,18.6h-11.7l-9.9-14.17h-2.32V2020h-9.68v-52.5h9.68Z"/>
    <path class="cls-3" d="M2798.54,1967.49h11.55l11.93,38.93h.07l12.53-38.93h10.87l-17.77,52.5h-11.33Z"/>
    <path class="cls-3" d="M2861.24,2020h-9.75v-26.1h-4.8v-8.25h14.55Zm-5.32-52.5a6.29,6.29,0,0,1,6.3,6.28h0v0a6.27,6.27,0,1,1-6.28-6.31h0Z"/>
    <path class="cls-3" d="M2877.22,2002.82c0,5.4,3.52,9.37,8.62,9.37a7.87,7.87,0,0,0,7.58-5.25l9.15,2.85c-2.25,6.83-9,11.1-16.8,11.1-10.2,0-18.3-7.57-18.3-18.07s8.1-18.08,18.3-18.08c7.8,0,14.55,4.35,16.8,11.18l-9.15,2.77a8,8,0,0,0-7.58-5.25C2880.74,1993.44,2877.22,1997.42,2877.22,2002.82Z"/>
    <path class="cls-3" d="M2920.64,1972.59v13.05h7.42v8.25h-7.42v15.53c0,2.17,1.72,2.47,3.22,2.47,2.47,0,4.5-.22,4.5-.22V2020s-4.72.45-7.58.45c-4.87,0-9.89-.82-9.89-7.72V1993.9h-5.4v-8.25h5.4V1972.6Z"/>
    <path class="cls-3" d="M2946.59,2020h-9.75v-26.1H2932v-8.25h14.55Zm-5.32-52.5a6.29,6.29,0,0,1,6.3,6.28h0v0a6.27,6.27,0,1,1-6.3-6.31Z"/>
    <path class="cls-3" d="M3000.14,1999.82c0-4.2-2.7-6-5.7-6-2.78,0-5.25,1.57-7.13,3.9V2020h-9.75v-20.17c0-4.13-2.62-6-5.69-6-2.78,0-5.25,1.57-7.13,3.9V2020H2955v-34.35h9.53V1987c0,1.2-.15,2.7-.15,2.7a13.24,13.24,0,0,1,10.27-5c5.1,0,9.07,2.18,11,6.23a13.78,13.78,0,0,1,11.55-6.23c7.43,0,12.68,4.73,12.68,12.75V2020h-9.75Z"/>
    <path class="cls-3" d="M3962.4,2020v-52.5h10.42v43.58h22.27V2020Z"/>
    <path class="cls-3" d="M4033.88,2005.67h-25.59a8.16,8.16,0,0,0,14.78,3.37l10.13,1c-3.08,7.35-9.52,10.8-17.17,10.8-10.28,0-18-7.57-18-18.07s7.57-18.08,17.85-18.08c9.45,0,18,6.15,18,20.55Zm-25.81-6.53h15.38a7.46,7.46,0,0,0-7.57-6.3A7.67,7.67,0,0,0,4008.07,1999.14Z"/>
    <path class="cls-3" d="M4074.45,1985.64v36.9c0,5.4-2.7,10.58-11,10.58h-14.93v-8.25h12.53c1.72,0,3.67-.45,3.67-3.08v-6.6c-1.65,2.78-5.77,5.18-10.65,5.18-9.3,0-16.5-7-16.5-17.78s7.13-17.85,16.43-17.85c5.17,0,9.15,2.4,10.87,5.33,0-.38-.15-1-.15-2.85v-1.58ZM4056.23,2012c5.17,0,8.7-3.83,8.7-9.38s-3.53-9.45-8.7-9.45-8.63,3.83-8.63,9.45S4051.12,2012,4056.23,2012Z"/>
    <path class="cls-3" d="M4094.62,2020h-9.74v-26.1h-4.81v-8.25h14.55Zm-5.33-52.5a6.28,6.28,0,0,1,6.3,6.28h0v0a6.26,6.26,0,0,1-12.52,0h0a6.28,6.28,0,0,1,6.22-6.31Z"/>
    <path class="cls-3" d="M4115.33,1972.59v13.05h7.42v8.25h-7.42v15.53c0,2.17,1.72,2.47,3.22,2.47,2.47,0,4.5-.22,4.5-.22V2020s-4.72.45-7.57.45c-4.88,0-9.9-.82-9.9-7.72V1993.9h-5.4v-8.25h5.4V1972.6Z"/>
    <path class="cls-3" d="M4141.27,2020h-9.74v-26.1h-4.8v-8.25h14.54Zm-5.32-52.5a6.29,6.29,0,0,1,6.3,6.28h0v0a6.26,6.26,0,0,1-12.52,0h0a6.26,6.26,0,0,1,6.22-6.31h0Z"/>
    <path class="cls-3" d="M4194.82,1999.82c0-4.2-2.71-6-5.71-6a9.33,9.33,0,0,0-7.12,3.9V2020h-9.75v-20.17c0-4.13-2.63-6-5.7-6a9.31,9.31,0,0,0-7.12,3.9V2020h-9.75v-34.35h9.53V1987c0,1.2-.15,2.7-.15,2.7a13.28,13.28,0,0,1,10.27-5c5.1,0,9.08,2.18,11,6.23a13.77,13.77,0,0,1,11.54-6.23c7.42,0,12.67,4.73,12.67,12.75V2020h-9.75Z"/>
    <path class="cls-3" d="M4231.65,1997.12c0-2.48-2-4-5.7-4-3.46,0-7.8,1.72-10.36,3.22l-3.83-7.35a29.47,29.47,0,0,1,14.71-4.2c7.79,0,14.93,3.6,14.93,12.68V2020h-9.75v-3.22c-1.8,2.7-5.7,4.12-9.6,4.12-7.28,0-12-5.17-12-10.8,0-6.52,4.79-10.57,12.45-10.57h6.75c1.65,0,2.4-.75,2.4-2Zm0,10.57v-2.47a4.23,4.23,0,0,1-3,.75H4225c-3.07,0-4.88,1.35-4.88,3.75s1.88,4,4.88,4C4228.49,2013.77,4231.65,2012,4231.65,2007.69Z"/>
    <path class="cls-3" d="M4261.72,1972.59v13.05h7.43v8.25h-7.43v15.53c0,2.17,1.73,2.47,3.23,2.47,2.47,0,4.5-.22,4.5-.22V2020s-4.73.45-7.59.45c-4.87,0-9.89-.82-9.89-7.72V1993.9h-5.4v-8.25h5.4V1972.6Z"/>
    <path class="cls-3" d="M4309.57,2005.67H4284a8.15,8.15,0,0,0,14.77,3.37l10.12,1c-3.08,7.35-9.52,10.8-17.18,10.8-10.27,0-18-7.57-18-18.07s7.58-18.08,17.85-18.08c9.46,0,18,6.15,18,20.55Zm-25.8-6.53h15.38a7.46,7.46,0,0,0-7.58-6.3A7.66,7.66,0,0,0,4283.77,1999.14Z"/>
    <path class="cls-3" d="M4365.9,1967.49l10,37.58h.07l8.39-37.58H4395L4382.2,2020h-12l-9.9-37.72L4350.6,2020h-12.08l-13-52.5h11.25l8.1,37.58h.07l10.05-37.58Z"/>
    <path class="cls-3" d="M4431.3,2005.67h-25.58a8.15,8.15,0,0,0,14.77,3.37l10.12,1c-3.06,7.35-9.52,10.8-17.16,10.8-10.28,0-18-7.57-18-18.07s7.56-18.08,17.85-18.08c9.45,0,18,6.15,18,20.55Zm-25.8-6.53h15.37a7.44,7.44,0,0,0-7.57-6.3,7.65,7.65,0,0,0-7.8,6.3Z"/>
    <path class="cls-3" d="M4446.82,2020h-9.75v-52.5h9.75v17c0,2.25-.15,4.65-.15,5.63,1.65-2.93,5.7-5.33,10.88-5.33,9.45,0,16.65,7.58,16.65,18.08s-7.28,18.07-16.73,18.07c-4.88,0-8.92-2.32-10.65-5.25Zm-.23-17.17c0,5.25,3.61,9.45,8.77,9.45s8.78-4.2,8.78-9.45-3.6-9.38-8.78-9.38-8.77,4-8.77,9.37Z"/>
    <path class="cls-3" d="M4500.74,1996.14a12.52,12.52,0,0,0-8.48-3.52c-2.54,0-3.45,1.27-3.45,2.32,0,1.2.75,2,2.55,2.63l5.7,1.8c7,2.32,9.45,6.15,9.45,10.65,0,5-4.27,10.87-13.65,10.87a22.16,22.16,0,0,1-15.15-5.4l5.18-6.75A17,17,0,0,0,4493,2013c2.33,0,3.75-1.2,3.75-2.55,0-1.73-1.12-2.48-3.9-3.3l-5.85-1.73c-5.55-1.8-7.95-5.55-7.95-10,0-5.62,5.1-10.65,13.35-10.65a20.47,20.47,0,0,1,13.88,5.1Z"/>
    <path class="cls-3" d="M4524.51,2020h-9.75v-26.1H4510v-8.25h14.54Zm-5.31-52.5a6.28,6.28,0,0,1,6.29,6.28v0a6.26,6.26,0,1,1-6.29-6.31Z"/>
    <path class="cls-3" d="M4545.22,1972.59v13.05h7.43v8.25h-7.43v15.53c0,2.17,1.73,2.47,3.23,2.47,2.47,0,4.5-.22,4.5-.22V2020s-4.73.45-7.59.45c-4.87,0-9.89-.82-9.89-7.72V1993.9h-5.4v-8.25h5.4V1972.6Z"/>
    <path class="cls-3" d="M4593.07,2005.67H4567.5a8.15,8.15,0,0,0,14.77,3.37l10.13,1c-3.08,7.35-9.53,10.8-17.18,10.8-10.27,0-18-7.57-18-18.07s7.58-18.08,17.85-18.08c9.45,0,18,6.15,18,20.55Zm-25.8-6.53h15.38a7.46,7.46,0,0,0-7.58-6.3A7.66,7.66,0,0,0,4567.27,1999.14Z"/>
    <line class="cls-9" x1="4747.59" y1="2149.32" x2="122.74" y2="2149.32"/>
    <rect class="cls-4" x="3909.25" y="1233.25" width="729.62" height="595.71"/>
    <rect class="cls-5" x="3909.08" y="1228.46" width="729.79" height="103"/>
    <ellipse class="cls-6" cx="4034.96" cy="1278.16" rx="22.71" ry="23.23"/>
    <ellipse class="cls-7" cx="4098.11" cy="1278.16" rx="22.71" ry="23.23"/>
    <ellipse class="cls-8" cx="3967.97" cy="1278.16" rx="22.71" ry="23.23"/>
    <rect class="cls-11" x="329.33" y="1229.32" width="630" height="442"/>
    <polygon class="cls-11" points="1033.33 1790.14 245.32 1790.14 329.32 1671.33 959.33 1671.33 1033.33 1790.14"/>
    <rect class="cls-12" x="362.33" y="1259.49" width="565" height="381.66"/>
    <rect class="cls-11" x="245.33" y="1790.14" width="788" height="34.18"/>
    <polygon class="cls-13" points="946.33 1751.33 341.32 1751.33 379.32 1686.33 910.33 1686.33 946.33 1751.33"/>
    <line class="cls-10" x1="643.33" y1="1686.32" x2="643.33" y2="1751.32"/>
    <line class="cls-10" x1="811.33" y1="1686.32" x2="826.33" y2="1751.32"/>
    <line class="cls-10" x1="762.33" y1="1686.32" x2="770.33" y2="1751.32"/>
    <line class="cls-10" x1="703.33" y1="1686.32" x2="707.33" y2="1751.32"/>
    <line class="cls-10" x1="860.33" y1="1686.32" x2="885.33" y2="1751.32"/>
    <line class="cls-10" x1="477.33" y1="1686.32" x2="462.33" y2="1751.32"/>
    <line class="cls-10" x1="526.33" y1="1686.32" x2="518.33" y2="1751.32"/>
    <line class="cls-10" x1="585.33" y1="1686.32" x2="581.33" y2="1751.32"/>
    <line class="cls-10" x1="428.33" y1="1686.32" x2="403.33" y2="1751.32"/>
    <line class="cls-10" x1="374.33" y1="1698.32" x2="914.33" y2="1698.32"/>
    <line class="cls-10" x1="364.33" y1="1713.32" x2="924.33" y2="1713.32"/>
    <line class="cls-10" x1="354.33" y1="1730.32" x2="933.33" y2="1730.32"/>
    <polygon class="cls-10" points="834.33 1780.38 455.32 1780.38 460.32 1760.27 829.25 1760.27 834.33 1780.38"/>
    <path class="cls-10" d="M552.31,1533.51a134.09,134.09,0,0,0,189.63.11h0l.11-.11"/>
    <circle class="cls-14" cx="563.87" cy="1407.31" r="17.32"/>
    <circle class="cls-14" cx="729.66" cy="1407.31" r="17.32"/>
    <line class="cls-10" x1="728.18" y1="1323.87" x2="664.05" y2="1388"/>
    <line class="cls-10" x1="572.57" y1="1323.87" x2="636.7" y2="1388"/>
    <rect class="cls-11" x="2596.34" y="1229.32" width="630" height="442"/>
    <polygon class="cls-11" points="3300.34 1790.14 2512.34 1790.14 2596.34 1671.33 3226.34 1671.33 3300.34 1790.14"/>
    <rect class="cls-7" x="2629.34" y="1259.49" width="565" height="381.66"/>
    <rect class="cls-11" x="2512.34" y="1790.14" width="788" height="34.18"/>
    <polygon class="cls-13" points="3213.34 1751.33 2608.34 1751.33 2646.34 1686.33 3177.34 1686.33 3213.34 1751.33"/>
    <line class="cls-10" x1="2910.34" y1="1686.32" x2="2910.34" y2="1751.32"/>
    <line class="cls-10" x1="3078.34" y1="1686.32" x2="3093.34" y2="1751.32"/>
    <line class="cls-10" x1="3029.34" y1="1686.32" x2="3037.34" y2="1751.32"/>
    <line class="cls-10" x1="2970.34" y1="1686.32" x2="2974.34" y2="1751.32"/>
    <line class="cls-10" x1="3127.34" y1="1686.32" x2="3152.34" y2="1751.32"/>
    <line class="cls-10" x1="2744.34" y1="1686.32" x2="2729.34" y2="1751.32"/>
    <line class="cls-10" x1="2793.34" y1="1686.32" x2="2785.34" y2="1751.32"/>
    <line class="cls-10" x1="2852.34" y1="1686.32" x2="2848.34" y2="1751.32"/>
    <line class="cls-10" x1="2695.34" y1="1686.32" x2="2670.34" y2="1751.32"/>
    <line class="cls-10" x1="2641.34" y1="1698.32" x2="3181.34" y2="1698.32"/>
    <line class="cls-10" x1="2631.34" y1="1713.32" x2="3191.34" y2="1713.32"/>
    <line class="cls-10" x1="2621.34" y1="1730.32" x2="3200.34" y2="1730.32"/>
    <polygon class="cls-10" points="3101.34 1780.38 2722.34 1780.38 2727.34 1760.27 3096.28 1760.27 3101.34 1780.38"/>
    <path class="cls-10" d="M2816,1512.74a142.09,142.09,0,0,0,201,.13h0l.12-.13"/>
    <circle class="cls-14" cx="2828.2" cy="1379" r="18.36"/>
    <circle class="cls-14" cx="3003.91" cy="1379" r="18.36"/>
    <path class="cls-7" d="M2172.88,1615.37l23.92-5.06a3.74,3.74,0,0,0,2.87-4.42,3.69,3.69,0,0,0-4.32-2.91h0l-25.78,5.44"/>
    <path class="cls-7" d="M2173.4,1611.64l-.72-24.8a3.69,3.69,0,1,0-7.38-.07h0c0,.09,0,.19,0,.3l.78,26.7"/>
    <ellipse class="cls-15" cx="2163.21" cy="1622.78" rx="21.81" ry="22.29" transform="translate(-540.45 1678.65) rotate(-38.06)"/>
    <path class="cls-7" d="M2168.78,1681.7a4.73,4.73,0,0,1,3.75-2.18l35.48-1.67,17.25-26.72a4.72,4.72,0,0,1,6.52-1.42h0l0,0a4.87,4.87,0,0,1,1.37,6.67l-18.58,28.77a4.75,4.75,0,0,1-3.75,2.17l-37.9,1.79a4.76,4.76,0,0,1-5-4.53h0v0A4.77,4.77,0,0,1,2168.78,1681.7Z"/>
    <path class="cls-7" d="M2154.07,1697.61h0a4.7,4.7,0,0,1,6.5-1.36h0l.09.06,31.61,21.66a4.88,4.88,0,0,1,1.32,6.63l-33.11,51.25a4.7,4.7,0,0,1-6.49,1.44l-.08,0a4.85,4.85,0,0,1-1.36-6.67l30.53-47.27-27.73-19A4.86,4.86,0,0,1,2154.07,1697.61Z"/>
    <path class="cls-7" d="M2092,1782.93a4.7,4.7,0,0,1,4.4-2.15c10.09.92,20.45-1.64,30.79-7.61a70.33,70.33,0,0,0,11.41-8.2l-1.23-34a4.74,4.74,0,0,1,9.48-.36l1.32,36.22a4.84,4.84,0,0,1-1.38,3.56,73.22,73.22,0,0,1-14.65,11c-12,7-24.63,10.07-36.6,9a4.84,4.84,0,0,1-3.54-7.46Z"/>
    <path class="cls-7" d="M2106.27,1640.13a4.89,4.89,0,0,0,.47-4.35l-12.64-33.67,17.25-26.72a4.86,4.86,0,0,0-1.36-6.66,4.7,4.7,0,0,0-6.52,1.3.35.35,0,0,0,0,.08l-18.59,28.77a4.84,4.84,0,0,0-.46,4.36l13.5,36a4.71,4.71,0,0,0,6,2.83,4.77,4.77,0,0,0,2.37-1.9Z"/>
    <path class="cls-7" d="M2097.76,1660.17v-.05a4.87,4.87,0,0,0-1.46-6.65l-32.19-20.76a4.72,4.72,0,0,0-6.52,1.41h0l-33.1,51.25a4.84,4.84,0,0,0,1.37,6.67,4.72,4.72,0,0,0,6.53-1.34l0,0,30.53-47.28,28.24,18.22a4.7,4.7,0,0,0,6.51-1.37h0Z"/>
    <path class="cls-7" d="M2045.43,1752a4.9,4.9,0,0,0,.19-5c-4.86-9-6.68-19.67-5.43-31.68a73.05,73.05,0,0,1,2.86-13.89l31.22-12.43a4.84,4.84,0,0,0,2.69-6.24,4.71,4.71,0,0,0-6.07-2.76h0l-.08,0-33.25,13.24a4.84,4.84,0,0,0-2.68,2.7,77.16,77.16,0,0,0-4.09,18c-1.52,13.93.73,26.94,6.5,37.64a4.71,4.71,0,0,0,6.37,2l.07,0A4.89,4.89,0,0,0,2045.43,1752Z"/>
    <path class="cls-7" d="M2060.82,1691.59a49.84,49.84,0,0,0,14,68.42,48.26,48.26,0,0,0,66.93-13.47c.17-.25.34-.51.5-.77l38.29-59.28c14.75-22.83,10.87-57.19-11.63-72.15s-55.11-4.86-69.85,18Z"/>
    <line class="cls-14" x1="2183.02" y1="1682.16" x2="2101.05" y2="1627.66"/>
    <line class="cls-10" x1="2075.78" y1="1759.94" x2="2143.18" y2="1655.59"/>
    <path class="cls-9" d="M2912.26,950.23C2396.2,556.85,1156.47,562.78,694.39,917"/>
    <polyline class="cls-9" points="745.59 924.34 692.83 918.91 698.25 866.15"/>
    <polyline class="cls-10" points="2012.91 1410.09 2033.38 1434.21 2063.78 1415.92"/>
    <polyline class="cls-10" points="2004.94 1418.86 2021.47 1446.34 1996.48 1468.65"/>
    <polyline class="cls-10" points="1998.1 1423.98 2000.4 1452.05 1971.91 1471.85"/>
    <polyline class="cls-10" points="2007.94 1401.82 1996.23 1372.44 2026.63 1354.16"/>
    <polyline class="cls-10" points="1996.46 1404.76 1979.93 1377.28 1948.52 1388.89"/>
    <polyline class="cls-10" points="1988.73 1408.41 1965.02 1393.21 1934.17 1409.11"/>
    <path class="cls-7" d="M1944.42,1424.47a18.73,18.73,0,1,0,19.31,32.1l11.67-7a18.73,18.73,0,0,0-19.31-32.1h0Z"/>
    <path class="cls-7" d="M1986.42,1404.84a13.9,13.9,0,0,0,14.32,23.83h0l15.82-9.51a13.9,13.9,0,0,0-14.33-23.83h0Z"/>
    <path class="cls-7" d="M2025.58,1378.85a5.83,5.83,0,0,0-6.15,3.06c-2.28,4.53-1.57,11.56,2.27,17.94s9.69,10.28,14.75,10.4a5.8,5.8,0,0,0,5.6-4l1.59-4.9a16.71,16.71,0,0,0-10.72-21,18.6,18.6,0,0,0-2.45-.59Z"/>
    <line class="cls-16" x1="1460.65" y1="1544.37" x2="1936.19" y2="1544.37"/>
    <line class="cls-10" x1="1460.65" y1="1393.96" x2="1840.75" y2="1393.96"/>
    <line class="cls-10" x1="1460.65" y1="1449.77" x2="1840.75" y2="1449.77"/>
    <line class="cls-10" x1="1460.65" y1="1599.07" x2="1929.49" y2="1599.07"/>
    <line class="cls-10" x1="1460.65" y1="1651.93" x2="1929.49" y2="1651.93"/>
    <line class="cls-10" x1="1460.65" y1="1707.35" x2="1929.49" y2="1707.35"/>
    <line class="cls-10" x1="1460.65" y1="1764.21" x2="1929.49" y2="1764.21"/>
    <path class="cls-17" d="M1483.23,1520.08l3.29-14h6.3l-5.6,21.52H1480l-3.76-13.44-3.86,13.44h-7.19l-5.26-21.52h6.58l2.87,13.81,4-13.81h6Z"/>
    <path class="cls-17" d="M1517.87,1520.08l3.29-14h6.3l-5.6,21.52h-7.23l-3.76-13.44-3.9,13.44h-7.19l-5.26-21.52h6.58l2.86,13.81,4-13.81h6Z"/>
    <path class="cls-17" d="M1552.51,1520.08l3.29-14h6.29l-5.59,21.52h-7.24l-3.76-13.44-3.85,13.44h-7.19l-5.26-21.52h6.58l2.86,13.81,4-13.81h6Z"/>
    <path class="cls-17" d="M1568.25,1520a4.09,4.09,0,1,1-4.09,4.09h0A4.09,4.09,0,0,1,1568.25,1520Z"/>
    <path class="cls-17" d="M1582,1516.84c0,3.38,2.21,5.87,5.4,5.87a4.94,4.94,0,0,0,4.75-3.29l5.73,1.79c-1.4,4.27-5.63,7-10.52,7a11.33,11.33,0,0,1-.68-22.65h.68c4.89,0,9.12,2.73,10.52,7l-5.73,1.74a5,5,0,0,0-4.75-3.29C1584.14,1511,1582,1513.45,1582,1516.84Z"/>
    <path class="cls-17" d="M1600.07,1516.84a11.52,11.52,0,1,1,11.71,11.32h-.2a11.2,11.2,0,0,1-11.51-10.88h0Zm6.11,0c0,3.33,2.21,5.87,5.41,5.87s5.35-2.54,5.35-5.87-2.2-5.88-5.35-5.88S1606.18,1513.45,1606.18,1516.84Z"/>
    <path class="cls-17" d="M1642.84,1524.87a7.87,7.87,0,0,1-6.72,3.29c-5.92,0-10.43-4.74-10.43-11.32s4.46-11.33,10.38-11.33c3.29,0,5.78,1.51,6.86,3.34,0-.71-.09-2.49-.09-4.09V1494.7H1649v32.9h-6.11Zm-10.86-8c0,3.29,2.26,5.92,5.5,5.92s5.5-2.63,5.5-5.92-2.25-5.88-5.5-5.88-5.51,2.51-5.51,5.85Z"/>
    <path class="cls-17" d="M1675.32,1518.62h-16a5.11,5.11,0,0,0,9.26,2.12l6.34.66c-1.93,4.6-6,6.76-10.76,6.76a11.33,11.33,0,0,1-.09-22.65c5.92,0,11.28,3.86,11.28,12.88Zm-16.17-4.09h9.63a4.66,4.66,0,0,0-4.74-3.94A4.78,4.78,0,0,0,1659.15,1514.53Z"/>
    <path class="cls-17" d="M1683.68,1516.84c0,3.38,2.21,5.87,5.41,5.87a4.93,4.93,0,0,0,4.74-3.29l5.74,1.79c-1.41,4.27-5.64,7-10.53,7a11.33,11.33,0,0,1-.68-22.65h.68c4.89,0,9.12,2.73,10.53,7l-5.74,1.74a5,5,0,0,0-4.74-3.29C1685.89,1511,1683.68,1513.45,1683.68,1516.84Z"/>
    <path class="cls-17" d="M1715.13,1513.27c0-1.56-1.23-2.54-3.58-2.54a14.54,14.54,0,0,0-6.48,2l-2.4-4.61a18.45,18.45,0,0,1,9.21-2.63c4.89,0,9.36,2.26,9.36,7.94v14.15h-6.11v-2c-1.13,1.69-3.58,2.58-6,2.58-4.56,0-7.52-3.24-7.52-6.76,0-4.09,3-6.63,7.8-6.63h4.23c1,0,1.51-.47,1.51-1.27Zm0,6.62v-1.55a2.63,2.63,0,0,1-1.88.47H1711c-1.92,0-3,.85-3,2.35s1.17,2.54,3,2.54C1713.15,1523.7,1715.13,1522.57,1715.13,1519.89Z"/>
    <path class="cls-17" d="M1742.1,1524.87a7.87,7.87,0,0,1-6.72,3.29c-5.92,0-10.43-4.74-10.43-11.32s4.46-11.33,10.39-11.33c3.29,0,5.78,1.51,6.86,3.34,0-.71-.1-2.49-.1-4.09V1494.7h6.11v32.9h-6.11Zm-10.85-8c0,3.29,2.25,5.92,5.5,5.92s5.49-2.63,5.49-5.92-2.25-5.88-5.49-5.88-5.5,2.51-5.5,5.85Z"/>
    <path class="cls-17" d="M1774.58,1518.62h-16a5.11,5.11,0,0,0,9.26,2.12l6.35.66c-1.93,4.6-6,6.76-10.77,6.76a11.33,11.33,0,0,1-.09-22.65c5.92,0,11.28,3.86,11.28,12.88Zm-16.17-4.09h9.64a4.67,4.67,0,0,0-4.75-3.94A4.79,4.79,0,0,0,1758.41,1514.53Z"/>
    <path class="cls-17" d="M1806.49,1515a3.41,3.41,0,0,0-3-3.75,3.37,3.37,0,0,0-.55,0,5.86,5.86,0,0,0-4.47,2.44v14h-6.1V1515a3.42,3.42,0,0,0-3-3.75,3.25,3.25,0,0,0-.54,0,5.82,5.82,0,0,0-4.46,2.44v14h-6.11v-21.52h6v.84c0,.75-.1,1.69-.1,1.69a8.33,8.33,0,0,1,6.44-3.1c3.2,0,5.69,1.36,6.91,3.9a8.65,8.65,0,0,1,7.24-3.9c4.65,0,7.94,3,7.94,8v14.1h-6.11Z"/>
    <path class="cls-17" d="M1824.12,1527.6h-1.55l-7.38-21.52H1822l4.56,15.32,4.61-15.32h6.62l-8.6,24.9c-1.08,3.15-2.77,4.84-6.72,4.84h-4.23v-5.12h3a2.26,2.26,0,0,0,2.4-1.69Z"/>
    <path class="cls-17" d="M1843.15,1520a4.09,4.09,0,1,1-4.09,4.09h0A4.09,4.09,0,0,1,1843.15,1520Z"/>
    <path class="cls-17" d="M1856.83,1516.84c0,3.38,2.21,5.87,5.4,5.87a4.94,4.94,0,0,0,4.75-3.29l5.73,1.79c-1.41,4.27-5.64,7-10.52,7a11.33,11.33,0,0,1-.68-22.65h.68c4.88,0,9.11,2.73,10.52,7l-5.73,1.74a5,5,0,0,0-4.75-3.29C1859,1511,1856.83,1513.45,1856.83,1516.84Z"/>
    <path class="cls-17" d="M1875,1516.84a11.52,11.52,0,1,1,11.71,11.32h-.2a11.19,11.19,0,0,1-11.51-10.87h0Zm6.11,0c0,3.33,2.21,5.87,5.41,5.87s5.35-2.54,5.35-5.87-2.21-5.88-5.35-5.88S1881.08,1513.45,1881.08,1516.84Z"/>
    <path class="cls-17" d="M1930.19,1515a3.41,3.41,0,0,0-3-3.75,3.37,3.37,0,0,0-.55,0,5.82,5.82,0,0,0-4.46,2.44v14h-6.11V1515a3.43,3.43,0,0,0-3-3.75,4.73,4.73,0,0,0-.53,0,5.86,5.86,0,0,0-4.47,2.44v14h-6.11v-21.52h6v.84c0,.75-.09,1.69-.09,1.69a8.28,8.28,0,0,1,6.43-3.1c3.2,0,5.69,1.36,6.91,3.9a8.65,8.65,0,0,1,7.24-3.9c4.65,0,7.94,3,7.94,8v14.1h-6.11Z"/>
    <rect class="cls-5" x="1680.35" y="1254.48" width="70.93" height="48.71"/>
    <polyline class="cls-10" points="1681.3 1255.07 1716.28 1281.86 1751.28 1254.48"/>
    <g class="cls-18">
      <g>
        <path class="cls-19" d="M4004.88,1461.11c-1.09-3.28-1.62-7.42-1.62-13s.53-9.71,1.62-13c3-9.38,11-14.51,21.51-14.51,7.78,0,13.93,3.16,18,8.19a1.06,1.06,0,0,1-.09,1.5h0l0,0-6.81,6a1,1,0,0,1-1.41-.08h0a1.47,1.47,0,0,1-.1-.13c-2.6-2.95-5.3-4.59-9.62-4.59-4.65,0-8.21,2.29-9.73,6.88-.86,2.62-1.08,5.68-1.08,9.71s.22,7.21,1.08,9.83c1.52,4.47,5.08,6.76,9.73,6.76,4.32,0,7-1.64,9.62-4.58a1,1,0,0,1,1.4-.2l.11.09,6.81,6c.54.44.43,1,.11,1.53a22.84,22.84,0,0,1-18,8.07c-10.48,0-18.49-5.13-21.51-14.51"/>
        <path class="cls-19" d="M4241,1461.11a41.81,41.81,0,0,1-1.62-13c0-5.58.53-9.71,1.62-13,3-9.38,11-14.51,21.5-14.51,7.78,0,14,3.16,18.05,8.19a1,1,0,0,1-.06,1.48l-.05,0-6.81,6a1,1,0,0,1-1.41-.08h0a1.47,1.47,0,0,1-.1-.13c-2.59-2.95-5.3-4.59-9.62-4.59-4.64,0-8.21,2.29-9.72,6.88-.87,2.62-1.08,5.68-1.08,9.71s.21,7.21,1.08,9.83c1.51,4.47,5.08,6.76,9.72,6.76,4.32,0,7-1.64,9.62-4.58a1,1,0,0,1,1.4-.21h0l.11.1,6.81,6c.55.44.43,1,.11,1.53a22.83,22.83,0,0,1-18.05,8.07c-10.48,0-18.48-5.13-21.5-14.51"/>
        <path class="cls-19" d="M4514,1474.43a1,1,0,0,1-1.09-.91h0V1443c0-6.76-3.35-11.46-9.84-11.46-6.26,0-9.93,4.7-9.93,11.46v30.34a1,1,0,0,1-.89,1.1h-10.14a1,1,0,0,1-1.08-.91h0a.61.61,0,0,1,0-.19V1443c0-6.76-3.35-11.46-9.83-11.46-6.27,0-9.95,4.7-9.95,11.46v30.34a1,1,0,0,1-.89,1.1H4450.2a1,1,0,0,1-1.08-.91h0a.61.61,0,0,1,0-.19v-50.42a1,1,0,0,1,.9-1.09h10.12a1,1,0,0,1,1.08.91h0v4h.11c2.28-3.28,6.81-6.11,13.73-6.11,6.16,0,11.13,2.51,14.26,7h.11c4-4.36,9.19-7,16.65-7,12.1,0,18.91,8.29,18.91,19.54v33.17a1,1,0,0,1-.89,1.1H4514Z"/>
        <path class="cls-19" d="M4540,1494.07a1,1,0,0,1-1.09-.91h0v-8.91a1,1,0,0,1,.9-1.1H4542c4.1,0,6.16-1.85,7.78-6.22l1.52-4.47-19-49.55c-.22-.66.22-1.09.87-1.09h10.7a1.35,1.35,0,0,1,1.29,1.09l11.78,34.38h.21l11.25-34.38a1.36,1.36,0,0,1,1.29-1.09h10.26c.66,0,1.09.43.87,1.09l-19.88,54.79c-4.54,12.44-8.86,16.37-17.51,16.37Z"/>
        <path class="cls-19" d="M4085.59,1457.84c.88-2.73,1.1-5.24,1.1-9.72s-.22-6.86-1.1-9.7a9.63,9.63,0,0,0-9.71-6.88,9.78,9.78,0,0,0-9.84,6.88c-.86,2.84-1.08,5.24-1.08,9.7s.22,7,1.08,9.72a9.77,9.77,0,0,0,9.84,6.87,9.61,9.61,0,0,0,9.71-6.87m-31.2,3.27a49.43,49.43,0,0,1,0-26c2.9-9.17,10.89-14.52,21.49-14.52s18.46,5.35,21.38,14.52a49.43,49.43,0,0,1,0,26c-2.92,9.17-10.91,14.51-21.38,14.51s-18.59-5.34-21.49-14.51"/>
        <path class="cls-19" d="M4309.53,1420.62c-8.54,0-14.27,2.07-18.48,5.13a1,1,0,0,0-.24,1.4h0l4,7.21a1,1,0,0,0,1.37.33l.15-.11c2.48-2,6-3.61,11.88-3.61,8.52,0,11.41,2.59,11.56,8.26v17.51c0,6-4.1,8.94-11.56,8.94-5.84,0-9-2.18-9-6.54,0-4.92,3.46-7.1,11.24-7.1h2.37a1,1,0,0,0,1.12-.86,1.21,1.21,0,0,0,0-.19v-7a1,1,0,0,0-.9-1.09h-4.49c-12.86,0-20.86,5.25-20.86,16.7,0,11,8,16,17.51,16,7.34,0,12.21-2.5,14.69-6.11h.11v3.82a1,1,0,0,0,.89,1.1h9.27a1,1,0,0,0,1.08-.91h0V1439c0-12.88-5.84-18.34-21.72-18.34"/>
        <path class="cls-19" d="M4180.42,1442.88a.43.43,0,0,0-.47.41h0v8.29a.44.44,0,0,0,.4.47h26.83a1.06,1.06,0,0,0,1.18-.92h0a.86.86,0,0,0,0-.16c0-8.52-.54-12.13-1.72-15.84-2.92-9-10.71-14.51-21.4-14.51-10.38,0-18.38,5.34-21.29,14.51a42.35,42.35,0,0,0-1.73,13,40.49,40.49,0,0,0,1.85,12.88c2.91,9.17,10.69,14.62,21.71,14.62,9.62,0,17-3.71,21.4-9a1,1,0,0,0,0-1.41l-.12-.11-6.37-5.68a1.12,1.12,0,0,0-1.63.22c-2.59,2.84-6.37,5-12.21,5s-9.94-2.84-11.66-8a12.94,12.94,0,0,1-.63-2.29,40.75,40.75,0,0,1-.62-7.56,45.14,45.14,0,0,1,.69-7.34v-.17h0a10.54,10.54,0,0,1,.43-1.65c1.4-4.26,5.29-6.77,10.25-6.77s8.75,2.51,10.17,6.77a13.88,13.88,0,0,1,.64,4.48.58.58,0,0,1-.48.65H4180.4Z"/>
        <path class="cls-19" d="M4152.18,1400.21h-9.93a1,1,0,0,0-1.08.91h0a.49.49,0,0,0,0,.17V1451h-.07a24.34,24.34,0,0,1-1,6.84c-1.39,4.35-4.75,6.75-9.7,6.75s-8.2-2.4-9.62-6.75c-.75-2.4-1.07-5-1.07-9.81s.32-7.41,1.07-9.8c1.38-4.28,4.63-6.69,9.32-6.78h4.23a.44.44,0,0,0,.36-.45l.05-10a.44.44,0,0,0-.4-.46H4127c-8.7.09-15.06,4.34-17.73,12.63-1.3,4-1.83,7.75-1.83,14.83s.53,10.79,1.83,14.82c2.7,8.39,9.17,12.64,18,12.64,7,0,11.33-2.61,13.81-6.21h.11v3.92a1,1,0,0,0,.9,1.09h10.1a1,1,0,0,0,1.08-.91h0a.54.54,0,0,0,0-.18v-71.93a1,1,0,0,0-.91-1.08h-.17"/>
        <path class="cls-19" d="M4412.39,1442.88a.46.46,0,0,0-.48.43h0v8.27a.45.45,0,0,0,.43.47h26.8a1.07,1.07,0,0,0,1.19-.92h0a.86.86,0,0,0,0-.16c0-8.52-.54-12.13-1.72-15.84-2.93-9-10.71-14.51-21.4-14.51-10.38,0-18.37,5.34-21.3,14.51a43,43,0,0,0-1.73,13A41.07,41.07,0,0,0,4396,1461c2.91,9.17,10.69,14.62,21.72,14.62,9.61,0,17-3.71,21.39-9a1,1,0,0,0,0-1.41.69.69,0,0,0-.13-.11l-6.37-5.68c-.54-.43-1.08-.32-1.62.22-2.59,2.84-6.38,5-12.21,5s-9.94-2.84-11.67-8a13.83,13.83,0,0,1-.62-2.29,41.7,41.7,0,0,1-.62-7.56,46.28,46.28,0,0,1,.68-7.34v-.17h0a11.73,11.73,0,0,1,.42-1.65c1.4-4.26,5.29-6.77,10.27-6.77s8.75,2.51,10.15,6.77a13.37,13.37,0,0,1,.65,4.48.58.58,0,0,1-.5.65h-15.24Z"/>
        <path class="cls-19" d="M4384.66,1400.21h-9.94a1,1,0,0,0-1.09.91h0v50h-.05a24.71,24.71,0,0,1-1,6.84c-1.4,4.37-4.76,6.77-9.72,6.77s-8.22-2.4-9.63-6.77c-.75-2.4-1.07-5-1.07-9.82s.32-7.42,1.07-9.82c1.39-4.27,4.63-6.67,9.33-6.76h4.24a1,1,0,0,0,1.09-.9.61.61,0,0,0,0-.19v-8.74a1,1,0,0,0-.9-1.09h-7.56c-8.71.09-15.09,4.34-17.76,12.66-1.3,4-1.83,7.75-1.83,14.84s.53,10.81,1.83,14.84c2.7,8.41,9.19,12.66,18,12.66,7,0,11.36-2.61,13.84-6.22h.1v3.93a1,1,0,0,0,.9,1.09h10.12a1,1,0,0,0,1.09-.9.61.61,0,0,0,0-.19v-72a1,1,0,0,0-.9-1.09h-.19"/>
        <path class="cls-19" d="M4240.2,1489.31v9.94a1,1,0,0,0,.9,1.09h37a1,1,0,0,0,1.08-.9.61.61,0,0,0,0-.19v-9.94a1,1,0,0,0-.91-1.08h-37a1,1,0,0,0-1.08.9.54.54,0,0,0,0,.18"/>
        <path class="cls-19" d="M3993.72,1488.22h-.39a1,1,0,0,1-.63-1V1387.3a1,1,0,0,1,.62-1H4218.4a1,1,0,0,1,.61,1v99.85a1,1,0,0,1-.61,1H4218Zm237.12-113.76h0a1.06,1.06,0,0,0-.77-.29H3981.23a1,1,0,0,0-.63,1h0v124h0a1,1,0,0,0,.4.86h0a1.16,1.16,0,0,0,.62.17H4230a1,1,0,0,0,.85-.38,1.12,1.12,0,0,0,.24-.7h0v-124h0a1.12,1.12,0,0,0-.26-.73"/>
      </g>
    </g>
    <polygon class="cls-20" points="4201.88 1775.77 3982.78 1775.77 4201.88 1551.11 4201.88 1775.77"/>
    <circle class="cls-21" cx="4098.08" cy="1659.45" r="79.51"/>
    <rect class="cls-22" x="3979.61" y="1593.63" width="98.58" height="24.05"/>
    <rect class="cls-22" x="3979.61" y="1634.87" width="98.58" height="24.05"/>
    <rect class="cls-22" x="3979.61" y="1550.26" width="98.58" height="24.05"/>
    <rect class="cls-5" x="4278.91" y="1550.51" width="303.07" height="51.85"/>
    <rect class="cls-5" x="4278.91" y="1642.31" width="303.07" height="51.85"/>
    <rect class="cls-21" x="4278.91" y="1729.73" width="178.27" height="51.85"/>
    <polyline class="cls-10" points="1674.42 1756.25 1676.98 1730.02 1648.41 1722.44"/>
    <polyline class="cls-10" points="1684.3 1755.94 1691.14 1730.11 1718.99 1732.12"/>
    <polyline class="cls-10" points="1691.34 1757.07 1706.79 1739.4 1735.14 1744.97"/>
    <polyline class="cls-10" points="1672.37 1764.02 1661.59 1788.07 1633.02 1780.49"/>
    <polyline class="cls-10" points="1680.79 1769.19 1673.92 1795.01 1699.11 1807.08"/>
    <polyline class="cls-10" points="1687.45 1771.69 1692.12 1794.7 1719.51 1803.93"/>
    <path class="cls-7" d="M1722.77,1788.89a15.6,15.6,0,1,0,8-30.16l-11-2.91a15.6,15.6,0,0,0-8,30.16Z"/>
    <path class="cls-7" d="M1686.66,1775.15a11.59,11.59,0,0,0,6-22.39l-14.86-3.94a11.58,11.58,0,1,0-5.94,22.39h0Z"/>
    <path class="cls-7" d="M1648.41,1766.8a4.83,4.83,0,0,0,5.39,1.9c4-1.26,7.81-5.76,9.42-11.76s.53-11.75-2.33-14.85a4.85,4.85,0,0,0-5.67-1l-3.86,1.89a13.9,13.9,0,0,0-6.38,18.61,13.34,13.34,0,0,0,1.07,1.82Z"/>
    <rect class="cls-23" x="3338.35" y="1227.27" width="465" height="180.95"/>
    <circle class="cls-24" cx="3429.07" cy="1317.05" r="72.27"/>
    <g class="cls-25">
      <g>
        <polygon class="cls-26" points="3447.09 1365.93 3412.88 1365.35 3414.11 1352.01 3415.36 1341 3444.05 1340.61 3445.8 1352.11 3447.09 1365.93"/>
        <path class="cls-27" d="M3454.42,1426.22h-45.27v-69S3420,1361,3430.7,1361a88.34,88.34,0,0,0,23.72-3.76Z"/>
        <path class="cls-27" d="M3454.42,1428.53h-45.27v-65.64S3420,1367,3430.7,1367a82.18,82.18,0,0,0,23.72-4.08Z"/>
        <path class="cls-26" d="M3455.62,1299.53a7.91,7.91,0,0,1,8.22-.87c3.24,1.56,3.63,5.08,2.07,9,0,0,3.59,11.25-5.35,11.24-8.55,0-6.86-5.21-6.86-5.21"/>
        <path class="cls-28" d="M3457.26,1315.07s-.32-2.28,1.56-2.52a2.31,2.31,0,0,1,2.42,1.91s3-.29,2.2-4.66"/>
        <path class="cls-28" d="M3457.75,1301.93s6.65-2.11,5.54,4.48"/>
        <line class="cls-29" x1="3460.66" y1="1305.29" x2="3458.25" y2="1310.53"/>
        <path class="cls-26" d="M3404.83,1298.5a7.9,7.9,0,0,0-8.18-1.18c-3.3,1.44-3.81,4.94-2.4,8.94,0,0-4,11.1,4.91,11.43,8.55.32,7.06-5,7.06-5"/>
        <path class="cls-28" d="M3402.6,1314s.41-2.27-1.44-2.58a2.29,2.29,0,0,0-2.5,1.81s-3-.39-2-4.73"/>
        <path class="cls-28" d="M3402.61,1300.82s-6.57-2.36-5.69,4.27"/>
        <line class="cls-29" x1="3399.58" y1="1304.06" x2="3401.8" y2="1309.39"/>
        <path class="cls-26" d="M3459.33,1298.58c-1.16-1.61-.47-3.75.64-9,.79-3.81,1.15-6.57-.43-11.44-2.21-6.77-11.65-15.68-28.17-15.89-19.49-.25-29.08,12.55-30.14,18.48-.71,4-.21,5.14.06,8.64.22,3,1.29,7.14.17,8.42-2.54,2.94-2.92,6.57-3,9.65-.26,8.38,4.92,15.12,4.92,15.12l.88,10s.07,11.9,10.95,14.36c.93,1.74,3.5,4,10.58,4.14l7.4.14c7.25.13,9.86-2.14,10.79-3.86,10.38-2.18,11.12-14.14,11.12-14.14l1.06-9.67a26.75,26.75,0,0,0,5.44-13.71C3461.82,1306.38,3462,1302.23,3459.33,1298.58Z"/>
        <path class="cls-28" d="M3427.9,1308.59s-10.17,10-6.46,15.47c1.59,2.37,5.49,0,5.49,0a4.51,4.51,0,0,0,5.91.11s2.64,1.57,4.69-.33"/>
        <path class="cls-28" d="M3419.89,1333.3a14.16,14.16,0,0,0,20,.39l0,0"/>
        <path class="cls-26" d="M3401.46,1297.74c1.12-1.28.05-5.47-.17-8.42-.27-3.5-.77-4.66-.06-8.64,1.06-5.93,10.65-18.73,30.13-18.48,16.53.21,26,9.12,28.17,15.89,1.59,4.87,1.22,7.63.43,11.44l-1.17,6.46s-11-6.46-10.9-16.84l-33.85.21s-.53,7.24-2.86,11.12C3409,1294.06,3401.46,1297.74,3401.46,1297.74Z"/>
        <path class="cls-28" d="M3451.89,1307.7a8.66,8.66,0,0,0-17.31,0"/>
        <circle class="cls-30" cx="3442.99" cy="1306.8" r="2.31"/>
        <path class="cls-28" d="M3425.05,1307.7a8.65,8.65,0,0,0-17.29-.59h0a5.81,5.81,0,0,0,0,.59"/>
        <circle class="cls-30" cx="3416.15" cy="1306.8" r="2.31"/>
        <path class="cls-28" d="M3408.79,1293.56a22.78,22.78,0,0,1,7.52-1.06,29,29,0,0,1,7.52,1.06"/>
        <path class="cls-28" d="M3435.36,1293.56a22.91,22.91,0,0,1,7.53-1.06,29,29,0,0,1,7.52,1.06"/>
        <path class="cls-26" d="M3405.53,1352.23c-23.3,0-32,6.51-35.09,15.54-4,11.51-7.34,22.93-7.34,22.93l-9.43,36.1,156.61-.87-10.13-37.1s-4.73-14.32-6.88-19.17c-3.59-8.08-7.39-17.43-30.69-17.43h-16.8l-2.51,73.8H3421.1l-7-73.81Z"/>
        <polyline class="cls-26" points="3452.68 1352.01 3463.32 1371.14 3455.01 1385.25 3463.51 1398.2 3450.38 1425.83"/>
        <polyline class="cls-26" points="3408.05 1352.01 3397.43 1371.14 3405.72 1385.25 3397.22 1398.2 3410.36 1425.83"/>
      </g>
    </g>
    <circle class="cls-14" cx="3429.07" cy="1317.05" r="72.27"/>
    <rect class="cls-14" x="3542.35" y="1255.2" width="235" height="49"/>
    <rect class="cls-14" x="3542.35" y="1330.2" width="235" height="49"/>
    <circle cx="3568.35" cy="1280.2" r="8"/>
    <circle cx="3594.35" cy="1280.2" r="8"/>
    <circle cx="3618.35" cy="1280.2" r="8"/>
    <circle cx="3643.35" cy="1280.2" r="8"/>
    <circle cx="3669.35" cy="1280.2" r="8"/>
    <circle cx="3568.35" cy="1354.2" r="8"/>
    <circle cx="3594.35" cy="1354.2" r="8"/>
    <circle cx="3618.35" cy="1354.2" r="8"/>
    <circle cx="3643.35" cy="1354.2" r="8"/>
    <circle cx="3669.35" cy="1354.2" r="8"/>
    <circle cx="3693.35" cy="1354.2" r="8"/>
    <rect class="cls-23" x="1422.6" y="563.46" width="641.69" height="249.71"/>
    <circle class="cls-24" cx="1547.78" cy="687.35" r="99.73"/>
    <g class="cls-31">
      <g>
        <polygon class="cls-26" points="1572.64 754.8 1525.42 754 1527.12 735.6 1528.86 720.4 1568.45 719.87 1570.86 735.73 1572.64 754.8"/>
        <path class="cls-27" d="M1582.76,838h-62.47V742.8s15,5.18,29.73,5.18c16.64,0,32.74-5.18,32.74-5.18Z"/>
        <path class="cls-27" d="M1582.76,841.19h-62.47V750.62s15,5.63,29.73,5.63c16.64,0,32.74-5.63,32.74-5.63Z"/>
        <path class="cls-26" d="M1584.43,663.18a10.92,10.92,0,0,1,11.34-1.18c4.47,2.16,5,7,2.84,12.46,0,0,5,15.51-7.36,15.51-11.81,0-9.47-7.19-9.47-7.19"/>
        <path class="cls-28" d="M1586.68,684.63s-.44-3.15,2.14-3.48c1.37-.17,2.79.67,3.35,2.62,0,0,4.18-.38,3-6.41"/>
        <path class="cls-28" d="M1587.36,666.49s9.17-2.91,7.63,6.19"/>
        <line class="cls-29" x1="1591.37" y1="671.12" x2="1588.05" y2="678.36"/>
        <path class="cls-26" d="M1514.32,661.75a10.91,10.91,0,0,0-11.28-1.63c-4.57,2-5.26,6.83-3.32,12.34,0,0-5.54,15.32,6.77,15.78,11.81.44,9.74-6.83,9.74-6.83"/>
        <path class="cls-28" d="M1511.27,683.1s.56-3.13-2-3.55c-1.36-.23-2.81.56-3.45,2.49,0,0-4.17-.54-2.79-6.52"/>
        <path class="cls-28" d="M1511.27,665s-9.06-3.25-7.86,5.9"/>
        <line class="cls-29" x1="1507.08" y1="669.43" x2="1510.14" y2="676.79"/>
        <path class="cls-26" d="M1589.53,661.87c-1.6-2.23-.64-5.18.88-12.5,1.1-5.26,1.61-9.06-.58-15.78-3-9.35-16.08-21.64-38.88-21.93-26.9-.34-40.13,17.32-41.59,25.51-1,5.49-.29,7.09.07,11.91.31,4.08,1.78,9.86.25,11.63-3.51,4-4,9.07-4.16,13.32-.35,11.55,6.79,20.86,6.79,20.86l1.22,13.83s.1,16.41,15.11,19.81c1.28,2.4,4.83,5.53,14.6,5.71l10.21.19c10,.19,13.6-2.95,14.89-5.32,14.34-3,15.35-19.51,15.35-19.51l1.45-13.34s6.78-8.18,7.51-18.93C1593,672.62,1593.16,666.9,1589.53,661.87Z"/>
        <path class="cls-28" d="M1546.16,675.68s-14,13.73-8.93,21.34c2.2,3.27,7.58,0,7.58,0s4,3.62,8.17.15c0,0,3.66,2.17,6.47-.46"/>
        <path class="cls-28" d="M1535.1,709.77a19.56,19.56,0,0,0,27.66.54h0l0,0"/>
        <path class="cls-26" d="M1509.68,660.71c1.53-1.77.06-7.55-.25-11.63-.36-4.82-1-6.42-.07-11.91,1.46-8.19,14.69-25.85,41.59-25.51,22.8.29,35.83,12.58,38.88,21.93,2.19,6.72,1.68,10.52.58,15.78l-1.61,8.92s-15.2-8.92-15-23.24l-46.7.29s-.73,10-3.95,15.35C1520.14,655.63,1509.68,660.71,1509.68,660.71Z"/>
        <path class="cls-28" d="M1579.26,674.45a11.94,11.94,0,0,0-23.87,0"/>
        <circle class="cls-30" cx="1566.98" cy="673.21" r="3.19"/>
        <path class="cls-28" d="M1542.23,674.45a11.94,11.94,0,0,0-23.87,0"/>
        <circle class="cls-30" cx="1529.95" cy="673.21" r="3.19"/>
        <path class="cls-28" d="M1519.78,654.94a31.46,31.46,0,0,1,10.38-1.46,40.14,40.14,0,0,1,10.38,1.46"/>
        <path class="cls-28" d="M1556.47,654.94a31.46,31.46,0,0,1,10.38-1.46,40.14,40.14,0,0,1,10.38,1.46"/>
        <path class="cls-26" d="M1515.29,735.91c-32.17,0-44.12,9-48.44,21.43-5.5,15.89-10.11,31.65-10.11,31.65l-13,49.82,216.14-1.2-14-51.21s-6.54-19.75-9.5-26.44c-5-11.16-10.2-24.05-42.35-24.05h-23.19l-3.47,101.83h-30.6l-9.67-101.86Z"/>
        <polyline class="cls-26" points="1580.37 735.6 1595.04 762 1583.58 781.47 1595.31 799.34 1577.16 837.47"/>
        <polyline class="cls-26" points="1518.77 735.6 1504.11 762 1515.57 781.47 1503.84 799.34 1521.96 837.47"/>
      </g>
    </g>
    <circle class="cls-14" cx="1547.78" cy="687.35" r="99.73"/>
    <rect class="cls-14" x="1704.11" y="602" width="324.29" height="67.62"/>
    <rect class="cls-14" x="1704.11" y="705.5" width="324.29" height="67.62"/>
    <circle cx="1739.99" cy="636.5" r="11.04"/>
    <circle cx="1775.87" cy="636.5" r="11.04"/>
    <circle cx="1808.99" cy="636.5" r="11.04"/>
    <circle cx="1843.49" cy="636.5" r="11.04"/>
    <circle cx="1879.37" cy="636.5" r="11.04"/>
    <circle cx="1739.99" cy="738.62" r="11.04"/>
    <circle cx="1775.87" cy="738.62" r="11.04"/>
    <circle cx="1808.99" cy="738.62" r="11.04"/>
    <circle cx="1843.49" cy="738.62" r="11.04"/>
    <circle cx="1879.37" cy="738.62" r="11.04"/>
    <circle cx="1912.49" cy="738.62" r="11.04"/>
  </g>
</svg>
