<svg xmlns="http://www.w3.org/2000/svg" viewBox="0 0 4900 2751">
  <defs>
    <style>
      .cls-1 {
        fill: #10162f;
      }

      .cls-12, .cls-2 {
        fill: #fff;
      }

      .cls-3, .cls-7, .cls-8 {
        fill: none;
      }

      .cls-3 {
        stroke: #fff;
        stroke-width: 7px;
      }

      .cls-10, .cls-11, .cls-12, .cls-13, .cls-14, .cls-3, .cls-4, .cls-5, .cls-6, .cls-7, .cls-9 {
        stroke-linecap: round;
        stroke-linejoin: round;
      }

      .cls-4 {
        fill: #b2b2b2;
      }

      .cls-10, .cls-11, .cls-12, .cls-13, .cls-14, .cls-15, .cls-16, .cls-17, .cls-4, .cls-5, .cls-6, .cls-7, .cls-8, .cls-9 {
        stroke: #000;
      }

      .cls-10, .cls-11, .cls-12, .cls-13, .cls-14, .cls-15, .cls-16, .cls-4, .cls-5, .cls-6, .cls-7, .cls-8, .cls-9 {
        stroke-width: 6px;
      }

      .cls-15, .cls-5 {
        fill: #ff0a28;
      }

      .cls-6 {
        fill: #666;
      }

      .cls-15, .cls-16, .cls-8 {
        stroke-miterlimit: 10;
      }

      .cls-16, .cls-17, .cls-9 {
        fill: #00feb9;
      }

      .cls-10 {
        fill: #00f39e;
      }

      .cls-11 {
        fill: #e6e6e6;
      }

      .cls-13 {
        fill: #c9c9c9;
      }

      .cls-14 {
        fill: #ffd400;
      }

      .cls-17 {
        stroke-miterlimit: 10;
        stroke-width: 6px;
      }
    </style>
  </defs>
  <g id="Layer_2" data-name="Layer 2">
    <rect class="cls-1" width="4900" height="2751"/>
  </g>
  <g id="DOM">
    <path class="cls-2" d="M903.58,1931h15.15v48.37H929v4.13H903.66v-4.13H914v-44.24H903.58Z"/>
    <path class="cls-2" d="M943,1975.28a4.54,4.54,0,1,1-4.5,4.58A4.54,4.54,0,0,1,943,1975.28Z"/>
    <path class="cls-2" d="M978.36,1964.93l-6.15,18.53h-4.77l18.07-52.5h5.78l18.14,52.5h-5l-6.3-18.53Zm1.27-4h17.1l-8.4-25.35h-.22Z"/>
    <path class="cls-2" d="M1022.16,1936.44v13.94h8.17v3.83h-8.17v22.42c0,3.08,2.17,3.23,4.72,3.23a23.43,23.43,0,0,0,3.45-.23v3.83a48.29,48.29,0,0,1-5.1.3c-3.45,0-7.65-.9-7.65-7v-22.5h-5.7v-3.83h5.7v-13.94Z"/>
    <path class="cls-2" d="M1043.76,1936.44v13.94h8.17v3.83h-8.17v22.42c0,3.08,2.17,3.23,4.72,3.23a23.43,23.43,0,0,0,3.45-.23v3.83a48.29,48.29,0,0,1-5.1.3c-3.45,0-7.65-.9-7.65-7v-22.5h-5.74v-3.83h5.7v-13.94Z"/>
    <path class="cls-2" d="M1078.44,1960.58c0-5-3.9-7-8.32-7a18,18,0,0,0-10.2,3.6l-2.18-3.44a21.6,21.6,0,0,1,12.7-4.22c7.87,0,12.6,4.42,12.6,11.24v22.73h-4.6v-4.13c-1.87,3.3-6.37,5-10.35,5-7.2,0-12-4.2-12-10.13s4.35-9.71,11.22-9.71h8c2.32,0,3.22-1.2,3.22-3Zm0,11.1v-4.57c-.82,1-2.55,1.27-4.27,1.27H1068c-4.88,0-7.13,2.4-7.13,5.85,0,2.85,2.18,6.23,7.73,6.23C1073.68,1980.46,1078.44,1977.68,1078.44,1971.68Z"/>
    <path class="cls-2" d="M1108,1980.38a11.82,11.82,0,0,0,10.88-6.67l3.89,2.25a16.74,16.74,0,0,1-14.77,8.4c-9.52,0-17.1-7.28-17.1-17.4s7.58-17.47,17.1-17.47a16.71,16.71,0,0,1,14.77,8.39l-3.89,2.25a11.91,11.91,0,0,0-10.88-6.6c-7.35,0-12.45,5.85-12.45,13.43S1100.68,1980.38,1108,1980.38Z"/>
    <path class="cls-2" d="M1135.26,1963.21h4.27l12.75-12.83h6.16l-15.23,14.78,16,18.3h-6.07l-13.88-16.28h-4v16.28h-4.58V1931h4.58Z"/>
    <path class="cls-2" d="M1166,1968.31c.6,6.82,5.18,12,12.08,12a11.36,11.36,0,0,0,10.27-5.7h5.33a17,17,0,0,1-15.6,9.75c-9.53,0-16.8-7.28-16.8-17.4s7.27-17.47,16.72-17.47c8.63,0,16.65,6.07,16.65,18.67v.15Zm.15-3.75h23.4c-.52-6-5-11-11.55-11s-11,4.7-11.85,11Z"/>
    <path class="cls-2" d="M1219.25,1954.43H1217c-5.85,0-10,2.7-10,10.5v18.53h-4.56v-33.08h4.35V1956c1.88-4.43,6-6.23,10-6.23.75,0,1.57.08,2.47.16Z"/>
    <path class="cls-2" d="M1255.7,1974.68c0-3.3-2.7-4.72-7.42-6.45l-1.84-.71c-5-1.8-8.4-4.35-8.4-9.15,0-5.47,4.88-8.92,11.33-8.92a16.82,16.82,0,0,1,10.72,3.82l-2.47,3.45a15,15,0,0,0-8.4-3.3c-3.68,0-6.45,1.87-6.45,4.72,0,2.1,1.5,3.75,4.87,5l3.83,1.42c6.37,2.48,9,5.25,9,10.13,0,4.27-3.68,9.6-12.15,9.6a19.79,19.79,0,0,1-11.63-4.13l2.4-3.45a15.83,15.83,0,0,0,9.38,3.53C1252.93,1980.31,1255.7,1977.76,1255.7,1974.68Z"/>
    <path class="cls-2" d="M1271,1968.31c.6,6.82,5.18,12,12.08,12a11.36,11.36,0,0,0,10.27-5.7h5.33a17,17,0,0,1-15.6,9.75c-9.53,0-16.8-7.28-16.8-17.4s7.27-17.47,16.72-17.47c8.63,0,16.65,6.07,16.65,18.67v.15Zm.15-3.75h23.4c-.52-6-5-11-11.55-11s-11,4.7-11.85,11Z"/>
    <path class="cls-2" d="M1331.23,1961.71c0-5.33-3.45-8.18-8.18-8.18-4,0-7.87,2.18-11,5.85v24.08h-4.61v-33.08h4.5v4.73a15,15,0,0,1,11.85-5.62c7.73,0,12,4.72,12,12v22h-4.57Z"/>
    <path class="cls-2" d="M1373.15,1956.83V1931h4.58v52.5h-4.58v-6.3c-2,4.12-7,7.2-12.6,7.2-9.52,0-16.8-7.28-16.8-17.4s7.2-17.44,16.69-17.44C1366.1,1949.52,1371.2,1952.71,1373.15,1956.83Zm-12.3,23.55c7.35,0,12.53-5.85,12.53-13.42s-5.18-13.44-12.53-13.44-12.41,5.86-12.41,13.44,5.06,13.42,12.41,13.42Z"/>
    <path class="cls-2" d="M1404.44,1974.68c0-3.3-2.7-4.72-7.43-6.45l-1.87-.67c-5-1.8-8.4-4.35-8.4-9.15,0-5.47,4.87-8.92,11.32-8.92a16.87,16.87,0,0,1,10.73,3.82l-2.48,3.45a15,15,0,0,0-8.4-3.3c-3.67,0-6.45,1.87-6.45,4.72,0,2.1,1.5,3.75,4.88,5l3.82,1.42c6.38,2.48,9,5.25,9,10.13,0,4.27-3.67,9.6-12.15,9.6a19.73,19.73,0,0,1-11.62-4.13l2.4-3.45a15.82,15.82,0,0,0,9.37,3.53C1401.65,1980.31,1404.44,1977.76,1404.44,1974.68Z"/>
    <path class="cls-2" d="M1436.9,1983.46h-4.57V1931h4.57Z"/>
    <path class="cls-2" d="M1453.32,1983.46h-4.57v-29.25h-5.25v-3.83h9.82Zm-2.62-49a2.83,2.83,0,1,1-4,0,2.83,2.83,0,0,1,4,0h0Z"/>
    <path class="cls-2" d="M1487.75,1961.71c0-5.33-3.45-8.18-8.18-8.18-4,0-7.87,2.18-11,5.85v24.08H1464v-33.08h4.45v4.73a15,15,0,0,1,11.85-5.62c7.73,0,12,4.72,12,12v22h-4.57Z"/>
    <path class="cls-2" d="M1507.17,1963.21h4.27l12.75-12.83h6.15l-15.23,14.78,16.05,18.3h-6.07l-13.88-16.28h-4v16.28h-4.57V1931h4.57Z"/>
    <path class="cls-2" d="M1567.1,1980.38a11.81,11.81,0,0,0,10.87-6.67l3.9,2.25a16.74,16.74,0,0,1-14.77,8.4c-9.53,0-17.1-7.28-17.1-17.4s7.57-17.47,17.1-17.47a16.71,16.71,0,0,1,14.77,8.39l-3.9,2.25a11.86,11.86,0,0,0-10.87-6.6c-7.35,0-12.45,5.85-12.45,13.43S1559.75,1980.38,1567.1,1980.38Z"/>
    <path class="cls-2" d="M1604.07,1949.52a17.44,17.44,0,1,1-17.1,17.78V1967C1587,1956.83,1594.62,1949.52,1604.07,1949.52Zm0,4c-7.35,0-12.45,5.85-12.45,13.43s5.1,13.42,12.45,13.42,12.53-5.85,12.53-13.42S1611.5,1953.52,1604.07,1953.52Z"/>
    <path class="cls-2" d="M1653.27,1961.71c0-5.33-3.45-8.18-8.17-8.18-4,0-7.88,2.18-11,5.85v24.08h-4.57v-33.08h4.5v4.73a15,15,0,0,1,11.85-5.62c7.72,0,12,4.72,12,12v22h-4.58Z"/>
    <path class="cls-2" d="M1674.57,1936.44v13.94h8.18v3.83h-8.18v22.42c0,3.08,2.18,3.23,4.73,3.23a23.43,23.43,0,0,0,3.45-.23v3.83a48.29,48.29,0,0,1-5.1.3c-3.45,0-7.65-.9-7.65-7v-22.5h-5.7v-3.83h5.7v-13.94Z"/>
    <path class="cls-2" d="M1709.3,1960.58c0-5-3.9-7-8.33-7-4.12,0-7.42,1.73-10.2,3.6l-2.17-3.44a21.63,21.63,0,0,1,12.67-4.2c7.88,0,12.6,4.42,12.6,11.24v22.73h-4.57v-4.13c-1.88,3.3-6.38,5-10.35,5-7.2,0-12-4.2-12-10.13s4.35-9.67,11.17-9.67h8c2.33,0,3.23-1.2,3.23-3Zm0,11.1v-4.57c-.83,1-2.55,1.27-4.28,1.27h-6.15c-4.87,0-7.12,2.4-7.12,5.85,0,2.85,2.17,6.23,7.72,6.23C1704.5,1980.46,1709.3,1977.68,1709.3,1971.68Z"/>
    <path class="cls-2" d="M1729.92,1983.46h-4.57v-29.25h-5.25v-3.83h9.82Zm-2.62-49a2.83,2.83,0,1,1-4,0,2.83,2.83,0,0,1,4,0h0Z"/>
    <path class="cls-2" d="M1764.35,1961.71c0-5.33-3.45-8.18-8.18-8.18-4,0-7.87,2.18-11,5.85v24.08h-4.58v-33.08h4.5v4.73a15,15,0,0,1,11.85-5.62c7.73,0,12,4.72,12,12v22h-4.57Z"/>
    <path class="cls-2" d="M1785,1983.46h-4.53v-29.25h-5.25v-3.83H1785Zm-2.62-49a2.83,2.83,0,1,1-4,0,2.83,2.83,0,0,1,4,0h0Z"/>
    <path class="cls-2" d="M1819.44,1961.71c0-5.33-3.45-8.18-8.18-8.18-4,0-7.87,2.18-11,5.85v24.08h-4.58v-33.08h4.5v4.73a15,15,0,0,1,11.85-5.62c7.72,0,12,4.72,12,12v22h-4.59Z"/>
    <path class="cls-2" d="M1865.89,1986.91c0,5.4-2.47,9.67-9.74,9.67h-12.53v-3.82h12c3.15,0,5.7-1,5.7-4.8v-10.8c-2,4.12-7,7.2-12.6,7.2-9.52,0-16.8-7.28-16.8-17.4s7.2-17.47,16.65-17.47c5.7,0,10.8,3.22,12.75,7.34v-6.45h4.57Zm-4.42-20c0-7.58-5.1-13.43-12.45-13.43s-12.52,5.85-12.52,13.43,5.17,13.42,12.52,13.42,12.42-5.81,12.42-13.37Z"/>
    <path class="cls-2" d="M930,2052.76v20.7h-4.54v-22c0-5.1-3.15-8-7.88-8-3.9,0-7.42,2.18-10.57,5.85v24.08h-4.58v-33.08h4.5V2045c2.85-3.45,6.45-5.62,11.25-5.62,5.55,0,9.23,2.47,10.8,6.37,3.6-4.35,7.5-6.37,12.3-6.37,7.8,0,11.77,4.72,11.77,12v22h-4.59v-22c0-5.1-3.15-8-7.8-8-4,0-7.57,2.25-10.8,6C929.91,2050.58,930,2051.71,930,2052.76Z"/>
    <path class="cls-2" d="M982.86,2050.58c0-5-3.9-7-8.33-7-4.12,0-7.42,1.73-10.2,3.6l-2.17-3.44a21.63,21.63,0,0,1,12.67-4.2c7.88,0,12.6,4.42,12.6,11.24v22.73h-4.57v-4.13c-1.88,3.3-6.38,5-10.35,5-7.2,0-12-4.2-12-10.13s4.35-9.67,11.17-9.67h8c2.33,0,3.23-1.2,3.23-3Zm0,11.1v-4.57c-.83,1-2.55,1.27-4.28,1.27h-6.14c-4.87,0-7.12,2.4-7.12,5.85,0,2.85,2.17,6.23,7.72,6.23C978.06,2070.46,982.86,2067.68,982.86,2061.68Z"/>
    <path class="cls-2" d="M1002.28,2073.46h-4.57V2021h4.57Z"/>
    <path class="cls-2" d="M1018.71,2073.46h-4.58v-29.25h-5.25v-3.83h9.83Zm-2.63-49a2.83,2.83,0,1,1-.05,0h.05Z"/>
    <path class="cls-2" d="M1044.05,2070.38a11.82,11.82,0,0,0,10.88-6.67l3.9,2.25a16.76,16.76,0,0,1-14.78,8.4c-9.52,0-17.09-7.28-17.09-17.4s7.57-17.47,17.09-17.47a16.75,16.75,0,0,1,14.78,8.39l-3.9,2.25a11.91,11.91,0,0,0-10.88-6.6c-7.35,0-12.44,5.85-12.44,13.43S1036.7,2070.38,1044.05,2070.38Z"/>
    <path class="cls-2" d="M1072.44,2073.46h-4.58v-29.25h-5.25v-3.83h9.83Zm-2.63-49a2.83,2.83,0,1,1-4,0,2.83,2.83,0,0,1,4,0h.09Z"/>
    <path class="cls-2" d="M1097.83,2039.52a17.44,17.44,0,1,1-17.1,17.78V2057C1080.73,2046.83,1088.38,2039.52,1097.83,2039.52Zm0,4c-7.35,0-12.45,5.85-12.45,13.43s5.1,13.42,12.45,13.42,12.52-5.85,12.52-13.42S1105.25,2043.52,1097.83,2043.52Z"/>
    <path class="cls-2" d="M1122.8,2061.68v-21.3h4.58v20.85c0,6,4.12,9.08,9.6,9.08s9.6-3.08,9.6-9.08v-20.85h4.57v21.3c0,7-5,12.68-14.17,12.68S1122.8,2068.66,1122.8,2061.68Z"/>
    <path class="cls-2" d="M1177.44,2064.68c0-3.3-2.7-4.72-7.42-6.45l-1.88-.67c-5-1.8-8.4-4.35-8.4-9.15,0-5.47,4.88-8.92,11.33-8.92a16.82,16.82,0,0,1,10.72,3.82l-2.47,3.45a15,15,0,0,0-8.4-3.3c-3.68,0-6.45,1.87-6.45,4.72,0,2.1,1.5,3.75,4.87,5l3.83,1.42c6.37,2.48,9,5.25,9,10.13,0,4.27-3.68,9.6-12.15,9.6a19.79,19.79,0,0,1-11.63-4.13l2.4-3.45a15.83,15.83,0,0,0,9.38,3.53C1174.63,2070.31,1177.44,2067.76,1177.44,2064.68Z"/>
    <path class="cls-2" d="M1220,2070.38a11.82,11.82,0,0,0,10.88-6.67l3.9,2.25a16.76,16.76,0,0,1-14.78,8.4c-9.52,0-17.1-7.28-17.1-17.4s7.54-17.44,17.1-17.44a16.75,16.75,0,0,1,14.78,8.39l-3.9,2.25a11.91,11.91,0,0,0-10.88-6.6c-7.35,0-12.45,5.85-12.45,13.43S1212.65,2070.38,1220,2070.38Z"/>
    <path class="cls-2" d="M1257,2039.52a17.44,17.44,0,1,1-17.1,17.78V2057C1239.88,2046.83,1247.53,2039.52,1257,2039.52Zm0,4c-7.35,0-12.45,5.85-12.45,13.43s5.1,13.42,12.45,13.42,12.52-5.85,12.52-13.42S1264.44,2043.52,1257,2043.52Z"/>
    <path class="cls-2" d="M1309.44,2046.83V2021H1314v52.5h-4.58v-6.3c-2,4.12-7,7.2-12.6,7.2-9.52,0-16.79-7.28-16.79-17.4s7.2-17.47,16.64-17.47C1302.44,2039.52,1307.52,2042.71,1309.44,2046.83Zm-12.3,23.55c7.35,0,12.53-5.85,12.53-13.42s-5.15-13.44-12.5-13.44-12.44,5.85-12.44,13.43,5.09,13.43,12.44,13.43Z"/>
    <path class="cls-2" d="M1327.1,2058.31c.6,6.82,5.17,12,12.07,12a11.41,11.41,0,0,0,10.28-5.7h5.32a16.93,16.93,0,0,1-15.6,9.75c-9.52,0-16.8-7.28-16.8-17.4s7.28-17.47,16.73-17.47c8.62,0,16.65,6.07,16.65,18.67v.15Zm.15-3.75h23.4c-.53-6-5-11-11.55-11s-11,4.7-11.85,11Z"/>
    <path class="cls-2" d="M2100,1979.52s6.9-7.12,15.89-17.32c6.83-7.73,9.15-12.67,9.15-17.92,0-6-4.12-10.21-10.57-10.21-5.55,0-10.2,3.31-10.2,9.16a13.09,13.09,0,0,0,1.58,6l-4.35,1a16.64,16.64,0,0,1-1.73-7.13c0-7.95,6.75-13,14.85-13,8.7,0,15,5.47,15,14.1,0,5.25-2,11.25-11.63,21.75l-12.29,13.42h25.19v4.13H2100Z"/>
    <path class="cls-2" d="M2142.84,1975.28a4.54,4.54,0,1,1-4.5,4.58A4.54,4.54,0,0,1,2142.84,1975.28Z"/>
    <path class="cls-2" d="M2166.44,1931h5.17l15.9,47.77h.15l16-47.77h4.78l-18.08,52.5h-5.77Z"/>
    <path class="cls-2" d="M2220.84,1983.46h-4.58v-29.25H2211v-3.83h9.83Zm-2.63-49a2.83,2.83,0,1,1-.05,0h.05Z"/>
    <path class="cls-2" d="M2246.19,1980.38a11.81,11.81,0,0,0,10.87-6.67l3.9,2.25a16.74,16.74,0,0,1-14.77,8.4c-9.53,0-17.1-7.28-17.1-17.4s7.57-17.47,17.1-17.47a16.71,16.71,0,0,1,14.77,8.39l-3.9,2.25a11.86,11.86,0,0,0-10.87-6.6c-7.35,0-12.45,5.85-12.45,13.43S2238.84,1980.38,2246.19,1980.38Z"/>
    <path class="cls-2" d="M2275.29,1936.44v13.94h8.15v3.83h-8.17v22.42c0,3.08,2.17,3.23,4.72,3.23a23.43,23.43,0,0,0,3.45-.23v3.83a48.29,48.29,0,0,1-5.1.3c-3.45,0-7.65-.9-7.65-7v-22.5H2265v-3.83h5.7v-13.94Z"/>
    <path class="cls-2" d="M2296.21,1983.46h-4.57v-29.25h-5.2v-3.83h9.82Zm-2.62-49a2.83,2.83,0,1,1-.05,0h.05Z"/>
    <path class="cls-2" d="M2334.44,1962.76v20.7h-4.57v-22c0-5.1-3.15-8-7.88-8-3.9,0-7.42,2.18-10.57,5.85v24.08h-4.58v-33.08h4.5V1955c2.85-3.45,6.45-5.62,11.25-5.62,5.55,0,9.23,2.47,10.8,6.37,3.6-4.35,7.5-6.37,12.3-6.37,7.8,0,11.78,4.72,11.78,12v22h-4.58v-22c0-5.1-3.15-8-7.8-8-4,0-7.57,2.25-10.8,6A26.58,26.58,0,0,1,2334.44,1962.76Z"/>
    <path class="cls-2" d="M2397.44,1949.52a17.44,17.44,0,1,1-17.1,17.78V1967C2380.36,1956.83,2388,1949.52,2397.44,1949.52Zm0,4c-7.35,0-12.45,5.85-12.45,13.43s5.1,13.42,12.45,13.42S2410,1974.52,2410,1967,2404.89,1953.52,2397.44,1953.52Z"/>
    <path class="cls-2" d="M2427.44,1977.23v19.35h-4.57v-46.2h4.57v6.45c2-4.12,7-7.34,12.75-7.34,9.45,0,16.65,7.34,16.65,17.47s-7.27,17.4-16.8,17.4C2434.44,1984.36,2429.49,1981.28,2427.44,1977.23Zm12.3-23.7c-7.35,0-12.52,5.85-12.52,13.43s5.17,13.42,12.52,13.42,12.45-5.85,12.45-13.42-5.08-13.44-12.43-13.44Z"/>
    <path class="cls-2" d="M2467.59,1968.31c.6,6.82,5.17,12,12.07,12a11.36,11.36,0,0,0,10.27-5.7h5.33a17,17,0,0,1-15.6,9.75c-9.52,0-16.8-7.28-16.8-17.4s7.28-17.47,16.73-17.47c8.62,0,16.64,6.07,16.64,18.67v.15Zm.15-3.75h23.39c-.52-6-5-11-11.54-11s-11,4.7-11.85,11Z"/>
    <path class="cls-2" d="M2527.81,1961.71c0-5.33-3.45-8.18-8.18-8.18-4,0-7.87,2.18-11,5.85v24.08h-4.57v-33.08h4.49v4.73a15,15,0,0,1,11.85-5.62c7.73,0,12,4.72,12,12v22h-4.57Z"/>
    <path class="cls-2" d="M2558.71,1974.68c0-3.3-2.7-4.72-7.43-6.45l-1.84-.71c-5-1.8-8.4-4.35-8.4-9.15,0-5.47,4.87-8.92,11.32-8.92a16.87,16.87,0,0,1,10.73,3.82l-2.48,3.45a15,15,0,0,0-8.4-3.3c-3.67,0-6.44,1.87-6.44,4.72,0,2.1,1.5,3.75,4.87,5l3.82,1.42c6.38,2.48,9,5.25,9,10.13,0,4.27-3.67,9.6-12.15,9.6a19.73,19.73,0,0,1-11.62-4.13l2.4-3.45a15.82,15.82,0,0,0,9.37,3.53C2555.93,1980.31,2558.71,1977.76,2558.71,1974.68Z"/>
    <path class="cls-2" d="M2591.18,1983.46h-4.57V1931h4.57Z"/>
    <path class="cls-2" d="M2607.61,1983.46H2603v-29.25h-5.25v-3.83h9.83Zm-2.63-49a2.83,2.83,0,1,1-.05,0h.05Z"/>
    <path class="cls-2" d="M2642,1961.71c0-5.33-3.45-8.18-8.17-8.18-4,0-7.88,2.18-11,5.85v24.08h-4.57v-33.08h4.5v4.73a15,15,0,0,1,11.85-5.62c7.72,0,12,4.72,12,12v22h-4.58Z"/>
    <path class="cls-2" d="M2661.44,1963.21h4.27l12.75-12.83h6.15l-15.17,14.78,16,18.3h-6.08l-13.87-16.28h-4.1v16.28h-4.58V1931h4.58Z"/>
    <path class="cls-2" d="M3111.77,1962.91l18.6-32h7.35v32h8v4h-8v16.58h-4.58v-16.58h-21.37Zm4.5,0h16.87v-28.8h-.3Z"/>
    <path class="cls-2" d="M3156.44,1975.28a4.54,4.54,0,1,1-4.5,4.58A4.54,4.54,0,0,1,3156.44,1975.28Z"/>
    <path class="cls-2" d="M3212,1938.76c-2.63-2.25-7.28-4.65-11.63-4.65-5.47,0-10.8,2.92-10.8,8.78,0,3.44,2.25,6.6,7.65,9.37l5.48,2.85c8.17,4.27,12.15,8.77,12.15,15.15,0,7-5.78,14.1-16.35,14.1a22.89,22.89,0,0,1-15.68-6.08l2.63-3.52a18.75,18.75,0,0,0,13.35,5.55c7,0,11.32-4.88,11.32-9.75,0-5.4-3.37-8.18-10.27-11.78l-4.43-2.32c-6.82-3.6-10.5-7.43-10.5-13.43,0-8.17,7.13-13,15.38-13a23.53,23.53,0,0,1,14.25,5.1Z"/>
    <path class="cls-2" d="M3225.77,1968.31c.6,6.82,5.17,12,12.07,12a11.36,11.36,0,0,0,10.27-5.7h5.33a17,17,0,0,1-15.6,9.75c-9.52,0-16.8-7.28-16.8-17.4s7.28-17.47,16.73-17.47c8.62,0,16.64,6.07,16.64,18.67v.15Zm.15-3.75h23.39c-.52-6-5-11-11.54-11s-11,4.7-11.85,11Z"/>
    <path class="cls-2" d="M3279,1954.43h-2.25c-5.85,0-10.05,2.7-10.05,10.5v18.53h-4.5v-33.08h4.35V1956c1.88-4.43,6-6.23,10-6.23.75,0,1.57.08,2.47.16Z"/>
    <path class="cls-2" d="M3308.79,1950.38h5l-12.53,33.08h-6.15l-12.3-33.08H3288l10.27,29.33Z"/>
    <path class="cls-2" d="M3322.29,1968.31c.6,6.82,5.17,12,12.07,12a11.41,11.41,0,0,0,10.28-5.7H3350a16.93,16.93,0,0,1-15.6,9.75c-9.52,0-16.8-7.28-16.8-17.4s7.28-17.47,16.73-17.47c8.62,0,16.65,6.07,16.65,18.67v.15Zm.15-3.75h23.4c-.53-6-5-11-11.55-11s-11,4.7-11.85,11Z"/>
    <path class="cls-2" d="M3375.54,1954.43h-2.25c-5.85,0-10,2.7-10,10.5v18.53h-4.5v-33.08h4.35V1956c1.87-4.43,6-6.23,10-6.23.75,0,1.58.08,2.48.16Z"/>
    <path class="cls-2" d="M3412.74,1954.43h-2.25c-5.85,0-10,2.7-10,10.5v18.53h-4.5v-33.08h4.35V1956c1.87-4.43,6-6.23,10-6.23.75,0,1.58.08,2.48.16Z"/>
    <path class="cls-2" d="M3421.14,1968.31c.6,6.82,5.17,12,12.07,12a11.41,11.41,0,0,0,10.28-5.7h5.32a16.93,16.93,0,0,1-15.6,9.75c-9.52,0-16.8-7.28-16.8-17.4s7.28-17.47,16.73-17.47c8.62,0,16.65,6.07,16.65,18.67v.15Zm.15-3.75h23.4c-.53-6-5-11-11.55-11s-11,4.7-11.85,11Z"/>
    <path class="cls-2" d="M3473.64,1974.68c0-3.3-2.7-4.72-7.43-6.45l-1.87-.67c-5-1.8-8.4-4.35-8.4-9.15,0-5.47,4.87-8.92,11.32-8.92a16.87,16.87,0,0,1,10.73,3.82l-2.48,3.45a15,15,0,0,0-8.4-3.3c-3.67,0-6.45,1.87-6.45,4.72,0,2.1,1.5,3.75,4.88,5l3.82,1.42c6.38,2.48,9,5.25,9,10.13,0,4.27-3.67,9.6-12.15,9.6a19.76,19.76,0,0,1-11.62-4.13l2.4-3.45a15.82,15.82,0,0,0,9.37,3.53C3470.86,1980.31,3473.64,1977.76,3473.64,1974.68Z"/>
    <path class="cls-2" d="M3491.11,1977.23v19.35h-4.57v-46.2h4.57v6.45c1.95-4.12,7-7.34,12.75-7.34,9.45,0,16.65,7.34,16.65,17.47s-7.27,17.4-16.8,17.4C3498.09,1984.36,3493.14,1981.28,3491.11,1977.23Zm12.33-23.71c-7.35,0-12.52,5.85-12.52,13.43s5.17,13.42,12.52,13.42,12.45-5.85,12.45-13.42S3510.76,1953.52,3503.44,1953.52Z"/>
    <path class="cls-2" d="M3543.54,1949.52a17.44,17.44,0,1,1-17.1,17.78V1967C3526.44,1956.83,3534.09,1949.52,3543.54,1949.52Zm0,4c-7.35,0-12.45,5.85-12.45,13.43s5.1,13.42,12.45,13.42,12.52-5.85,12.52-13.42S3551,1953.52,3543.54,1953.52Z"/>
    <path class="cls-2" d="M3592.74,1961.71c0-5.33-3.45-8.18-8.18-8.18-4,0-7.87,2.18-11,5.85v24.08H3569v-33.08h4.5v4.73a15,15,0,0,1,11.85-5.62c7.73,0,12,4.72,12,12v22h-4.57Z"/>
    <path class="cls-2" d="M3634.66,1956.83V1931h4.58v52.5h-4.58v-6.3c-2,4.12-7,7.2-12.6,7.2-9.52,0-16.8-7.28-16.8-17.4s7.2-17.47,16.65-17.47C3627.61,1949.52,3632.71,1952.71,3634.66,1956.83Zm-12.3,23.55c7.35,0,12.53-5.85,12.53-13.42s-5.18-13.43-12.53-13.43-12.45,5.85-12.45,13.43S3615,1980.38,3622.36,1980.38Z"/>
    <path class="cls-2" d="M3665.94,1974.68c0-3.3-2.7-4.72-7.43-6.45l-1.87-.67c-5-1.8-8.4-4.35-8.4-9.15,0-5.47,4.87-8.92,11.32-8.92a16.87,16.87,0,0,1,10.73,3.82l-2.48,3.45a15,15,0,0,0-8.4-3.3c-3.67,0-6.45,1.87-6.45,4.72,0,2.1,1.5,3.75,4.88,5l3.82,1.42c6.38,2.48,9,5.25,9,10.13,0,4.27-3.67,9.6-12.15,9.6a19.76,19.76,0,0,1-11.62-4.13l2.4-3.45a15.82,15.82,0,0,0,9.37,3.53C3663.16,1980.31,3665.94,1977.76,3665.94,1974.68Z"/>
    <path class="cls-2" d="M3732.91,1950.38h5l-9.6,33.08h-6.23l-8.4-28.43-8.47,28.43H3699l-9.29-33.08h5.09l7.35,29.33,8.93-29.33h5.4l8.85,29.33Z"/>
    <path class="cls-2" d="M3751.44,1983.46h-4.57v-29.25h-5.25v-3.83h9.82Zm-2.62-49a2.83,2.83,0,1,1-.05,0h0Z"/>
    <path class="cls-2" d="M3768.53,1936.44v13.94h8.18v3.83h-8.18v22.42c0,3.08,2.18,3.23,4.73,3.23a23.43,23.43,0,0,0,3.45-.23v3.83a48.29,48.29,0,0,1-5.1.3c-3.45,0-7.65-.9-7.65-7v-22.5h-5.7v-3.83h5.7v-13.94Z"/>
    <path class="cls-2" d="M3807.44,1961.71c0-5.33-3.45-8.18-8.18-8.18-4,0-7.87,2.18-11,5.85v24.08h-4.58V1931h4.5v24.15a15,15,0,0,1,11.85-5.62c7.73,0,12,4.72,12,12v22h-4.59Z"/>
    <path class="cls-2" d="M3841.88,1977.23v19.35h-4.57v-46.2h4.57v6.45c1.95-4.12,7-7.34,12.75-7.34,9.45,0,16.65,7.34,16.65,17.47s-7.27,17.4-16.8,17.4C3848.86,1984.36,3843.91,1981.28,3841.88,1977.23Zm12.3-23.7c-7.35,0-12.52,5.85-12.52,13.43s5.17,13.42,12.52,13.42,12.45-5.85,12.45-13.42-5.1-13.44-12.45-13.44Z"/>
    <path class="cls-2" d="M3899.18,1960.58c0-5-3.9-7-8.32-7a18,18,0,0,0-10.2,3.6l-2.18-3.44a21.68,21.68,0,0,1,12.68-4.2c7.87,0,12.6,4.42,12.6,11.24v22.73h-4.58v-4.13c-1.87,3.3-6.37,5-10.35,5-7.2,0-12-4.2-12-10.13s4.35-9.67,11.18-9.67H3896c2.32,0,3.22-1.2,3.22-3Zm0,11.1v-4.57c-.82,1-2.55,1.27-4.27,1.27h-6.15c-4.88,0-7.13,2.4-7.13,5.85,0,2.85,2.18,6.23,7.73,6.23C3894.38,1980.46,3899.18,1977.68,3899.18,1971.68Z"/>
    <path class="cls-2" d="M3945.68,1986.91c0,5.4-2.47,9.67-9.75,9.67h-12.49v-3.82h12c3.15,0,5.7-1,5.7-4.8v-10.8c-2,4.12-7,7.2-12.6,7.2-9.53,0-16.8-7.28-16.8-17.4s7.2-17.47,16.65-17.47c5.7,0,10.8,3.22,12.75,7.34v-6.45h4.57Zm-4.42-20c0-7.58-5.1-13.43-12.45-13.43s-12.53,5.85-12.53,13.43,5.18,13.42,12.53,13.42,12.45-5.81,12.45-13.37Z"/>
    <path class="cls-2" d="M3958.73,1968.31c.6,6.82,5.18,12,12.08,12a11.36,11.36,0,0,0,10.27-5.7h5.36a17,17,0,0,1-15.6,9.75c-9.53,0-16.8-7.28-16.8-17.4s7.27-17.47,16.72-17.47c8.63,0,16.65,6.07,16.65,18.67v.15Zm.15-3.75h23.4c-.52-6-5-11-11.55-11s-11,4.7-11.85,11Z"/>
    <path class="cls-2" d="M2158.87,2114.32H2164l15.9,47.78h.15l16-47.78h4.73l-18.08,52.5H2177Z"/>
    <path class="cls-2" d="M2213.32,2166.82h-4.58v-29.25h-5.25v-3.82h9.83Zm-2.63-49.05a4,4,0,1,1-4,4A4,4,0,0,1,2210.69,2117.77Z"/>
    <path class="cls-2" d="M2238.67,2163.75a11.81,11.81,0,0,0,10.87-6.68l3.9,2.25a16.74,16.74,0,0,1-14.77,8.4c-9.53,0-17.1-7.27-17.1-17.4s7.57-17.47,17.1-17.47a16.72,16.72,0,0,1,14.77,8.4l-3.9,2.25a11.86,11.86,0,0,0-10.87-6.6c-7.35,0-12.45,5.85-12.45,13.42S2231.32,2163.75,2238.67,2163.75Z"/>
    <path class="cls-2" d="M2294.44,2166.82h-4.57v-29.25h-5.25v-3.82h9.82Zm-2.62-49.05a4,4,0,1,1-4,4,4,4,0,0,1,4-4Z"/>
    <path class="cls-2" d="M2332.67,2146.12v20.7h-4.57v-22c0-5.1-3.15-8-7.88-8-3.9,0-7.42,2.17-10.57,5.85v24.07h-4.58v-33.07h4.5v4.8c2.85-3.45,6.45-5.62,11.25-5.62,5.55,0,9.23,2.47,10.8,6.37,3.6-4.35,7.5-6.37,12.3-6.37,7.8,0,11.78,4.72,11.78,12v22h-4.58v-22c0-5.1-3.15-8-7.8-8-4,0-7.57,2.25-10.8,6C2332.6,2144,2332.67,2145.07,2332.67,2146.12Z"/>
    <path class="cls-2" d="M2369.72,2113.42a4.6,4.6,0,0,1,4.58,4.64h0a7.44,7.44,0,0,1-.75,2.85l-5,9.08h-4l3.45-7.65a4.47,4.47,0,0,1-2.85-4.28,4.61,4.61,0,0,1,4.57-4.65Z"/>
    <path class="cls-2" d="M2398.22,2158.05c0-3.3-2.7-4.73-7.42-6.45l-1.88-.68c-5-1.8-8.4-4.35-8.4-9.15,0-5.47,4.88-8.92,11.33-8.92a16.82,16.82,0,0,1,10.72,3.82l-2.47,3.45a15,15,0,0,0-8.4-3.3c-3.68,0-6.45,1.88-6.45,4.73,0,2.1,1.5,3.75,4.87,5L2394,2148c6.37,2.47,9,5.25,9,10.12,0,4.28-3.68,9.6-12.15,9.6a19.78,19.78,0,0,1-11.63-4.12l2.4-3.45a15.84,15.84,0,0,0,9.38,3.52C2395.44,2163.67,2398.22,2161.12,2398.22,2158.05Z"/>
    <path class="cls-2" d="M2436.2,2160.6v6.22h-4.57v-52.5h4.57v25.88c2-4.13,7-7.35,12.75-7.35,9.45,0,16.65,7.35,16.65,17.47s-7.27,17.4-16.8,17.4C2443.18,2167.72,2438.23,2164.65,2436.2,2160.6Zm12.3-23.7c-7.35,0-12.52,5.85-12.52,13.42s5.17,13.43,12.52,13.43,12.45-5.85,12.45-13.43S2455.85,2136.9,2448.5,2136.9Z"/>
    <path class="cls-2" d="M2490.73,2137.8h-2.29c-5.85,0-10,2.7-10,10.5v18.52h-4.5v-33.07h4.35v5.62c1.87-4.42,6-6.22,10-6.22.75,0,1.58.07,2.48.15Z"/>
    <path class="cls-2" d="M2511.44,2132.85a17.44,17.44,0,1,1-17.1,17.78v-.31C2494.33,2140.2,2502,2132.85,2511.44,2132.85Zm0,4.05c-7.35,0-12.45,5.85-12.45,13.42s5.1,13.43,12.45,13.43,12.52-5.85,12.52-13.43S2518.85,2136.9,2511.44,2136.9Z"/>
    <path class="cls-2" d="M2576.68,2133.75h5l-9.6,33.07h-6.23l-8.4-28.42-8.47,28.42h-6.23l-9.3-33.07h5.1l7.35,29.32,8.93-29.32h5.4l8.85,29.32Z"/>
    <path class="cls-2" d="M2605,2158.05c0-3.3-2.7-4.73-7.42-6.45l-1.88-.68c-5-1.8-8.4-4.35-8.4-9.15,0-5.47,4.88-8.92,11.33-8.92a16.82,16.82,0,0,1,10.72,3.82l-2.47,3.45a15,15,0,0,0-8.4-3.3c-3.68,0-6.45,1.88-6.45,4.73,0,2.1,1.5,3.75,4.87,5l3.83,1.43c6.37,2.47,9,5.25,9,10.12,0,4.28-3.68,9.6-12.15,9.6a19.78,19.78,0,0,1-11.63-4.12l2.4-3.45a15.84,15.84,0,0,0,9.38,3.52C2602.18,2163.67,2605,2161.12,2605,2158.05Z"/>
    <path class="cls-2" d="M2620.25,2151.67c.6,6.83,5.18,12,12.08,12a11.36,11.36,0,0,0,10.27-5.7h5.32a16.94,16.94,0,0,1-15.59,9.75c-9.53,0-16.8-7.27-16.8-17.4s7.27-17.47,16.72-17.47c8.63,0,16.65,6.07,16.65,18.67v.15Zm.15-3.75h23.4c-.53-6-5-11-11.55-11s-11,4.7-11.81,11Z"/>
    <path class="cls-2" d="M2673.5,2137.8h-2.25c-5.85,0-10,2.7-10,10.5v18.52h-4.5v-33.07h4.35v5.62c1.87-4.42,6-6.22,10-6.22.75,0,1.58.07,2.48.15Z"/>
    <path class="cls-2" d="M2710,2158.05c0-3.3-2.7-4.73-7.43-6.45l-1.87-.68c-5-1.8-8.4-4.35-8.4-9.15,0-5.47,4.88-8.92,11.33-8.92a16.82,16.82,0,0,1,10.72,3.82l-2.48,3.45a15,15,0,0,0-8.4-3.3c-3.67,0-6.44,1.88-6.44,4.73,0,2.1,1.5,3.75,4.87,5l3.82,1.43c6.38,2.47,9,5.25,9,10.12,0,4.28-3.67,9.6-12.15,9.6a19.84,19.84,0,0,1-11.62-4.12l2.4-3.45a15.88,15.88,0,0,0,9.37,3.52C2707.17,2163.67,2710,2161.12,2710,2158.05Z"/>
    <path class="cls-2" d="M2725.25,2151.67c.6,6.83,5.17,12,12.07,12a11.41,11.41,0,0,0,10.28-5.7h5.32a16.93,16.93,0,0,1-15.6,9.75c-9.52,0-16.8-7.27-16.8-17.4s7.28-17.47,16.73-17.47c8.62,0,16.65,6.07,16.65,18.67v.15Zm.15-3.75h23.4c-.53-6-5-11-11.55-11s-11,4.7-11.81,11Z"/>
    <path class="cls-2" d="M2785.44,2145.07c0-5.32-3.45-8.17-8.17-8.17-4,0-7.88,2.17-11,5.85v24.07h-4.57v-33.07h4.5v4.77a15,15,0,0,1,11.85-5.62c7.72,0,12,4.72,12,12v22h-4.61Z"/>
    <path class="cls-2" d="M2827.44,2140.2v-25.88H2832v52.5h-4.57v-6.3c-2,4.13-7,7.2-12.6,7.2-9.53,0-16.8-7.27-16.8-17.4s7.2-17.47,16.65-17.47C2820.35,2132.85,2825.44,2136.07,2827.44,2140.2Zm-12.3,23.55c7.35,0,12.52-5.85,12.52-13.43s-5.17-13.42-12.52-13.42-12.45,5.85-12.45,13.42,5.06,13.43,12.41,13.43Z"/>
    <path class="cls-2" d="M2858.67,2158.05c0-3.3-2.7-4.73-7.42-6.45l-1.88-.68c-5-1.8-8.4-4.35-8.4-9.15,0-5.47,4.88-8.92,11.33-8.92a16.82,16.82,0,0,1,10.72,3.82l-2.47,3.45a15,15,0,0,0-8.4-3.3c-3.68,0-6.45,1.88-6.45,4.73,0,2.1,1.5,3.75,4.87,5l3.83,1.43c6.37,2.47,9,5.25,9,10.12,0,4.28-3.68,9.6-12.15,9.6a19.8,19.8,0,0,1-11.63-4.12l2.4-3.45a15.87,15.87,0,0,0,9.38,3.52C2855.9,2163.67,2858.67,2161.12,2858.67,2158.05Z"/>
    <path class="cls-2" d="M2179.12,2227.8h-2.25c-5.85,0-10,2.7-10,10.5v18.52h-4.5v-33.07h4.35v5.62c1.87-4.42,6-6.22,10-6.22.75,0,1.58.07,2.48.15Z"/>
    <path class="cls-2" d="M2187.52,2241.67c.6,6.83,5.17,12,12.07,12a11.41,11.41,0,0,0,10.28-5.7h5.32a16.93,16.93,0,0,1-15.6,9.75c-9.52,0-16.8-7.27-16.8-17.4s7.28-17.47,16.73-17.47c8.62,0,16.65,6.07,16.65,18.67v.15Zm.15-3.75h23.4c-.53-6-5-11-11.55-11S2188.49,2231.62,2187.67,2237.92Z"/>
    <path class="cls-2" d="M2221.64,2240.32c0-10.12,7.2-17.47,16.65-17.47,5.7,0,10.8,3.22,12.75,7.35v-6.45h4.58V2270H2251V2250.6c-2,4.05-7,7.12-12.6,7.12C2228.92,2257.72,2221.64,2250.45,2221.64,2240.32Zm17.1,13.43c7.35,0,12.53-5.85,12.53-13.43s-5.18-13.42-12.53-13.42-12.45,5.85-12.45,13.42S2231.44,2253.75,2238.74,2253.75Z"/>
    <path class="cls-2" d="M2265.82,2245.05v-21.3h4.62v20.85c0,6,4.13,9.07,9.6,9.07s9.6-3.07,9.6-9.07v-20.85h4.58v21.3c0,7-5,12.67-14.18,12.67S2265.82,2252,2265.82,2245.05Z"/>
    <path class="cls-2" d="M2306.77,2241.67c.6,6.83,5.17,12,12.07,12a11.41,11.41,0,0,0,10.28-5.7h5.32a16.93,16.93,0,0,1-15.6,9.75c-9.52,0-16.8-7.27-16.8-17.4s7.28-17.47,16.73-17.47c8.62,0,16.65,6.07,16.65,18.67v.15Zm.15-3.75h23.4c-.53-6-5-11-11.55-11S2307.74,2231.62,2306.92,2237.92Z"/>
    <path class="cls-2" d="M2359.27,2248.05c0-3.3-2.7-4.73-7.43-6.45l-1.87-.68c-5-1.8-8.4-4.35-8.4-9.15,0-5.47,4.87-8.92,11.32-8.92a16.87,16.87,0,0,1,10.73,3.82l-2.48,3.45a15,15,0,0,0-8.4-3.3c-3.67,0-6.45,1.88-6.45,4.73,0,2.1,1.5,3.75,4.88,5L2355,2238c6.38,2.47,9,5.25,9,10.12,0,4.28-3.67,9.6-12.15,9.6a19.75,19.75,0,0,1-11.62-4.12l2.4-3.45a15.81,15.81,0,0,0,9.37,3.52C2356.49,2253.67,2359.27,2251.12,2359.27,2248.05Z"/>
    <path class="cls-2" d="M2378.62,2209.8v13.95h8.17v3.82h-8.17V2250c0,3.07,2.17,3.22,4.72,3.22a23.42,23.42,0,0,0,3.45-.22v3.82a48.29,48.29,0,0,1-5.1.3c-3.45,0-7.65-.9-7.65-7v-22.5h-5.7v-3.82h5.7v-14Z"/>
    <path class="cls-2" d="M2414.09,2209.8v13.95h8.17v3.82h-8.17V2250c0,3.07,2.17,3.22,4.72,3.22a23.42,23.42,0,0,0,3.45-.22v3.82a48.29,48.29,0,0,1-5.1.3c-3.45,0-7.65-.9-7.65-7v-22.5h-5.69v-3.82h5.69v-14Z"/>
    <path class="cls-2" d="M2269.53,2120.64v14h8.18v3.82h-8.18v22.42c0,3.08,2.18,3.23,4.73,3.23a23.43,23.43,0,0,0,3.45-.23v3.83a48.29,48.29,0,0,1-5.1.3c-3.45,0-7.65-.9-7.65-7.05v-22.5h-5.7v-3.82h5.7v-14Z"/>
    <path class="cls-2" d="M2443.64,2222.85a17.44,17.44,0,1,1-17.1,17.78v-.31C2426.54,2230.2,2434.19,2222.85,2443.64,2222.85Zm0,4.05c-7.35,0-12.45,5.85-12.45,13.42s5.1,13.43,12.45,13.43,12.52-5.85,12.52-13.43S2451.06,2226.9,2443.64,2226.9Z"/>
    <path class="cls-2" d="M2500.11,2248.05c0-3.3-2.7-4.73-7.42-6.45l-1.88-.68c-5-1.8-8.4-4.35-8.4-9.15,0-5.47,4.88-8.92,11.33-8.92a16.82,16.82,0,0,1,10.72,3.82l-2.47,3.45a15,15,0,0,0-8.4-3.3c-3.68,0-6.45,1.88-6.45,4.73,0,2.1,1.5,3.75,4.87,5l3.83,1.43c6.37,2.47,9,5.25,9,10.12,0,4.28-3.68,9.6-12.15,9.6a19.78,19.78,0,0,1-11.63-4.12l2.4-3.45a15.82,15.82,0,0,0,9.38,3.52C2497.34,2253.67,2500.11,2251.12,2500.11,2248.05Z"/>
    <path class="cls-2" d="M2515.44,2241.67c.6,6.83,5.18,12,12.08,12a11.36,11.36,0,0,0,10.27-5.7h5.33a17,17,0,0,1-15.6,9.75c-9.53,0-16.8-7.27-16.8-17.4s7.27-17.47,16.72-17.47c8.63,0,16.65,6.07,16.65,18.67v.15Zm.15-3.75H2539c-.52-6-5-11-11.55-11s-11,4.7-11.88,11Z"/>
    <path class="cls-2" d="M2568.66,2227.8h-2.22c-5.85,0-10,2.7-10,10.5v18.52h-4.5v-33.07h4.35v5.62c1.88-4.42,6-6.22,10-6.22.75,0,1.57.07,2.47.15Z"/>
    <path class="cls-2" d="M2598.44,2223.75h5l-12.53,33.07h-6.15l-12.3-33.07h5.18l10.27,29.32Z"/>
    <path class="cls-2" d="M2611.94,2241.67c.6,6.83,5.17,12,12.07,12a11.41,11.41,0,0,0,10.28-5.7h5.32a16.93,16.93,0,0,1-15.6,9.75c-9.52,0-16.8-7.27-16.8-17.4s7.28-17.47,16.73-17.47c8.62,0,16.65,6.07,16.65,18.67v.15Zm.15-3.75h23.4c-.53-6-5-11-11.55-11S2612.91,2231.62,2612.09,2237.92Z"/>
    <path class="cls-2" d="M2665.19,2227.8h-2.25c-5.85,0-10,2.7-10,10.5v18.52h-4.5v-33.07h4.35v5.62c1.87-4.42,6-6.22,10-6.22.75,0,1.58.07,2.48.15Z"/>
    <path class="cls-2" d="M2124.44,2151.15c0-8.18-4.87-11.7-12-11.7a31.45,31.45,0,0,0-4,.22v-3.37l15.45-17.85h-22.5v-4.13h27.05V2119l-14.54,16.73c8.7,0,15.29,5.92,15.29,15.45,0,11.4-7,16.57-15,16.57-7.65,0-14.4-4.87-14.4-14.1v-3.3h4.5l.07,2.85c.15,7.13,4.28,10.58,9.75,10.58C2120.34,2163.75,2124.44,2159.7,2124.44,2151.15Z"/>
    <path class="cls-2" d="M2142.24,2158.65a4.54,4.54,0,1,1-4.5,4.58h0A4.54,4.54,0,0,1,2142.24,2158.65Z"/>
    <path class="cls-2" d="M3129.38,2137.42c-4,0-6.37,1.28-8.1,2.93h-4.12v-26h26.17v4.13h-22v17.17h.23a15.13,15.13,0,0,1,8.32-2.4c9.9,0,15.07,7,15.07,16.88-.07,11.4-7.19,17.62-15.22,17.62-7.65,0-14.4-4.87-14.4-14.1v-3.3h4.5l.08,2.85c.15,7.13,4.35,10.58,9.75,10.58,6.22,0,10.49-5,10.57-13.5C3140.18,2142.6,3136.73,2137.42,3129.38,2137.42Z"/>
    <path class="cls-2" d="M3157.51,2158.65a4.54,4.54,0,1,1-4.5,4.58h0A4.54,4.54,0,0,1,3157.51,2158.65Z"/>
    <path class="cls-2" d="M3173.35,2114.32h5.18l15.9,47.78h.15l16.05-47.78h4.72l-18.07,52.5h-5.78Z"/>
    <path class="cls-2" d="M3227.8,2166.82h-4.57v-29.25H3218v-3.82h9.82Zm-2.62-49.05a4,4,0,1,1-4,4A4,4,0,0,1,3225.18,2117.77Z"/>
    <path class="cls-2" d="M3253.15,2163.75a11.83,11.83,0,0,0,10.88-6.68l3.9,2.25a16.76,16.76,0,0,1-14.78,8.4c-9.52,0-17.1-7.27-17.1-17.4s7.58-17.47,17.1-17.47a16.76,16.76,0,0,1,14.78,8.4l-3.9,2.25a11.89,11.89,0,0,0-10.88-6.6c-7.35,0-12.45,5.85-12.45,13.42S3245.8,2163.75,3253.15,2163.75Z"/>
    <path class="cls-2" d="M3282.25,2119.8v14h8.19v3.82h-8.18v22.43c0,3.07,2.18,3.22,4.73,3.22a23.42,23.42,0,0,0,3.45-.22v3.82a48.29,48.29,0,0,1-5.1.3c-3.45,0-7.65-.9-7.65-7v-22.5H3272v-3.82h5.7v-14Z"/>
    <path class="cls-2" d="M3303.18,2166.82h-4.58v-29.25h-5.25v-3.82h9.83Zm-2.63-49.05a4,4,0,1,1-4,4A4,4,0,0,1,3300.55,2117.77Z"/>
    <path class="cls-2" d="M3341.44,2146.12v20.7h-4.58v-22c0-5.1-3.15-8-7.87-8-3.9,0-7.43,2.17-10.58,5.85v24.07h-4.57v-33.07h4.5v4.8c2.85-3.45,6.45-5.62,11.25-5.62,5.55,0,9.22,2.47,10.8,6.37,3.6-4.35,7.49-6.37,12.29-6.37,7.8,0,11.78,4.72,11.78,12v22h-4.58v-22c0-5.1-3.15-8-7.79-8-4,0-7.58,2.25-10.8,6C3341.35,2144,3341.44,2145.07,3341.44,2146.12Z"/>
    <path class="cls-2" d="M3378.44,2113.42a4.61,4.61,0,0,1,4.57,4.65h0a7.27,7.27,0,0,1-.75,2.85l-5,9.08h-4l3.45-7.65a4.47,4.47,0,0,1-2.85-4.28,4.61,4.61,0,0,1,4.57-4.65h0Z"/>
    <path class="cls-2" d="M3407,2158.05c0-3.3-2.7-4.73-7.43-6.45l-1.87-.68c-5-1.8-8.4-4.35-8.4-9.15,0-5.47,4.87-8.92,11.32-8.92a16.87,16.87,0,0,1,10.73,3.82l-2.48,3.45a15,15,0,0,0-8.4-3.3c-3.67,0-6.45,1.88-6.45,4.73,0,2.1,1.5,3.75,4.88,5l3.82,1.43c6.38,2.47,9,5.25,9,10.12,0,4.28-3.67,9.6-12.15,9.6a19.77,19.77,0,0,1-11.62-4.12l2.4-3.45a15.88,15.88,0,0,0,9.37,3.52C3404.2,2163.67,3407,2161.12,3407,2158.05Z"/>
    <path class="cls-2" d="M3439.44,2160.6v6.22h-4.57v-52.5h4.57v25.88c1.95-4.13,7-7.35,12.75-7.35,9.45,0,16.65,7.35,16.65,17.47s-7.28,17.4-16.8,17.4C3446.44,2167.72,3441.44,2164.65,3439.44,2160.6Zm12.3-23.7c-7.35,0-12.52,5.85-12.52,13.42s5.17,13.43,12.52,13.43,12.45-5.85,12.45-13.43-5.09-13.42-12.44-13.42Z"/>
    <path class="cls-2" d="M3494,2137.8h-2.25c-5.85,0-10,2.7-10,10.5v18.52h-4.5v-33.07h4.35v5.62c1.88-4.42,6-6.22,10-6.22.75,0,1.57.07,2.47.15Z"/>
    <path class="cls-2" d="M3514.67,2132.85a17.44,17.44,0,0,1,0,34.87c-9.45,0-17.09-7.27-17.09-17.4S3505.22,2132.85,3514.67,2132.85Zm0,4.05c-7.35,0-12.44,5.85-12.44,13.42s5.09,13.43,12.44,13.43,12.53-5.85,12.53-13.43S3522.1,2136.9,3514.67,2136.9Z"/>
    <path class="cls-2" d="M3608.16,2158.05c0-3.3-2.7-4.73-7.43-6.45l-1.87-.68c-5-1.8-8.4-4.35-8.4-9.15,0-5.47,4.87-8.92,11.32-8.92a16.87,16.87,0,0,1,10.73,3.82l-2.48,3.45a15,15,0,0,0-8.4-3.3c-3.67,0-6.45,1.88-6.45,4.73,0,2.1,1.5,3.75,4.88,5l3.82,1.43c6.38,2.47,9,5.25,9,10.12,0,4.28-3.67,9.6-12.15,9.6a19.77,19.77,0,0,1-11.62-4.12l2.4-3.45a15.88,15.88,0,0,0,9.37,3.52C3605.38,2163.67,3608.16,2161.12,3608.16,2158.05Z"/>
    <path class="cls-2" d="M3578.86,2133.75h4.95l-9.6,33.07H3568l-8.4-28.42-8.47,28.42h-6.22l-9.3-33.07h5.1l7.34,29.32,8.93-29.32h5.4l8.85,29.32Z"/>
    <path class="cls-2" d="M3622,2151.67c.6,6.83,5.17,12,12.07,12a11.41,11.41,0,0,0,10.28-5.7h5.32a16.93,16.93,0,0,1-15.6,9.75c-9.52,0-16.79-7.27-16.79-17.4s7.27-17.47,16.72-17.47c8.62,0,16.65,6.07,16.65,18.67v.15Zm.15-3.75h23.4c-.53-6-5-11-11.55-11s-11,4.7-11.85,11Z"/>
    <path class="cls-2" d="M3675.22,2137.8H3673c-5.85,0-10,2.7-10,10.5v18.52h-4.48v-33.07h4.35v5.62c1.87-4.42,6-6.22,10-6.22.75,0,1.58.07,2.48.15Z"/>
    <path class="cls-2" d="M3701.87,2166.82h-4.57v-52.5h4.57Z"/>
    <path class="cls-2" d="M3727.22,2132.85a17.44,17.44,0,1,1-17.1,17.78v-.31C3710.12,2140.2,3717.77,2132.85,3727.22,2132.85Zm0,4.05c-7.35,0-12.45,5.85-12.45,13.42s5.1,13.43,12.45,13.43,12.53-5.85,12.53-13.43S3734.65,2136.9,3727.22,2136.9Z"/>
    <path class="cls-2" d="M3772.22,2144c0-5-3.9-7-8.32-7a17.93,17.93,0,0,0-10.2,3.6l-2.18-3.45a21.68,21.68,0,0,1,12.68-4.2c7.87,0,12.59,4.42,12.59,11.25v22.72h-4.57v-4.12c-1.87,3.3-6.37,5-10.35,5-7.2,0-12-4.2-12-10.12,0-6.08,4.35-9.68,11.18-9.68H3769c2.32,0,3.22-1.2,3.22-3Zm0,11.1v-4.53c-.83,1-2.55,1.28-4.27,1.28h-6.15c-4.88,0-7.13,2.4-7.13,5.85,0,2.85,2.18,6.22,7.73,6.22C3767.44,2163.82,3772.22,2161.05,3772.22,2155.05Z"/>
    <path class="cls-2" d="M3814.14,2140.2v-25.88h4.58v52.5h-4.58v-6.3c-2,4.13-7,7.2-12.6,7.2-9.52,0-16.79-7.27-16.79-17.4s7.2-17.47,16.64-17.47C3807.09,2132.85,3812.19,2136.07,3814.14,2140.2Zm-12.29,23.55c7.34,0,12.52-5.85,12.52-13.43s-5.18-13.42-12.52-13.42-12.45,5.85-12.45,13.42S3794.5,2163.75,3801.85,2163.75Z"/>
    <path class="cls-2" d="M3845.44,2158.05c0-3.3-2.7-4.73-7.42-6.45l-1.88-.68c-5-1.8-8.4-4.35-8.4-9.15,0-5.47,4.88-8.92,11.32-8.92a16.87,16.87,0,0,1,10.73,3.82l-2.48,3.45a15,15,0,0,0-8.4-3.3c-3.67,0-6.44,1.88-6.44,4.73,0,2.1,1.5,3.75,4.87,5l3.82,1.43c6.38,2.47,9,5.25,9,10.12,0,4.28-3.67,9.6-12.14,9.6a19.8,19.8,0,0,1-11.63-4.12l2.4-3.45a15.88,15.88,0,0,0,9.37,3.52C3842.64,2163.67,3845.44,2161.12,3845.44,2158.05Z"/>
    <path class="cls-2" d="M3894.44,2133.75h5l-12.52,33.07h-6.15l-12.3-33.07h5.17l10.28,29.32Z"/>
    <path class="cls-2" d="M3906.24,2155.05v-21.3h4.58v20.85c0,6,4.12,9.07,9.6,9.07s9.6-3.07,9.6-9.07v-20.85h4.57v21.3c0,7-5,12.67-14.17,12.67S3906.24,2162,3906.24,2155.05Z"/>
    <path class="cls-2" d="M3949.37,2166.82h-4.58v-52.5h4.58Z"/>
    <path class="cls-2" d="M3983.79,2145.07c0-5.32-3.45-8.17-8.17-8.17-4,0-7.88,2.17-11,5.85v24.07h-4.57v-33.07h4.5v4.77a15,15,0,0,1,11.85-5.62c7.72,0,12,4.72,12,12v22h-4.58Z"/>
    <path class="cls-2" d="M4001,2151.67c.6,6.83,5.18,12,12.08,12a11.36,11.36,0,0,0,10.27-5.7h5.33a17,17,0,0,1-15.6,9.75c-9.53,0-16.8-7.27-16.8-17.4s7.27-17.47,16.72-17.47c8.63,0,16.65,6.07,16.65,18.67v.15Zm.15-3.75h23.4c-.52-6-5-11-11.55-11s-11,4.7-11.85,11Z"/>
    <path class="cls-2" d="M4054.29,2137.8H4052c-5.85,0-10,2.7-10,10.5v18.52h-4.5v-33.07h4.35v5.62c1.88-4.42,6-6.22,10-6.22.75,0,1.57.07,2.47.15Z"/>
    <path class="cls-2" d="M4080.77,2144c0-5-3.9-7-8.33-7a18,18,0,0,0-10.2,3.6l-2.17-3.45a21.63,21.63,0,0,1,12.67-4.2c7.88,0,12.6,4.42,12.6,11.25v22.72h-4.57v-4.12c-1.88,3.3-6.38,5-10.35,5-7.2,0-12-4.2-12-10.12,0-6.08,4.35-9.68,11.17-9.68h7.95c2.33,0,3.23-1.2,3.23-3Zm0,11.1v-4.53c-.83,1-2.55,1.28-4.28,1.28h-6.15c-4.87,0-7.12,2.4-7.12,5.85,0,2.85,2.17,6.22,7.72,6.22C4076,2163.82,4080.77,2161.05,4080.77,2155.05Z"/>
    <path class="cls-2" d="M4100.19,2160.6v6.22h-4.57v-52.5h4.57v25.88c2-4.13,7.05-7.35,12.75-7.35,9.45,0,16.65,7.35,16.65,17.47s-7.27,17.4-16.8,17.4C4107.17,2167.72,4102.22,2164.65,4100.19,2160.6Zm12.3-23.7c-7.35,0-12.52,5.85-12.52,13.42s5.17,13.43,12.52,13.43,12.45-5.85,12.45-13.43S4119.84,2136.9,4112.49,2136.9Z"/>
    <path class="cls-2" d="M4142.49,2166.82h-4.57v-52.5h4.57Z"/>
    <path class="cls-2" d="M4155.54,2151.67c.6,6.83,5.18,12,12.08,12a11.36,11.36,0,0,0,10.27-5.7h5.32a16.94,16.94,0,0,1-15.59,9.75c-9.53,0-16.8-7.27-16.8-17.4s7.27-17.47,16.72-17.47c8.63,0,16.65,6.07,16.65,18.67v.15Zm.15-3.75h23.4c-.53-6-5-11-11.55-11s-11,4.7-11.85,11Z"/>
    <path class="cls-2" d="M3178.38,2236.35v4c0,7.5,3.75,13.43,12.75,13.43,8.85,0,12.75-5.93,12.75-13.43v-36h4.65v35.78c0,9.9-5.48,17.62-17.48,17.62s-17.32-7.65-17.32-17.55v-3.82Z"/>
    <path class="cls-2" d="M3238.9,2234c0-5-3.9-7-8.32-7a17.93,17.93,0,0,0-10.2,3.6l-2.18-3.45a21.68,21.68,0,0,1,12.68-4.2c7.87,0,12.6,4.42,12.6,11.25v22.72h-4.58v-4.12c-1.87,3.3-6.37,5-10.35,5-7.2,0-12-4.2-12-10.12,0-6.08,4.35-9.68,11.18-9.68h7.95c2.32,0,3.22-1.2,3.22-3Zm0,11.1v-4.53c-.82,1-2.55,1.28-4.27,1.28h-6.19c-4.88,0-7.13,2.4-7.13,5.85,0,2.85,2.18,6.22,7.73,6.22C3234.1,2253.82,3238.9,2251.05,3238.9,2245.05Z"/>
    <path class="cls-2" d="M3276,2223.75h5l-12.52,33.07h-6.15l-12.3-33.07h5.17l10.28,29.32Z"/>
    <path class="cls-2" d="M3306.93,2234c0-5-3.9-7-8.33-7a18,18,0,0,0-10.16,3.57l-2.18-3.45a21.63,21.63,0,0,1,12.67-4.2c7.88,0,12.6,4.42,12.6,11.25v22.72H3307v-4.12c-1.88,3.3-6.38,5-10.35,5-7.2,0-12-4.2-12-10.12,0-6.08,4.35-9.68,11.17-9.68h8c2.33,0,3.23-1.2,3.23-3Zm0,11.1v-4.53c-.83,1-2.55,1.28-4.28,1.28h-6.15c-4.87,0-7.12,2.4-7.12,5.85,0,2.85,2.17,6.22,7.72,6.22C3302.13,2253.82,3306.93,2251.05,3306.93,2245.05Z"/>
    <path class="cls-2" d="M3337.83,2248.05c0-3.3-2.7-4.73-7.43-6.45l-1.87-.68c-5-1.8-8.4-4.35-8.4-9.15,0-5.47,4.87-8.92,11.32-8.92a16.87,16.87,0,0,1,10.73,3.82l-2.48,3.45a15,15,0,0,0-8.4-3.3c-3.67,0-6.45,1.88-6.45,4.73,0,2.1,1.5,3.75,4.88,5l3.82,1.43c6.38,2.47,9,5.25,9,10.12,0,4.28-3.67,9.6-12.15,9.6a19.77,19.77,0,0,1-11.62-4.12l2.4-3.45a15.81,15.81,0,0,0,9.37,3.52C3335.05,2253.67,3337.83,2251.12,3337.83,2248.05Z"/>
    <path class="cls-2" d="M3365.44,2253.75a11.81,11.81,0,0,0,10.87-6.68l3.9,2.25a16.74,16.74,0,0,1-14.77,8.4c-9.53,0-17.1-7.27-17.1-17.4s7.57-17.47,17.1-17.47a16.74,16.74,0,0,1,14.77,8.4l-3.9,2.25a11.86,11.86,0,0,0-10.87-6.6c-7.35,0-12.45,5.85-12.45,13.42S3358.08,2253.75,3365.44,2253.75Z"/>
    <path class="cls-2" d="M3404.88,2227.8h-2.25c-5.85,0-10.05,2.7-10.05,10.5v18.52h-4.5v-33.07h4.36v5.62c1.87-4.42,6-6.22,10-6.22.75,0,1.58.07,2.48.15Z"/>
    <path class="cls-2" d="M3417.55,2256.82H3413v-29.25h-5.25v-3.82h9.82Zm-2.62-49.05a4,4,0,1,1-4,4A4,4,0,0,1,3414.93,2207.77Z"/>
    <path class="cls-2" d="M3432.78,2250.6V2270h-4.58v-46.2h4.58v6.45c1.95-4.13,7-7.35,12.75-7.35,9.45,0,16.65,7.35,16.65,17.47s-7.28,17.4-16.8,17.4C3439.75,2257.72,3434.8,2254.65,3432.78,2250.6Zm12.3-23.7c-7.35,0-12.53,5.85-12.53,13.42s5.18,13.43,12.53,13.43,12.45-5.85,12.45-13.43S3452.44,2226.9,3445.08,2226.9Z"/>
    <path class="cls-2" d="M3477,2209.8v13.95h8.18v3.82H3477V2250c0,3.07,2.18,3.22,4.73,3.22a23.42,23.42,0,0,0,3.45-.22v3.82a48.29,48.29,0,0,1-5.1.3c-3.45,0-7.65-.9-7.65-7v-22.5h-5.7v-3.82h5.7v-14Z"/>
    <path class="cls-2" d="M3526.68,2234c0-5-3.9-7-8.33-7a18,18,0,0,0-10.2,3.6l-2.17-3.45a21.63,21.63,0,0,1,12.67-4.2c7.88,0,12.6,4.42,12.6,11.25v22.72h-4.57v-4.12c-1.88,3.3-6.38,5-10.35,5-7.2,0-12-4.2-12-10.12,0-6.08,4.35-9.68,11.17-9.68h8c2.33,0,3.23-1.2,3.23-3Zm0,11.1v-4.53c-.83,1-2.55,1.28-4.28,1.28h-6.15c-4.87,0-7.12,2.4-7.12,5.85,0,2.85,2.17,6.22,7.72,6.22C3521.88,2253.82,3526.68,2251.05,3526.68,2245.05Z"/>
    <path class="cls-2" d="M3565.3,2235.07c0-5.32-3.45-8.17-8.17-8.17-4,0-7.88,2.17-11,5.85v24.07h-4.57v-33.07h4.5v4.77a15,15,0,0,1,11.84-5.62c7.73,0,12,4.72,12,12v22h-4.57Z"/>
    <path class="cls-2" d="M3607.22,2230.2v-25.88h4.58v52.5h-4.58v-6.3c-2,4.13-7,7.2-12.59,7.2-9.53,0-16.8-7.27-16.8-17.4s7.2-17.47,16.65-17.47C3600.18,2222.85,3605.27,2226.07,3607.22,2230.2Zm-12.29,23.55c7.34,0,12.52-5.85,12.52-13.43s-5.18-13.42-12.52-13.42-12.45,5.85-12.45,13.42S3587.58,2253.75,3594.93,2253.75Z"/>
    <path class="cls-2" d="M3639.85,2241.67c.6,6.83,5.18,12,12.07,12a11.41,11.41,0,0,0,10.28-5.7h5.32a16.93,16.93,0,0,1-15.6,9.75c-9.52,0-16.79-7.27-16.79-17.4s7.27-17.47,16.72-17.47c8.62,0,16.65,6.07,16.65,18.67v.15Zm.15-3.75h23.44c-.53-6-5-11-11.55-11s-11.06,4.7-11.89,11Z"/>
    <path class="cls-2" d="M3684.25,2240.52l-12.6-16.72h5.48l9.74,13.42,10-13.42H3702l-12.6,16.52,12.6,16.5h-5.6l-9.67-13.2-9.67,13.2h-5.48Z"/>
    <path class="cls-2" d="M3710,2241.67c.6,6.83,5.17,12,12.07,12a11.36,11.36,0,0,0,10.27-5.7h5.33a17,17,0,0,1-15.6,9.75c-9.53,0-16.8-7.27-16.8-17.4s7.27-17.47,16.72-17.47c8.63,0,16.65,6.07,16.65,18.67v.15Zm.14-3.75h23.4c-.52-6-5-11-11.55-11S3711,2231.62,3710.12,2237.92Z"/>
    <path class="cls-2" d="M3761.12,2253.75a11.83,11.83,0,0,0,10.88-6.68l3.9,2.25a16.76,16.76,0,0,1-14.78,8.4c-9.52,0-17.1-7.27-17.1-17.4s7.58-17.47,17.1-17.47a16.76,16.76,0,0,1,14.78,8.4l-3.9,2.25a11.89,11.89,0,0,0-10.88-6.6c-7.35,0-12.45,5.85-12.45,13.42S3753.77,2253.75,3761.12,2253.75Z"/>
    <path class="cls-2" d="M3783.32,2245.05v-21.3h4.58v20.85c0,6,4.12,9.07,9.6,9.07s9.6-3.07,9.6-9.07v-20.85h4.57v21.3c0,7-5,12.67-14.17,12.67S3783.32,2252,3783.32,2245.05Z"/>
    <path class="cls-2" d="M3828.32,2209.8v13.95h8.18v3.82h-8.18V2250c0,3.07,2.18,3.22,4.73,3.22a23.42,23.42,0,0,0,3.45-.22v3.82a48.29,48.29,0,0,1-5.1.3c-3.45,0-7.65-.9-7.65-7v-22.5h-5.7v-3.82h5.7v-14Z"/>
    <path class="cls-2" d="M3845.57,2241.67c.6,6.83,5.18,12,12.08,12a11.36,11.36,0,0,0,10.27-5.7h5.33a17,17,0,0,1-15.6,9.75c-9.53,0-16.8-7.27-16.8-17.4s7.27-17.47,16.72-17.47c8.63,0,16.65,6.07,16.65,18.67v.15Zm.15-3.75h23.4c-.52-6-5-11-11.55-11s-11,4.7-11.85,11Z"/>
    <path class="cls-2" d="M3898.07,2248.05c0-3.3-2.7-4.73-7.42-6.45l-1.88-.68c-5-1.8-8.4-4.35-8.4-9.15,0-5.47,4.88-8.92,11.33-8.92a16.82,16.82,0,0,1,10.72,3.82l-2.47,3.45a15,15,0,0,0-8.4-3.3c-3.68,0-6.45,1.88-6.45,4.73,0,2.1,1.5,3.75,4.87,5l3.83,1.43c6.37,2.47,9,5.25,9,10.12,0,4.28-3.68,9.6-12.15,9.6a19.8,19.8,0,0,1-11.63-4.12l2.4-3.45a15.87,15.87,0,0,0,9.38,3.52C3895.3,2253.67,3898.07,2251.12,3898.07,2248.05Z"/>
    <path class="cls-2" d="M3931.3,2209.8v13.95h8.14v3.82h-8.17V2250c0,3.07,2.17,3.22,4.72,3.22a23.42,23.42,0,0,0,3.45-.22v3.82a48.29,48.29,0,0,1-5.1.3c-3.45,0-7.65-.9-7.65-7v-22.5H3921v-3.82h5.7v-14Z"/>
    <path class="cls-2" d="M3970.22,2235.07c0-5.32-3.45-8.17-8.18-8.17-4,0-7.87,2.17-11,5.85v24.07h-4.6v-52.5h4.5v24.2a15,15,0,0,1,11.84-5.62c7.73,0,12,4.72,12,12v22h-4.57Z"/>
    <path class="cls-2" d="M3987.44,2241.67c.6,6.83,5.18,12,12.07,12a11.41,11.41,0,0,0,10.28-5.7h5.32a16.93,16.93,0,0,1-15.6,9.75c-9.52,0-16.79-7.27-16.79-17.4s7.27-17.47,16.72-17.47c8.62,0,16.65,6.07,16.65,18.67v.15Zm.15-3.75H4011c-.53-6-5-11-11.55-11s-11,4.7-11.82,11Z"/>
    <path class="cls-2" d="M3196.38,2324c0-5-3.9-7-8.33-7a18,18,0,0,0-10.2,3.6l-2.17-3.45a21.63,21.63,0,0,1,12.67-4.2c7.88,0,12.6,4.42,12.6,11.25v22.72h-4.57v-4.12c-1.88,3.3-6.38,5-10.35,5-7.2,0-12-4.2-12-10.12,0-6.08,4.35-9.68,11.17-9.68h8c2.33,0,3.23-1.2,3.23-3Zm0,11.1v-4.53c-.83,1-2.55,1.28-4.28,1.28H3186c-4.87,0-7.12,2.4-7.12,5.85,0,2.85,2.17,6.22,7.72,6.22C3191.58,2343.82,3196.38,2341.05,3196.38,2335.05Z"/>
    <path class="cls-2" d="M3217.68,2299.8v13.95h8.17v3.82h-8.17V2340c0,3.07,2.17,3.22,4.72,3.22a23.42,23.42,0,0,0,3.45-.22v3.82a48.29,48.29,0,0,1-5.1.3c-3.45,0-7.65-.9-7.65-7v-22.5h-5.66v-3.82h5.7v-14Z"/>
    <path class="cls-2" d="M3239.28,2299.8v13.95h8.16v3.82h-8.17V2340c0,3.07,2.17,3.22,4.72,3.22a23.42,23.42,0,0,0,3.45-.22v3.82a48.29,48.29,0,0,1-5.1.3c-3.45,0-7.65-.9-7.65-7v-22.5H3229v-3.82h5.7v-14Z"/>
    <path class="cls-2" d="M3274,2324c0-5-3.9-7-8.32-7a17.93,17.93,0,0,0-10.2,3.6l-2.18-3.45a21.68,21.68,0,0,1,12.68-4.2c7.87,0,12.6,4.42,12.6,11.25v22.72H3274v-4.12c-1.87,3.3-6.37,5-10.35,5-7.2,0-12-4.2-12-10.12,0-6.08,4.35-9.68,11.18-9.68h8c2.32,0,3.22-1.2,3.22-3Zm0,11.1v-4.53c-.82,1-2.55,1.28-4.27,1.28h-6.15c-4.88,0-7.13,2.4-7.13,5.85,0,2.85,2.18,6.22,7.73,6.22C3269.2,2343.82,3274,2341.05,3274,2335.05Z"/>
    <path class="cls-2" d="M3303.55,2343.75a11.83,11.83,0,0,0,10.88-6.68l3.9,2.25a16.76,16.76,0,0,1-14.78,8.4c-9.52,0-17.1-7.27-17.1-17.4s7.58-17.47,17.1-17.47a16.76,16.76,0,0,1,14.78,8.4l-3.89,2.27a11.89,11.89,0,0,0-10.88-6.6c-7.35,0-12.45,5.85-12.45,13.42S3296.2,2343.75,3303.55,2343.75Z"/>
    <path class="cls-2" d="M3330.78,2326.57h4.27l12.75-12.82H3354l-15.22,14.77,16.05,18.3h-6.08l-13.87-16.3h-4v16.27h-4.58v-52.5h4.58Z"/>
    <path class="cls-2" d="M3361.53,2331.67c.6,6.83,5.17,12,12.07,12a11.41,11.41,0,0,0,10.28-5.7h5.32a16.93,16.93,0,0,1-15.6,9.75c-9.52,0-16.8-7.27-16.8-17.4s7.28-17.47,16.73-17.47c8.62,0,16.65,6.07,16.65,18.67v.15Zm.15-3.75h23.4c-.53-6-5-11-11.55-11S3362.5,2321.62,3361.68,2327.92Z"/>
    <path class="cls-2" d="M3414.78,2317.8h-2.25c-5.85,0-10.05,2.7-10.05,10.5v18.52H3398v-33.07h4.35v5.62c1.87-4.42,6-6.22,10-6.22.75,0,1.57.07,2.48.15Z"/>
    <path class="cls-2" d="M3426.1,2293.42a4.6,4.6,0,0,1,4.58,4.64h0a7.44,7.44,0,0,1-.75,2.85L3425,2310h-4.05l3.45-7.65a4.47,4.47,0,0,1-2.85-4.28,4.61,4.61,0,0,1,4.57-4.65Z"/>
    <path class="cls-2" d="M3454.6,2338.05c0-3.3-2.7-4.73-7.43-6.45l-1.87-.68c-5-1.8-8.4-4.35-8.4-9.15,0-5.47,4.87-8.92,11.32-8.92a16.87,16.87,0,0,1,10.73,3.82l-2.48,3.45a15,15,0,0,0-8.4-3.3c-3.67,0-6.45,1.88-6.45,4.73,0,2.1,1.5,3.75,4.88,5l3.82,1.43c6.38,2.47,9,5.25,9,10.12,0,4.28-3.67,9.6-12.15,9.6a19.77,19.77,0,0,1-11.62-4.12l2.4-3.45a15.81,15.81,0,0,0,9.37,3.52C3451.82,2343.67,3454.6,2341.12,3454.6,2338.05Z"/>
    <path class="cls-2" d="M3487.07,2340.6V2360h-4.57v-46.2h4.57v6.45c1.95-4.13,7-7.35,12.75-7.35,9.45,0,16.65,7.35,16.65,17.47s-7.27,17.4-16.8,17.4C3494.05,2347.72,3489.1,2344.65,3487.07,2340.6Zm12.3-23.7c-7.35,0-12.52,5.85-12.52,13.42s5.17,13.43,12.52,13.43,12.45-5.85,12.45-13.43S3506.72,2316.9,3499.37,2316.9Z"/>
    <path class="cls-2" d="M3544.37,2324c0-5-3.9-7-8.32-7a17.93,17.93,0,0,0-10.2,3.6l-2.18-3.45a21.68,21.68,0,0,1,12.68-4.2c7.87,0,12.6,4.42,12.6,11.25v22.72h-4.58v-4.12c-1.87,3.3-6.37,5-10.35,5-7.2,0-12-4.2-12-10.12,0-6.08,4.35-9.68,11.18-9.68h8c2.32,0,3.22-1.2,3.22-3Zm0,11.1v-4.53c-.82,1-2.55,1.28-4.27,1.28H3534c-4.88,0-7.13,2.4-7.13,5.85,0,2.85,2.18,6.22,7.73,6.22C3539.57,2343.82,3544.37,2341.05,3544.37,2335.05Z"/>
    <path class="cls-2" d="M3569.27,2346.82h-1.65l-12.3-33.07h5.1l10.35,29.4,10.65-29.4h4.88l-14.78,38.92c-1.8,4.73-3.82,7.28-9.45,7.28h-3.82v-3.83H3562c3.3,0,4.42-1.72,5.7-5.1Z"/>
    <path class="cls-2" d="M3598.15,2346.82h-4.58v-52.5h4.58Z"/>
    <path class="cls-2" d="M3623.5,2312.85a17.44,17.44,0,1,1-17.1,17.78v-.31C3606.44,2320.2,3614.05,2312.85,3623.5,2312.85Zm0,4.05c-7.35,0-12.45,5.85-12.45,13.42s5.1,13.43,12.45,13.43,12.52-5.85,12.52-13.43S3630.92,2316.9,3623.5,2316.9Z"/>
    <path class="cls-2" d="M3668.5,2324c0-5-3.9-7-8.33-7a18,18,0,0,0-10.2,3.6l-2.17-3.45a21.63,21.63,0,0,1,12.67-4.2c7.88,0,12.6,4.42,12.6,11.25v22.72h-4.57v-4.12c-1.88,3.3-6.38,5-10.35,5-7.2,0-12-4.2-12-10.12,0-6.08,4.35-9.68,11.17-9.68h7.95c2.33,0,3.23-1.2,3.23-3Zm0,11.1v-4.53c-.83,1-2.55,1.28-4.28,1.28h-6.15c-4.87,0-7.12,2.4-7.12,5.85,0,2.85,2.17,6.22,7.72,6.22C3663.7,2343.82,3668.5,2341.05,3668.5,2335.05Z"/>
    <path class="cls-2" d="M3710.44,2320.2v-25.88H3715v52.5h-4.58v-6.3c-2,4.13-7,7.2-12.6,7.2-9.52,0-16.8-7.27-16.8-17.4s7.2-17.47,16.65-17.47C3703.37,2312.85,3708.44,2316.07,3710.44,2320.2Zm-12.3,23.55c7.35,0,12.53-5.85,12.53-13.43s-5.18-13.42-12.53-13.42-12.45,5.85-12.45,13.42,5.08,13.43,12.43,13.43Z"/>
    <g>
      <path class="cls-2" d="M2059.43,272.41H2031.6v-81.2h27.83c26.57,0,42.11,16.47,42.11,40.6S2086,272.41,2059.43,272.41Zm-.57-67.39h-11.14v53.7h11.14c14.85,0,26.21-8.7,26.21-26.91C2085.07,213.83,2073.71,205,2058.86,205Z"/>
      <path class="cls-2" d="M2194.11,231.81c0,24.48-18.9,42-42.45,42s-42.46-17.51-42.46-42,18.91-42,42.46-42S2194.11,207.34,2194.11,231.81Zm-16.82,0c0-15.54-10.32-27.14-25.63-27.14S2126,216.27,2126,231.81,2136.35,259,2151.66,259s25.59-11.6,25.59-27.15Z"/>
      <path class="cls-2" d="M2238,255l-16-40v57.42h-15.71V191.21H2229l17.75,46,18.09-46h21.68v81.2h-16V215L2255,255Z"/>
      <path class="cls-2" d="M2297.35,234.94h24.36V247.7h-24.36Z"/>
      <path class="cls-2" d="M2396.3,228.8V229c9.4,3.83,15.08,10.67,15.08,20.07,0,13-9.63,23.31-26.8,23.31H2355.7v-81.2h26.21c16.7,0,25,10.33,25,20.77A17.9,17.9,0,0,1,2396.3,228.8Zm-24.47-23.9V223h8.23c5.8,0,10.56-2.9,10.56-9.17s-5-8.93-10.56-8.93Zm0,53.94h8.35c9.74,0,14.38-4.52,14.38-11.14,0-6.84-5.68-10.32-13.57-10.32h-9.16Z"/>
      <path class="cls-2" d="M2450.82,237c0-3.83-3-6.26-8.82-6.26-5.33,0-12.07,2.67-16,5l-5.92-11.37a45.35,45.35,0,0,1,22.74-6.5c12.06,0,23.07,5.57,23.07,19.61v34.91h-15.07v-5c-2.79,4.18-8.82,6.38-14.85,6.38-11.25,0-18.57-8-18.57-16.7,0-10.09,7.44-16.36,19.26-16.36h10.44c2.55,0,3.71-1.16,3.71-3.13Zm0,16.36v-3.87c-.94.93-2.56,1.16-4.65,1.16h-5.68c-4.76,0-7.54,2.09-7.54,5.8s2.9,6.26,7.54,6.26C2446,262.78,2450.82,260,2450.82,253.39Z"/>
      <path class="cls-2" d="M2509.63,235.52a19.38,19.38,0,0,0-13.11-5.45c-3.94,0-5.33,2-5.33,3.6,0,1.85,1.16,3.13,3.94,4.06l8.82,2.78c10.9,3.6,14.6,9.51,14.6,16.47,0,7.78-6.6,16.82-21.1,16.82-11.71,0-19-4.52-23.44-8.35l8-10.44c3.83,3.6,10.69,6.61,15.66,6.61,3.6,0,5.81-1.85,5.81-3.94,0-2.67-1.74-3.83-6-5.1l-9-2.67c-8.58-2.79-12.3-8.59-12.3-15.55,0-8.7,7.9-16.47,20.66-16.47,7,0,15.18,2.09,21.45,7.89Z"/>
      <path class="cls-2" d="M2580.25,250.26H2540.7a12,12,0,0,0,12.18,10.67c4.41,0,8.58-1.86,10.67-5.45l15.66,1.62c-4.76,11.37-14.73,16.7-26.56,16.7-15.89,0-27.84-11.71-27.84-28s11.71-28,27.6-28c14.62,0,27.84,9.51,27.84,31.79Zm-39.9-10.1h23.78a11.53,11.53,0,0,0-11.72-9.74,11.83,11.83,0,0,0-12,9.74Z"/>
      <path class="cls-2" d="M2628.3,265.68c-2.67,4.41-8.94,8.12-16.59,8.12-14.62,0-25.75-11.71-25.75-28s11-28,25.63-28c8.12,0,14.27,3.71,16.94,8.24,0-1.74-.23-6.15-.23-10.09V191.21h15.08v81.2H2628.3Zm-26.8-19.83c0,8.12,5.57,14.61,13.57,14.61s13.56-6.49,13.56-14.61-5.56-14.5-13.56-14.5S2601.5,237.61,2601.5,245.85Z"/>
      <path class="cls-2" d="M2719,232l26.79,40.37h-18.9l-18-28.77-17.4,28.77h-18.56l26.44-41.06-25.28-40.14h18.79l16.93,28.42,16.94-28.42h18.33Z"/>
      <path class="cls-2" d="M2796,212.79c-5-4.87-11.48-8.35-17.17-8.35-5.33,0-10.2,2.78-10.2,7.65,0,3.71,2.32,6.61,8.81,9.63l6.73,3.13c12.88,6,20.65,12.76,20.65,24.94s-10.33,24-28.19,24c-12.3,0-21.46-4.75-29.11-12.18l8.93-12.06c6,6.15,13.67,9.63,19.83,9.63,7,0,11.25-3.83,11.25-8.82,0-5.57-5-8.7-12.76-12.29l-5.68-2.67c-10.9-5.11-17.75-12.53-17.75-22.74,0-14.26,12.76-22.85,27.15-22.85,9.38,0,19,4.64,26.79,11.37Z"/>
      <path class="cls-2" d="M2859.12,212.79c-5-4.87-11.48-8.35-17.15-8.35-5.35,0-10.21,2.78-10.21,7.65,0,3.71,2.32,6.61,8.82,9.63l6.72,3.13c12.87,6,20.65,12.76,20.65,24.94s-10.33,24-28.19,24c-12.29,0-21.46-4.75-29.12-12.18l8.93-12.06c6,6.15,13.69,9.63,19.84,9.63,7,0,11.25-3.83,11.25-8.82,0-5.57-5-8.7-12.76-12.29l-5.68-2.67c-10.9-5.11-17.74-12.53-17.74-22.74,0-14.26,12.76-22.85,27.13-22.85,9.39,0,19,4.64,26.79,11.37Z"/>
    </g>
    <path class="cls-2" d="M1291.36,1653.75h-11.25l-4.5-14.32h-15.82l-4.2,14.32h-10.95l16.95-52.49H1274Zm-23.62-41.23h-.15l-5.33,18H1273Z"/>
    <path class="cls-2" d="M1307.44,1606.36v13.05h7.43v8.25h-7.43v15.52c0,2.17,1.73,2.48,3.23,2.48s3-.08,4.5-.23v8.32s-4.73.45-7.58.45c-4.87,0-9.9-.82-9.9-7.72v-18.82h-5.4v-8.25h5.4v-13.05Z"/>
    <path class="cls-2" d="M1333.89,1606.36v13.05h7.42v8.25h-7.42v15.52c0,2.17,1.72,2.48,3.22,2.48s3-.08,4.5-.23v8.32s-4.72.45-7.57.45c-4.88,0-9.9-.82-9.9-7.72v-18.82h-5.4v-8.25h5.4v-13.05Z"/>
    <path class="cls-2" d="M1367.11,1630.88c0-2.47-1.95-4-5.7-4-3.45,0-7.8,1.73-10.35,3.23l-3.82-7.35a29.43,29.43,0,0,1,14.7-4.2c7.8,0,14.92,3.6,14.92,12.67v22.57h-9.75v-3.28c-1.8,2.7-5.7,4.12-9.6,4.12-7.27,0-12-5.17-12-10.8,0-6.52,4.8-10.57,12.45-10.57h6.75c1.65,0,2.4-.75,2.4-2Zm0,10.57V1639a4.22,4.22,0,0,1-3,.75h-3.67c-3.08,0-4.88,1.35-4.88,3.75s1.88,4,4.88,4C1364,1647.52,1367.11,1645.73,1367.11,1641.45Z"/>
    <path class="cls-2" d="M1392.44,1636.58c0,5.4,3.53,9.37,8.63,9.37a7.85,7.85,0,0,0,7.57-5.25l9.15,2.85c-2.25,6.83-9,11.1-16.8,11.1-10.2,0-18.3-7.57-18.3-18.07s8.1-18.07,18.3-18.07c7.8,0,14.55,4.35,16.8,11.17l-9.15,2.78a8,8,0,0,0-7.57-5.25C1396,1627.21,1392.44,1631.18,1392.44,1636.58Z"/>
    <path class="cls-2" d="M1433.26,1631.33h2.33l9.45-11.92h11.77l-13.27,15.75,13.65,18.59h-11.7l-9.9-14.17h-2.33v14.17h-9.67v-52.49h9.67Z"/>
    <path class="cls-2" d="M1493.56,1639.43H1468a8.15,8.15,0,0,0,14.77,3.37l10.12,1c-3.07,7.35-9.52,10.8-17.17,10.8-10.27,0-18-7.57-18-18.07s7.58-18.07,17.85-18.07c9.45,0,18,6.15,18,20.54Zm-25.8-6.52h15.37a7.44,7.44,0,0,0-7.57-6.3A7.66,7.66,0,0,0,1467.76,1632.91Z"/>
    <path class="cls-2" d="M1520.44,1629h-4.13c-5,0-7.2,2.32-7.2,8.32v16.42h-9.77v-34.34h9.44v5.47a9.05,9.05,0,0,1,8.93-5.92,11.12,11.12,0,0,1,2.7.3Z"/>
    <path class="cls-2" d="M2387.61,1601.26h11.55l11.92,38.92h.08l12.52-38.92h10.88l-17.78,52.49h-11.34Z"/>
    <path class="cls-2" d="M2450.31,1653.75h-9.75v-26.09h-4.8v-8.25h14.55Zm-5.32-52.49a6.28,6.28,0,0,1,6.29,6.27h0v0a6.26,6.26,0,1,1-6.29-6.3Z"/>
    <path class="cls-2" d="M2466.28,1636.58c0,5.4,3.53,9.37,8.63,9.37a7.85,7.85,0,0,0,7.57-5.25l9.15,2.85c-2.25,6.83-9,11.1-16.8,11.1-10.2,0-18.29-7.57-18.29-18.07s8.09-18.07,18.29-18.07c7.8,0,14.55,4.35,16.8,11.17l-9.15,2.78a8,8,0,0,0-7.57-5.25C2469.81,1627.21,2466.28,1631.18,2466.28,1636.58Z"/>
    <path class="cls-2" d="M2509.71,1606.36v13.05h7.42v8.25h-7.42v15.52c0,2.17,1.72,2.48,3.22,2.48s3-.08,4.5-.23v8.32s-4.72.45-7.57.45c-4.88,0-9.9-.82-9.9-7.72v-18.82h-5.4v-8.25h5.4v-13.05Z"/>
    <path class="cls-2" d="M2535.66,1653.75h-9.75v-26.09h-4.8v-8.25h14.55Zm-5.33-52.49a6.29,6.29,0,0,1,6.3,6.28h0v0a6.26,6.26,0,1,1-6.3-6.3Z"/>
    <path class="cls-2" d="M2589.21,1633.58c0-4.2-2.7-6-5.7-6-2.78,0-5.25,1.58-7.13,3.9v22.27h-9.75v-20.17c0-4.12-2.62-6-5.7-6a9.39,9.39,0,0,0-7.12,3.9v22.27h-9.75v-34.34h9.52v1.35c0,1.2-.15,2.7-.15,2.7a13.33,13.33,0,0,1,10.28-5c5.1,0,9.07,2.17,11,6.22a13.82,13.82,0,0,1,11.55-6.22c7.43,0,12.68,4.72,12.68,12.75v22.49h-9.75Z"/>
    <path class="cls-2" d="M3370.54,1601.26l10.05,37.57h.08l8.4-37.57h10.65l-12.83,52.49h-12.07l-9.9-37.72-9.68,37.72h-12.07l-13-52.49h11.27l8.1,37.57h.08l10.05-37.57Z"/>
    <path class="cls-2" d="M3435.94,1639.43h-25.57a8.16,8.16,0,0,0,14.77,3.38l10.13,1c-3.08,7.34-9.53,10.79-17.18,10.79-10.27,0-18-7.57-18-18.07s7.58-18.07,17.85-18.07c9.45,0,18,6.15,18,20.55Zm-25.8-6.52h15.38a7.45,7.45,0,0,0-7.58-6.3A7.66,7.66,0,0,0,3410.14,1632.91Z"/>
    <path class="cls-2" d="M3451.44,1653.75h-9.75v-52.49h9.75v17c0,2.25-.15,4.65-.15,5.62,1.65-2.92,5.7-5.32,10.87-5.32,9.45,0,16.65,7.57,16.65,18.07s-7.27,18.07-16.72,18.07c-4.88,0-8.93-2.32-10.65-5.24Zm-.23-17.17c0,5.25,3.6,9.45,8.78,9.45s8.77-4.2,8.77-9.45-3.6-9.37-8.77-9.37-8.75,4-8.75,9.37Z"/>
    <path class="cls-2" d="M3528.44,1615.21c-3.23-3.15-7.43-5.4-11.1-5.4-3.45,0-6.6,1.8-6.6,5,0,2.4,1.5,4.27,5.7,6.22l4.35,2c8.32,3.9,13.35,8.25,13.35,16.12s-6.68,15.52-18.23,15.52c-7.95,0-13.87-3.07-18.82-7.87l5.77-7.8c3.9,4,8.85,6.22,12.83,6.22,4.5,0,7.27-2.47,7.27-5.69,0-3.6-3.22-5.63-8.25-8l-3.67-1.73c-7-3.3-11.48-8.1-11.48-14.7,0-9.22,8.25-14.77,17.55-14.77,6.08,0,12.3,3,17.33,7.35Z"/>
    <path class="cls-2" d="M3574.17,1639.43h-25.58a8.16,8.16,0,0,0,14.78,3.38l10.12,1c-3.07,7.34-9.52,10.79-17.17,10.79-10.28,0-18-7.57-18-18.07s7.57-18.07,17.85-18.07c9.45,0,18,6.15,18,20.55Zm-25.8-6.52h15.37a7.45,7.45,0,0,0-7.57-6.3A7.65,7.65,0,0,0,3548.37,1632.91Z"/>
    <path class="cls-2" d="M3601,1629h-4.12c-4.95,0-7.2,2.32-7.2,8.32v16.42h-9.75v-34.34h9.5v5.47a9,9,0,0,1,8.92-5.92,11.12,11.12,0,0,1,2.7.3Z"/>
    <path class="cls-2" d="M3621.11,1643.26l7.8-23.85h10.28L3627,1653.75h-12.07l-11.7-34.34h10.57Z"/>
    <path class="cls-2" d="M3676.61,1639.43H3651a8.16,8.16,0,0,0,14.77,3.38l10.13,1c-3.08,7.34-9.53,10.79-17.18,10.79-10.27,0-18-7.57-18-18.07s7.58-18.07,17.85-18.07c9.45,0,18,6.15,18,20.55Zm-25.8-6.52h15.38a7.45,7.45,0,0,0-7.58-6.3,7.66,7.66,0,0,0-7.8,6.3Z"/>
    <path class="cls-2" d="M3703.44,1629h-4.12c-5,0-7.2,2.32-7.2,8.32v16.42h-9.68v-34.34h9.45v5.47a9,9,0,0,1,8.92-5.92,11.12,11.12,0,0,1,2.7.3Z"/>
    <line class="cls-3" x1="4332.36" y1="1782.08" x2="635.25" y2="1782.08"/>
    <polyline class="cls-3" points="2022.92 1111.03 2060.47 1148.48 2023.01 1186.03"/>
    <line class="cls-3" x1="2058.94" y1="1148.49" x2="1793.97" y2="1148.76"/>
    <polyline class="cls-3" points="3153.73 1111.03 3191.28 1148.48 3153.82 1186.03"/>
    <polyline class="cls-3" points="2951.22 1186.03 2913.67 1148.57 2951.13 1111.03"/>
    <line class="cls-3" x1="3189.75" y1="1148.49" x2="2924.78" y2="1148.76"/>
    <rect class="cls-4" x="1072.3" y="856.4" width="630" height="442"/>
    <polygon class="cls-4" points="1776.3 1417.22 988.3 1417.22 1072.3 1298.4 1702.3 1298.4 1776.3 1417.22"/>
    <rect class="cls-5" x="1105.3" y="886.57" width="565" height="381.66"/>
    <rect class="cls-4" x="988.3" y="1417.22" width="788" height="34.18"/>
    <polygon class="cls-6" points="1689.3 1378.4 1084.3 1378.4 1122.3 1313.4 1653.3 1313.4 1689.3 1378.4"/>
    <line class="cls-7" x1="1386.3" y1="1313.4" x2="1386.3" y2="1378.4"/>
    <line class="cls-7" x1="1554.3" y1="1313.4" x2="1569.3" y2="1378.4"/>
    <line class="cls-7" x1="1505.3" y1="1313.4" x2="1513.3" y2="1378.4"/>
    <line class="cls-7" x1="1446.3" y1="1313.4" x2="1450.3" y2="1378.4"/>
    <line class="cls-7" x1="1603.3" y1="1313.4" x2="1628.3" y2="1378.4"/>
    <line class="cls-7" x1="1220.3" y1="1313.4" x2="1205.3" y2="1378.4"/>
    <line class="cls-7" x1="1269.3" y1="1313.4" x2="1261.3" y2="1378.4"/>
    <line class="cls-7" x1="1328.3" y1="1313.4" x2="1324.3" y2="1378.4"/>
    <line class="cls-7" x1="1171.3" y1="1313.4" x2="1146.3" y2="1378.4"/>
    <line class="cls-7" x1="1117.3" y1="1325.4" x2="1657.3" y2="1325.4"/>
    <line class="cls-7" x1="1107.3" y1="1340.4" x2="1667.3" y2="1340.4"/>
    <line class="cls-7" x1="1097.3" y1="1357.4" x2="1676.3" y2="1357.4"/>
    <polygon class="cls-7" points="1577.3 1407.46 1198.3 1407.46 1203.3 1387.35 1572.23 1387.35 1577.3 1407.46"/>
    <path class="cls-7" d="M1295.28,1160.59a134.09,134.09,0,0,0,189.63.11h0l.11-.11"/>
    <circle class="cls-8" cx="1306.84" cy="1034.39" r="17.32"/>
    <circle class="cls-8" cx="1472.63" cy="1034.39" r="17.32"/>
    <line class="cls-7" x1="1471.15" y1="950.95" x2="1407.02" y2="1015.08"/>
    <line class="cls-7" x1="1315.54" y1="950.95" x2="1379.67" y2="1015.08"/>
    <rect class="cls-4" x="2180.82" y="856.05" width="630" height="442"/>
    <polygon class="cls-4" points="2884.82 1416.87 2096.82 1416.87 2180.82 1298.05 2810.82 1298.05 2884.82 1416.87"/>
    <rect class="cls-9" x="2213.82" y="886.22" width="565" height="381.66"/>
    <rect class="cls-4" x="2096.82" y="1416.87" width="788" height="34.18"/>
    <polygon class="cls-6" points="2797.82 1378.05 2192.82 1378.05 2230.82 1313.05 2761.82 1313.05 2797.82 1378.05"/>
    <line class="cls-7" x1="2494.82" y1="1313.05" x2="2494.82" y2="1378.05"/>
    <line class="cls-7" x1="2662.82" y1="1313.05" x2="2677.82" y2="1378.05"/>
    <line class="cls-7" x1="2613.82" y1="1313.05" x2="2621.82" y2="1378.05"/>
    <line class="cls-7" x1="2554.82" y1="1313.05" x2="2558.82" y2="1378.05"/>
    <line class="cls-7" x1="2711.82" y1="1313.05" x2="2736.82" y2="1378.05"/>
    <line class="cls-7" x1="2328.82" y1="1313.05" x2="2313.82" y2="1378.05"/>
    <line class="cls-7" x1="2377.82" y1="1313.05" x2="2369.82" y2="1378.05"/>
    <line class="cls-7" x1="2436.82" y1="1313.05" x2="2432.82" y2="1378.05"/>
    <line class="cls-7" x1="2279.82" y1="1313.05" x2="2254.82" y2="1378.05"/>
    <line class="cls-7" x1="2225.82" y1="1325.05" x2="2765.82" y2="1325.05"/>
    <line class="cls-7" x1="2215.82" y1="1340.05" x2="2775.82" y2="1340.05"/>
    <line class="cls-7" x1="2205.82" y1="1357.05" x2="2784.82" y2="1357.05"/>
    <polygon class="cls-7" points="2685.82 1407.1 2306.82 1407.1 2311.82 1386.99 2680.75 1386.99 2685.82 1407.1"/>
    <path class="cls-7" d="M2400.44,1139.52a142.13,142.13,0,0,0,201,.1l.1-.1"/>
    <circle class="cls-8" cx="2412.68" cy="1005.72" r="18.36"/>
    <circle class="cls-8" cx="2588.38" cy="1005.72" r="18.36"/>
    <rect class="cls-4" x="3290.37" y="932.13" width="410.71" height="173.24"/>
    <rect class="cls-4" x="3290.37" y="1105.37" width="410.71" height="173.24"/>
    <rect class="cls-4" x="3290.37" y="1278.61" width="410.71" height="173.24"/>
    <circle class="cls-10" cx="3348.25" cy="1020.94" r="18.01"/>
    <circle class="cls-10" cx="3402.55" cy="1020.94" r="18.01"/>
    <circle class="cls-10" cx="3455.3" cy="1020.94" r="18.01"/>
    <line class="cls-7" x1="3495.21" y1="1022.08" x2="3676.23" y2="1022.08"/>
    <circle class="cls-10" cx="3348.25" cy="1196.13" r="18.01"/>
    <circle class="cls-10" cx="3402.55" cy="1196.13" r="18.01"/>
    <circle class="cls-10" cx="3455.3" cy="1196.13" r="18.01"/>
    <line class="cls-7" x1="3495.21" y1="1197.26" x2="3676.23" y2="1197.26"/>
    <circle class="cls-10" cx="3348.25" cy="1366.45" r="18.01"/>
    <circle class="cls-10" cx="3402.55" cy="1366.45" r="18.01"/>
    <circle class="cls-10" cx="3455.3" cy="1366.45" r="18.01"/>
    <line class="cls-7" x1="3495.21" y1="1367.58" x2="3676.23" y2="1367.58"/>
    <polygon class="cls-11" points="3701.08 932.13 3290.37 932.13 3337.6 852.01 3644.18 852.01 3701.08 932.13"/>
    <path class="cls-3" d="M3490.63,794.66c-233.38-177.9-794-175.22-1003-15"/>
    <polyline class="cls-3" points="2549.81 790.58 2483.89 784.24 2490.23 718.31"/>
    <rect class="cls-12" x="2913.21" y="548.97" width="265.67" height="232.77"/>
    <rect class="cls-13" x="2913.14" y="547.52" width="265.73" height="31.14"/>
    <ellipse class="cls-14" cx="2951.99" cy="562.54" rx="6.87" ry="7.02"/>
    <ellipse class="cls-9" cx="2972.67" cy="562.54" rx="6.87" ry="7.02"/>
    <ellipse class="cls-15" cx="2930.95" cy="562.54" rx="6.87" ry="7.02"/>
    <path class="cls-16" d="M3095.69,640.33h19.54a2.95,2.95,0,0,0,.34-5.89,1.93,1.93,0,0,0-.34,0h-21"/>
    <path class="cls-16" d="M3098.84,633.28V613.74a3,3,0,0,0-5.89-.36h0a2,2,0,0,0,0,.35v21"/>
    <ellipse class="cls-17" cx="3087.19" cy="640.6" rx="17.3" ry="17.71" transform="translate(451.24 2370.6) rotate(-45)"/>
    <path class="cls-16" d="M3082.09,686.92a3.82,3.82,0,0,1,3.29-1.06l28,4.48,17.8-17.79a3.79,3.79,0,0,1,5.36,5.36l-19.1,19.17a3.82,3.82,0,0,1-3.29,1.06l-29.94-4.79a3.8,3.8,0,0,1-3.15-4.35A3.84,3.84,0,0,1,3082.09,686.92Z"/>
    <path class="cls-16" d="M3068,696.8h0a3.8,3.8,0,0,1,5.37.07l21.26,21.86a3.79,3.79,0,0,1,0,5.33l-34.14,34.13a3.79,3.79,0,1,1-5.36-5.36h0l31.49-31.49L3068,702.16A3.8,3.8,0,0,1,3068,696.8Z"/>
    <path class="cls-16" d="M3005.74,752.52a3.79,3.79,0,0,1,3.79-1c7.74,2.36,16.26,2.08,25.32-.84a56.92,56.92,0,0,0,10.25-4.47l4.5-26.43a3.79,3.79,0,0,1,7.48,1.27h0l-4.79,28.15a3.85,3.85,0,0,1-1.65,2.53,59.63,59.63,0,0,1-13.23,6.09c-10.49,3.43-20.9,3.76-30.09,1a3.79,3.79,0,0,1-1.58-6.31Z"/>
    <path class="cls-16" d="M3039.85,644.68a3.82,3.82,0,0,0,1.06-3.29l-4.48-28,17.79-17.79a3.79,3.79,0,1,0-5.29-5.44l-.07.07h0l-19.17,19.17a3.8,3.8,0,0,0-1.06,3.28l4.79,29.94a3.8,3.8,0,0,0,6.43,2.09Z"/>
    <path class="cls-16" d="M3030,658.75h0a3.79,3.79,0,0,0-.08-5.36h0L3008,632.13a3.81,3.81,0,0,0-5.33,0l-34.13,34.14a3.79,3.79,0,1,0,5.36,5.36l31.51-31.5,19.18,18.66A3.81,3.81,0,0,0,3030,658.75Z"/>
    <path class="cls-16" d="M2974.27,721a3.81,3.81,0,0,0,1-3.79c-2.36-7.75-2.07-16.27.84-25.33a57.23,57.23,0,0,1,4.47-10.25l26.43-4.5a3.79,3.79,0,0,0-1.27-7.48h0l-28.2,4.83a3.85,3.85,0,0,0-2.53,1.65,59.84,59.84,0,0,0-6.09,13.23c-3.43,10.49-3.76,20.9-1,30.09a3.79,3.79,0,0,0,4.72,2.53h0A3.87,3.87,0,0,0,2974.27,721Z"/>
    <path class="cls-16" d="M2996,677A38.94,38.94,0,0,0,3051.08,732l39.49-39.51c15.21-15.2,17.69-42.34,2.48-57.55s-42.34-12.72-57.55,2.48Z"/>
    <line class="cls-8" x1="3093.16" y1="689.6" x2="3037.77" y2="634.21"/>
    <line class="cls-8" x1="2996.74" y1="732.13" x2="3066.25" y2="662.62"/>
  </g>
</svg>
